<svg xmlns="http://www.w3.org/2000/svg" viewBox="0 0 1418.84 361.68"><defs><style>.cls-2{fill:#ffd600}.cls-3{fill:#005bbc}</style></defs><g id="Layer_2" data-name="Layer 2"><g id="Layer_1-2" data-name="Layer 1"><path d="M141.53 106.12h110.16v28.93h-78.33v30.79h69v28.94h-69v56h-31.83zm152.52 0h31.82v144.67h-31.82zm71.08 0h35.14L438.09 208l37.82-101.89h34.31l-58.49 145.7h-28.11zm182.87 0h109.15v28.32h-77.51v29.34h68.2v28.31h-68.2v30.38h78.54v28.32H548zm139.51 125.04l20-22.32c8.27 9.09 16.33 14.47 26.46 14.47 12 0 19.43-7.24 19.43-24v-93.19h32.7v94.66c0 17.15-5 30-13.64 38.64-8.89 8.89-21.91 13.44-37.62 13.44-22.52 0-37.4-9.92-47.33-21.7zm190.96-126.08h29.35l62 145.71h-33.28l-13.22-32.45h-61.18l-13.22 32.45h-32.45zM912 190.23l-19.22-46.91-19.22 46.91zm95.62-84.11h66.14c18.4 0 32.66 5.17 42.16 14.67 8.06 8.06 12.4 19.43 12.4 33.48 0 23.36-12.61 38-31 44.85l35.34 51.67h-37.2l-31.41-46.29h-24.6v46.29h-31.83zm64.08 70.27c15.5 0 24.38-8.27 24.38-20.88 0-13.64-9.5-20.67-25-20.67h-31.63v41.55zm90.91 53.32l18.81-22.53c13 10.75 26.66 17.57 43.2 17.57 13 0 20.87-5.17 20.87-14.05 0-8.06-5-12.2-29.15-18.4-29.13-7.44-47.94-15.5-47.94-44.64 0-26.25 21.08-43.61 50.63-43.61 21.08 0 39.07 6.62 53.74 18.39l-16.54 24c-12.81-8.89-25.42-14.26-37.61-14.26s-18.6 5.58-18.6 13c0 9.51 6.2 12.61 31.2 19 29.36 7.64 45.89 18.18 45.89 43.81 0 28.73-21.91 44.85-53.11 44.85a92.08 92.08 0 01-61.39-23.13z" fill="#fff"/><path class="cls-2" d="M49.86 311.81V49.86h44.21V0H.01v.03H0v361.65h94.11v-49.87H49.86z"/><path class="cls-3" d="M49.86 180.81V49.86h44.21V0H.01v.03H0v358.8-178.02h49.86z"/><path class="cls-2" d="M1368.98 311.81V49.86h-44.21V0h94.06v.03h.01v361.65h-94.11v-49.87h44.25z"/><path class="cls-3" d="M1368.98 180.81V49.86h-44.21V0h94.06v.03h.01v358.8-178.02h-49.86z"/></g></g></svg>