<svg width="351.7373779296875px" height="235.55509033203126px" xmlns="http://www.w3.org/2000/svg" viewBox="74.13131103515624 -42.77754516601563 351.7373779296875 235.55509033203126" style="background: none; --darkreader-inline-bgimage: none; --darkreader-inline-bgcolor: initial;" data-darkreader-inline-bgimage="" data-darkreader-inline-bgcolor="" preserveAspectRatio="xMidYMid"><defs><linearGradient id="editing-shadow-gradient1" x1="0" x2="0" y1="0" y2="1"><stop offset="0" stop-color="none" stop-opacity="0" data-darkreader-inline-stopcolor="" style="--darkreader-inline-stopcolor: none;"></stop><stop offset="0.2" stop-color="none" stop-opacity="0" data-darkreader-inline-stopcolor="" style="--darkreader-inline-stopcolor: none;"></stop><stop offset="1" stop-color="none" stop-opacity="1" data-darkreader-inline-stopcolor="" style="--darkreader-inline-stopcolor: none;"></stop></linearGradient><linearGradient id="editing-shadow-gradient2" x1="-0.4205048534524404" x2="1.4205048534524405" y1="0.10926887151072628" y2="0.8907311284892737"><stop offset="0" stop-color="#000000" data-darkreader-inline-stopcolor="" style="--darkreader-inline-stopcolor: #191919;"></stop><stop offset="1" stop-color="#000000" data-darkreader-inline-stopcolor="" style="--darkreader-inline-stopcolor: #191919;"></stop></linearGradient><filter id="editing-shadow" x="-100%" y="-100%" width="300%" height="300%"><feGaussianBlur stdDeviation="20"></feGaussianBlur><feComposite operator="in" in2="SourceGraphic"></feComposite><feGaussianBlur stdDeviation="10"></feGaussianBlur></filter></defs><g transform="translate(250,75)"><g transform="translate(-31.4, 10)"><g transform="skewX(45)"><g filter="url(#editing-shadow)"><g transform="translate(-43.815001010894775, 48.9900016784668)"><path d="M40.57-23.05L40.57 0L20.84 0L20.84 0Q13.80 0 10.35-2.42L10.35-2.42L10.35-2.42Q6.90-4.83 6.90-8.56L6.90-8.56L6.90-90.25L6.90-90.25Q6.90-93.56 9.80-95.77L9.80-95.77L9.80-95.77Q12.70-97.98 17.94-97.98L17.94-97.98L40.57-97.98L40.57-90.25L38.36-73.00L29.26-73.00L27.88-88.60L27.88-88.60Q27.88-89.84 26.22-89.84L26.22-89.84L20.42-89.84L20.42-89.84Q17.80-89.84 16.63-87.70L16.63-87.70L16.63-87.70Q15.46-85.56 15.46-82.94L15.46-82.94L15.46-82.94Q15.46-81.42 15.87-81.14L15.87-81.14L18.63-12.28L18.63-12.28Q18.22-12.14 18.22-11.87L18.22-11.87L18.22-11.87Q18.22-11.45 19.46-11.45L19.46-11.45L27.60-11.45L27.60-11.45Q29.26-11.45 29.26-12.28L29.26-12.28L32.02-23.05L40.57-23.05ZM80.73-97.98L79.49 0L54.51 0L49.54-23.74L60.44-26.50L61.13-7.45L69.97-6.76L69.97-85.01L67.48-91.63L67.48-97.98L80.73-97.98Z" fill="url(#editing-shadow-gradient1)"></path></g></g></g></g><g><g transform="translate(-43.815001010894775, 48.9900016784668)"><path d="M40.57-23.05L40.57 0L20.84 0L20.84 0Q13.80 0 10.35-2.42L10.35-2.42L10.35-2.42Q6.90-4.83 6.90-8.56L6.90-8.56L6.90-90.25L6.90-90.25Q6.90-93.56 9.80-95.77L9.80-95.77L9.80-95.77Q12.70-97.98 17.94-97.98L17.94-97.98L40.57-97.98L40.57-90.25L38.36-73.00L29.26-73.00L27.88-88.60L27.88-88.60Q27.88-89.84 26.22-89.84L26.22-89.84L20.42-89.84L20.42-89.84Q17.80-89.84 16.63-87.70L16.63-87.70L16.63-87.70Q15.46-85.56 15.46-82.94L15.46-82.94L15.46-82.94Q15.46-81.42 15.87-81.14L15.87-81.14L18.63-12.28L18.63-12.28Q18.22-12.14 18.22-11.87L18.22-11.87L18.22-11.87Q18.22-11.45 19.46-11.45L19.46-11.45L27.60-11.45L27.60-11.45Q29.26-11.45 29.26-12.28L29.26-12.28L32.02-23.05L40.57-23.05ZM80.73-97.98L79.49 0L54.51 0L49.54-23.74L60.44-26.50L61.13-7.45L69.97-6.76L69.97-85.01L67.48-91.63L67.48-97.98L80.73-97.98Z" fill="url(#editing-shadow-gradient2)"></path></g></g></g><style>text {
  font-size: 64px;
  font-family: Arial Black;
  dominant-baseline: central;
  text-anchor: middle;
}</style><style class="darkreader darkreader--sync" media="screen"></style></svg>