<svg xmlns="http://www.w3.org/2000/svg" width="149.999" height="146.245" viewBox="0 0 149.999 146.245">
  <g id="Browser" transform="translate(-118.405 -215.492)">
    <path id="Path_12429" data-name="Path 12429" d="M193.4,361.734q-31.133,0-62.268-.006a12.245,12.245,0,0,1-12.529-10.179,15.962,15.962,0,0,1-.194-2.97q-.014-59.953,0-119.907c0-8,5.15-13.167,13.171-13.17q61.819-.019,123.639,0c8.032,0,13.177,5.157,13.179,13.163q.011,60.028,0,120.056c0,7.777-5.243,13.007-13.024,13.011Q224.389,361.747,193.4,361.734ZM261.757,246.12h-1.988q-35.386,0-70.773.027a2.12,2.12,0,0,1-2.261-1.377c-3.5-7.139-7.093-14.231-10.628-21.353a1.732,1.732,0,0,0-1.761-1.214c-14.433.037-28.867.013-43.3.054a6.5,6.5,0,0,0-2.856.658c-2.383,1.226-3.157,3.358-3.156,5.959q.032,59.5.016,119c0,4.727,2.218,6.954,6.926,6.954H254.86c4.632,0,6.9-2.244,6.9-6.836q0-50.019,0-100.038Zm0-6.931c0-3.553-.132-6.886.035-10.2.189-3.772-2.361-6.834-6.817-6.812-23.334.117-46.668.055-70,.055H183.2c.341.7.567,1.184.808,1.66,2.309,4.568,4.663,9.112,6.9,13.715a2.437,2.437,0,0,0,2.579,1.623q33.135-.077,66.271-.037Z" transform="translate(0 0)" fill="#EE5353"/>
    <path id="Path_12432" data-name="Path 12432" d="M209.482,371.932c0-4.535.029-9.07-.022-13.605a2.936,2.936,0,0,1,1.107-2.464c7.321-6.451,14.579-12.958,21.914-19.4a4.106,4.106,0,0,1,2.43-.918q15.46-.092,30.921,0a4.123,4.123,0,0,1,2.45.877q11.116,9.754,22.091,19.635a2.882,2.882,0,0,1,.908,1.929q.088,13.886,0,27.772a2.891,2.891,0,0,1-.884,1.941q-10.982,9.972-22.089,19.834a3.852,3.852,0,0,1-2.288.883q-15.618.087-31.237,0a3.661,3.661,0,0,1-2.176-.79q-11.161-9.813-22.2-19.736a2.9,2.9,0,0,1-.886-1.938C209.447,381.284,209.482,376.607,209.482,371.932Zm74.725.081c0-3.786.043-7.574-.04-11.359a2.915,2.915,0,0,0-.889-1.927q-8.8-7.942-17.736-15.765a3.89,3.89,0,0,0-2.294-.867q-12.7-.092-25.4,0a3.892,3.892,0,0,0-2.3.85q-8.938,7.82-17.738,15.764a2.9,2.9,0,0,0-.927,1.918q-.1,11.359,0,22.719a2.89,2.89,0,0,0,.905,1.928q8.857,7.991,17.844,15.868a3.422,3.422,0,0,0,2.022.772q12.855.077,25.711,0a3.428,3.428,0,0,0,2.03-.756q8.982-7.879,17.841-15.871a3.1,3.1,0,0,0,.926-2.053C284.254,379.494,284.207,375.753,284.207,372.013Z" transform="translate(-56.996 -66.269)" fill="#EE5353"/>
    <path id="Path_12433" data-name="Path 12433" d="M202.369,257.8v6.327h-6.342V257.8Z" transform="translate(-46.629 -26.482)" fill="#EE5353"/>
    <path id="Path_12434" data-name="Path 12434" d="M237.674,257.764v6.359h-6.332v-6.359Z" transform="translate(-67.844 -26.46)" fill="#EE5353"/>
    <path id="Path_12435" data-name="Path 12435" d="M160.693,257.67h6.033v6.382h-6.033Z" transform="translate(-26.47 -26.401)" fill="#EE5353"/>
    <path id="Path_12437" data-name="Path 12437" d="M285.556,407.452l10.7,10.684-4.555,4.562L281.023,411.96l-10.48,10.594L266,418.041l10.412-10.375L265.852,397.11l4.7-4.68,10.488,10.509,10.8-10.85,4.512,4.568Z" transform="translate(-87.76 -105.065)" fill="#EE5353"/>
  </g>
</svg>
