<svg xmlns="http://www.w3.org/2000/svg" width="150" height="107.144" viewBox="0 0 150 107.144">
  <g id="Chat_Bot" data-name="Chat Bot" transform="translate(-138.691 -276.751)">
    <path id="Path_12439" data-name="Path 12439" d="M152.975,370.233c-2.316,2.339-4.958,3.481-8.212,2.639a7.879,7.879,0,0,1-6.022-7.532c-.06-7.308-.074-14.617.008-21.924a7.415,7.415,0,0,1,4.1-6.65,1.975,1.975,0,0,0,1.248-2.016q-.059-20.5,0-41a1.956,1.956,0,0,0-1.224-2.034A7.8,7.8,0,0,1,139,282.765a8.008,8.008,0,0,1,15.452-.219,7.723,7.723,0,0,1-3.64,9.037,2.445,2.445,0,0,0-1.4,2.609c.028,12.831.074,25.663-.033,38.494-.02,2.378.182,4.26,2.725,4.845,11.69-28.98,32.645-45.61,64.468-44.4,29.18,1.105,48.205,17.628,58.684,44.52a9.187,9.187,0,0,0,1.708-1.08,2.733,2.733,0,0,0,.963-1.614q.079-20.753,0-41.506a2.243,2.243,0,0,0-1.012-1.578,8.021,8.021,0,1,1,11.631-8.543,7.87,7.87,0,0,1-4.082,8.432,1.837,1.837,0,0,0-1.156,1.9q.043,20.586,0,41.172a1.853,1.853,0,0,0,1.162,1.9,7.678,7.678,0,0,1,4.2,7.1q.043,10.544,0,21.088a7.7,7.7,0,0,1-4.858,7.537c-3.244,1.417-6.209.729-8.786-1.677-.161-.151-.329-.3-.429-.385-1.685,2.009-3.207,4.14-5.044,5.952a24.9,24.9,0,0,1-17.9,7.481c-25.271.068-50.544.122-75.815-.019-9.435-.053-16.721-4.489-22-12.258C153.549,371.137,153.287,370.714,152.975,370.233Zm60.78,8.273c12.441,0,24.882.032,37.322-.009A21.4,21.4,0,0,0,272.6,356.718a58.961,58.961,0,0,0-6.741-26.987c-15.784-30.45-55.021-40.972-83.77-22.271-16.772,10.91-25.656,26.6-27.274,46.528-1.25,15.4,10.56,25.069,23.124,24.612C189.865,378.166,201.817,378.506,213.755,378.506Zm-69.682-24.1c0,3.4-.014,6.8.005,10.207.011,1.965,1.054,3.169,2.672,3.168s2.667-1.208,2.671-3.172q.022-10.207,0-20.414c0-1.964-1.056-3.168-2.675-3.167s-2.658,1.2-2.669,3.17C144.059,347.6,144.073,351,144.073,354.407Zm139.25,0c0-3.347.009-6.693,0-10.039-.008-2.109-1.007-3.337-2.673-3.339s-2.673,1.229-2.676,3.334q-.014,10.039,0,20.079c0,2.107,1.007,3.338,2.671,3.34s2.67-1.231,2.678-3.335C283.332,361.1,283.323,357.754,283.323,354.407ZM146.668,282.115a2.666,2.666,0,1,0,2.745,2.583A2.694,2.694,0,0,0,146.668,282.115Zm136.64,2.712a2.664,2.664,0,1,0-2.712,2.617A2.695,2.695,0,0,0,283.309,284.827Z" transform="translate(0 0)" fill="#FD9F43"/>
    <path id="Path_12445" data-name="Path 12445" d="M258.741,416.109c-9.064,0-18.13.065-27.193-.018-11.966-.11-21.2-7.474-20.768-16.436.381-7.943,9.271-14.851,19.882-14.942q28.127-.24,56.26,0c10.469.093,19.271,6.857,19.818,14.7.564,8.08-7.02,15.238-17.457,16.433a40.431,40.431,0,0,1-4.474.254C276.119,416.123,267.43,416.111,258.741,416.109Zm-.125-4.5v0c9.063,0,18.126.04,27.188-.012,8.335-.048,14.927-5.007,14.968-11.149.043-6.217-6.553-11.277-14.95-11.3-18.063-.046-36.126-.074-54.187.056a21.118,21.118,0,0,0-7.446,1.559c-5.891,2.384-8.6,7.529-6.975,12.379s7.488,8.395,14.214,8.444C240.49,411.659,249.553,411.609,258.615,411.609Z" transform="translate(-45.07 -55.527)" fill="#FD9F43"/>
    <path id="Path_12447" data-name="Path 12447" d="M260.221,415.558a6.739,6.739,0,1,1-6.584-6.822A6.769,6.769,0,0,1,260.221,415.558Zm-4.5-.018a2.237,2.237,0,1,0-2.3,2.17A2.264,2.264,0,0,0,255.719,415.54Z" transform="translate(-58.892 -71.401)" fill="#FD9F43"/>
    <path id="Path_12448" data-name="Path 12448" d="M344.211,415.446a6.738,6.738,0,1,1-6.7-6.711A6.769,6.769,0,0,1,344.211,415.446Zm-6.7-2.209a2.237,2.237,0,1,0,2.2,2.274A2.262,2.262,0,0,0,337.511,413.238Z" transform="translate(-104.67 -71.402)" fill="#FD9F43"/>
  </g>
</svg>
