<svg xmlns="http://www.w3.org/2000/svg" width="149.878" height="150" viewBox="0 0 149.878 150">
  <g id="Cross_Platform" data-name="Cross Platform" transform="translate(-149.904 -237.921)">
    <g id="Group_8586" data-name="Group 8586" transform="translate(149.904 237.921)">
      <path id="Path_12302" data-name="Path 12302" d="M197.291,312.921c-3.424,0-6.559.012-9.693,0-5.033-.024-8.277-3.16-8.295-8.071q-.038-10.27,0-20.54c.02-4.763,3.156-7.884,8.008-7.968,3.243-.056,6.488-.011,9.884-.011.037-.821.09-1.448.09-2.075.006-6.551-.012-13.1.008-19.655.029-9.975,6.854-16.66,17.032-16.668q25.613-.02,51.225,0c10.262.006,17.145,6.725,17.167,16.769.023,10.388.005,20.777.005,31.165v1.885l.622.261a19.8,19.8,0,0,0,1.676-3.031c.679-1.94,1.048-2.259,3.141-1.813a34.852,34.852,0,0,1,11.12,4.531c1.311.811,1.659,1.72.841,3.091-1.411,2.363-1.246,4.348.38,5.985s3.835,1.844,6.274.458a1.984,1.984,0,0,1,3.041.722,34.285,34.285,0,0,1,4.782,11.2c.348,1.5-.043,2.447-1.791,2.819a4.586,4.586,0,0,0-.031,9.072c1.7.361,2.186,1.284,1.83,2.813a34.468,34.468,0,0,1-4.778,11.2c-.847,1.288-1.806,1.5-3.186.668a4.7,4.7,0,0,0-6.111.508c-1.647,1.64-1.832,3.656-.423,5.98.823,1.357.529,2.286-.783,3.106a36.448,36.448,0,0,1-11.639,4.685c-1.494.327-2.172-.369-2.619-1.719a22.659,22.659,0,0,0-1.659-3.247l-.6.231c-.029.615-.081,1.231-.082,1.846-.006,8.145.038,16.291-.016,24.436-.052,7.942-4.968,14.16-12.556,15.9a20.39,20.39,0,0,1-4.484.447q-25.7.044-51.407.014c-10.071-.01-16.953-6.71-16.967-16.553q-.039-28.066-.008-56.132Zm3.649,43.422h78.1V344.665a4.23,4.23,0,0,0-3.253,3.536c-.288,1.374-1.008,2.144-2.524,1.819a35.855,35.855,0,0,1-11.8-4.763,1.919,1.919,0,0,1-.723-2.987c1.41-2.415,1.208-4.518-.49-6.119-1.668-1.572-3.762-1.745-6.13-.358a1.974,1.974,0,0,1-3.046-.693,33.939,33.939,0,0,1-4.8-11.192c-.347-1.5.033-2.481,1.763-2.855a4.582,4.582,0,0,0,.076-9.067c-1.868-.381-2.186-1.414-1.82-2.959a34.634,34.634,0,0,1,4.725-11.035c.846-1.3,1.811-1.507,3.186-.7,2.267,1.334,4.522,1.1,6.129-.483s1.81-3.7.437-5.987c-.809-1.347-.551-2.277.78-3.1a34.856,34.856,0,0,1,11.113-4.548c2.158-.467,2.569-.2,3.178,1.95a4.225,4.225,0,0,0,3.178,3.251V260.736H200.995v15.589h2.111c7.723,0,15.446-.025,23.168.011,5.179.024,8.3,3.125,8.321,8.209q.033,10,0,20.009c-.012,5.272-3.174,8.36-8.55,8.366q-11.584.013-23.169,0h-1.938Zm-.1,3.738c0,3.856-.022,7.563,0,11.271.057,7.921,5.315,13.052,13.4,13.08,5.188.018,10.377,0,15.566,0,12.066,0,24.133.021,36.2-.009,6.29-.016,11.718-3.686,12.614-9.347.775-4.892.509-9.941.706-15Zm63.669-70.241c1.327,3.68.968,6.827-1.68,9.447-2.715,2.686-6.033,2.834-9.725,1.664-.948,2.313-1.9,4.47-2.678,6.684a1.785,1.785,0,0,0,.611,1.608c6.061,3.677,6.071,10.86.012,14.549a1.676,1.676,0,0,0-.681,1.439c.836,2.311,1.825,4.568,2.744,6.793,8.422-1.891,13.181,2.418,11.706,10.191a1.4,1.4,0,0,0,.568,1.2c2.314,1.061,4.676,2.021,7.016,3.011,3.128-6.955,12.337-7.681,16.121-.034l7.766-3.186c-2.109-8.368,2.467-12.791,11.452-11.245.838-1.941,1.685-3.942,2.565-5.928.525-1.187.37-1.861-.952-2.617a7.967,7.967,0,0,1,.067-13.911c.444-.26.888-.519,1.557-.91l-3.269-7.623c-7.667,2.65-14.2-3.49-11.436-11.19l-7.832-3.135c-3.289,7.174-12.664,7.354-16.127.009Zm-81.614.414c0,5.262-.058,10.273.026,15.282a3.892,3.892,0,0,0,4.125,3.848q19.909.046,39.819,0c2.838-.01,4.479-2.238,3.894-5.2h-1.931c-4.163,0-8.326.014-12.489-.008-1.353-.007-3.086.287-3.057-1.765.026-1.9,1.667-1.673,2.976-1.68,3.559-.018,7.119-.007,10.678-.007h4.08c0-5.352,0-10.476,0-15.6,0-3.952-1.4-5.334-5.426-5.337q-13.123-.013-26.245,0c-3.922,0-7.843-.028-11.765.013-2.583.028-4.3,1.262-4.606,3.377a25.718,25.718,0,0,0-.029,3.567c2.283,0,4.387.011,6.49,0,1.229-.009,2.258.37,2.295,1.7.039,1.435-1,1.847-2.323,1.828C187.308,290.233,185.206,290.254,182.9,290.254Zm96.253-33.24c0-1.159.013-2.1,0-3.031a12.473,12.473,0,0,0-12.85-12.556q-26.312-.084-52.624,0A12.62,12.62,0,0,0,201.1,257.014Z" transform="translate(-167.757 -237.921)" fill="#5F27CD"/>
      <path id="Path_12303" data-name="Path 12303" d="M149.9,471.9a8.6,8.6,0,0,1,8.676-8.638A8.679,8.679,0,1,1,149.9,471.9Zm8.589-5.764a5.733,5.733,0,0,0-5.689,5.853,5.773,5.773,0,1,0,5.689-5.853Z" transform="translate(-149.904 -353.922)" fill="#5F27CD"/>
      <path id="Path_12304" data-name="Path 12304" d="M437.709,260.193a7.221,7.221,0,1,1-7.266,7.1A7.181,7.181,0,0,1,437.709,260.193Zm4.266,7.332a4.311,4.311,0,1,0-4.387,4.192A4.266,4.266,0,0,0,441.975,267.525Z" transform="translate(-295.005 -251.456)" fill="#5F27CD"/>
      <path id="Path_12305" data-name="Path 12305" d="M425.21,242.3a2.192,2.192,0,0,1-2.18-2.1,2.171,2.171,0,1,1,2.18,2.1Z" transform="translate(-290.5 -237.957)" fill="#5F27CD"/>
      <path id="Path_12306" data-name="Path 12306" d="M191.1,284.514a2.167,2.167,0,1,1-2.089-2.208A2.222,2.222,0,0,1,191.1,284.514Z" transform="translate(-172.305 -264.893)" fill="#5F27CD"/>
      <path id="Path_12307" data-name="Path 12307" d="M412.572,539.252a2.187,2.187,0,0,1-2.164,2.116,2.237,2.237,0,0,1-2.144-2.162,2.206,2.206,0,0,1,2.261-2.179A2.176,2.176,0,0,1,412.572,539.252Z" transform="translate(-281.528 -394.284)" fill="#5F27CD"/>
      <path id="Path_12308" data-name="Path 12308" d="M196.389,544.452a2.164,2.164,0,0,1,2.119,2.155,2.226,2.226,0,0,1-2.133,2.166,2.163,2.163,0,0,1-2.167-2.249A2.138,2.138,0,0,1,196.389,544.452Z" transform="translate(-176.826 -398.798)" fill="#5F27CD"/>
      <path id="Path_12309" data-name="Path 12309" d="M154.2,247.585a2.183,2.183,0,0,1-2.169,2.108,2.171,2.171,0,0,1,.121-4.341A2.2,2.2,0,0,1,154.2,247.585Z" transform="translate(-149.915 -242.436)" fill="#5F27CD"/>
      <path id="Path_12310" data-name="Path 12310" d="M157.883,413.762a2.127,2.127,0,1,1-2.1-2.153A2.074,2.074,0,0,1,157.883,413.762Z" transform="translate(-152.168 -329.089)" fill="#5F27CD"/>
      <path id="Path_12311" data-name="Path 12311" d="M440.03,315.619a2.128,2.128,0,1,1-2.141,2.113A2.081,2.081,0,0,1,440.03,315.619Z" transform="translate(-299.53 -278.704)" fill="#5F27CD"/>
      <path id="Path_12312" data-name="Path 12312" d="M453.231,472.73a2.128,2.128,0,1,1-2.182-2.086A2.083,2.083,0,0,1,453.231,472.73Z" transform="translate(-306.268 -360.073)" fill="#5F27CD"/>
      <path id="Path_12320" data-name="Path 12320" d="M250.032,425.434c-3.133,0-6.267,0-9.4,0-1.05,0-2.095-.1-2.076-1.454s1.079-1.436,2.118-1.436q9.474,0,18.947,0c.871,0,1.7.085,1.98,1.115.277,1.014-.4,1.748-1.728,1.759C256.593,425.451,253.313,425.433,250.032,425.434Z" transform="translate(-195.072 -335.003)" fill="#5F27CD"/>
      <path id="Path_12321" data-name="Path 12321" d="M249.992,440.19c-3.136,0-6.271-.01-9.406.006-1.087.006-2.067-.2-2.024-1.52.039-1.212.989-1.41,2.009-1.408q9.553.011,19.105,0c1.048,0,1.956.28,1.96,1.465s-.882,1.475-1.945,1.467C256.458,440.176,253.225,440.19,249.992,440.19Z" transform="translate(-195.076 -342.736)" fill="#5F27CD"/>
      <path id="Path_12322" data-name="Path 12322" d="M250,455.04c-3.183,0-6.368.054-9.548-.044a2.649,2.649,0,0,1-1.9-.967c-.6-.929.331-1.869,1.777-1.873,4.848-.013,9.7-.005,14.545-.006,1.616,0,3.232.022,4.848-.007,1.035-.018,1.805.359,1.8,1.447s-.824,1.451-1.826,1.45Q254.849,455.035,250,455.04Z" transform="translate(-194.972 -350.56)" fill="#5F27CD"/>
      <path id="Path_12323" data-name="Path 12323" d="M250.028,469.761q-4.773,0-9.545,0c-1.024,0-1.952-.207-1.937-1.453s.966-1.43,1.976-1.421c.343,0,.685,0,1.028,0h16.594c.588,0,1.175.005,1.762,0,.951,0,1.7.359,1.727,1.382.025,1.106-.745,1.488-1.766,1.486Q254.948,469.753,250.028,469.761Z" transform="translate(-195.068 -358.32)" fill="#5F27CD"/>
      <path id="Path_12324" data-name="Path 12324" d="M296.174,519.108a5.767,5.767,0,1,1-.093-11.534,5.767,5.767,0,1,1,.093,11.534Zm-.1-2.921a2.855,2.855,0,1,0,.193-5.707,2.856,2.856,0,1,0-.193,5.707Z" transform="translate(-222.854 -376.387)" fill="#5F27CD"/>
      <path id="Path_12325" data-name="Path 12325" d="M351.554,381.577a14.617,14.617,0,1,1,14.478,14.715A14.651,14.651,0,0,1,351.554,381.577Zm26.337.126a11.727,11.727,0,1,0-11.821,11.673A11.772,11.772,0,0,0,377.891,381.7Z" transform="translate(-247.064 -302.857)" fill="#5F27CD"/>
      <path id="Path_12326" data-name="Path 12326" d="M221.964,348.072c0-1.568-.039-3.136.012-4.7.046-1.437,1.044-2.064,2.3-1.373q4.178,2.3,8.263,4.77c1.233.744,1.212,1.919-.04,2.669q-4.091,2.452-8.269,4.76c-1.231.68-2.213.034-2.256-1.421C221.928,351.208,221.964,349.64,221.964,348.072ZM225,345.736v4.711l4.055-2.361Z" transform="translate(-187.338 -291.749)" fill="#5F27CD"/>
      <path id="Path_12327" data-name="Path 12327" d="M296.049,260.182c1.367,0,2.735.012,4.1,0,.984-.012,1.649.4,1.666,1.417s-.687,1.462-1.637,1.467c-2.783.016-5.567.023-8.35-.007-.944-.01-1.635-.469-1.593-1.508s.752-1.379,1.71-1.369C293.314,260.193,294.682,260.182,296.049,260.182Z" transform="translate(-222.808 -251.447)" fill="#5F27CD"/>
      <path id="Path_12331" data-name="Path 12331" d="M376.238,383.754a8.06,8.06,0,0,1,8.141,8.076,8.1,8.1,0,0,1-16.191.081A8.044,8.044,0,0,1,376.238,383.754Zm-5.139,8a5.182,5.182,0,1,0,5.294-5.123A5.207,5.207,0,0,0,371.1,391.754Z" transform="translate(-262.486 -313.136)" fill="#5F27CD"/>
    </g>
  </g>
</svg>
