<?xml version="1.0" encoding="utf-8"?>
<!-- Generator: Adobe Illustrator 17.0.0, SVG Export Plug-In . SVG Version: 6.00 Build 0)  -->
<!DOCTYPE svg PUBLIC "-//W3C//DTD SVG 1.1//EN" "http://www.w3.org/Graphics/SVG/1.1/DTD/svg11.dtd">
<svg version="1.1" id="Layer_1" xmlns="http://www.w3.org/2000/svg" xmlns:xlink="http://www.w3.org/1999/xlink" x="0px" y="0px"
	 width="170px" height="50px" viewBox="0 0 170 50" enable-background="new 0 0 170 50" xml:space="preserve">
<g id="Original_logo" display="none">
	<g id="G__x28_Bulb_x29_" display="inline">
		<path fill="#2D54A5" d="M18.872,2.003c-9.575,0-17.316,7.66-17.413,17.234C1.405,24.571,3.75,29.358,7.48,32.587
			c1.955,1.692,3.051,3.191,3.051,5.777c0,0.821,0.665,1.486,1.486,1.486h13.71c0.821,0,1.486-0.665,1.486-1.486v-0.001
			c0-2.603,1.126-4.1,3.089-5.809c3.666-3.192,5.984-7.894,5.984-13.137C36.285,9.799,28.489,2.003,18.872,2.003 M26.848,30.977
			c-1.232,0.851-2.606,1.512-4.082,1.936v-0.008c-1.237,0.356-2.543,0.548-3.895,0.548c-1.351,0-2.658-0.191-3.895-0.548v0.008
			c-1.475-0.424-2.85-1.085-4.082-1.936C7.23,28.443,4.83,24.212,4.83,19.421c0-7.755,6.286-14.04,14.04-14.04
			c0.107,0,0.213,0.001,0.32,0.004c0.036,0.001,0.071,0.002,0.106,0.003c0.07,0.002,0.141,0.004,0.211,0.007
			c0.043,0.002,0.086,0.005,0.129,0.007c0.062,0.003,0.124,0.007,0.186,0.011c0.047,0.003,0.093,0.007,0.139,0.01
			c0.058,0.004,0.116,0.009,0.174,0.014c0.048,0.004,0.097,0.009,0.145,0.014c0.055,0.006,0.11,0.011,0.165,0.017
			c0.05,0.006,0.1,0.011,0.15,0.018c0.053,0.006,0.105,0.013,0.157,0.02s0.103,0.014,0.155,0.022
			c0.05,0.007,0.099,0.015,0.149,0.023c0.053,0.008,0.107,0.017,0.16,0.026c0.046,0.008,0.092,0.016,0.137,0.024
			c0.057,0.01,0.113,0.02,0.169,0.031c0.039,0.007,0.078,0.016,0.117,0.023c0.062,0.012,0.124,0.025,0.186,0.038
			c0.018,0.004,0.036,0.008,0.054,0.012c0.261,0.057,0.519,0.121,0.774,0.192c0.009,0.003,0.018,0.005,0.028,0.008
			c0.078,0.022,0.156,0.045,0.233,0.068c0.018,0.005,0.036,0.01,0.053,0.016c0.076,0.023,0.151,0.047,0.226,0.071
			c0.019,0.006,0.037,0.012,0.056,0.018c0.075,0.025,0.15,0.05,0.225,0.076c0.017,0.006,0.035,0.012,0.052,0.018
			c0.077,0.027,0.153,0.055,0.23,0.083c0.014,0.005,0.027,0.01,0.041,0.015c0.08,0.03,0.159,0.061,0.239,0.092
			c0.008,0.003,0.015,0.006,0.023,0.009c1.519,0.605,2.909,1.466,4.113,2.532l-3.033,2.38l-0.257,0.202
			c-0.208-0.157-0.421-0.307-0.641-0.448c-0.004-0.003-0.008-0.005-0.013-0.008c-0.103-0.066-0.207-0.13-0.312-0.192
			c-0.012-0.007-0.023-0.014-0.035-0.021c-0.099-0.058-0.199-0.114-0.3-0.168c-0.016-0.009-0.031-0.017-0.047-0.025
			c-0.099-0.053-0.199-0.103-0.3-0.153c-0.017-0.008-0.033-0.017-0.05-0.025c-0.104-0.05-0.209-0.098-0.315-0.145
			c-0.013-0.006-0.026-0.012-0.038-0.017c-0.238-0.104-0.481-0.198-0.728-0.283c-0.028-0.009-0.056-0.018-0.083-0.027
			c-0.091-0.03-0.182-0.06-0.274-0.088c-0.055-0.017-0.11-0.032-0.165-0.047c-0.065-0.019-0.131-0.037-0.197-0.054
			s-0.132-0.033-0.199-0.049c-0.055-0.013-0.111-0.026-0.166-0.039c-0.074-0.016-0.148-0.031-0.222-0.046
			c-0.048-0.01-0.097-0.019-0.145-0.028c-0.081-0.015-0.162-0.028-0.243-0.041c-0.041-0.006-0.082-0.012-0.123-0.018
			c-0.089-0.013-0.177-0.025-0.266-0.035c-0.031-0.004-0.062-0.006-0.093-0.01c-0.099-0.01-0.199-0.02-0.299-0.028
			c-0.011-0.001-0.022-0.001-0.034-0.002c-0.239-0.017-0.481-0.027-0.724-0.027c-0.945,0-1.859,0.132-2.724,0.378
			c-2.617,0.745-4.798,2.537-6.06,4.892c-0.746,1.396-1.17,2.991-1.17,4.684c0,5.497,4.456,9.954,9.954,9.954
			c5.497,0,9.954-4.456,9.954-9.954c0-0.856-0.11-1.686-0.313-2.479L18.77,24.58l-7.394-7.245l2.856-2.915l4.837,4.739l10.797-8.471
			c0.406,0.511,0.777,1.052,1.11,1.617l0,0c0.003,0.006,0.007,0.012,0.01,0.017c0.028,0.048,0.056,0.096,0.083,0.144
			c0.064,0.112,0.127,0.225,0.189,0.339c0.016,0.03,0.032,0.06,0.047,0.09c0.067,0.128,0.133,0.257,0.197,0.387
			c0.01,0.02,0.019,0.041,0.029,0.061c0.067,0.139,0.132,0.279,0.194,0.42c0.006,0.013,0.011,0.026,0.017,0.039
			c0.066,0.15,0.129,0.301,0.189,0.453c0.633,1.598,0.98,3.341,0.98,5.165C32.912,24.212,30.512,28.443,26.848,30.977"/>
		<path fill="#2D54A5" d="M26.444,43.843H11.208c-0.433,0-0.783-0.351-0.783-0.783v-0.97c0-0.433,0.351-0.783,0.783-0.783h15.236
			c0.433,0,0.783,0.351,0.783,0.783v0.97C27.227,43.492,26.877,43.843,26.444,43.843"/>
		<path fill="#2D54A5" d="M25.661,47.997h-13.67c-0.865,0-1.566-0.701-1.566-1.566v-0.97h16.803v0.97
			C27.227,47.296,26.526,47.997,25.661,47.997"/>
	</g>
	<g id="GROOVY" display="inline">
		<path fill="#010101" d="M54.369,34.442c-1.431,0-2.764-0.273-4-0.819s-2.32-1.31-3.251-2.292c-0.931-0.982-1.657-2.135-2.178-3.46
			c-0.521-1.325-0.781-2.766-0.781-4.324c0-1.515,0.254-2.931,0.762-4.248c0.508-1.316,1.232-2.468,2.171-3.454
			c0.94-0.986,2.061-1.756,3.365-2.311c1.304-0.554,2.751-0.832,4.343-0.832c0.804,0,1.657,0.078,2.559,0.235
			c0.902,0.157,1.795,0.4,2.679,0.73c0.885,0.33,1.699,0.753,2.444,1.27l-2.565,4.343c-0.694-0.525-1.511-0.92-2.451-1.187
			s-1.795-0.4-2.565-0.4s-1.448,0.129-2.032,0.387s-1.075,0.631-1.473,1.117c-0.398,0.487-0.696,1.075-0.895,1.765
			c-0.199,0.69-0.298,1.467-0.298,2.33c0,0.948,0.114,1.793,0.343,2.533c0.229,0.741,0.544,1.369,0.946,1.886
			c0.402,0.516,0.876,0.908,1.422,1.175s1.136,0.4,1.771,0.4c0.508,0,0.984-0.081,1.429-0.241c0.444-0.161,0.834-0.383,1.168-0.667
			c0.334-0.283,0.597-0.607,0.787-0.971s0.286-0.745,0.286-1.143v-0.025h-3.987v-4.292h9.676v4.063c0,1.135-0.256,2.209-0.768,3.225
			s-1.217,1.916-2.114,2.699s-1.928,1.397-3.092,1.841C56.907,34.22,55.673,34.442,54.369,34.442"/>
		<path fill="#010101" d="M66.864,34.036V13.084h8.279c1.473,0,2.755,0.26,3.848,0.781c1.092,0.521,1.938,1.274,2.539,2.26
			s0.902,2.182,0.902,3.587c0,0.999-0.157,1.911-0.47,2.736s-0.768,1.545-1.365,2.159s-1.331,1.107-2.203,1.479l6.781,7.949h-7.086
			l-5.625-7.263h-0.013v7.263L66.864,34.036L66.864,34.036z M72.451,22.15h0.864c0.711,0,1.306-0.085,1.784-0.254
			s0.838-0.426,1.079-0.768c0.241-0.343,0.362-0.764,0.362-1.264c0-0.77-0.273-1.352-0.819-1.746
			c-0.546-0.394-1.348-0.59-2.406-0.59h-0.864V22.15z"/>
		<path fill="#010101" d="M95.333,34.442c-1.465,0-2.836-0.279-4.114-0.838s-2.4-1.335-3.365-2.33s-1.72-2.15-2.267-3.467
			c-0.546-1.316-0.819-2.728-0.819-4.235s0.273-2.918,0.819-4.235c0.546-1.316,1.302-2.472,2.267-3.467s2.087-1.771,3.365-2.33
			s2.649-0.838,4.114-0.838c1.464,0,2.836,0.279,4.114,0.838s2.4,1.335,3.365,2.33s1.72,2.15,2.267,3.467
			c0.546,1.316,0.819,2.728,0.819,4.235s-0.273,2.919-0.819,4.235c-0.546,1.317-1.302,2.472-2.267,3.467s-2.087,1.771-3.365,2.33
			C98.169,34.163,96.798,34.442,95.333,34.442 M95.333,29.058c0.686,0,1.308-0.129,1.867-0.387s1.037-0.628,1.435-1.111
			c0.398-0.483,0.705-1.06,0.921-1.733c0.216-0.673,0.324-1.424,0.324-2.254c0-0.829-0.108-1.581-0.324-2.254
			c-0.216-0.673-0.523-1.251-0.921-1.733c-0.398-0.483-0.876-0.853-1.435-1.111s-1.181-0.387-1.867-0.387s-1.308,0.129-1.867,0.387
			s-1.037,0.629-1.435,1.111s-0.705,1.06-0.92,1.733c-0.216,0.673-0.324,1.424-0.324,2.254s0.108,1.581,0.324,2.254
			c0.216,0.673,0.523,1.251,0.92,1.733c0.398,0.483,0.876,0.853,1.435,1.111S94.648,29.058,95.333,29.058"/>
		<path fill="#010101" d="M117.53,34.442c-1.465,0-2.836-0.279-4.114-0.838s-2.4-1.335-3.365-2.33s-1.72-2.15-2.267-3.467
			c-0.546-1.316-0.819-2.728-0.819-4.235s0.273-2.918,0.819-4.235c0.546-1.316,1.302-2.472,2.267-3.467s2.087-1.771,3.365-2.33
			s2.649-0.838,4.114-0.838s2.836,0.279,4.114,0.838s2.4,1.335,3.365,2.33s1.72,2.15,2.267,3.467
			c0.546,1.316,0.819,2.728,0.819,4.235s-0.273,2.919-0.819,4.235c-0.546,1.317-1.302,2.472-2.267,3.467s-2.087,1.771-3.365,2.33
			C120.365,34.163,118.994,34.442,117.53,34.442 M117.53,29.058c0.686,0,1.308-0.129,1.867-0.387s1.037-0.628,1.435-1.111
			c0.398-0.483,0.705-1.06,0.92-1.733c0.216-0.673,0.324-1.424,0.324-2.254c0-0.829-0.108-1.581-0.324-2.254
			c-0.216-0.673-0.523-1.251-0.92-1.733c-0.398-0.483-0.876-0.853-1.435-1.111s-1.181-0.387-1.867-0.387s-1.308,0.129-1.867,0.387
			s-1.037,0.629-1.435,1.111c-0.398,0.483-0.704,1.06-0.921,1.733c-0.216,0.673-0.324,1.424-0.324,2.254s0.108,1.581,0.324,2.254
			c0.216,0.673,0.523,1.251,0.921,1.733c0.398,0.483,0.876,0.853,1.435,1.111S116.844,29.058,117.53,29.058"/>
		<polygon fill="#010101" points="135.802,34.036 127.015,13.084 133.314,13.084 137.987,25.63 142.659,13.084 148.958,13.084 
			140.171,34.036 		"/>
		<polygon fill="#010101" points="154.888,34.036 154.888,24.538 147.015,13.084 153.745,13.084 157.681,18.9 161.618,13.084 
			168.348,13.084 160.475,24.538 160.475,34.036 		"/>
	</g>
	<g display="inline">
		<path fill="#010101" d="M44.701,46.293c-0.131,0-0.222-0.043-0.272-0.128s-0.047-0.189,0.01-0.312l1.78-3.993
			c0.044-0.101,0.098-0.174,0.164-0.22s0.142-0.069,0.23-0.069c0.079,0,0.152,0.023,0.22,0.069s0.124,0.119,0.167,0.22l1.78,3.993
			c0.057,0.127,0.062,0.232,0.016,0.315s-0.132,0.125-0.259,0.125c-0.096,0-0.173-0.024-0.23-0.072s-0.107-0.123-0.151-0.223
			l-0.381-0.88h-2.344l-0.374,0.88c-0.044,0.105-0.092,0.181-0.144,0.227C44.858,46.27,44.788,46.293,44.701,46.293z M46.598,42.373
			l-0.926,2.193h1.872l-0.932-2.193H46.598z"/>
		<path fill="#010101" d="M52.371,46.307c-0.302,0-0.592-0.035-0.87-0.105s-0.52-0.175-0.726-0.315
			c-0.083-0.057-0.134-0.126-0.151-0.207c-0.018-0.081-0.01-0.155,0.023-0.223c0.033-0.068,0.083-0.115,0.151-0.141
			c0.068-0.026,0.145-0.011,0.233,0.046c0.197,0.127,0.405,0.22,0.624,0.279s0.457,0.089,0.716,0.089c0.372,0,0.647-0.067,0.824-0.2
			c0.177-0.133,0.266-0.308,0.266-0.522c0-0.175-0.064-0.314-0.19-0.417c-0.127-0.103-0.339-0.185-0.637-0.246l-0.703-0.144
			c-0.416-0.088-0.726-0.232-0.929-0.433c-0.204-0.201-0.305-0.473-0.305-0.814c0-0.276,0.073-0.519,0.22-0.729
			s0.351-0.373,0.614-0.489c0.263-0.116,0.565-0.174,0.906-0.174c0.271,0,0.526,0.035,0.765,0.105s0.452,0.177,0.64,0.322
			c0.074,0.052,0.118,0.116,0.131,0.19c0.013,0.074,0.002,0.143-0.033,0.207s-0.088,0.106-0.158,0.128s-0.151,0.004-0.243-0.053
			c-0.171-0.114-0.346-0.196-0.525-0.246c-0.18-0.05-0.374-0.076-0.584-0.076c-0.324,0-0.581,0.072-0.772,0.217
			c-0.19,0.145-0.286,0.337-0.286,0.578c0,0.184,0.059,0.331,0.177,0.44c0.118,0.11,0.315,0.193,0.591,0.25l0.696,0.145
			c0.438,0.092,0.764,0.233,0.978,0.424c0.214,0.19,0.322,0.448,0.322,0.772c0,0.271-0.072,0.508-0.217,0.709
			s-0.348,0.358-0.611,0.47C53.047,46.251,52.734,46.307,52.371,46.307z"/>
		<path fill="#010101" d="M57.768,46.307c-0.302,0-0.592-0.035-0.87-0.105s-0.52-0.175-0.726-0.315
			c-0.083-0.057-0.134-0.126-0.151-0.207c-0.018-0.081-0.01-0.155,0.023-0.223c0.033-0.068,0.083-0.115,0.151-0.141
			c0.068-0.026,0.145-0.011,0.233,0.046c0.197,0.127,0.405,0.22,0.624,0.279s0.457,0.089,0.716,0.089c0.372,0,0.647-0.067,0.824-0.2
			c0.177-0.133,0.266-0.308,0.266-0.522c0-0.175-0.063-0.314-0.19-0.417s-0.339-0.185-0.637-0.246l-0.703-0.144
			c-0.416-0.088-0.726-0.232-0.929-0.433c-0.204-0.201-0.305-0.473-0.305-0.814c0-0.276,0.073-0.519,0.22-0.729
			s0.351-0.373,0.614-0.489c0.263-0.116,0.565-0.174,0.906-0.174c0.271,0,0.526,0.035,0.765,0.105s0.452,0.177,0.64,0.322
			c0.074,0.052,0.118,0.116,0.131,0.19c0.013,0.074,0.002,0.143-0.033,0.207s-0.088,0.106-0.158,0.128s-0.151,0.004-0.243-0.053
			c-0.171-0.114-0.346-0.196-0.525-0.246c-0.18-0.05-0.374-0.076-0.584-0.076c-0.324,0-0.581,0.072-0.772,0.217
			c-0.19,0.145-0.286,0.337-0.286,0.578c0,0.184,0.059,0.331,0.177,0.44c0.118,0.11,0.315,0.193,0.591,0.25l0.696,0.145
			c0.438,0.092,0.764,0.233,0.978,0.424c0.214,0.19,0.322,0.448,0.322,0.772c0,0.271-0.072,0.508-0.217,0.709
			c-0.144,0.201-0.348,0.358-0.611,0.47C58.445,46.251,58.132,46.307,57.768,46.307z"/>
		<path fill="#010101" d="M63.495,46.307c-0.617,0-1.089-0.163-1.415-0.489s-0.489-0.805-0.489-1.435v-2.469
			c0-0.228,0.114-0.341,0.341-0.341c0.228,0,0.341,0.114,0.341,0.341v2.456c0,0.898,0.407,1.346,1.221,1.346
			s1.221-0.449,1.221-1.346v-2.456c0-0.228,0.112-0.341,0.335-0.341s0.335,0.114,0.335,0.341v2.469c0,0.63-0.16,1.109-0.479,1.435
			C64.587,46.143,64.116,46.307,63.495,46.307z"/>
		<path fill="#010101" d="M68.091,46.293c-0.228,0-0.341-0.116-0.341-0.348v-3.979c0-0.232,0.116-0.348,0.348-0.348h1.569
			c0.499,0,0.884,0.119,1.156,0.358c0.271,0.239,0.407,0.572,0.407,1.001c0,0.346-0.092,0.629-0.276,0.85
			c-0.184,0.221-0.444,0.369-0.781,0.443c0.21,0.07,0.387,0.239,0.532,0.506l0.565,1.051c0.066,0.118,0.079,0.226,0.039,0.322
			c-0.039,0.096-0.129,0.145-0.269,0.145c-0.096,0-0.175-0.02-0.236-0.059c-0.061-0.039-0.114-0.103-0.158-0.19l-0.69-1.274
			c-0.092-0.171-0.198-0.286-0.318-0.345c-0.12-0.059-0.275-0.089-0.463-0.089h-0.742v1.609
			C68.433,46.178,68.319,46.293,68.091,46.293z M68.433,43.824h1.123c0.674,0,1.011-0.278,1.011-0.834
			c0-0.552-0.337-0.827-1.011-0.827h-1.123V43.824z"/>
		<path fill="#010101" d="M73.404,46.293c-0.131,0-0.222-0.043-0.272-0.128s-0.047-0.189,0.01-0.312l1.78-3.993
			c0.044-0.101,0.098-0.174,0.164-0.22s0.142-0.069,0.23-0.069c0.079,0,0.152,0.023,0.22,0.069s0.124,0.119,0.167,0.22l1.78,3.993
			c0.057,0.127,0.062,0.232,0.016,0.315s-0.132,0.125-0.259,0.125c-0.096,0-0.173-0.024-0.23-0.072
			c-0.057-0.048-0.107-0.123-0.151-0.223l-0.381-0.88h-2.344l-0.374,0.88c-0.044,0.105-0.092,0.181-0.144,0.227
			S73.491,46.293,73.404,46.293z M75.302,42.373l-0.926,2.193h1.872l-0.932-2.193H75.302z"/>
		<path fill="#010101" d="M79.898,46.293c-0.215,0-0.322-0.109-0.322-0.328v-4.052c0-0.109,0.027-0.194,0.082-0.253
			s0.128-0.089,0.22-0.089c0.079,0,0.14,0.014,0.184,0.043s0.092,0.08,0.145,0.154l2.541,3.349v-3.224
			c0-0.214,0.105-0.322,0.315-0.322s0.315,0.107,0.315,0.322v4.078c0,0.101-0.025,0.18-0.076,0.236
			c-0.05,0.057-0.117,0.085-0.2,0.085s-0.149-0.015-0.197-0.046c-0.048-0.031-0.101-0.083-0.158-0.158l-2.541-3.356v3.231
			C80.207,46.184,80.104,46.293,79.898,46.293z"/>
		<path fill="#010101" d="M87.844,46.307c-0.468,0-0.869-0.096-1.202-0.289s-0.588-0.467-0.765-0.824
			c-0.177-0.357-0.266-0.778-0.266-1.264s0.089-0.906,0.266-1.261c0.177-0.355,0.432-0.628,0.765-0.821s0.733-0.289,1.202-0.289
			c0.258,0,0.507,0.035,0.745,0.105c0.239,0.07,0.445,0.171,0.621,0.302c0.096,0.061,0.152,0.135,0.167,0.22
			c0.015,0.085,0.002,0.162-0.039,0.23c-0.042,0.068-0.102,0.113-0.181,0.135s-0.166,0-0.263-0.066
			c-0.149-0.109-0.31-0.19-0.483-0.243c-0.173-0.053-0.356-0.079-0.548-0.079c-0.499,0-0.88,0.153-1.143,0.46
			c-0.263,0.306-0.394,0.742-0.394,1.307s0.131,1.002,0.394,1.31c0.263,0.309,0.644,0.463,1.143,0.463
			c0.193,0,0.378-0.026,0.555-0.079c0.177-0.053,0.345-0.136,0.502-0.25c0.096-0.061,0.182-0.082,0.256-0.062
			s0.131,0.062,0.171,0.128c0.039,0.066,0.053,0.139,0.039,0.22c-0.013,0.081-0.059,0.15-0.138,0.207
			c-0.184,0.144-0.397,0.254-0.64,0.328C88.366,46.269,88.111,46.307,87.844,46.307z"/>
		<path fill="#010101" d="M91.889,46.247c-0.245,0-0.368-0.123-0.368-0.368v-3.894c0-0.245,0.122-0.368,0.368-0.368h2.397
			c0.188,0,0.282,0.09,0.282,0.269c0,0.188-0.094,0.282-0.282,0.282h-2.108v1.451h1.963c0.188,0,0.282,0.092,0.282,0.276
			c0,0.184-0.094,0.276-0.282,0.276h-1.963v1.523h2.108c0.188,0,0.282,0.092,0.282,0.276c0,0.184-0.094,0.276-0.282,0.276
			L91.889,46.247L91.889,46.247z"/>
		<path fill="#010101" d="M101.759,46.307c-0.442,0-0.825-0.097-1.149-0.292s-0.575-0.471-0.752-0.827
			c-0.177-0.357-0.266-0.776-0.266-1.258c0-0.486,0.089-0.906,0.266-1.261c0.177-0.355,0.428-0.628,0.752-0.821
			s0.707-0.289,1.149-0.289c0.438,0,0.82,0.096,1.146,0.289c0.326,0.193,0.578,0.466,0.755,0.821
			c0.177,0.355,0.266,0.773,0.266,1.254c0,0.486-0.089,0.907-0.266,1.264s-0.429,0.633-0.755,0.827
			C102.578,46.209,102.197,46.307,101.759,46.307z M101.759,45.716c0.46,0,0.818-0.157,1.074-0.47s0.384-0.752,0.384-1.317
			s-0.127-1.002-0.381-1.313s-0.613-0.466-1.077-0.466c-0.46,0-0.818,0.155-1.074,0.466s-0.384,0.749-0.384,1.313
			s0.128,1.004,0.384,1.317C100.941,45.559,101.299,45.716,101.759,45.716z"/>
		<path fill="#010101" d="M106.513,46.293c-0.241,0-0.361-0.12-0.361-0.361v-3.947c0-0.245,0.122-0.368,0.368-0.368h2.338
			c0.188,0,0.282,0.09,0.282,0.269c0,0.188-0.094,0.282-0.282,0.282h-2.023v1.478h1.891c0.188,0,0.282,0.09,0.282,0.269
			c0,0.188-0.094,0.282-0.282,0.282h-1.891v1.734C106.835,46.173,106.727,46.293,106.513,46.293z"/>
		<path fill="#010101" d="M114.518,46.247c-0.245,0-0.368-0.123-0.368-0.368v-3.894c0-0.245,0.122-0.368,0.368-0.368h2.397
			c0.188,0,0.282,0.09,0.282,0.269c0,0.188-0.094,0.282-0.282,0.282h-2.108v1.451h1.963c0.188,0,0.282,0.092,0.282,0.276
			c0,0.184-0.094,0.276-0.282,0.276h-1.963v1.523h2.108c0.188,0,0.282,0.092,0.282,0.276c0,0.184-0.094,0.276-0.282,0.276
			L114.518,46.247L114.518,46.247z"/>
		<path fill="#010101" d="M119.331,46.293c-0.131,0-0.226-0.049-0.282-0.148c-0.057-0.099-0.044-0.205,0.039-0.319l1.451-1.944
			l-1.366-1.832c-0.092-0.118-0.11-0.228-0.053-0.328c0.057-0.101,0.151-0.151,0.282-0.151s0.25,0.072,0.355,0.217l1.169,1.596
			l1.156-1.596c0.105-0.144,0.225-0.217,0.361-0.217c0.131,0,0.225,0.049,0.282,0.148c0.057,0.098,0.039,0.209-0.053,0.332
			l-1.366,1.832l1.445,1.944c0.083,0.114,0.097,0.22,0.043,0.319c-0.055,0.098-0.15,0.148-0.286,0.148
			c-0.131,0-0.252-0.072-0.361-0.217l-1.228-1.681l-1.221,1.681C119.59,46.221,119.467,46.293,119.331,46.293z"/>
		<path fill="#010101" d="M126.837,46.307c-0.468,0-0.869-0.096-1.202-0.289s-0.588-0.467-0.765-0.824
			c-0.177-0.357-0.266-0.778-0.266-1.264s0.089-0.906,0.266-1.261c0.177-0.355,0.432-0.628,0.765-0.821s0.733-0.289,1.202-0.289
			c0.258,0,0.507,0.035,0.745,0.105c0.239,0.07,0.445,0.171,0.621,0.302c0.096,0.061,0.152,0.135,0.167,0.22
			c0.015,0.085,0.002,0.162-0.039,0.23c-0.042,0.068-0.102,0.113-0.181,0.135s-0.166,0-0.263-0.066
			c-0.149-0.109-0.31-0.19-0.483-0.243c-0.173-0.053-0.356-0.079-0.548-0.079c-0.499,0-0.88,0.153-1.143,0.46
			c-0.263,0.306-0.394,0.742-0.394,1.307s0.131,1.002,0.394,1.31c0.263,0.309,0.644,0.463,1.143,0.463
			c0.193,0,0.378-0.026,0.555-0.079c0.177-0.053,0.345-0.136,0.502-0.25c0.096-0.061,0.182-0.082,0.256-0.062
			c0.074,0.02,0.131,0.062,0.171,0.128c0.039,0.066,0.053,0.139,0.039,0.22c-0.013,0.081-0.059,0.15-0.138,0.207
			c-0.184,0.144-0.397,0.254-0.64,0.328C127.359,46.269,127.104,46.307,126.837,46.307z"/>
		<path fill="#010101" d="M130.882,46.247c-0.245,0-0.368-0.123-0.368-0.368v-3.894c0-0.245,0.122-0.368,0.368-0.368h2.397
			c0.188,0,0.282,0.09,0.282,0.269c0,0.188-0.094,0.282-0.282,0.282h-2.108v1.451h1.963c0.188,0,0.282,0.092,0.282,0.276
			c0,0.184-0.094,0.276-0.282,0.276h-1.963v1.523h2.108c0.188,0,0.282,0.092,0.282,0.276c0,0.184-0.094,0.276-0.282,0.276
			L130.882,46.247L130.882,46.247z"/>
		<path fill="#010101" d="M136.044,46.247c-0.232,0-0.348-0.116-0.348-0.348v-3.96c0-0.232,0.114-0.348,0.341-0.348
			c0.228,0,0.341,0.116,0.341,0.348v3.723h2.036c0.201,0,0.302,0.096,0.302,0.289c0,0.197-0.101,0.296-0.302,0.296
			C138.414,46.247,136.044,46.247,136.044,46.247z"/>
		<path fill="#010101" d="M140.982,46.247c-0.232,0-0.348-0.116-0.348-0.348v-3.96c0-0.232,0.114-0.348,0.341-0.348
			c0.228,0,0.341,0.116,0.341,0.348v3.723h2.036c0.201,0,0.302,0.096,0.302,0.289c0,0.197-0.101,0.296-0.302,0.296
			C143.352,46.247,140.982,46.247,140.982,46.247z"/>
		<path fill="#010101" d="M145.939,46.247c-0.245,0-0.368-0.123-0.368-0.368v-3.894c0-0.245,0.122-0.368,0.368-0.368h2.397
			c0.188,0,0.282,0.09,0.282,0.269c0,0.188-0.094,0.282-0.282,0.282h-2.108v1.451h1.963c0.188,0,0.282,0.092,0.282,0.276
			c0,0.184-0.094,0.276-0.282,0.276h-1.963v1.523h2.108c0.188,0,0.282,0.092,0.282,0.276c0,0.184-0.094,0.276-0.282,0.276
			L145.939,46.247L145.939,46.247z"/>
		<path fill="#010101" d="M151.075,46.293c-0.215,0-0.322-0.109-0.322-0.328v-4.052c0-0.109,0.027-0.194,0.082-0.253
			c0.055-0.059,0.128-0.089,0.22-0.089c0.079,0,0.14,0.014,0.184,0.043s0.092,0.08,0.145,0.154l2.541,3.349v-3.224
			c0-0.214,0.105-0.322,0.315-0.322s0.315,0.107,0.315,0.322v4.078c0,0.101-0.025,0.18-0.076,0.236
			c-0.05,0.057-0.117,0.085-0.2,0.085s-0.149-0.015-0.197-0.046c-0.048-0.031-0.101-0.083-0.158-0.158l-2.541-3.356v3.231
			C151.383,46.184,151.28,46.293,151.075,46.293z"/>
		<path fill="#010101" d="M159.02,46.307c-0.468,0-0.869-0.096-1.202-0.289s-0.588-0.467-0.765-0.824
			c-0.177-0.357-0.266-0.778-0.266-1.264s0.089-0.906,0.266-1.261c0.177-0.355,0.432-0.628,0.765-0.821s0.733-0.289,1.202-0.289
			c0.258,0,0.507,0.035,0.745,0.105c0.239,0.07,0.445,0.171,0.621,0.302c0.096,0.061,0.152,0.135,0.167,0.22
			c0.015,0.085,0.002,0.162-0.039,0.23c-0.042,0.068-0.102,0.113-0.181,0.135s-0.166,0-0.263-0.066
			c-0.149-0.109-0.31-0.19-0.483-0.243s-0.356-0.079-0.548-0.079c-0.499,0-0.88,0.153-1.143,0.46
			c-0.263,0.306-0.394,0.742-0.394,1.307s0.131,1.002,0.394,1.31c0.263,0.309,0.644,0.463,1.143,0.463
			c0.193,0,0.378-0.026,0.555-0.079c0.177-0.053,0.345-0.136,0.502-0.25c0.096-0.061,0.182-0.082,0.256-0.062
			c0.074,0.02,0.131,0.062,0.171,0.128c0.039,0.066,0.053,0.139,0.039,0.22c-0.013,0.081-0.059,0.15-0.138,0.207
			c-0.184,0.144-0.397,0.254-0.64,0.328C159.542,46.269,159.287,46.307,159.02,46.307z"/>
		<path fill="#010101" d="M163.065,46.247c-0.245,0-0.368-0.123-0.368-0.368v-3.894c0-0.245,0.122-0.368,0.368-0.368h2.397
			c0.188,0,0.282,0.09,0.282,0.269c0,0.188-0.094,0.282-0.282,0.282h-2.108v1.451h1.963c0.188,0,0.282,0.092,0.282,0.276
			c0,0.184-0.094,0.276-0.282,0.276h-1.963v1.523h2.108c0.188,0,0.282,0.092,0.282,0.276c0,0.184-0.094,0.276-0.282,0.276
			L163.065,46.247L163.065,46.247z"/>
		<path fill="#010101" d="M168.128,46.274c-0.131,0-0.235-0.039-0.312-0.118s-0.115-0.18-0.115-0.302
			c0-0.123,0.038-0.222,0.115-0.299c0.077-0.077,0.181-0.115,0.312-0.115c0.127,0,0.228,0.038,0.302,0.115
			c0.074,0.077,0.112,0.176,0.112,0.299s-0.037,0.223-0.112,0.302C168.356,46.234,168.255,46.274,168.128,46.274z M168.128,45
			c-0.144,0-0.221-0.083-0.23-0.25l-0.158-2.745c-0.009-0.131,0.021-0.236,0.089-0.315s0.167-0.118,0.299-0.118
			c0.127,0,0.223,0.039,0.289,0.118s0.092,0.184,0.079,0.315l-0.158,2.745C168.33,44.917,168.26,45,168.128,45z"/>
	</g>
</g>
<g id="White">
	<g id="G__x28_Bulb_x29__1_">
		<path fill="#FFFFFF" d="M18.872,2.003c-9.575,0-17.316,7.66-17.413,17.234C1.405,24.571,3.75,29.358,7.48,32.587
			c1.955,1.692,3.051,3.191,3.051,5.777c0,0.821,0.665,1.486,1.486,1.486h13.71c0.821,0,1.486-0.665,1.486-1.486v-0.001
			c0-2.603,1.126-4.1,3.089-5.809c3.666-3.192,5.984-7.894,5.984-13.137C36.285,9.799,28.489,2.003,18.872,2.003 M26.848,30.977
			c-1.232,0.851-2.606,1.512-4.082,1.936v-0.008c-1.237,0.356-2.543,0.548-3.895,0.548c-1.351,0-2.658-0.191-3.895-0.548v0.008
			c-1.475-0.424-2.85-1.085-4.082-1.936C7.23,28.443,4.83,24.212,4.83,19.421c0-7.755,6.286-14.04,14.04-14.04
			c0.107,0,0.213,0.001,0.32,0.004c0.036,0.001,0.071,0.002,0.106,0.003c0.07,0.002,0.141,0.004,0.211,0.007
			c0.043,0.002,0.086,0.005,0.129,0.007c0.062,0.003,0.124,0.007,0.186,0.011c0.047,0.003,0.093,0.007,0.139,0.01
			c0.058,0.004,0.116,0.009,0.174,0.014c0.048,0.004,0.097,0.009,0.145,0.014c0.055,0.006,0.11,0.011,0.165,0.017
			c0.05,0.006,0.1,0.011,0.15,0.018c0.053,0.006,0.105,0.013,0.157,0.02s0.103,0.014,0.155,0.022
			c0.05,0.007,0.099,0.015,0.149,0.023c0.053,0.008,0.107,0.017,0.16,0.026c0.046,0.008,0.092,0.016,0.137,0.024
			c0.057,0.01,0.113,0.02,0.169,0.031c0.039,0.007,0.078,0.016,0.117,0.023c0.062,0.012,0.124,0.025,0.186,0.038
			c0.018,0.004,0.036,0.008,0.054,0.012c0.261,0.057,0.519,0.121,0.774,0.192c0.009,0.003,0.018,0.005,0.028,0.008
			c0.078,0.022,0.156,0.045,0.233,0.068c0.018,0.005,0.036,0.01,0.053,0.016c0.076,0.023,0.151,0.047,0.226,0.071
			c0.019,0.006,0.037,0.012,0.056,0.018c0.075,0.025,0.15,0.05,0.225,0.076c0.017,0.006,0.035,0.012,0.052,0.018
			c0.077,0.027,0.153,0.055,0.23,0.083c0.014,0.005,0.027,0.01,0.041,0.015c0.08,0.03,0.159,0.061,0.239,0.092
			c0.008,0.003,0.015,0.006,0.023,0.009c1.519,0.605,2.909,1.466,4.113,2.532l-3.033,2.38l-0.257,0.202
			c-0.208-0.157-0.421-0.307-0.641-0.448c-0.004-0.003-0.008-0.005-0.013-0.008c-0.103-0.066-0.207-0.13-0.312-0.192
			c-0.012-0.007-0.023-0.014-0.035-0.021c-0.099-0.058-0.199-0.114-0.3-0.168c-0.016-0.009-0.031-0.017-0.047-0.025
			c-0.099-0.053-0.199-0.103-0.3-0.153c-0.017-0.008-0.033-0.017-0.05-0.025c-0.104-0.05-0.209-0.098-0.315-0.145
			c-0.013-0.006-0.026-0.012-0.038-0.017c-0.238-0.104-0.481-0.198-0.728-0.283c-0.028-0.009-0.056-0.018-0.083-0.027
			c-0.091-0.03-0.182-0.06-0.274-0.088c-0.055-0.017-0.11-0.032-0.165-0.047c-0.065-0.019-0.131-0.037-0.197-0.054
			s-0.132-0.033-0.199-0.049c-0.055-0.013-0.111-0.026-0.166-0.039c-0.074-0.016-0.148-0.031-0.222-0.046
			c-0.048-0.01-0.097-0.019-0.145-0.028c-0.081-0.015-0.162-0.028-0.243-0.041c-0.041-0.006-0.082-0.012-0.123-0.018
			c-0.089-0.013-0.177-0.025-0.266-0.035c-0.031-0.004-0.062-0.006-0.093-0.01c-0.099-0.01-0.199-0.02-0.299-0.028
			c-0.011-0.001-0.022-0.001-0.034-0.002c-0.239-0.017-0.481-0.027-0.724-0.027c-0.945,0-1.859,0.132-2.724,0.378
			c-2.617,0.745-4.798,2.537-6.06,4.892c-0.746,1.396-1.17,2.991-1.17,4.684c0,5.497,4.456,9.954,9.954,9.954
			c5.497,0,9.954-4.456,9.954-9.954c0-0.856-0.11-1.686-0.313-2.479L18.77,24.58l-7.394-7.245l2.856-2.915l4.837,4.739l10.797-8.471
			c0.406,0.511,0.777,1.052,1.11,1.617l0,0c0.003,0.006,0.007,0.012,0.01,0.017c0.028,0.048,0.056,0.096,0.083,0.144
			c0.064,0.112,0.127,0.225,0.189,0.339c0.016,0.03,0.032,0.06,0.047,0.09c0.067,0.128,0.133,0.257,0.197,0.387
			c0.01,0.02,0.019,0.041,0.029,0.061c0.067,0.139,0.132,0.279,0.194,0.42c0.006,0.013,0.011,0.026,0.017,0.039
			c0.066,0.15,0.129,0.301,0.189,0.453c0.633,1.598,0.98,3.341,0.98,5.165C32.912,24.212,30.512,28.443,26.848,30.977"/>
		<path fill="#FFFFFF" d="M26.444,43.843H11.208c-0.433,0-0.783-0.351-0.783-0.783v-0.97c0-0.433,0.351-0.783,0.783-0.783h15.236
			c0.433,0,0.783,0.351,0.783,0.783v0.97C27.227,43.492,26.877,43.843,26.444,43.843"/>
		<path fill="#FFFFFF" d="M25.661,47.997h-13.67c-0.865,0-1.566-0.701-1.566-1.566v-0.97h16.803v0.97
			C27.227,47.296,26.526,47.997,25.661,47.997"/>
	</g>
	<g id="GROOVY_1_">
		<path fill="#FFFFFF" d="M54.369,33.442c-1.431,0-2.764-0.273-4-0.819s-2.32-1.31-3.251-2.292c-0.931-0.982-1.657-2.135-2.178-3.46
			c-0.521-1.325-0.781-2.766-0.781-4.324c0-1.515,0.254-2.931,0.762-4.248c0.508-1.316,1.232-2.468,2.171-3.454
			c0.94-0.986,2.061-1.756,3.365-2.311c1.304-0.554,2.751-0.832,4.343-0.832c0.804,0,1.657,0.078,2.559,0.235
			c0.902,0.157,1.795,0.4,2.679,0.73c0.885,0.33,1.699,0.753,2.444,1.27l-2.565,4.343c-0.694-0.525-1.511-0.92-2.451-1.187
			s-1.795-0.4-2.565-0.4s-1.448,0.129-2.032,0.387s-1.075,0.631-1.473,1.117c-0.398,0.487-0.696,1.075-0.895,1.765
			c-0.199,0.69-0.298,1.467-0.298,2.33c0,0.948,0.114,1.793,0.343,2.533c0.229,0.741,0.544,1.369,0.946,1.886
			c0.402,0.516,0.876,0.908,1.422,1.175s1.136,0.4,1.771,0.4c0.508,0,0.984-0.081,1.429-0.241c0.444-0.161,0.834-0.383,1.168-0.667
			c0.334-0.283,0.597-0.607,0.787-0.971s0.286-0.745,0.286-1.143v-0.025h-3.987v-4.292h9.676v4.063c0,1.135-0.256,2.209-0.768,3.225
			s-1.217,1.916-2.114,2.699s-1.928,1.397-3.092,1.841C56.907,33.22,55.673,33.442,54.369,33.442"/>
		<path fill="#FFFFFF" d="M66.864,33.036V12.084h8.279c1.473,0,2.755,0.26,3.848,0.781c1.092,0.521,1.938,1.274,2.539,2.26
			s0.902,2.182,0.902,3.587c0,0.999-0.157,1.911-0.47,2.736s-0.768,1.545-1.365,2.159s-1.331,1.107-2.203,1.479l6.781,7.949h-7.086
			l-5.625-7.263h-0.013v7.263L66.864,33.036L66.864,33.036z M72.451,21.15h0.864c0.711,0,1.306-0.085,1.784-0.254
			s0.838-0.426,1.079-0.768c0.241-0.343,0.362-0.764,0.362-1.264c0-0.77-0.273-1.352-0.819-1.746
			c-0.546-0.394-1.348-0.59-2.406-0.59h-0.864V21.15z"/>
		<path fill="#FFFFFF" d="M95.333,33.442c-1.465,0-2.836-0.279-4.114-0.838s-2.4-1.335-3.365-2.33s-1.72-2.15-2.267-3.467
			c-0.546-1.316-0.819-2.728-0.819-4.235s0.273-2.918,0.819-4.235c0.546-1.316,1.302-2.472,2.267-3.467s2.087-1.771,3.365-2.33
			s2.649-0.838,4.114-0.838c1.464,0,2.836,0.279,4.114,0.838s2.4,1.335,3.365,2.33s1.72,2.15,2.267,3.467
			c0.546,1.316,0.819,2.728,0.819,4.235s-0.273,2.919-0.819,4.235c-0.546,1.317-1.302,2.472-2.267,3.467s-2.087,1.771-3.365,2.33
			C98.169,33.163,96.798,33.442,95.333,33.442 M95.333,28.058c0.686,0,1.308-0.129,1.867-0.387s1.037-0.628,1.435-1.111
			c0.398-0.483,0.705-1.06,0.921-1.733c0.216-0.673,0.324-1.424,0.324-2.254c0-0.829-0.108-1.581-0.324-2.254
			c-0.216-0.673-0.523-1.251-0.921-1.733c-0.398-0.483-0.876-0.853-1.435-1.111s-1.181-0.387-1.867-0.387s-1.308,0.129-1.867,0.387
			s-1.037,0.629-1.435,1.111s-0.705,1.06-0.92,1.733c-0.216,0.673-0.324,1.424-0.324,2.254s0.108,1.581,0.324,2.254
			c0.216,0.673,0.523,1.251,0.92,1.733c0.398,0.483,0.876,0.853,1.435,1.111S94.648,28.058,95.333,28.058"/>
		<path fill="#FFFFFF" d="M117.53,33.442c-1.465,0-2.836-0.279-4.114-0.838s-2.4-1.335-3.365-2.33s-1.72-2.15-2.267-3.467
			c-0.546-1.316-0.819-2.728-0.819-4.235s0.273-2.918,0.819-4.235c0.546-1.316,1.302-2.472,2.267-3.467s2.087-1.771,3.365-2.33
			s2.649-0.838,4.114-0.838s2.836,0.279,4.114,0.838s2.4,1.335,3.365,2.33s1.72,2.15,2.267,3.467
			c0.546,1.316,0.819,2.728,0.819,4.235s-0.273,2.919-0.819,4.235c-0.546,1.317-1.302,2.472-2.267,3.467s-2.087,1.771-3.365,2.33
			C120.365,33.163,118.994,33.442,117.53,33.442 M117.53,28.058c0.686,0,1.308-0.129,1.867-0.387s1.037-0.628,1.435-1.111
			c0.398-0.483,0.705-1.06,0.92-1.733c0.216-0.673,0.324-1.424,0.324-2.254c0-0.829-0.108-1.581-0.324-2.254
			c-0.216-0.673-0.523-1.251-0.92-1.733c-0.398-0.483-0.876-0.853-1.435-1.111s-1.181-0.387-1.867-0.387s-1.308,0.129-1.867,0.387
			s-1.037,0.629-1.435,1.111c-0.398,0.483-0.704,1.06-0.921,1.733c-0.216,0.673-0.324,1.424-0.324,2.254s0.108,1.581,0.324,2.254
			c0.216,0.673,0.523,1.251,0.921,1.733c0.398,0.483,0.876,0.853,1.435,1.111S116.844,28.058,117.53,28.058"/>
		<polygon fill="#FFFFFF" points="135.802,33.036 127.015,12.084 133.314,12.084 137.987,24.63 142.659,12.084 148.958,12.084 
			140.171,33.036 		"/>
		<polygon fill="#FFFFFF" points="154.888,33.036 154.888,23.538 147.015,12.084 153.745,12.084 157.681,17.9 161.618,12.084 
			168.348,12.084 160.475,23.538 160.475,33.036 		"/>
	</g>
	<g>
		<path fill="#FFFFFF" d="M44.701,46.293c-0.131,0-0.222-0.043-0.272-0.128s-0.047-0.189,0.01-0.312l1.78-3.993
			c0.044-0.101,0.098-0.174,0.164-0.22s0.142-0.069,0.23-0.069c0.079,0,0.152,0.023,0.22,0.069s0.124,0.119,0.167,0.22l1.78,3.993
			c0.057,0.127,0.062,0.232,0.016,0.315s-0.132,0.125-0.259,0.125c-0.096,0-0.173-0.024-0.23-0.072s-0.107-0.123-0.151-0.223
			l-0.381-0.88h-2.344l-0.374,0.88c-0.044,0.105-0.092,0.181-0.144,0.227C44.858,46.27,44.788,46.293,44.701,46.293z M46.598,42.373
			l-0.926,2.193h1.872l-0.932-2.193H46.598z"/>
		<path fill="#FFFFFF" d="M52.371,46.307c-0.302,0-0.592-0.035-0.87-0.105s-0.52-0.175-0.726-0.315
			c-0.083-0.057-0.134-0.126-0.151-0.207c-0.018-0.081-0.01-0.155,0.023-0.223c0.033-0.068,0.083-0.115,0.151-0.141
			c0.068-0.026,0.145-0.011,0.233,0.046c0.197,0.127,0.405,0.22,0.624,0.279s0.457,0.089,0.716,0.089c0.372,0,0.647-0.067,0.824-0.2
			c0.177-0.133,0.266-0.308,0.266-0.522c0-0.175-0.064-0.314-0.19-0.417c-0.127-0.103-0.339-0.185-0.637-0.246l-0.703-0.144
			c-0.416-0.088-0.726-0.232-0.929-0.433c-0.204-0.201-0.305-0.473-0.305-0.814c0-0.276,0.073-0.519,0.22-0.729
			s0.351-0.373,0.614-0.489c0.263-0.116,0.565-0.174,0.906-0.174c0.271,0,0.526,0.035,0.765,0.105s0.452,0.177,0.64,0.322
			c0.074,0.052,0.118,0.116,0.131,0.19c0.013,0.074,0.002,0.143-0.033,0.207s-0.088,0.106-0.158,0.128s-0.151,0.004-0.243-0.053
			c-0.171-0.114-0.346-0.196-0.525-0.246c-0.18-0.05-0.374-0.076-0.584-0.076c-0.324,0-0.581,0.072-0.772,0.217
			c-0.19,0.145-0.286,0.337-0.286,0.578c0,0.184,0.059,0.331,0.177,0.44c0.118,0.11,0.315,0.193,0.591,0.25l0.696,0.145
			c0.438,0.092,0.764,0.233,0.978,0.424c0.214,0.19,0.322,0.448,0.322,0.772c0,0.271-0.072,0.508-0.217,0.709
			s-0.348,0.358-0.611,0.47C53.047,46.251,52.734,46.307,52.371,46.307z"/>
		<path fill="#FFFFFF" d="M57.768,46.307c-0.302,0-0.592-0.035-0.87-0.105s-0.52-0.175-0.726-0.315
			c-0.083-0.057-0.134-0.126-0.151-0.207c-0.018-0.081-0.01-0.155,0.023-0.223c0.033-0.068,0.083-0.115,0.151-0.141
			c0.068-0.026,0.145-0.011,0.233,0.046c0.197,0.127,0.405,0.22,0.624,0.279s0.457,0.089,0.716,0.089c0.372,0,0.647-0.067,0.824-0.2
			c0.177-0.133,0.266-0.308,0.266-0.522c0-0.175-0.063-0.314-0.19-0.417s-0.339-0.185-0.637-0.246l-0.703-0.144
			c-0.416-0.088-0.726-0.232-0.929-0.433c-0.204-0.201-0.305-0.473-0.305-0.814c0-0.276,0.073-0.519,0.22-0.729
			s0.351-0.373,0.614-0.489c0.263-0.116,0.565-0.174,0.906-0.174c0.271,0,0.526,0.035,0.765,0.105s0.452,0.177,0.64,0.322
			c0.074,0.052,0.118,0.116,0.131,0.19c0.013,0.074,0.002,0.143-0.033,0.207s-0.088,0.106-0.158,0.128s-0.151,0.004-0.243-0.053
			c-0.171-0.114-0.346-0.196-0.525-0.246c-0.18-0.05-0.374-0.076-0.584-0.076c-0.324,0-0.581,0.072-0.772,0.217
			c-0.19,0.145-0.286,0.337-0.286,0.578c0,0.184,0.059,0.331,0.177,0.44c0.118,0.11,0.315,0.193,0.591,0.25l0.696,0.145
			c0.438,0.092,0.764,0.233,0.978,0.424c0.214,0.19,0.322,0.448,0.322,0.772c0,0.271-0.072,0.508-0.217,0.709
			c-0.144,0.201-0.348,0.358-0.611,0.47C58.445,46.251,58.132,46.307,57.768,46.307z"/>
		<path fill="#FFFFFF" d="M63.495,46.307c-0.617,0-1.089-0.163-1.415-0.489s-0.489-0.805-0.489-1.435v-2.469
			c0-0.228,0.114-0.341,0.341-0.341c0.228,0,0.341,0.114,0.341,0.341v2.456c0,0.898,0.407,1.346,1.221,1.346
			s1.221-0.449,1.221-1.346v-2.456c0-0.228,0.112-0.341,0.335-0.341s0.335,0.114,0.335,0.341v2.469c0,0.63-0.16,1.109-0.479,1.435
			C64.587,46.143,64.116,46.307,63.495,46.307z"/>
		<path fill="#FFFFFF" d="M68.091,46.293c-0.228,0-0.341-0.116-0.341-0.348v-3.979c0-0.232,0.116-0.348,0.348-0.348h1.569
			c0.499,0,0.884,0.119,1.156,0.358c0.271,0.239,0.407,0.572,0.407,1.001c0,0.346-0.092,0.629-0.276,0.85
			c-0.184,0.221-0.444,0.369-0.781,0.443c0.21,0.07,0.387,0.239,0.532,0.506l0.565,1.051c0.066,0.118,0.079,0.226,0.039,0.322
			c-0.039,0.096-0.129,0.145-0.269,0.145c-0.096,0-0.175-0.02-0.236-0.059c-0.061-0.039-0.114-0.103-0.158-0.19l-0.69-1.274
			c-0.092-0.171-0.198-0.286-0.318-0.345c-0.12-0.059-0.275-0.089-0.463-0.089h-0.742v1.609
			C68.433,46.178,68.319,46.293,68.091,46.293z M68.433,43.824h1.123c0.674,0,1.011-0.278,1.011-0.834
			c0-0.552-0.337-0.827-1.011-0.827h-1.123V43.824z"/>
		<path fill="#FFFFFF" d="M73.404,46.293c-0.131,0-0.222-0.043-0.272-0.128s-0.047-0.189,0.01-0.312l1.78-3.993
			c0.044-0.101,0.098-0.174,0.164-0.22s0.142-0.069,0.23-0.069c0.079,0,0.152,0.023,0.22,0.069s0.124,0.119,0.167,0.22l1.78,3.993
			c0.057,0.127,0.062,0.232,0.016,0.315s-0.132,0.125-0.259,0.125c-0.096,0-0.173-0.024-0.23-0.072
			c-0.057-0.048-0.107-0.123-0.151-0.223l-0.381-0.88h-2.344l-0.374,0.88c-0.044,0.105-0.092,0.181-0.144,0.227
			S73.491,46.293,73.404,46.293z M75.302,42.373l-0.926,2.193h1.872l-0.932-2.193H75.302z"/>
		<path fill="#FFFFFF" d="M79.898,46.293c-0.215,0-0.322-0.109-0.322-0.328v-4.052c0-0.109,0.027-0.194,0.082-0.253
			s0.128-0.089,0.22-0.089c0.079,0,0.14,0.014,0.184,0.043s0.092,0.08,0.145,0.154l2.541,3.349v-3.224
			c0-0.214,0.105-0.322,0.315-0.322s0.315,0.107,0.315,0.322v4.078c0,0.101-0.025,0.18-0.076,0.236
			c-0.05,0.057-0.117,0.085-0.2,0.085s-0.149-0.015-0.197-0.046c-0.048-0.031-0.101-0.083-0.158-0.158l-2.541-3.356v3.231
			C80.207,46.184,80.104,46.293,79.898,46.293z"/>
		<path fill="#FFFFFF" d="M87.844,46.307c-0.468,0-0.869-0.096-1.202-0.289s-0.588-0.467-0.765-0.824
			c-0.177-0.357-0.266-0.778-0.266-1.264s0.089-0.906,0.266-1.261c0.177-0.355,0.432-0.628,0.765-0.821s0.733-0.289,1.202-0.289
			c0.258,0,0.507,0.035,0.745,0.105c0.239,0.07,0.445,0.171,0.621,0.302c0.096,0.061,0.152,0.135,0.167,0.22
			c0.015,0.085,0.002,0.162-0.039,0.23c-0.042,0.068-0.102,0.113-0.181,0.135s-0.166,0-0.263-0.066
			c-0.149-0.109-0.31-0.19-0.483-0.243c-0.173-0.053-0.356-0.079-0.548-0.079c-0.499,0-0.88,0.153-1.143,0.46
			c-0.263,0.306-0.394,0.742-0.394,1.307s0.131,1.002,0.394,1.31c0.263,0.309,0.644,0.463,1.143,0.463
			c0.193,0,0.378-0.026,0.555-0.079c0.177-0.053,0.345-0.136,0.502-0.25c0.096-0.061,0.182-0.082,0.256-0.062
			s0.131,0.062,0.171,0.128c0.039,0.066,0.053,0.139,0.039,0.22c-0.013,0.081-0.059,0.15-0.138,0.207
			c-0.184,0.144-0.397,0.254-0.64,0.328C88.366,46.269,88.111,46.307,87.844,46.307z"/>
		<path fill="#FFFFFF" d="M91.889,46.247c-0.245,0-0.368-0.123-0.368-0.368v-3.894c0-0.245,0.122-0.368,0.368-0.368h2.397
			c0.188,0,0.282,0.09,0.282,0.269c0,0.188-0.094,0.282-0.282,0.282h-2.108v1.451h1.963c0.188,0,0.282,0.092,0.282,0.276
			c0,0.184-0.094,0.276-0.282,0.276h-1.963v1.523h2.108c0.188,0,0.282,0.092,0.282,0.276c0,0.184-0.094,0.276-0.282,0.276
			L91.889,46.247L91.889,46.247z"/>
		<path fill="#FFFFFF" d="M101.759,46.307c-0.442,0-0.825-0.097-1.149-0.292s-0.575-0.471-0.752-0.827
			c-0.177-0.357-0.266-0.776-0.266-1.258c0-0.486,0.089-0.906,0.266-1.261c0.177-0.355,0.428-0.628,0.752-0.821
			s0.707-0.289,1.149-0.289c0.438,0,0.82,0.096,1.146,0.289c0.326,0.193,0.578,0.466,0.755,0.821
			c0.177,0.355,0.266,0.773,0.266,1.254c0,0.486-0.089,0.907-0.266,1.264s-0.429,0.633-0.755,0.827
			C102.578,46.209,102.197,46.307,101.759,46.307z M101.759,45.716c0.46,0,0.818-0.157,1.074-0.47s0.384-0.752,0.384-1.317
			s-0.127-1.002-0.381-1.313s-0.613-0.466-1.077-0.466c-0.46,0-0.818,0.155-1.074,0.466s-0.384,0.749-0.384,1.313
			s0.128,1.004,0.384,1.317C100.941,45.559,101.299,45.716,101.759,45.716z"/>
		<path fill="#FFFFFF" d="M106.513,46.293c-0.241,0-0.361-0.12-0.361-0.361v-3.947c0-0.245,0.122-0.368,0.368-0.368h2.338
			c0.188,0,0.282,0.09,0.282,0.269c0,0.188-0.094,0.282-0.282,0.282h-2.023v1.478h1.891c0.188,0,0.282,0.09,0.282,0.269
			c0,0.188-0.094,0.282-0.282,0.282h-1.891v1.734C106.835,46.173,106.727,46.293,106.513,46.293z"/>
		<path fill="#FFFFFF" d="M114.518,46.247c-0.245,0-0.368-0.123-0.368-0.368v-3.894c0-0.245,0.122-0.368,0.368-0.368h2.397
			c0.188,0,0.282,0.09,0.282,0.269c0,0.188-0.094,0.282-0.282,0.282h-2.108v1.451h1.963c0.188,0,0.282,0.092,0.282,0.276
			c0,0.184-0.094,0.276-0.282,0.276h-1.963v1.523h2.108c0.188,0,0.282,0.092,0.282,0.276c0,0.184-0.094,0.276-0.282,0.276
			L114.518,46.247L114.518,46.247z"/>
		<path fill="#FFFFFF" d="M119.331,46.293c-0.131,0-0.226-0.049-0.282-0.148c-0.057-0.099-0.044-0.205,0.039-0.319l1.451-1.944
			l-1.366-1.832c-0.092-0.118-0.11-0.228-0.053-0.328c0.057-0.101,0.151-0.151,0.282-0.151s0.25,0.072,0.355,0.217l1.169,1.596
			l1.156-1.596c0.105-0.144,0.225-0.217,0.361-0.217c0.131,0,0.225,0.049,0.282,0.148c0.057,0.098,0.039,0.209-0.053,0.332
			l-1.366,1.832l1.445,1.944c0.083,0.114,0.097,0.22,0.043,0.319c-0.055,0.098-0.15,0.148-0.286,0.148
			c-0.131,0-0.252-0.072-0.361-0.217l-1.228-1.681l-1.221,1.681C119.59,46.221,119.467,46.293,119.331,46.293z"/>
		<path fill="#FFFFFF" d="M126.837,46.307c-0.468,0-0.869-0.096-1.202-0.289s-0.588-0.467-0.765-0.824
			c-0.177-0.357-0.266-0.778-0.266-1.264s0.089-0.906,0.266-1.261c0.177-0.355,0.432-0.628,0.765-0.821s0.733-0.289,1.202-0.289
			c0.258,0,0.507,0.035,0.745,0.105c0.239,0.07,0.445,0.171,0.621,0.302c0.096,0.061,0.152,0.135,0.167,0.22
			c0.015,0.085,0.002,0.162-0.039,0.23c-0.042,0.068-0.102,0.113-0.181,0.135s-0.166,0-0.263-0.066
			c-0.149-0.109-0.31-0.19-0.483-0.243c-0.173-0.053-0.356-0.079-0.548-0.079c-0.499,0-0.88,0.153-1.143,0.46
			c-0.263,0.306-0.394,0.742-0.394,1.307s0.131,1.002,0.394,1.31c0.263,0.309,0.644,0.463,1.143,0.463
			c0.193,0,0.378-0.026,0.555-0.079c0.177-0.053,0.345-0.136,0.502-0.25c0.096-0.061,0.182-0.082,0.256-0.062
			c0.074,0.02,0.131,0.062,0.171,0.128c0.039,0.066,0.053,0.139,0.039,0.22c-0.013,0.081-0.059,0.15-0.138,0.207
			c-0.184,0.144-0.397,0.254-0.64,0.328C127.359,46.269,127.104,46.307,126.837,46.307z"/>
		<path fill="#FFFFFF" d="M130.882,46.247c-0.245,0-0.368-0.123-0.368-0.368v-3.894c0-0.245,0.122-0.368,0.368-0.368h2.397
			c0.188,0,0.282,0.09,0.282,0.269c0,0.188-0.094,0.282-0.282,0.282h-2.108v1.451h1.963c0.188,0,0.282,0.092,0.282,0.276
			c0,0.184-0.094,0.276-0.282,0.276h-1.963v1.523h2.108c0.188,0,0.282,0.092,0.282,0.276c0,0.184-0.094,0.276-0.282,0.276
			L130.882,46.247L130.882,46.247z"/>
		<path fill="#FFFFFF" d="M136.044,46.247c-0.232,0-0.348-0.116-0.348-0.348v-3.96c0-0.232,0.114-0.348,0.341-0.348
			c0.228,0,0.341,0.116,0.341,0.348v3.723h2.036c0.201,0,0.302,0.096,0.302,0.289c0,0.197-0.101,0.296-0.302,0.296
			C138.414,46.247,136.044,46.247,136.044,46.247z"/>
		<path fill="#FFFFFF" d="M140.982,46.247c-0.232,0-0.348-0.116-0.348-0.348v-3.96c0-0.232,0.114-0.348,0.341-0.348
			c0.228,0,0.341,0.116,0.341,0.348v3.723h2.036c0.201,0,0.302,0.096,0.302,0.289c0,0.197-0.101,0.296-0.302,0.296
			C143.352,46.247,140.982,46.247,140.982,46.247z"/>
		<path fill="#FFFFFF" d="M145.939,46.247c-0.245,0-0.368-0.123-0.368-0.368v-3.894c0-0.245,0.122-0.368,0.368-0.368h2.397
			c0.188,0,0.282,0.09,0.282,0.269c0,0.188-0.094,0.282-0.282,0.282h-2.108v1.451h1.963c0.188,0,0.282,0.092,0.282,0.276
			c0,0.184-0.094,0.276-0.282,0.276h-1.963v1.523h2.108c0.188,0,0.282,0.092,0.282,0.276c0,0.184-0.094,0.276-0.282,0.276
			L145.939,46.247L145.939,46.247z"/>
		<path fill="#FFFFFF" d="M151.075,46.293c-0.215,0-0.322-0.109-0.322-0.328v-4.052c0-0.109,0.027-0.194,0.082-0.253
			c0.055-0.059,0.128-0.089,0.22-0.089c0.079,0,0.14,0.014,0.184,0.043s0.092,0.08,0.145,0.154l2.541,3.349v-3.224
			c0-0.214,0.105-0.322,0.315-0.322s0.315,0.107,0.315,0.322v4.078c0,0.101-0.025,0.18-0.076,0.236
			c-0.05,0.057-0.117,0.085-0.2,0.085s-0.149-0.015-0.197-0.046c-0.048-0.031-0.101-0.083-0.158-0.158l-2.541-3.356v3.231
			C151.383,46.184,151.28,46.293,151.075,46.293z"/>
		<path fill="#FFFFFF" d="M159.02,46.307c-0.468,0-0.869-0.096-1.202-0.289s-0.588-0.467-0.765-0.824
			c-0.177-0.357-0.266-0.778-0.266-1.264s0.089-0.906,0.266-1.261c0.177-0.355,0.432-0.628,0.765-0.821s0.733-0.289,1.202-0.289
			c0.258,0,0.507,0.035,0.745,0.105c0.239,0.07,0.445,0.171,0.621,0.302c0.096,0.061,0.152,0.135,0.167,0.22
			c0.015,0.085,0.002,0.162-0.039,0.23c-0.042,0.068-0.102,0.113-0.181,0.135s-0.166,0-0.263-0.066
			c-0.149-0.109-0.31-0.19-0.483-0.243s-0.356-0.079-0.548-0.079c-0.499,0-0.88,0.153-1.143,0.46
			c-0.263,0.306-0.394,0.742-0.394,1.307s0.131,1.002,0.394,1.31c0.263,0.309,0.644,0.463,1.143,0.463
			c0.193,0,0.378-0.026,0.555-0.079c0.177-0.053,0.345-0.136,0.502-0.25c0.096-0.061,0.182-0.082,0.256-0.062
			c0.074,0.02,0.131,0.062,0.171,0.128c0.039,0.066,0.053,0.139,0.039,0.22c-0.013,0.081-0.059,0.15-0.138,0.207
			c-0.184,0.144-0.397,0.254-0.64,0.328C159.542,46.269,159.287,46.307,159.02,46.307z"/>
		<path fill="#FFFFFF" d="M163.065,46.247c-0.245,0-0.368-0.123-0.368-0.368v-3.894c0-0.245,0.122-0.368,0.368-0.368h2.397
			c0.188,0,0.282,0.09,0.282,0.269c0,0.188-0.094,0.282-0.282,0.282h-2.108v1.451h1.963c0.188,0,0.282,0.092,0.282,0.276
			c0,0.184-0.094,0.276-0.282,0.276h-1.963v1.523h2.108c0.188,0,0.282,0.092,0.282,0.276c0,0.184-0.094,0.276-0.282,0.276
			L163.065,46.247L163.065,46.247z"/>
		<path fill="#FFFFFF" d="M168.128,46.274c-0.131,0-0.235-0.039-0.312-0.118s-0.115-0.18-0.115-0.302
			c0-0.123,0.038-0.222,0.115-0.299c0.077-0.077,0.181-0.115,0.312-0.115c0.127,0,0.228,0.038,0.302,0.115
			c0.074,0.077,0.112,0.176,0.112,0.299s-0.037,0.223-0.112,0.302C168.356,46.234,168.255,46.274,168.128,46.274z M168.128,45
			c-0.144,0-0.221-0.083-0.23-0.25l-0.158-2.745c-0.009-0.131,0.021-0.236,0.089-0.315s0.167-0.118,0.299-0.118
			c0.127,0,0.223,0.039,0.289,0.118s0.092,0.184,0.079,0.315l-0.158,2.745C168.33,44.917,168.26,45,168.128,45z"/>
	</g>
</g>
</svg>
