<svg xmlns="http://www.w3.org/2000/svg" width="150" height="95.948" viewBox="0 0 150 95.948">
  <g id="MEAN_Srack" data-name="MEAN Srack" transform="translate(-114.75 -274.099)">
    <path id="Path_12418" data-name="Path 12418" d="M344.631,350.131c-.217,1.032-.413,2.07-.653,3.095-2.264,9.662-9.622,16.5-18.443,16.712-8.854.208-17.715.055-26.573.056a5.106,5.106,0,0,1-.678-.1v-4.312h1.525c8.3,0,16.6.029,24.906-.009,7.7-.035,13.988-5.767,15.686-14.218,2.131-10.6-4.919-21.249-14.451-21.771-1.745-.1-3.5-.014-5.207-.014-.323-3-.628-5.85-.934-8.7l-.543-.174-2.867,3.811c-1.043-1.272-1.839-2.282-2.672-3.251-1.378-1.6-1.388-1.593-3.246-.5v6.151H298.124c0-1.805-.052-3.552.021-5.291.038-.9-.375-1.144-.971-1.417s-1.039-.508-1.578.183c-1.019,1.305-2.127,2.521-3.105,3.667l-8.89-10.145c.95-1.013,2.04-2.228,3.184-3.373a1.386,1.386,0,0,0,.312-1.766c-.292-.687-.482-1.256-1.34-1.2-1.484.1-2.977.026-4.565.026V293.46c1.528,0,3.015-.07,4.494.026.9.059,1.117-.538,1.437-1.275a1.38,1.38,0,0,0-.375-1.753c-1.113-1.135-2.193-2.313-3.3-3.487l.869-1.219c-4.289-2.626-10.849-1.119-17.422,3.991l-2.5-3.156c.364-.375.677-.749,1.033-1.057,6.431-5.539,13.461-6.832,21.06-3.759a1.343,1.343,0,0,0,1.859-.488c1.2-1.519,2.481-2.958,4-4.755,1.13,1.422,2.173,2.691,3.168,4.007a1.018,1.018,0,0,0,1.532.374c.65-.361,1.155-.605,1.1-1.638-.093-1.69-.025-3.391-.025-5.172H310.48c0,1.726.071,3.464-.026,5.189-.058,1.043.464,1.267,1.1,1.631.673.384,1.071.187,1.531-.394,1-1.265,2.053-2.476,3-3.607l8.891,10.13c-.97,1.063-2.048,2.3-3.188,3.467a1.429,1.429,0,0,0-.285,1.781c.284.722.519,1.235,1.354,1.188,1.484-.083,2.975-.023,4.545-.023V307.6c-1.462,0-2.864.04-4.262-.015a1.409,1.409,0,0,0-1.65,1.119,1.647,1.647,0,0,0,.474,2c1.078,1.1,2.12,2.245,3.115,3.306a2.235,2.235,0,0,1-.178.4c-2.269,1.689-2.462,3.839-1.336,6.518a19.59,19.59,0,0,1,.772,3.97c1.784.294,3.574.441,5.3.9,7.551,2,13.464,9.273,14.719,17.968.068.47.181.931.273,1.4ZM301.986,278.5c0,1.492-.037,2.809.014,4.121a1.2,1.2,0,0,1-.922,1.41,38.705,38.705,0,0,0-4.708,2.242c-.664.369-1.051.342-1.533-.272-.79-1.007-1.643-1.949-2.329-2.755l-3.551,3.721,3.161,3.192c-.836,2.428-1.619,4.478-2.234,6.591-.271.929-.64,1.205-1.445,1.154-1.13-.073-2.267-.018-3.373-.018v5.321h4.285l2.816,7.66-3.208,3.145,3.407,3.968,2.862-3.608L302,317.584V322.5h4.615c0-1.5-.051-2.907.033-4.307a1.572,1.572,0,0,1,.7-1.089q2.5-1.288,5.069-2.385a1.212,1.212,0,0,1,1.161.193c.931.974,1.769,2.063,2.432,2.856l3.652-3.815-3.206-3.148,2.792-7.673h4.267v-5.255H319.25c-.939-2.572-1.821-4.985-2.821-7.721l3.156-3.234L316.2,283.06c-.855,1.02-1.665,2.087-2.583,3.017a1.333,1.333,0,0,1-1.267.182c-1.634-.7-3.2-1.6-4.853-2.229-.741-.283-.911-.65-.887-1.433.041-1.346.012-2.7.012-4.17-1.23,0-2.292,0-3.353,0C302.891,278.433,302.515,278.47,301.986,278.5Z" transform="translate(-79.881)" fill="#5F27CD"/>
    <path id="Path_12419" data-name="Path 12419" d="M114.75,363.23c.222-.9.426-1.809.669-2.705a19.6,19.6,0,0,1,18.236-14.571c.592-.026,1.187,0,1.819,0a21.725,21.725,0,0,1,7.77-14.718,21.274,21.274,0,0,1,15.222-5c1.039-2.906,1.962-5.637,3-8.323a17.352,17.352,0,0,1,1.57-2.59l3.064,2.249c-2.521,4.593-3.347,7-3.229,9.435a20.693,20.693,0,0,1,12.932,11.93l-3.478,1.478c-.548-.978-.985-1.906-1.553-2.747-3.63-5.374-8.68-8.081-15.174-7.5-6.75.6-11.643,4.138-14.644,10.219a16.875,16.875,0,0,0-1.644,7.708c.013,1.694-.01,1.694-1.753,1.7-2.991,0-5.957-.058-8.849,1.061-6.5,2.518-10.869,9.5-10.028,16.283A15.82,15.82,0,0,0,132.6,381.243a27,27,0,0,0,2.816.149q29.4.013,58.8.006h1.627v3.869h-1.525q-29.592,0-59.185,0c-10.517,0-18.372-6.615-20.179-16.96a2.032,2.032,0,0,0-.2-.454Z" transform="translate(0 -15.262)" fill="#5F27CD"/>
    <path id="Path_12420" data-name="Path 12420" d="M330.275,439.109c.479-.8,1.458-.932,4-.561v16.8c-1.349-.2-2.777.482-4.207-.541-4.936,2.46-9.581,1.711-12.571-2.168a9.422,9.422,0,0,1,12.782-13.535Zm.194,7.717a5.6,5.6,0,0,0-5.6-5.493,5.545,5.545,0,0,0,.113,11.089A5.583,5.583,0,0,0,330.469,446.826Z" transform="translate(-120.727 -95.592)" fill="#5F27CD"/>
    <path id="Path_12421" data-name="Path 12421" d="M258.395,438.991c1.271-1.182,2.7-.311,4.082-.67v16.994c-1.333-.1-2.715.344-4.228-.435a9.444,9.444,0,1,1,.146-15.889Zm.3,7.876a5.523,5.523,0,0,0-5.5-5.564,5.545,5.545,0,1,0-.029,11.089A5.5,5.5,0,0,0,258.7,446.866Z" transform="translate(-77.582 -95.563)" fill="#5F27CD"/>
    <path id="Path_12422" data-name="Path 12422" d="M196.48,425.442l-1.994,2.4a16.751,16.751,0,0,0-3.591-1.362,9.731,9.731,0,0,0-3.858.333,2.456,2.456,0,0,0-1.707,2.6,2.348,2.348,0,0,0,1.789,2.232c1.716.651,3.444,1.287,5.1,2.071a14.638,14.638,0,0,1,3.474,2.114,5.9,5.9,0,0,1,.316,8.777c-2.4,2.547-5.421,3.1-8.72,2.395a11.016,11.016,0,0,1-6.049-3.408l2.417-2.215a8.8,8.8,0,0,0,5.107,2.486A5.372,5.372,0,0,0,193.3,442.6a2.787,2.787,0,0,0-.175-4.612,13.418,13.418,0,0,0-2.713-1.411c-1.567-.677-3.165-1.282-4.751-1.916a5.413,5.413,0,0,1-3.655-4.825,5.83,5.83,0,0,1,2.611-5.52,8.34,8.34,0,0,1,6.115-1.351A11.722,11.722,0,0,1,196.48,425.442Z" transform="translate(-40.053 -85.985)" fill="#5F27CD"/>
    <path id="Path_12423" data-name="Path 12423" d="M388.453,441.336c2.243,1.984,4.7,3,7.61,2.282a5.155,5.155,0,0,0,2.181-1.25,2.685,2.685,0,0,0-.2-4.332,13.08,13.08,0,0,0-2.8-1.505c-1.6-.7-3.257-1.286-4.863-1.98A5.813,5.813,0,0,1,389.2,424.43a8.5,8.5,0,0,1,8.178-1.072,39.01,39.01,0,0,1,4.034,1.863l-1.949,2.331a49.3,49.3,0,0,0-5.522-1.3,4.306,4.306,0,0,0-2.621.8,2.462,2.462,0,0,0,.462,4.459c1.728.736,3.52,1.332,5.214,2.137a14.818,14.818,0,0,1,3.573,2.193,5.848,5.848,0,0,1,.42,8.5c-2.472,2.8-5.643,3.346-9.133,2.547a11.106,11.106,0,0,1-5.82-3.341Z" transform="translate(-163.415 -85.924)" fill="#5F27CD"/>
    <path id="Path_12427" data-name="Path 12427" d="M365.252,334.225a8.131,8.131,0,1,1,8.148-8.176A8.162,8.162,0,0,1,365.252,334.225Zm-.075-3.87a4.266,4.266,0,1,0,.11-8.531,4.329,4.329,0,0,0-4.35,4.283A4.277,4.277,0,0,0,365.177,330.355Z" transform="translate(-140.604 -26.025)" fill="#5F27CD"/>
  </g>
</svg>
