<svg xmlns="http://www.w3.org/2000/svg" width="150" height="150" viewBox="0 0 150 150">
  <g id="Telemedicine_App_Solution" data-name="Telemedicine App Solution" transform="translate(-58.75 -58.75)">
    <path id="Path_13737" data-name="Path 13737" d="M58.75,112.309c1-2.691,2.6-4.78,5.592-5.4a10.193,10.193,0,0,1,2.034-.164q29.871-.012,59.742,0c4.762,0,7.626,2.887,7.63,7.683.007,8.3.027,16.6-.027,24.892a3.5,3.5,0,0,0,1.184,2.788c3.149,3.062,6.222,6.2,9.338,9.3.875.87,1.58,1.77,1.023,3.089-.549,1.3-1.65,1.49-2.9,1.476-2.819-.032-5.638-.01-8.614-.01v7.986q0,2.562,0,5.125c0,5.2-2.759,7.982-7.922,7.983q-23.282,0-46.564,0c-3.9,0-7.816-.146-11.712.039-4.353.206-7.339-1.426-8.8-5.605Zm78.733,38.965c-2.537-2.531-4.747-4.8-7.034-6.987a4.253,4.253,0,0,1-1.41-3.352c.047-8.784.027-17.569.022-26.354,0-2.4-.752-3.149-3.146-3.149q-29.648,0-59.3,0c-2.417,0-3.179.744-3.179,3.113q0,27.379,0,54.758c0,2.289.781,3.063,3.084,3.064q29.721,0,59.443,0c2.3,0,3.09-.777,3.093-3.057.007-5.027,0-10.053.006-15.08,0-2.122.811-2.936,2.9-2.952C133.661,151.264,135.358,151.274,137.482,151.274Z" transform="translate(0 -29.243)" fill="#fff"/>
    <path id="Path_13738" data-name="Path 13738" d="M142.307,351.452c-2.616-1-4.724-2.514-5.357-5.453a9.043,9.043,0,0,1-.2-1.882q-.016-25.043-.009-50.085v-1.085h4.654v34.962h79.694v-6.85H225.8v1.53c0,6.639-.139,13.282.049,19.915.124,4.383-1.342,7.471-5.616,8.948Zm78.8-18.646h-79.68c0,3.514,0,6.924,0,10.335,0,3.019.592,3.624,3.552,3.624h72.611c.39,0,.783.02,1.171-.01a2.278,2.278,0,0,0,2.329-2.328C221.139,340.581,221.108,336.734,221.108,332.806Z" transform="translate(-47.522 -142.702)" fill="#fff"/>
    <path id="Path_13739" data-name="Path 13739" d="M340.342,226.506c-.459,2.135-.785,4.31-1.4,6.4A32.624,32.624,0,0,1,307.9,256.37c-10.1.073-20.208.01-30.313.027a2.437,2.437,0,0,1-1.788-4.417c2.292-2.26,4.567-4.538,6.637-6.6-1.776-3.144-3.777-6.007-5.108-9.154a32.775,32.775,0,1,1,62.756-16.681,4.444,4.444,0,0,0,.26.806Zm-57.372,24.849.152.346h.976c7.856,0,15.711.04,23.567-.009a28.12,28.12,0,1,0-20.458-8.7c1.485,1.589,1.484,2.739-.052,4.273C285.777,248.646,284.367,249.994,282.971,251.355Z" transform="translate(-131.592 -80.451)" fill="#fff"/>
    <path id="Path_13740" data-name="Path 13740" d="M220.231,58.75c2.63.989,4.72,2.517,5.356,5.455a8.308,8.308,0,0,1,.2,1.736q.017,20.506.007,41.013c0,.283-.026.567-.044.931h-4.568V82.224H183.69V77.566h37.326c.038-.574.089-1,.09-1.416q.01-4.76,0-9.521c0-2.466-.742-3.184-3.254-3.191H144.909c-2.871,0-3.486.626-3.487,3.543,0,2.674,0,5.347,0,8.1h-4.688V70.335c0-1.416-.009-2.832,0-4.248a7.043,7.043,0,0,1,5.079-7.059,3.079,3.079,0,0,0,.485-.279Z" transform="translate(-47.516 0)" fill="#fff"/>
    <path id="Path_13741" data-name="Path 13741" d="M160.736,292.742h4.615V313.7h2.416q0-5.195,0-10.367c0-3,.593-3.6,3.579-3.6,2.539,0,5.078-.012,7.616,0,2.016.012,2.852.838,2.862,2.843.017,3.222,0,6.444,0,9.666v1.485h2.344v-1.562q0-8.2,0-16.4c0-2.292.777-3.057,3.084-3.063,2.734-.007,5.468-.016,8.2,0,1.909.014,2.763.867,2.769,2.788.016,5.517.006,11.033.006,16.55v1.689h4.569v4.748h-1.512q-18.6,0-37.2,0c-2.679,0-3.354-.682-3.355-3.384q0-10.4,0-20.8Zm28.226,4.724v16.221h4.512V297.466ZM172.517,313.7h4.508V304.51h-4.508Z" transform="translate(-62.143 -142.554)" fill="#fff"/>
    <path id="Path_13742" data-name="Path 13742" d="M220.9,87.451V82.942h23.252v4.509Z" transform="translate(-98.802 -14.741)" fill="#fff"/>
    <path id="Path_13743" data-name="Path 13743" d="M322.587,142.406h-4.621v-6.887h-6.978v-4.738c3.191,0,6.388-.067,9.58.034a2.041,2.041,0,0,1,2,2.147C322.628,136.07,322.587,139.179,322.587,142.406Z" transform="translate(-153.695 -43.877)" fill="#fff"/>
    <path id="Path_13744" data-name="Path 13744" d="M286.942,130.928h4.49v4.515h-4.49Z" transform="translate(-139.043 -43.98)" fill="#fff"/>
    <path id="Path_13750" data-name="Path 13750" d="M111.011,160.215a3.689,3.689,0,0,0-1.15-3.895,10.827,10.827,0,0,1-3.4-8.576c.046-1.91.2-3.8-1.715-5.07a1.907,1.907,0,0,1-.6-1.285c-1.106-11.122,7.215-16.977,14.667-16.651A14.152,14.152,0,0,1,132.2,137.993a10.887,10.887,0,0,1-.021,2.917,5.6,5.6,0,0,1-1.292,2.476,3.188,3.188,0,0,0-1.017,2.572c.2,3.231-.187,6.344-2.212,9.039a5.245,5.245,0,0,1-1.136,1.328c-1.434.931-1.492,2.25-1.211,3.874l10.034,1.445c1.3.188,2.61.363,3.91.572a2.375,2.375,0,0,1,2.341,2.644q.034,6.737,0,13.475a2.348,2.348,0,0,1-2.621,2.639q-20.8.022-41.6,0a2.343,2.343,0,0,1-2.636-2.621q-.038-6.738,0-13.476c.008-1.672.743-2.419,2.468-2.668C101.794,161.548,106.38,160.885,111.011,160.215Zm4.814,16.018a58.835,58.835,0,0,1,.046-6.4c.289-2.58-1.812-3.439-3.091-4.9-.117-.134-.468-.12-.7-.088q-6.288.868-12.58,1.762v9.635Zm21.015-.009V166.6c-4.023-.579-7.978-1.159-11.936-1.711-1.227-.171-4.314,2.155-4.358,3.408-.091,2.618-.028,5.242-.028,7.93Zm-9.3-37.406a9.385,9.385,0,1,0-18.75.6c.053,1.138.543,1.725,1.753,1.483,1.551-.31,2.807-.777,3.123-2.713.109-.669,1.255-1.432,2.065-1.658a1.82,1.82,0,0,1,2.223,1.448,2.956,2.956,0,0,0,2.438,2.219,33.946,33.946,0,0,0,4.725.863C127.091,141.286,127.571,140.779,127.542,138.819Zm-2.42,7.1a41.436,41.436,0,0,1-4.3-.747c-1.349-.378-2.616-1.042-3.939-1.526a1.511,1.511,0,0,0-1.048.008c-1.526.707-3.021,1.477-4.644,2.282-.347,3.194.14,6.272,3.347,8.224a6.6,6.6,0,0,0,7.34-.043C124.923,152.207,125.5,149.247,125.122,145.914Zm-9.205,13.89c-.536,2.011,1.318,2.523,2.278,3.865.882-1.374,2.861-1.868,2.194-3.865Z" transform="translate(-21.919 -40.201)" fill="#fff"/>
    <path id="Path_13751" data-name="Path 13751" d="M244.3,406.925v4.491h-23.3v-4.491Z" transform="translate(-98.858 -212.152)" fill="#fff"/>
    <path id="Path_13752" data-name="Path 13752" d="M331.521,247.532c0,3.85.007,7.46,0,11.071-.006,2.189-.809,2.984-3.014,2.989q-6.369.013-12.738,0c-2.194,0-2.987-.8-2.993-3.008-.009-3.609,0-7.218,0-11.052h-1.447c-3.27,0-6.54.013-9.81-.005-1.927-.011-2.791-.854-2.8-2.755q-.028-6.589,0-13.177c.007-1.979.861-2.8,2.893-2.808,3.654-.013,7.309,0,11.164,0v-2.506c0-2.928-.014-5.857.006-8.785.013-1.91.865-2.759,2.786-2.766q6.589-.025,13.177,0c1.911.007,2.766.865,2.775,2.779.019,3.7.005,7.4.005,11.277H340.8c4.629,0,4.788.157,4.788,4.731v10.1c0,3.418-.49,3.916-3.85,3.916Zm9.3-14.063h-1.683c-3.22,0-6.439.019-9.658-.009a2.356,2.356,0,0,1-2.641-2.613c-.032-2.292-.008-4.585-.009-6.878v-4.45h-9.375c0,3.574,0,7.034,0,10.5,0,2.795-.654,3.453-3.429,3.454-3.5,0-7,0-10.545,0v9.375c3.785,0,7.483-.012,11.181.005,1.917.009,2.764.859,2.789,2.765.021,1.61,0,3.22,0,4.829v6.348h9.375c0-3.575,0-7.036,0-10.5,0-2.8.645-3.45,3.426-3.452,3.5,0,7,0,10.565,0Z" transform="translate(-146.209 -95.032)" fill="#fff"/>
  </g>
</svg>
