<svg xmlns="http://www.w3.org/2000/svg" width="134.493" height="150" viewBox="0 0 134.493 150">
  <g id="Web_Development" data-name="Web Development" transform="translate(-77.936 -140.998)">
    <path id="Path_12352" data-name="Path 12352" d="M193.594,141a3.69,3.69,0,0,1,1.513,3.3c-.046,5.625-.019,11.251-.019,16.877v1.8c1.269,0,2.384-.044,3.495.007a14.448,14.448,0,0,1,13.784,14.1c.108,11.935.042,23.872.044,35.808q0,19,0,38.01c-.011,9.121-6.288,15.37-15.414,15.386-1.859,0-3.718.02-5.577-.006-2-.028-3.345-1.221-3.36-2.923-.015-1.719,1.3-2.909,3.315-2.934,2.054-.026,4.109.017,6.163-.013a8.8,8.8,0,0,0,9-9.01c.019-1.611,0-3.221,0-4.953H83.651c.187,2.579.061,5.252.64,7.762.852,3.694,4.377,6.106,8.329,6.2,2.249.051,4.5.011,6.751.011h67.067c.538,0,1.077-.014,1.614.014A2.867,2.867,0,0,1,171,263.254a2.9,2.9,0,0,1-2.94,3.009c-2.052.073-4.109.021-6.163.023h-1.953v7.048a14.922,14.922,0,0,1,10.7,5.107,14.1,14.1,0,0,1,3.577,8.939c.092,2.51-.978,3.611-3.489,3.613q-14.6.012-29.2,0-10.713,0-21.426,0c-3.169,0-4.333-1.337-3.916-4.481a14.741,14.741,0,0,1,13.342-13.086c.281-.032.561-.061.891-.1v-7.047h-1.8q-17.537,0-35.074,0c-9.383,0-15.611-6.244-15.612-15.646q0-36.322,0-72.644c0-7.523,4.829-13.471,12.063-14.819a46.443,46.443,0,0,1,5.253-.38v-1.6c0-5.577.032-11.154-.022-16.73A4.044,4.044,0,0,1,96.726,141ZM95.261,240.38v-1.786q0-17.68,0-35.36c0-.44-.02-.883.016-1.32a2.923,2.923,0,0,1,5.84-.02c.035.438.015.88.015,1.32q0,17.681,0,35.361v1.788H189.1V165.743H101.128c0,4.523.028,8.921-.014,13.32a2.911,2.911,0,0,1-2.966,2.989,2.96,2.96,0,0,1-2.868-2.949c-.058-2.2-.018-4.4-.02-6.6,0-1.2,0-2.407,0-3.578-8-1.073-11.595,4.4-11.533,10.144.213,19.854.082,39.713.082,59.569v1.743Zm5.951-80.729h87.924V146.664H101.212Zm93.956,9.074v71.622h11.371v-3.763q0-29.279,0-58.558c0-4.538-2.557-8.01-6.725-8.953A31.088,31.088,0,0,0,195.168,168.725ZM167.7,285.046a8.312,8.312,0,0,0-8-5.779c-9.672-.03-19.345-.044-29.017.008a8.433,8.433,0,0,0-7.558,4.493c-.227.384-.381.811-.6,1.278Zm-13.8-11.776v-6.883H136.492v6.883Z" transform="translate(0 0)" fill="#FD9F43"/>
    <path id="Path_12353" data-name="Path 12353" d="M299.021,513.173a2.25,2.25,0,0,1,2.224,2.312,2.325,2.325,0,0,1-2.293,2.276,2.37,2.37,0,0,1-2.3-2.4A2.3,2.3,0,0,1,299.021,513.173Z" transform="translate(-153.766 -261.773)" fill="#FD9F43"/>
    <path id="Path_12354" data-name="Path 12354" d="M416.04,549.355a2.316,2.316,0,0,1-2.3,2.356,2.366,2.366,0,0,1-2.3-2.261,2.3,2.3,0,0,1,2.2-2.324A2.256,2.256,0,0,1,416.04,549.355Z" transform="translate(-234.472 -283.294)" fill="#FD9F43"/>
    <path id="Path_12360" data-name="Path 12360" d="M366.9,312.457c-2.635-2.626-5.248-5.227-7.859-7.831-1.537-1.533-1.76-2.774-.7-3.883q1.638-1.72,3.967.612,4.528,4.525,9.053,9.054c1.508,1.513,1.513,2.641.016,4.143q-4.723,4.739-9.463,9.459a2.388,2.388,0,0,1-3.391.4,2.287,2.287,0,0,1,.026-3.545c2.511-2.545,5.051-5.063,7.577-7.593C366.361,313.033,366.591,312.779,366.9,312.457Z" transform="translate(-194.611 -109.568)" fill="#FD9F43"/>
    <path id="Path_12361" data-name="Path 12361" d="M196.9,312.336c2.771,2.772,5.376,5.377,7.979,7.983,1.563,1.565,1.769,2.872.628,3.965-1.07,1.024-2.4.786-3.888-.7q-4.529-4.527-9.054-9.057c-1.53-1.534-1.535-2.6-.013-4.132q4.683-4.7,9.377-9.387c.651-.654,1.409-1.3,2.313-.944a3.885,3.885,0,0,1,1.806,1.539c.53.9.03,1.787-.661,2.483q-3.456,3.478-6.938,6.931C197.99,311.474,197.461,311.865,196.9,312.336Z" transform="translate(-78.941 -109.532)" fill="#FD9F43"/>
    <path id="Path_12362" data-name="Path 12362" d="M291.008,303.639a5.839,5.839,0,0,1-.268.917q-4.382,9.9-8.783,19.785a2.214,2.214,0,0,1-2.38,1.44c-1.705-.145-2.51-1.779-1.723-3.56q3.141-7.11,6.317-14.2c.827-1.859,1.621-3.733,2.492-5.571a2.2,2.2,0,0,1,2.689-1.223A2.293,2.293,0,0,1,291.008,303.639Z" transform="translate(-139.079 -110.372)" fill="#FD9F43"/>
    <path id="Path_12363" data-name="Path 12363" d="M139.275,299.654a2.293,2.293,0,0,1,2.21,2.316,2.3,2.3,0,1,1-4.6-.059A2.3,2.3,0,0,1,139.275,299.654Z" transform="translate(-45.32 -111.59)" fill="#FD9F43"/>
    <path id="Path_12364" data-name="Path 12364" d="M319.864,176.876c-3.919,0-7.839.015-11.758-.008a2.3,2.3,0,0,1-2.5-2.28,2.355,2.355,0,0,1,2.389-2.312c.344-.027.691-.014,1.037-.014h11.642c3.535,0,7.07-.009,10.6.005,1.445.006,2.341.559,2.668,1.577a2.3,2.3,0,0,1-2.436,3.024C327.625,176.894,323.744,176.877,319.864,176.876Z" transform="translate(-155.436 -24.034)" fill="#FD9F43"/>
    <path id="Path_12365" data-name="Path 12365" d="M174.2,176.983a2.294,2.294,0,0,1-2.289-2.267,2.339,2.339,0,0,1,2.275-2.3,2.288,2.288,0,0,1,2.322,2.343A2.245,2.245,0,0,1,174.2,176.983Z" transform="translate(-66.067 -24.154)" fill="#FD9F43"/>
    <path id="Path_12366" data-name="Path 12366" d="M210.831,176.976a2.242,2.242,0,0,1-2.227-2.3,2.285,2.285,0,0,1,2.279-2.269,2.34,2.34,0,0,1,2.31,2.379A2.3,2.3,0,0,1,210.831,176.976Z" transform="translate(-91.867 -24.145)" fill="#FD9F43"/>
    <path id="Path_12367" data-name="Path 12367" d="M249.641,174.68a2.238,2.238,0,0,1-2.235,2.29,2.28,2.28,0,0,1-2.338-2.322,2.312,2.312,0,0,1,2.312-2.252A2.275,2.275,0,0,1,249.641,174.68Z" transform="translate(-117.504 -24.138)" fill="#FD9F43"/>
  </g>
</svg>
