<svg xmlns="http://www.w3.org/2000/svg" width="150" height="150" viewBox="0 0 150 150">
  <g id="Custom_software" data-name="Custom software" transform="translate(-114.75 -204.75)">
    <path id="Path_12368" data-name="Path 12368" d="M264.75,351.528v3.223h-150v-3.223a3.62,3.62,0,0,1,3.4-1.492c4.587.073,9.176.027,13.765.027h1.51V328.969h-1.508c-4.588,0-9.178-.046-13.765.027a3.64,3.64,0,0,1-3.4-1.492V204.75h150V327.5a3.654,3.654,0,0,1-3.4,1.493c-4.587-.075-9.177-.028-13.765-.028H246.08v21.094h1.509c4.589,0,9.178.047,13.766-.027A3.634,3.634,0,0,1,264.75,351.528Zm-53.907-95.215c.507,0,.84,0,1.173,0,2.917.031,3.515.628,3.515,3.517q0,9.154,0,18.307v1.613h27c2.81,0,3.467.647,3.467,3.418q0,19.626,0,39.252v1.773h13.96V228.3H119.513v95.887H133.5v-1.827q0-19.7,0-39.4c0-2.488.728-3.21,3.231-3.211q12.815,0,25.631,0h1.606v-1.669q0-9.447,0-18.894c0-2.023.832-2.842,2.833-2.873.571-.009,1.143,0,1.851,0,0-2.277-.013-4.413,0-6.549.016-1.941.843-2.818,2.734-2.82q18.381-.018,36.762,0c1.81,0,2.66.89,2.681,2.726C210.861,251.815,210.843,253.958,210.843,256.313ZM119.506,223.4H259.945V209.512H119.506Zm30.47,126.558h79.546v-9.27c-2.5,0-4.926-.021-7.353.008a2.693,2.693,0,0,1-2.774-2.1c-1.137-3.045-2.311-6.084-3.641-9.048-1-2.228-1.073-2.489.633-4.2l4.667-4.672-6.583-6.593c-1.64,1.628-3.374,3.331-5.086,5.056a2.466,2.466,0,0,1-3.415.469,27.087,27.087,0,0,0-9.794-4.072c-1.283-.233-1.639-1.132-1.685-2.221-.065-1.56-.048-3.123-.058-4.685-.007-1.006,0-2.012,0-2.986h-9.368c0,2.408.005,4.7,0,6.994-.007,2.023-.58,2.518-2.5,3.18a64.641,64.641,0,0,0-8.218,3.332c-2.481,1.263-2.647,1.474-4.649-.49-1.591-1.561-3.068-3.238-4.422-4.679l-6.752,6.753c1.5,1.5,3.119,3.122,4.734,4.749,1.534,1.546,1.465,2.155.5,4.125a67.82,67.82,0,0,0-3.54,8.29c-.817,2.436-.872,2.742-3.475,2.779-2.231.03-4.463.006-6.762.006Zm22.471-35.284c2.4-.981,4.8-1.919,7.148-2.968a1.692,1.692,0,0,0,.745-1.271c.075-2.243.023-4.49.039-6.736.014-2.011.84-2.843,2.853-2.85q6.517-.021,13.035,0c2.01.006,2.84.841,2.854,2.851.017,2.245-.019,4.491.026,6.736.008.412.193,1.065.477,1.188,2.488,1.078,5.017,2.06,7.538,3.073.789-.773,1.58-1.646,2.473-2.4a3.584,3.584,0,0,0,1.234-3.067q-.058-23.213-.025-46.426v-1.7h-42.09a2.33,2.33,0,0,0-.083.383q-.01,24.385.007,48.769a2.018,2.018,0,0,0,.508,1.272C170.231,312.62,171.355,313.633,172.447,314.673Zm-34.153-30.162V349.99h6.925v-1.5c0-3.125,0-6.25,0-9.375.005-2.373.761-3.111,3.179-3.116,2.148,0,4.3.025,6.445-.025.4-.009,1.031-.223,1.157-.515.568-1.32.992-2.7,1.494-4.135h-1.729c-3.467,0-6.934.022-10.4,0a2.265,2.265,0,0,1-2.457-2.02,2.182,2.182,0,0,1,1.606-2.476,5.281,5.281,0,0,1,1.585-.173c3.418-.012,6.836,0,10.253-.006.349,0,.7-.057,1.06-.089-1.571-2.446-4.839-3.5-4.915-6.946-2.386,0-4.775.032-7.163-.011a2.3,2.3,0,0,1-2.365-2.917,2.509,2.509,0,0,1,2.722-1.76c3.418.012,6.837.055,10.253-.038a3.6,3.6,0,0,0,2.127-.9c1.733-1.574,3.3-3.325,5.029-4.909a2.382,2.382,0,0,0,.888-1.978c-.037-6.445-.02-12.89-.02-19.335v-3.255Zm83.716,42.115c4.089,0,8.03-.016,11.972.007a2.352,2.352,0,1,1,.006,4.671c-2.832.025-5.664,0-8.5,0-1.14,0-2.28,0-3.512,0,.5,1.375,1,2.541,1.331,3.753a1.126,1.126,0,0,0,1.337.96c1.952-.045,3.906-.015,5.859-.015,3.262,0,3.773.522,3.774,3.846q0,4.468,0,8.935c0,.416.055.831.081,1.195h6.841V284.51H215.738c-.1.108-.159.144-.159.179q-.027,11.5-.027,23a1.551,1.551,0,0,0,.458.964c1.788,1.8,3.566,3.617,5.445,5.32a3.592,3.592,0,0,0,2.124.9c3.415.093,6.835.031,10.253.046,1.726.008,2.776.912,2.781,2.331s-1.052,2.332-2.768,2.346c-2.291.019-4.582,0-6.85,0C226.865,323.018,223.622,324.092,222.01,326.626Zm-15.926-74.905H173.457v4.522h32.626Z" transform="translate(0)" fill="#19A3A4"/>
    <path id="Path_12378" data-name="Path 12378" d="M146.536,232.391a1.809,1.809,0,1,1,1.854-1.763A1.827,1.827,0,0,1,146.536,232.391Z" transform="translate(-20.931 -16.748)" fill="#19A3A4"/>
    <path id="Path_12379" data-name="Path 12379" d="M178.388,230.571a1.807,1.807,0,1,1-1.82-1.8A1.829,1.829,0,0,1,178.388,230.571Z" transform="translate(-41.843 -16.749)" fill="#19A3A4"/>
    <path id="Path_12380" data-name="Path 12380" d="M206.556,228.776a1.808,1.808,0,1,1-1.787,1.826A1.824,1.824,0,0,1,206.556,228.776Z" transform="translate(-54.597 -16.749)" fill="#19A3A4"/>
    <path id="Path_12381" data-name="Path 12381" d="M257.036,523.989c1.379,1.365,2.651,2.6,3.9,3.865.991,1,1.068,2.1.242,2.883-.794.757-1.842.667-2.8-.281q-2.5-2.472-4.971-4.976c-1.05-1.069-1.037-1.958.034-3.043q2.47-2.5,4.974-4.974a1.857,1.857,0,0,1,2.8-.214c.777.784.707,1.848-.229,2.8C259.715,521.343,258.422,522.608,257.036,523.989Z" transform="translate(-82.982 -183.763)" fill="#19A3A4"/>
    <path id="Path_12382" data-name="Path 12382" d="M335.45,523.974c-1.375-1.351-2.646-2.584-3.9-3.837-1.012-1.012-1.118-2.071-.323-2.879s1.871-.719,2.882.28q2.421,2.394,4.816,4.814c1.171,1.184,1.188,2.055.042,3.215-1.676,1.694-3.348,3.394-5.077,5.033a1.771,1.771,0,0,1-3.01-.414,1.832,1.832,0,0,1,.545-2.244C332.722,526.67,334.011,525.394,335.45,523.974Z" transform="translate(-129.966 -183.766)" fill="#19A3A4"/>
    <path id="Path_12383" data-name="Path 12383" d="M296.682,531.138a1.8,1.8,0,0,1-1.877-2.307q1.778-5.55,3.694-11.055a1.789,1.789,0,0,1,2.3-1.119,1.883,1.883,0,0,1,1.13,2.5c-.538,1.729-1.136,3.439-1.725,5.151-.637,1.854-1.271,3.71-1.949,5.55C297.983,530.6,297.526,531.2,296.682,531.138Z" transform="translate(-108.595 -183.659)" fill="#19A3A4"/>
    <path id="Path_12384" data-name="Path 12384" d="M270.729,370.393c0-.643-.042-1.29.009-1.929a1.782,1.782,0,0,1,1.785-1.706,1.756,1.756,0,0,1,1.8,1.685c.063,1.283.061,2.574,0,3.858a1.762,1.762,0,0,1-1.782,1.707,1.785,1.785,0,0,1-1.8-1.687C270.686,371.683,270.73,371.036,270.729,370.393Z" transform="translate(-94.587 -97.77)" fill="#19A3A4"/>
    <path id="Path_12385" data-name="Path 12385" d="M304.311,370.437c0,.605.037,1.213-.008,1.816a1.8,1.8,0,0,1-1.858,1.754,1.775,1.775,0,0,1-1.739-1.753c-.05-1.247-.051-2.5,0-3.745a1.77,1.77,0,0,1,1.739-1.752,1.8,1.8,0,0,1,1.858,1.752C304.349,369.147,304.311,369.793,304.311,370.437Z" transform="translate(-112.754 -97.767)" fill="#19A3A4"/>
    <path id="Path_12386" data-name="Path 12386" d="M334.309,370.473c0,.568.029,1.137,0,1.7a1.815,1.815,0,0,1-1.786,1.832,1.778,1.778,0,0,1-1.821-1.788c-.048-1.209-.045-2.423,0-3.632a1.8,1.8,0,1,1,3.606-.044C334.343,369.184,334.309,369.83,334.309,370.473Z" transform="translate(-130.945 -97.769)" fill="#19A3A4"/>
    <path id="Path_12387" data-name="Path 12387" d="M274.313,412.418c0,.605.036,1.213-.007,1.816A1.8,1.8,0,0,1,272.462,416a1.772,1.772,0,0,1-1.753-1.738c-.053-1.246-.053-2.5,0-3.745a1.772,1.772,0,0,1,1.839-1.767,1.794,1.794,0,0,1,1.759,1.737C274.351,411.128,274.312,411.774,274.313,412.418Z" transform="translate(-94.561 -123.112)" fill="#19A3A4"/>
    <path id="Path_12388" data-name="Path 12388" d="M300.726,412.269c0-.605-.041-1.214.009-1.815a1.784,1.784,0,0,1,1.791-1.7,1.756,1.756,0,0,1,1.8,1.69c.062,1.283.061,2.574,0,3.858a1.76,1.76,0,0,1-1.787,1.7,1.819,1.819,0,0,1-1.809-1.691,1.979,1.979,0,0,1-.009-.227q0-.908,0-1.816Z" transform="translate(-112.78 -123.113)" fill="#19A3A4"/>
    <path id="Path_12389" data-name="Path 12389" d="M330.722,412.376c0-.643-.043-1.29.01-1.929a1.782,1.782,0,0,1,1.8-1.694,1.757,1.757,0,0,1,1.791,1.7c.061,1.283.061,2.574,0,3.858a1.76,1.76,0,0,1-1.792,1.7,1.785,1.785,0,0,1-1.794-1.7C330.679,413.666,330.722,413.019,330.722,412.376Z" transform="translate(-130.971 -123.113)" fill="#19A3A4"/>
    <path id="Path_12390" data-name="Path 12390" d="M193.228,426.71c1.4,0,2.8-.016,4.2,0a1.823,1.823,0,1,1,.014,3.622q-4.314.029-8.629,0a1.823,1.823,0,1,1-.014-3.621C190.276,426.693,191.752,426.71,193.228,426.71Z" transform="translate(-43.11 -134.611)" fill="#19A3A4"/>
    <path id="Path_12391" data-name="Path 12391" d="M193.08,460.333c-1.438,0-2.877.02-4.314-.006a1.824,1.824,0,0,1-1.994-1.851,1.806,1.806,0,0,1,1.961-1.766q4.371-.034,8.743,0a1.816,1.816,0,1,1,.033,3.618C196.032,460.354,194.556,460.333,193.08,460.333Z" transform="translate(-43.108 -152.798)" fill="#19A3A4"/>
    <path id="Path_12392" data-name="Path 12392" d="M391.061,430.337c-1.438,0-2.876.02-4.314-.006a1.824,1.824,0,0,1-2-1.845,1.8,1.8,0,0,1,1.956-1.772q4.371-.036,8.742,0a1.819,1.819,0,0,1,2,1.842,1.846,1.846,0,0,1-2.071,1.779C393.937,430.352,392.5,430.337,391.061,430.337Z" transform="translate(-161.609 -134.606)" fill="#19A3A4"/>
    <path id="Path_12393" data-name="Path 12393" d="M390.985,460.335c-1.4,0-2.8.017-4.2-.005a1.823,1.823,0,1,1,0-3.622q4.314-.028,8.629,0a1.823,1.823,0,1,1,0,3.621C393.937,460.352,392.461,460.335,390.985,460.335Z" transform="translate(-161.61 -152.799)" fill="#19A3A4"/>
  </g>
</svg>
