<svg xmlns="http://www.w3.org/2000/svg" width="122.183" height="150" viewBox="0 0 122.183 150">
  <g id="PWA_Development" data-name="PWA Development" transform="translate(-150.382 -204.75)">
    <path id="Path_12334" data-name="Path 12334" d="M242.813,204.75c.916.291,1.859.517,2.744.883,5.314,2.195,8.409,6.131,8.693,11.9.228,4.626.073,9.27.087,13.906,0,.523,0,1.047,0,1.714,2.017,0,3.859-.007,5.7,0,7.275.031,12.446,4.973,12.471,12.258q.107,31.254,0,62.508c-.028,7.258-5.223,12.192-12.508,12.243-1.84.012-3.681,0-5.672,0,0,4.248,0,8.335,0,12.422,0,2.975.052,5.952-.035,8.925a13.366,13.366,0,0,1-10.835,12.962,3.7,3.7,0,0,0-.643.272h-62.7a34.05,34.05,0,0,1-5.078-2.079,12.382,12.382,0,0,1-6.369-10.712c-.155-6.631-.064-13.267-.078-19.9,0-.576,0-1.151,0-1.89-1.893,0-3.634,0-5.375,0-7.762-.022-12.812-5.05-12.822-12.837q-.029-24.228-.006-48.457c0-4.341-.021-8.682.005-13.022.046-7.712,5.066-12.682,12.79-12.694,1.744,0,3.489,0,5.407,0v-3.326c0-3.611-.012-7.222,0-10.834.031-7.394,3.928-12.275,11.167-14.022a1.341,1.341,0,0,0,.357-.225Zm-88.827,52.775c-.032.511-.076.894-.076,1.278q-.005,24.385.007,48.77c.009,5.6,3.57,9.078,9.215,9.079q48.257.009,96.514,0c5.908,0,9.37-3.445,9.375-9.365q.02-24.091,0-48.184c0-.513-.051-1.026-.081-1.578Zm.113-3.679H269.025v-3.777c0-1.464.016-2.93,0-4.394-.073-5.548-3.565-9-9.133-9q-44.309,0-88.618.008c-3.076,0-6.154-.052-9.228.014-3.8.083-7.436,2.888-7.86,6.628A94.186,94.186,0,0,0,154.1,253.845Zm18.01-20.791h78.585a4.581,4.581,0,0,0,.1-.648c0-4.784.079-9.569-.025-14.351a9.855,9.855,0,0,0-9.976-9.779c-3.074-.042-6.152.038-9.225-.038-.985-.024-1.343.36-1.607,1.218-.844,2.747-1.707,5.492-2.66,8.2-1.079,3.07-2.448,3.984-5.676,3.985q-9.958,0-19.917,0c-3.791,0-5.124-.945-6.318-4.553-.858-2.59-1.7-5.187-2.49-7.8a1.238,1.238,0,0,0-1.431-1.049c-2.977.056-5.955.009-8.933.025-6.17.032-10.355,4.2-10.423,10.4-.032,2.88-.006,5.76-.007,8.64Zm0,102.176c0,1.839-.007,3.54,0,5.241.03,6.643,4.153,10.757,10.8,10.762q14.5.011,29,0c9.57,0,19.14.015,28.709-.009a9.777,9.777,0,0,0,8.787-4.888c2.152-3.491,1.238-7.326,1.387-11.108Zm.085-3.651h78.544V320.252H172.193Zm23.939-123.264c1.04,2.96,1.972,5.82,3.085,8.608a2.312,2.312,0,0,0,1.73,1.155q10.527.12,21.057.01a2.053,2.053,0,0,0,1.585-.927c1.143-2.871,2.136-5.8,3.225-8.846Z" transform="translate(0 0)" fill="#EE5353"/>
    <path id="Path_12341" data-name="Path 12341" d="M216.451,380.915a14.1,14.1,0,0,1,1.4,1.034q5.666,5.633,11.305,11.293c.267.267.679.557.7.863a2.32,2.32,0,0,1-.306,1.614c-.274.289-1.017.209-1.538.155-.244-.026-.465-.366-.679-.58q-6.5-6.494-13-12.993c-1.175-1.176-1.174-1.672,0-2.85,4.329-4.333,8.652-8.673,13.015-12.973a2.385,2.385,0,0,1,1.628-.748c1.221.144,1.43,1.525.423,2.537q-5.8,5.824-11.625,11.62A16.344,16.344,0,0,1,216.451,380.915Z" transform="translate(-37.298 -93.287)" fill="#EE5353"/>
    <path id="Path_12342" data-name="Path 12342" d="M358.937,380.579c-.956-.888-1.809-1.637-2.614-2.437q-4.9-4.868-9.768-9.762a7.034,7.034,0,0,1-.706-.743A1.27,1.27,0,0,1,346,365.8a1.208,1.208,0,0,1,1.747-.069c.235.192.448.412.663.626q6.378,6.374,12.752,12.751c1.312,1.313,1.307,1.76-.029,3.1q-6.331,6.34-12.666,12.676c-.269.268-.531.689-.841.736-.542.082-1.314.125-1.627-.183s-.288-1.082-.217-1.626c.041-.309.458-.58.726-.847C350.572,388.9,354.643,384.853,358.937,380.579Z" transform="translate(-115.384 -93.074)" fill="#EE5353"/>
    <path id="Path_12343" data-name="Path 12343" d="M272.638,392.987c-1.307-.048-1.911-.9-1.614-1.775a5.331,5.331,0,0,1,.466-.912q9.183-15.915,18.372-31.827c.171-.3.305-.752.555-.835a2.572,2.572,0,0,1,1.715-.168c.354.184.451.979.529,1.522.035.244-.241.541-.393.8q-9.213,15.964-18.448,31.916A6.777,6.777,0,0,1,272.638,392.987Z" transform="translate(-70.42 -87.272)" fill="#EE5353"/>
    <path id="Path_12344" data-name="Path 12344" d="M201.169,304.048q-8.054,0-16.109,0c-1.477,0-1.951-.381-2.029-1.827-.067-1.252-.031-2.513.019-3.768a1.423,1.423,0,0,1,1.632-1.491q16.509.01,33.017-.006a1.417,1.417,0,0,1,1.628,1.488c.059,1.443.065,2.894-.01,4.336-.052,1-.79,1.276-1.7,1.273-3.466-.01-6.931,0-10.4,0Zm-15.333-2.815h30.68v-1.459h-30.68Z" transform="translate(-22.678 -55.681)" fill="#EE5353"/>
    <path id="Path_12345" data-name="Path 12345" d="M352.674,306.919a4.167,4.167,0,0,1-1.453-.243,1.266,1.266,0,0,1,.019-2.379,7.572,7.572,0,0,1,2.916-.083,1.9,1.9,0,0,1,1.1,1.294,1.116,1.116,0,0,1-1.119,1.3C353.726,306.855,353.308,306.873,352.674,306.919Z" transform="translate(-120.968 -60.341)" fill="#EE5353"/>
    <path id="Path_12346" data-name="Path 12346" d="M416.294,306.956c-.264-.029-.717-.066-1.166-.131a1.2,1.2,0,0,1-1.191-1.268,1.15,1.15,0,0,1,1.128-1.308,20.141,20.141,0,0,1,2.6-.059,1.219,1.219,0,0,1,1.232,1.36,1.245,1.245,0,0,1-1.278,1.322C417.243,306.9,416.864,306.92,416.294,306.956Z" transform="translate(-156.384 -60.382)" fill="#EE5353"/>
    <path id="Path_12347" data-name="Path 12347" d="M384.552,306.972a3.949,3.949,0,0,1-1.46-.23,1.773,1.773,0,0,1-.91-1.217,1.546,1.546,0,0,1,.914-1.187,8.607,8.607,0,0,1,3.031-.038,1.616,1.616,0,0,1,.9,1.295c-.019.434-.588.934-1.033,1.228C385.688,307.025,385.182,306.922,384.552,306.972Z" transform="translate(-140.199 -60.389)" fill="#EE5353"/>
    <path id="Path_12348" data-name="Path 12348" d="M289.131,554.02c-1.292,0-2.585.035-3.875-.008a4.006,4.006,0,0,1-.034-7.994c2.658-.07,5.32-.073,7.978,0a4.005,4.005,0,0,1-.079,7.992C291.792,554.055,290.461,554.02,289.131,554.02Zm-.016-2.748v.007c1.252,0,2.505.007,3.757,0a1.173,1.173,0,0,0,1.3-1.267,1.186,1.186,0,0,0-1.3-1.271q-3.644-.014-7.288,0a1.2,1.2,0,0,0-1.352,1.332,1.185,1.185,0,0,0,1.357,1.208C286.762,551.266,287.939,551.272,289.116,551.272Z" transform="translate(-77.735 -204.265)" fill="#EE5353"/>
  </g>
</svg>
