<svg xmlns="http://www.w3.org/2000/svg" viewBox="0 0 652 514"><defs><style>.cls-1{isolation:isolate;}.cls-2{fill:#00b100;}.cls-3{fill:#fff;}.cls-4{fill:#333;}.cls-5{fill:#a292cf;}</style></defs><g id="Layer_2" data-name="Layer 2"><g id="Ellipse_1187_copy_8" data-name="Ellipse 1187 copy 8" class="cls-1"><g id="Rectangle_1366_copy_2" data-name="Rectangle 1366 copy 2"><polygon class="cls-2" points="337 209 330.99 206 330.99 209 327 209 327 206 321 209 315 209 315 212 321.01 212 327 214.99 327 212 330.99 212 330.99 214.99 336.98 212 341 212 341 209 337 209"/></g><g id="Rectangle_1366_copy_3" data-name="Rectangle 1366 copy 3"><polygon class="cls-2" points="502.01 393 502.01 389 493.27 393 480 393 480 396 493.29 396 502.01 399.99 502.01 396 513 396 513 393 502.01 393"/></g><g id="Rectangle_1366_copy" data-name="Rectangle 1366 copy"><polygon class="cls-2" points="327.87 53 319.1 49 319.1 53 240 53 240 147 236.01 147 240 155.71 240 171 243 171 243 155.73 247 147 243 147 243 56 319.1 56 319.1 59.99 327.85 56 341 56 341 53 327.87 53"/></g><g id="Rectangle_1366" data-name="Rectangle 1366"><polygon class="cls-2" points="243 392 243 338.01 247 338.01 243 329.27 243 314 240 314 240 329.29 236.01 338.01 240 338.01 240 395 341 395 341 392 243 392"/></g><g id="Rectangle_1366-2" data-name="Rectangle 1366"><polygon class="cls-2" points="412 478 412 469.04 415.99 469.04 412 460.3 412 447 409 447 409 460.28 405 469.04 409 469.04 409 481 513 481 513 478 412 478"/></g><g id="Rectangle_1163" data-name="Rectangle 1163"><rect class="cls-3" x="513" y="157" width="139" height="71"/></g><g id="Rectangle_1163-2" data-name="Rectangle 1163"><rect class="cls-2" y="175" width="142" height="135"/></g><g id="Rectangle_1163-3" data-name="Rectangle 1163"><rect class="cls-2" x="172" y="175" width="139" height="135"/></g><g id="Rectangle_1163-4" data-name="Rectangle 1163"><rect class="cls-3" x="341" width="139" height="108"/></g><g id="Rectangle_1163-5" data-name="Rectangle 1163"><rect class="cls-3" x="341" y="138" width="139" height="108"/></g><g id="Rectangle_1163-6" data-name="Rectangle 1163"><rect class="cls-3" x="341" y="339" width="139" height="108"/></g><g id="Rectangle_1163-7" data-name="Rectangle 1163"><rect class="cls-3" x="513" y="19" width="139" height="71"/></g><g id="Rectangle_1163-8" data-name="Rectangle 1163"><rect class="cls-3" x="513" y="271" width="139" height="71"/></g><g id="Rectangle_1163-9" data-name="Rectangle 1163"><rect class="cls-3" x="513" y="357" width="139" height="71"/></g><g id="Rectangle_1163-10" data-name="Rectangle 1163"><rect class="cls-3" x="513" y="443" width="139" height="71"/></g><path class="cls-3" d="M44.21,277.53v1.9H40.13v2.17h3.15v1.82H40.13v4h-2.4v-9.9Z"/><path class="cls-3" d="M49,280a3,3,0,0,1,1.54-.42v2.56h-.69a2.39,2.39,0,0,0-1.48.41,1.63,1.63,0,0,0-.53,1.37v3.56h-2.4v-7.81h2.4v1.47A3.42,3.42,0,0,1,49,280Z"/><path class="cls-3" d="M57.31,280a3.57,3.57,0,0,1,1.44,1.39,4.55,4.55,0,0,1,0,4.26A3.5,3.5,0,0,1,57.31,287a4.7,4.7,0,0,1-4.18,0,3.49,3.49,0,0,1-1.46-1.39,4.62,4.62,0,0,1,0-4.26A3.56,3.56,0,0,1,53.13,280a4.79,4.79,0,0,1,4.18,0Zm-3.25,2.09a2.41,2.41,0,0,0,0,2.86,1.53,1.53,0,0,0,1.16.49,1.51,1.51,0,0,0,1.15-.49,2.41,2.41,0,0,0,0-2.86,1.51,1.51,0,0,0-1.15-.5A1.54,1.54,0,0,0,54.06,282.09Z"/><path class="cls-3" d="M67.65,280.43a3.58,3.58,0,0,1,.79,2.46v4.54H66v-4.26a1.69,1.69,0,0,0-.42-1.22,1.4,1.4,0,0,0-1.1-.44,1.5,1.5,0,0,0-1.16.46,1.88,1.88,0,0,0-.43,1.31v4.15h-2.4v-7.81h2.4V281a2.61,2.61,0,0,1,1-1.1,3,3,0,0,1,1.56-.41A2.73,2.73,0,0,1,67.65,280.43Z"/><path class="cls-3" d="M74.47,285.37v2.06H73.39a3.15,3.15,0,0,1-2.15-.68,2.87,2.87,0,0,1-.76-2.25v-2.87H69.42v-2h1.06V277.7h2.4v1.92h1.57v2H72.88v2.91a.87.87,0,0,0,.19.65.92.92,0,0,0,.64.18Z"/><path class="cls-3" d="M83.19,284H77.76a1.72,1.72,0,0,0,.45,1.26,1.43,1.43,0,0,0,1,.39,1.4,1.4,0,0,0,.88-.27,1.23,1.23,0,0,0,.46-.68h2.55a3.31,3.31,0,0,1-.68,1.47,3.36,3.36,0,0,1-1.32,1,4.14,4.14,0,0,1-1.78.38,4.28,4.28,0,0,1-2-.49,3.38,3.38,0,0,1-1.39-1.39,4.3,4.3,0,0,1-.51-2.13,4.35,4.35,0,0,1,.5-2.13,3.41,3.41,0,0,1,1.4-1.39,4.28,4.28,0,0,1,2-.48,4.36,4.36,0,0,1,2,.47,3.4,3.4,0,0,1,1.37,1.34,4,4,0,0,1,.48,2A3.14,3.14,0,0,1,83.19,284Zm-2.77-2.17a1.57,1.57,0,0,0-1.06-.38,1.59,1.59,0,0,0-1.1.39,1.64,1.64,0,0,0-.49,1.15h3.06A1.46,1.46,0,0,0,80.42,281.79Z"/><path class="cls-3" d="M91.63,280.43a3.58,3.58,0,0,1,.79,2.46v4.54H90v-4.26a1.73,1.73,0,0,0-.41-1.22,1.44,1.44,0,0,0-1.11-.44,1.51,1.51,0,0,0-1.16.46,1.87,1.87,0,0,0-.42,1.31v4.15H84.51v-7.81h2.41V281a2.59,2.59,0,0,1,1-1.1,3,3,0,0,1,1.57-.41A2.71,2.71,0,0,1,91.63,280.43Z"/><path class="cls-3" d="M98.54,279.92a2.37,2.37,0,0,1,.94,1.11v-4h2.4v10.36h-2.4V286a2.37,2.37,0,0,1-.94,1.11,2.89,2.89,0,0,1-1.55.41,3.16,3.16,0,0,1-2.94-1.88,4.77,4.77,0,0,1-.45-2.13,4.71,4.71,0,0,1,.45-2.13,3.28,3.28,0,0,1,1.2-1.39,3.2,3.2,0,0,1,1.74-.48A2.89,2.89,0,0,1,98.54,279.92Zm-2,2.2a2.32,2.32,0,0,0,0,2.8,1.61,1.61,0,0,0,1.24.51,1.67,1.67,0,0,0,1.25-.52,2,2,0,0,0,.48-1.39,1.94,1.94,0,0,0-.48-1.39,1.66,1.66,0,0,0-1.25-.51A1.63,1.63,0,0,0,96.52,282.12Z"/><g id="Shape_508" data-name="Shape 508"><path class="cls-3" d="M97.67,222.42a5.28,5.28,0,0,0-2.8.81V199.05A3.06,3.06,0,0,0,91.82,196H47.11a3.06,3.06,0,0,0-3,3.05v9.14h-1a3.06,3.06,0,0,0-3,3.05V227.5a3.06,3.06,0,0,0,3,3.05h1V256a3.06,3.06,0,0,0,3,3.05H91.82A3.06,3.06,0,0,0,94.87,256V238.08l6.57-6.57a5.25,5.25,0,0,0,1.56-3.76A5.33,5.33,0,0,0,97.67,222.42ZM46.1,199.05a1,1,0,0,1,1-1H91.82a1,1,0,0,1,1,1v5.08H46.1Zm-3.05,29.46a1,1,0,0,1-1-1V211.24a1,1,0,0,1,1-1H65.4a1,1,0,0,1,1,1V227.5a1,1,0,0,1-1,1ZM92.84,256a1,1,0,0,1-1,1H47.11a1,1,0,0,1-1-1v-25.4H65.4a3.06,3.06,0,0,0,3-3.05V211.24a3.06,3.06,0,0,0-3-3.05H46.1v-2H92.84v18.89l-2,2v-6.69H72.52v10.16H87.34L71.56,246.33l-1.26,8.78,8.79-1.25,13.75-13.75Zm-17.28-7.53L74,246.81,90.81,230l1.61,1.61Zm.9,3.76-3.76.54.53-3.76Zm12.31-23.67H74.55v-6.09H88.77Zm-10.16,23L77,249.85,93.85,233l1.62,1.61ZM100,230.07l-3.1,3.11-4.66-4.67,3.1-3.09h0a3.26,3.26,0,0,1,2.33-1,3.29,3.29,0,0,1,2.33,5.62Zm-48.82-28h2v-2h-2Zm-4.07,0h2v-2h-2Zm8.13,0h2v-2h-2Zm-4,23.05,1.93.65,4.07-12.2L55.32,213ZM58.59,216l3.34,3.35-3.34,3.35L60,224.15l4.79-4.78L60,214.59Zm-10.16-1.43-4.79,4.78,4.79,4.78,1.43-1.43-3.34-3.35L49.86,216Zm42.38-6.4H72.52v10.16H90.81Zm-2,8.13H74.55v-6.1H88.77ZM48.13,254.93H64.39v-2H48.13Zm0-4.06H68.45v-2H48.13Zm2-4.06h2v-2h2v-2h-2V232.58h-2v10.16h-2v2h2Zm8.13,0h2V236.64h2v-2h-2v-2h-2v2h-2v2h2Zm12.19-8.13h-2v-6.1h-2v6.1h-2v2h2v6.1h2v-6.1h2Zm-4.06,16.25h2v-2h-2Zm24.39-10.16h-2v2h2Zm0,8.13h-2v2h2Zm0-4.06h-2v2h2Z"/></g><path class="cls-3" d="M210,274.47a4.55,4.55,0,0,1,1.61,2.69h-2.54a2.33,2.33,0,0,0-.87-1.08,2.43,2.43,0,0,0-1.38-.39,2.12,2.12,0,0,0-1.7.77,3.57,3.57,0,0,0,0,4.11,2.11,2.11,0,0,0,1.7.76,2.43,2.43,0,0,0,1.38-.39,2.38,2.38,0,0,0,.87-1.06h2.54a4.55,4.55,0,0,1-1.61,2.68,5.4,5.4,0,0,1-5.68.36,4.35,4.35,0,0,1-1.7-1.78,6.11,6.11,0,0,1,0-5.24,4.35,4.35,0,0,1,1.7-1.78,5.42,5.42,0,0,1,5.68.35Z"/><path class="cls-3" d="M218.69,276.05a3.47,3.47,0,0,1,1.45,1.39,4.55,4.55,0,0,1,0,4.26,3.53,3.53,0,0,1-1.45,1.39,4.43,4.43,0,0,1-2.08.48,4.51,4.51,0,0,1-2.1-.48,3.53,3.53,0,0,1-1.45-1.39,4.55,4.55,0,0,1,0-4.26,3.47,3.47,0,0,1,1.45-1.39,4.52,4.52,0,0,1,2.1-.49A4.43,4.43,0,0,1,218.69,276.05Zm-3.24,2.08a2.43,2.43,0,0,0,0,2.87,1.61,1.61,0,0,0,2.31,0,2.47,2.47,0,0,0,0-2.87,1.61,1.61,0,0,0-2.31,0Z"/><path class="cls-3" d="M224.32,273.11v10.36h-2.4V273.11Z"/><path class="cls-3" d="M226.14,272.56a1.49,1.49,0,0,1,1-.35,1.47,1.47,0,0,1,1,.35,1.15,1.15,0,0,1,.4.9,1.12,1.12,0,0,1-.4.89,1.48,1.48,0,0,1-1,.36,1.5,1.5,0,0,1-1-.36,1.14,1.14,0,0,1-.39-.89A1.17,1.17,0,0,1,226.14,272.56Zm2.24,3.1v7.81H226v-7.81Z"/><path class="cls-3" d="M242.47,276.47a3.48,3.48,0,0,1,.83,2.47v4.53h-2.39v-4.25a1.59,1.59,0,0,0-.4-1.16,1.47,1.47,0,0,0-1.09-.41,1.49,1.49,0,0,0-1.13.44,1.74,1.74,0,0,0-.41,1.24v4.14h-2.41v-4.25a1.63,1.63,0,0,0-.39-1.16,1.43,1.43,0,0,0-1.08-.41,1.55,1.55,0,0,0-1.14.43,1.73,1.73,0,0,0-.42,1.25v4.14H230v-7.81h2.4V277a2.31,2.31,0,0,1,.95-1,2.87,2.87,0,0,1,1.49-.38,3.08,3.08,0,0,1,1.59.41,2.6,2.6,0,0,1,1,1.18,3.11,3.11,0,0,1,1.12-1.16,2.91,2.91,0,0,1,1.56-.43A3,3,0,0,1,242.47,276.47Z"/><path class="cls-3" d="M245.07,272.56a1.72,1.72,0,0,1,2.08,0,1.17,1.17,0,0,1,.39.9,1.14,1.14,0,0,1-.39.89,1.68,1.68,0,0,1-2.08,0,1.14,1.14,0,0,1-.39-.89A1.17,1.17,0,0,1,245.07,272.56Zm2.23,3.1v7.81h-2.4v-7.81Z"/><path class="cls-3" d="M256.08,276.47a3.59,3.59,0,0,1,.79,2.47v4.53h-2.4v-4.25a1.73,1.73,0,0,0-.42-1.23,1.44,1.44,0,0,0-1.1-.44,1.54,1.54,0,0,0-1.16.46,1.9,1.9,0,0,0-.43,1.32v4.14H249v-7.81h2.4v1.43a2.64,2.64,0,0,1,1-1.11,3,3,0,0,1,1.57-.4A2.75,2.75,0,0,1,256.08,276.47Z"/><path class="cls-3" d="M263,276a2.32,2.32,0,0,1,.94,1.11v-4h2.41v10.36h-2.41v-1.41a2.32,2.32,0,0,1-.94,1.11,2.83,2.83,0,0,1-1.54.4,3.2,3.2,0,0,1-1.74-.48,3.37,3.37,0,0,1-1.21-1.39,5.4,5.4,0,0,1,0-4.27,3.34,3.34,0,0,1,1.21-1.38,3.21,3.21,0,0,1,1.74-.49A2.83,2.83,0,0,1,263,276Zm-2,2.2a2.32,2.32,0,0,0,0,2.8,1.77,1.77,0,0,0,2.48,0,1.94,1.94,0,0,0,.49-1.39,1.9,1.9,0,0,0-.49-1.39,1.77,1.77,0,0,0-2.48,0Z"/><path class="cls-3" d="M275.36,280h-5.44a1.83,1.83,0,0,0,.45,1.27,1.63,1.63,0,0,0,1.93.12,1.25,1.25,0,0,0,.46-.69h2.54a3.23,3.23,0,0,1-.67,1.48,3.72,3.72,0,0,1-1.32,1,4.15,4.15,0,0,1-1.79.37,4.27,4.27,0,0,1-2-.48,3.53,3.53,0,0,1-1.4-1.39,4.41,4.41,0,0,1-.5-2.13,4.31,4.31,0,0,1,.5-2.14,3.36,3.36,0,0,1,1.39-1.38,4.31,4.31,0,0,1,2-.49,4.26,4.26,0,0,1,2.06.48,3.4,3.4,0,0,1,1.37,1.34,4,4,0,0,1,.48,2A3,3,0,0,1,275.36,280Zm-2.77-2.16a1.71,1.71,0,0,0-2.16,0,1.59,1.59,0,0,0-.49,1.14H273A1.45,1.45,0,0,0,272.59,277.84Z"/><path class="cls-3" d="M280.24,276a3,3,0,0,1,1.54-.42v2.56h-.69a2.39,2.39,0,0,0-1.48.41,1.62,1.62,0,0,0-.53,1.37v3.55h-2.4v-7.81h2.4v1.47A3.48,3.48,0,0,1,280.24,276Z"/><path class="cls-3" d="M199.11,291a3.36,3.36,0,0,1,1.21,1.39,5.38,5.38,0,0,1,0,4.26,3.33,3.33,0,0,1-1.21,1.4,3.19,3.19,0,0,1-1.73.48,2.87,2.87,0,0,1-1.55-.41,2.4,2.4,0,0,1-.94-1.1v1.41h-2.4V288h2.4v4a2.4,2.4,0,0,1,.94-1.1,2.87,2.87,0,0,1,1.55-.41A3.19,3.19,0,0,1,199.11,291Zm-3.75,2.13a2.25,2.25,0,0,0,0,2.78,1.76,1.76,0,0,0,2.49,0,2,2,0,0,0,.47-1.4,2,2,0,0,0-.47-1.4,1.79,1.79,0,0,0-2.49,0Z"/><path class="cls-3" d="M206.54,290.89a2.42,2.42,0,0,1,1,1.1v-1.41h2.39v7.81h-2.39V297a2.42,2.42,0,0,1-1,1.1,2.87,2.87,0,0,1-1.55.41,3.19,3.19,0,0,1-1.73-.48,3.33,3.33,0,0,1-1.21-1.4,5.38,5.38,0,0,1,0-4.26,3.36,3.36,0,0,1,1.21-1.39,3.19,3.19,0,0,1,1.73-.48A2.87,2.87,0,0,1,206.54,290.89Zm-2,2.19a2,2,0,0,0-.47,1.4,2,2,0,0,0,.47,1.4,1.63,1.63,0,0,0,1.25.51,1.61,1.61,0,0,0,1.24-.52,2.25,2.25,0,0,0,0-2.78,1.64,1.64,0,0,0-1.24-.51A1.66,1.66,0,0,0,204.52,293.08Z"/><path class="cls-3" d="M217.62,291.31a3.7,3.7,0,0,1,1.3,2.29h-2.55a1.28,1.28,0,0,0-1.35-1.06,1.28,1.28,0,0,0-1,.5,2.81,2.81,0,0,0,0,2.89,1.31,1.31,0,0,0,1,.5,1.28,1.28,0,0,0,1.35-1.06h2.55a3.7,3.7,0,0,1-1.3,2.29,3.92,3.92,0,0,1-2.54.83,4.21,4.21,0,0,1-2-.48,3.49,3.49,0,0,1-1.4-1.4,4.25,4.25,0,0,1-.51-2.13,4.35,4.35,0,0,1,.5-2.13A3.47,3.47,0,0,1,213,291a4.28,4.28,0,0,1,2.05-.48A3.92,3.92,0,0,1,217.62,291.31Z"/><path class="cls-3" d="M224.92,298.39l-2.35-3.32v3.32h-2.4V288h2.4v5.68l2.35-3.13h2.82l-3.16,3.9,3.23,3.91Z"/><path class="cls-3" d="M236.06,294.92h-5.44a1.83,1.83,0,0,0,.45,1.27,1.48,1.48,0,0,0,1,.38,1.4,1.4,0,0,0,.88-.27,1.21,1.21,0,0,0,.47-.68H236a3.38,3.38,0,0,1-.67,1.48,3.72,3.72,0,0,1-1.32,1,4.55,4.55,0,0,1-3.83-.11,3.49,3.49,0,0,1-1.4-1.4,4.25,4.25,0,0,1-.51-2.13,4.35,4.35,0,0,1,.5-2.13,3.47,3.47,0,0,1,1.4-1.39,4.28,4.28,0,0,1,2.05-.48,4.22,4.22,0,0,1,2.05.48,3.31,3.31,0,0,1,1.37,1.33,3.88,3.88,0,0,1,.42,2.63Zm-2.78-2.16a1.51,1.51,0,0,0-1.06-.39,1.57,1.57,0,0,0-1.09.39,1.62,1.62,0,0,0-.5,1.15h3.07A1.41,1.41,0,0,0,233.28,292.76Z"/><path class="cls-3" d="M244.49,291.39a3.59,3.59,0,0,1,.8,2.46v4.54h-2.41v-4.26a1.69,1.69,0,0,0-.41-1.22,1.45,1.45,0,0,0-1.1-.44,1.49,1.49,0,0,0-1.16.46,1.86,1.86,0,0,0-.43,1.32v4.14h-2.4v-7.81h2.4V292a2.56,2.56,0,0,1,1-1.11,3,3,0,0,1,1.57-.41A2.71,2.71,0,0,1,244.49,291.39Z"/><path class="cls-3" d="M251.4,290.89a2.4,2.4,0,0,1,.94,1.1v-4h2.4v10.36h-2.4V297a2.4,2.4,0,0,1-.94,1.1,2.87,2.87,0,0,1-1.55.41,3.19,3.19,0,0,1-1.73-.48,3.4,3.4,0,0,1-1.21-1.4,5.38,5.38,0,0,1,0-4.26,3.43,3.43,0,0,1,1.21-1.39,3.19,3.19,0,0,1,1.73-.48A2.87,2.87,0,0,1,251.4,290.89Zm-2,2.19a2,2,0,0,0-.47,1.4,2,2,0,0,0,.47,1.4,1.63,1.63,0,0,0,1.25.51,1.61,1.61,0,0,0,1.24-.52,2.25,2.25,0,0,0,0-2.78,1.64,1.64,0,0,0-1.24-.51A1.66,1.66,0,0,0,249.38,293.08Z"/><path class="cls-3" d="M261.85,292.48v2h-6.19v-2Z"/><path class="cls-3" d="M268.55,290.89a2.5,2.5,0,0,1,1,1.1v-1.41h2.39v7.81h-2.39V297a2.5,2.5,0,0,1-1,1.1,2.83,2.83,0,0,1-1.54.41,3.2,3.2,0,0,1-1.74-.48,3.4,3.4,0,0,1-1.21-1.4,5.38,5.38,0,0,1,0-4.26,3.43,3.43,0,0,1,1.21-1.39,3.2,3.2,0,0,1,1.74-.48A2.83,2.83,0,0,1,268.55,290.89Zm-2,2.19a2,2,0,0,0-.47,1.4,1.93,1.93,0,0,0,.47,1.4,1.75,1.75,0,0,0,2.48,0,2.22,2.22,0,0,0,0-2.78,1.77,1.77,0,0,0-2.48,0Z"/><path class="cls-3" d="M280.18,291a3.43,3.43,0,0,1,1.21,1.39,5.38,5.38,0,0,1,0,4.26,3.4,3.4,0,0,1-1.21,1.4,3.2,3.2,0,0,1-1.74.48,2.85,2.85,0,0,1-1.54-.41A2.34,2.34,0,0,1,276,297v5.13h-2.4V290.58H276V292a2.34,2.34,0,0,1,.94-1.1,2.85,2.85,0,0,1,1.54-.41A3.2,3.2,0,0,1,280.18,291Zm-3.75,2.13a2.22,2.22,0,0,0,0,2.78,1.61,1.61,0,0,0,1.24.52,1.63,1.63,0,0,0,1.25-.51,2,2,0,0,0,.47-1.4,2,2,0,0,0-.47-1.4,1.66,1.66,0,0,0-1.25-.5A1.64,1.64,0,0,0,276.43,293.09Z"/><path class="cls-3" d="M289.71,291a3.34,3.34,0,0,1,1.2,1.39,5.27,5.27,0,0,1,0,4.26,3.31,3.31,0,0,1-1.2,1.4,3.23,3.23,0,0,1-1.74.48,2.89,2.89,0,0,1-1.55-.41,2.4,2.4,0,0,1-.94-1.1v5.13h-2.4V290.58h2.4V292a2.4,2.4,0,0,1,.94-1.1,2.89,2.89,0,0,1,1.55-.41A3.23,3.23,0,0,1,289.71,291ZM286,293.09a2.25,2.25,0,0,0,0,2.78,1.63,1.63,0,0,0,1.25.52,1.61,1.61,0,0,0,1.24-.51,2,2,0,0,0,.47-1.4,2,2,0,0,0-.47-1.4,1.63,1.63,0,0,0-1.24-.5A1.66,1.66,0,0,0,286,293.09Z"/><g id="Shape_1242" data-name="Shape 1242"><path class="cls-3" d="M231.05,224.09l2.19.73,5.51-16.55-2.19-.73Zm8.9-12.56,4.68,4.68L240,220.89l1.63,1.63,6.32-6.31-6.32-6.31Zm-2.48,26.26h-2.31v2.31h2.31Zm5.68,0h-2.3v2.31h2.3Zm5.69,0h-2.31v2.31h2.31ZM228.2,209.9l-6.31,6.31,6.31,6.31,1.64-1.63-4.68-4.68,4.68-4.68Zm28.28,1.78h10.84v-2.31H256.48Zm0-5.69h10.84v-2.31H256.48Zm9.68-8H217.84a6.85,6.85,0,0,0-6.84,6.84V239a6.85,6.85,0,0,0,6.84,6.84h14L229.8,252H225a4,4,0,0,0-4,4v4h42.1v-4a4,4,0,0,0-4-4H254.2l-2.07-6.22h14A6.85,6.85,0,0,0,273,239V204.84A6.85,6.85,0,0,0,266.16,198Zm-7.11,56.31a1.69,1.69,0,0,1,1.69,1.69v1.69H223.26V256a1.69,1.69,0,0,1,1.69-1.69ZM232.23,252l2.08-6.22h15.38l2.08,6.22ZM270.69,239a4.53,4.53,0,0,1-4.53,4.53H217.84a4.53,4.53,0,0,1-4.53-4.53v-4.53h57.38Zm0-6.84H213.31V204.84a4.53,4.53,0,0,1,4.53-4.53h48.32a4.53,4.53,0,0,1,4.53,4.53Zm-14.21-14.75h10.84v-2.31H256.48Zm2.84,11.37h2.31v-2.31h-2.31Zm-10.21-25H220.68a4,4,0,0,0-4,4v17.06a4,4,0,0,0,4,4h28.43a4,4,0,0,0,4-4V207.68A4,4,0,0,0,249.11,203.68Zm1.68,21.06a1.68,1.68,0,0,1-1.68,1.68H220.68a1.69,1.69,0,0,1-1.69-1.68V207.68a1.69,1.69,0,0,1,1.69-1.69h28.43a1.69,1.69,0,0,1,1.68,1.69Zm14.22,4h2.31v-2.31H265Zm-8.53-5.68h10.84v-2.31H256.48Z"/></g><path class="cls-4" d="M372.22,85.89H368.5l-.62,1.81h-2.53L369,77.87h2.76l3.64,9.83h-2.55Zm-.62-1.82-1.24-3.64-1.25,3.64Z"/><path class="cls-4" d="M384.12,79.88V87.7H381.7V86.28a2.65,2.65,0,0,1-1,1.1,3,3,0,0,1-1.56.4,2.72,2.72,0,0,1-2.14-.9,3.55,3.55,0,0,1-.79-2.46V79.88h2.39v4.25a1.74,1.74,0,0,0,.41,1.24,1.64,1.64,0,0,0,2.27,0A1.86,1.86,0,0,0,381.7,84V79.88Z"/><path class="cls-4" d="M390.22,85.64V87.7h-1.09A3.14,3.14,0,0,1,387,87a2.88,2.88,0,0,1-.76-2.25V81.9h-1.06v-2h1.06V78h2.4v1.91h1.57v2h-1.57v2.91a.87.87,0,0,0,.19.65.91.91,0,0,0,.64.18Z"/><path class="cls-4" d="M398.68,80.7a3.57,3.57,0,0,1,.79,2.46V87.7h-2.4V83.44a1.73,1.73,0,0,0-.41-1.22,1.45,1.45,0,0,0-1.11-.45,1.48,1.48,0,0,0-1.15.47,1.82,1.82,0,0,0-.43,1.31V87.7h-2.41V77.34H394v4a2.59,2.59,0,0,1,1-1.1,3,3,0,0,1,1.57-.41A2.71,2.71,0,0,1,398.68,80.7Z"/><path class="cls-4" d="M409.11,80.53a3.23,3.23,0,0,1,1.11,2H408a1.2,1.2,0,0,0-.44-.75,1.36,1.36,0,0,0-.86-.27,1,1,0,0,0-.62.17.61.61,0,0,0-.21.5.58.58,0,0,0,.39.54,5.35,5.35,0,0,0,1.21.37,11.51,11.51,0,0,1,1.48.43,2.43,2.43,0,0,1,1,.7,2,2,0,0,1,.42,1.32,2,2,0,0,1-.36,1.19,2.43,2.43,0,0,1-1.05.81,4.09,4.09,0,0,1-1.63.29,4.21,4.21,0,0,1-2.55-.7,3,3,0,0,1-1.16-2h2.32a1,1,0,0,0,.42.77,1.61,1.61,0,0,0,1,.27.86.86,0,0,0,.61-.19.65.65,0,0,0,.22-.5.6.6,0,0,0-.39-.58,7.86,7.86,0,0,0-1.26-.37A9.74,9.74,0,0,1,405,84.1a2.35,2.35,0,0,1-1-.68,1.89,1.89,0,0,1-.41-1.28,2.09,2.09,0,0,1,.8-1.7,3.48,3.48,0,0,1,2.26-.65A3.6,3.6,0,0,1,409.11,80.53Z"/><path class="cls-4" d="M419.05,84.22h-5.44a1.82,1.82,0,0,0,.45,1.27,1.44,1.44,0,0,0,1,.39,1.4,1.4,0,0,0,.88-.27,1.27,1.27,0,0,0,.47-.69H419a3.28,3.28,0,0,1-.67,1.48,3.51,3.51,0,0,1-1.32,1,4.55,4.55,0,0,1-3.83-.11,3.41,3.41,0,0,1-1.4-1.39,4.3,4.3,0,0,1-.51-2.13,4.35,4.35,0,0,1,.5-2.13,3.35,3.35,0,0,1,1.4-1.39,4.28,4.28,0,0,1,2-.48,4.34,4.34,0,0,1,2.05.47,3.4,3.4,0,0,1,1.37,1.34,3.88,3.88,0,0,1,.49,2A3.79,3.79,0,0,1,419.05,84.22Zm-2.78-2.16a1.55,1.55,0,0,0-1.06-.38,1.59,1.59,0,0,0-1.1.39,1.64,1.64,0,0,0-.49,1.15h3.07A1.46,1.46,0,0,0,416.27,82.06Z"/><path class="cls-4" d="M423.93,80.22a3,3,0,0,1,1.54-.42v2.56h-.69a2.37,2.37,0,0,0-1.48.41,1.6,1.6,0,0,0-.53,1.37V87.7h-2.4V79.88h2.4v1.47A3.48,3.48,0,0,1,423.93,80.22Z"/><path class="cls-4" d="M430.1,85.36l1.7-5.48h2.56l-2.78,7.82h-3l-2.78-7.82h2.55Z"/><path class="cls-4" d="M435.53,76.78a1.5,1.5,0,0,1,1-.35,1.54,1.54,0,0,1,1,.35,1.18,1.18,0,0,1,.39.91,1.17,1.17,0,0,1-.39.89,1.54,1.54,0,0,1-1,.35,1.5,1.5,0,0,1-1-.35,1.14,1.14,0,0,1-.4-.89A1.16,1.16,0,0,1,435.53,76.78Zm2.23,3.1V87.7h-2.4V79.88Z"/><path class="cls-4" d="M445.5,80.62a3.68,3.68,0,0,1,1.29,2.29h-2.54a1.33,1.33,0,0,0-.46-.78,1.38,1.38,0,0,0-.89-.29,1.29,1.29,0,0,0-1,.5,2.77,2.77,0,0,0,0,2.9,1.29,1.29,0,0,0,1,.5,1.43,1.43,0,0,0,.89-.28,1.39,1.39,0,0,0,.46-.79h2.54A3.66,3.66,0,0,1,445.5,87a3.86,3.86,0,0,1-2.54.83,4.28,4.28,0,0,1-2-.48,3.38,3.38,0,0,1-1.39-1.39,4.3,4.3,0,0,1-.51-2.13,4.35,4.35,0,0,1,.5-2.13,3.35,3.35,0,0,1,1.4-1.39,4.28,4.28,0,0,1,2-.48A3.86,3.86,0,0,1,445.5,80.62Z"/><path class="cls-4" d="M455.42,84.22H450a1.82,1.82,0,0,0,.45,1.27,1.44,1.44,0,0,0,1,.39,1.43,1.43,0,0,0,.89-.27,1.25,1.25,0,0,0,.46-.69h2.54a3.18,3.18,0,0,1-.67,1.48,3.51,3.51,0,0,1-1.32,1,4.19,4.19,0,0,1-1.79.37,4.24,4.24,0,0,1-2-.48,3.47,3.47,0,0,1-1.4-1.39,4.3,4.3,0,0,1-.5-2.13,4.35,4.35,0,0,1,.49-2.13,3.41,3.41,0,0,1,1.4-1.39,4.31,4.31,0,0,1,2.05-.48,4.38,4.38,0,0,1,2.06.47A3.46,3.46,0,0,1,455,81.6a4,4,0,0,1,.48,2A3,3,0,0,1,455.42,84.22Zm-2.77-2.16a1.71,1.71,0,0,0-2.16,0,1.6,1.6,0,0,0-.49,1.15h3.06A1.46,1.46,0,0,0,452.65,82.06Z"/><g id="Shape_1229" data-name="Shape 1229"><path class="cls-5" d="M435.68,32.58l-12-8.16a1.12,1.12,0,0,0-1.17,0l-12,8.13a1,1,0,0,0-.44.84v6.33H388.6A2.56,2.56,0,0,0,386,42.28V60.44A2.57,2.57,0,0,0,388.6,63h29.7a2.56,2.56,0,0,0,2.61-2.57V52l1.56,1.06a1.14,1.14,0,0,0,1.18,0L435.56,45a1,1,0,0,0,.43-.84V33.43A.88.88,0,0,0,435.68,32.58Zm-25.56,9.23v2.3a1.24,1.24,0,0,0,.4.81l1.43,1-8.88,7.5L389.83,41.81Zm-22,17.77V43.07l9.48,8.25Zm1.71,1.26,9.37-8.15,3.23,2.81a1.1,1.1,0,0,0,1.36,0l3.68-3,9.61,8.38Zm29-1.26-9.71-8.48,4.75-3.9,5,3.44Zm15.15-16L423.1,51c-1.37-1-9.57-6.57-10.85-7.4V34l10.85-7.4L433.94,34Z"/></g><g id="Shape_1229_copy" data-name="Shape 1229 copy"><path class="cls-2" d="M427.18,37.11a4,4,0,1,0-6.49,3.24l-.59,2.72a1.11,1.11,0,0,0,.24.88,1.06,1.06,0,0,0,.82.36h4.34a1,1,0,0,0,.8-.38,1,1,0,0,0,.25-.86L426,40A3.9,3.9,0,0,0,427.18,37.11Zm-3,1.59a1,1,0,0,0-.43,1l.48,2.47h-1.77l.47-2.24a1,1,0,0,0-.62-1.14,2,2,0,0,1-1.15-1.73A1.86,1.86,0,0,1,423,35.27a2,2,0,0,1,2,1.92A1.91,1.91,0,0,1,424.17,38.7Zm-25.65,6.91h2.13V43.52h-2.13Zm3.87,0h2.13V43.52h-2.13Zm3.87,0h2.12V43.52h-2.12ZM421.37,22a1,1,0,0,0,.39-.7l.38-3.47a1,1,0,0,0-.84-1.18L418,16a.9.9,0,0,0-.7.2l-2.08,1.36a1,1,0,0,0-.48.66,1.13,1.13,0,0,0,.16.81l.54.76-.61.43-.52-.74a1.06,1.06,0,0,0-1.48-.32,1,1,0,0,0-.49.66,1.11,1.11,0,0,0,.17.81l.52.74-.83.53-.52-.75a1,1,0,0,0-.68-.47,1.15,1.15,0,0,0-.8.15,1,1,0,0,0-.32,1.47l.53.76-.61.42-.51-.71a.94.94,0,0,0-.67-.46.74.74,0,0,0-.76.2l-2.94,1.95a7.67,7.67,0,0,0-11.23,5.2,7.41,7.41,0,0,0,1.18,5.71,7.93,7.93,0,0,0,10.76,2h0A7.52,7.52,0,0,0,409,30.26ZM404.45,35.66a5.64,5.64,0,0,1-7.8-1.44,5.45,5.45,0,0,1-.88-4.2,5.34,5.34,0,0,1,2.35-3.46h0a5.63,5.63,0,0,1,3.16-1,6.18,6.18,0,0,1,1,.09A5.62,5.62,0,0,1,405.92,28,5.5,5.5,0,0,1,404.45,35.66Zm3.2-8.87a5.23,5.23,0,0,0-.95-1.11l1.47-.94.53.74a1,1,0,0,0,1.49.32L417.52,21a1,1,0,0,0,.49-.67,1.11,1.11,0,0,0-.16-.8l-.53-.75.82-.54,1.86.32-.19,2.11L408.38,28.1A7.81,7.81,0,0,0,407.65,26.79Zm-8.28,4.71a1.06,1.06,0,0,0-1.48-.33,1,1,0,0,0-.32,1.47l.84,1.21a1.06,1.06,0,0,0,.67.47l.21,0a1.21,1.21,0,0,0,.6-.17,1,1,0,0,0,.32-1.47Z"/></g><path class="cls-4" d="M376.72,216.7h-2.4l-4-6.08v6.08h-2.4v-9.9h2.4l4,6.13V206.8h2.4Z"/><path class="cls-4" d="M384.13,209.27a3.59,3.59,0,0,1,1.45,1.39,4.62,4.62,0,0,1,0,4.26,3.53,3.53,0,0,1-1.45,1.39,4.44,4.44,0,0,1-2.09.48,4.5,4.5,0,0,1-2.09-.48,3.47,3.47,0,0,1-1.45-1.39,4.55,4.55,0,0,1,0-4.26,3.53,3.53,0,0,1,1.45-1.39,4.5,4.5,0,0,1,2.09-.48A4.44,4.44,0,0,1,384.13,209.27Zm-3.25,2.09a2.41,2.41,0,0,0,0,2.86,1.62,1.62,0,0,0,2.32,0,2.45,2.45,0,0,0,0-2.86,1.6,1.6,0,0,0-2.32,0Z"/><path class="cls-4" d="M391.79,214.64v2.06h-1.08a3.12,3.12,0,0,1-2.14-.68,2.89,2.89,0,0,1-.77-2.25V210.9h-1.05v-2h1.05V207h2.41v1.91h1.57v2h-1.57v2.91a.87.87,0,0,0,.19.65.91.91,0,0,0,.64.18Z"/><path class="cls-4" d="M393.31,205.78a1.72,1.72,0,0,1,2.08,0,1.18,1.18,0,0,1,.39.91,1.17,1.17,0,0,1-.39.89,1.72,1.72,0,0,1-2.08,0,1.17,1.17,0,0,1-.39-.89A1.18,1.18,0,0,1,393.31,205.78Zm2.23,3.1v7.82h-2.4v-7.82Z"/><path class="cls-4" d="M401.05,207.82a1.18,1.18,0,0,0-.85.25,1.16,1.16,0,0,0-.3.81h1.42v2H399.9v5.8h-2.4v-5.8h-.94v-2h.94v-.08a2.92,2.92,0,0,1,.85-2.25,3.53,3.53,0,0,1,2.46-.79l.51,0v2.05Z"/><path class="cls-4" d="M402.54,205.78a1.72,1.72,0,0,1,2.08,0,1.18,1.18,0,0,1,.39.91,1.17,1.17,0,0,1-.39.89,1.72,1.72,0,0,1-2.08,0,1.17,1.17,0,0,1-.39-.89A1.18,1.18,0,0,1,402.54,205.78Zm2.24,3.1v7.82h-2.41v-7.82Z"/><path class="cls-4" d="M412.52,209.62a3.73,3.73,0,0,1,1.29,2.29h-2.54a1.3,1.3,0,0,0-.47-.78,1.35,1.35,0,0,0-.88-.29,1.29,1.29,0,0,0-1,.5,2.77,2.77,0,0,0,0,2.9,1.29,1.29,0,0,0,1,.5,1.4,1.4,0,0,0,.88-.28,1.35,1.35,0,0,0,.47-.79h2.54a3.7,3.7,0,0,1-1.29,2.29,3.89,3.89,0,0,1-2.55.83,4.24,4.24,0,0,1-2-.48,3.41,3.41,0,0,1-1.4-1.39,4.3,4.3,0,0,1-.5-2.13,4.35,4.35,0,0,1,.49-2.13,3.41,3.41,0,0,1,1.4-1.39,4.31,4.31,0,0,1,2.05-.48A3.89,3.89,0,0,1,412.52,209.62Z"/><path class="cls-4" d="M419.58,209.19a2.47,2.47,0,0,1,1,1.11v-1.42h2.39v7.82h-2.39v-1.42a2.47,2.47,0,0,1-1,1.11,2.83,2.83,0,0,1-1.54.4,3.2,3.2,0,0,1-1.74-.48,3.31,3.31,0,0,1-1.21-1.39,4.91,4.91,0,0,1-.44-2.13,4.85,4.85,0,0,1,.44-2.13,3.31,3.31,0,0,1,1.21-1.39,3.2,3.2,0,0,1,1.74-.48A2.83,2.83,0,0,1,419.58,209.19Zm-2,2.2a2.32,2.32,0,0,0,0,2.8,1.6,1.6,0,0,0,1.24.5,1.62,1.62,0,0,0,1.24-.51,1.94,1.94,0,0,0,.49-1.39,1.9,1.9,0,0,0-.49-1.39,1.62,1.62,0,0,0-1.24-.51A1.6,1.6,0,0,0,417.57,211.39Z"/><path class="cls-4" d="M429,214.64v2.06h-1.09a3.14,3.14,0,0,1-2.14-.68,2.88,2.88,0,0,1-.76-2.25V210.9H424v-2H425V207h2.4v1.91H429v2h-1.57v2.91a.87.87,0,0,0,.19.65.91.91,0,0,0,.64.18Z"/><path class="cls-4" d="M430.54,205.78a1.72,1.72,0,0,1,2.08,0,1.21,1.21,0,0,1,0,1.8,1.72,1.72,0,0,1-2.08,0,1.17,1.17,0,0,1-.39-.89A1.18,1.18,0,0,1,430.54,205.78Zm2.24,3.1v7.82h-2.41v-7.82Z"/><path class="cls-4" d="M440.19,209.27a3.57,3.57,0,0,1,1.44,1.39,4.55,4.55,0,0,1,0,4.26,3.5,3.5,0,0,1-1.44,1.39,4.79,4.79,0,0,1-4.18,0,3.49,3.49,0,0,1-1.46-1.39,4.62,4.62,0,0,1,0-4.26,3.56,3.56,0,0,1,1.46-1.39,4.79,4.79,0,0,1,4.18,0Zm-3.25,2.09a2.41,2.41,0,0,0,0,2.86,1.53,1.53,0,0,0,1.16.49,1.51,1.51,0,0,0,1.15-.49,2.41,2.41,0,0,0,0-2.86,1.48,1.48,0,0,0-1.15-.5A1.5,1.5,0,0,0,436.94,211.36Z"/><path class="cls-4" d="M450.53,209.7a3.57,3.57,0,0,1,.79,2.46v4.54h-2.4v-4.26a1.69,1.69,0,0,0-.42-1.22,1.41,1.41,0,0,0-1.1-.45,1.52,1.52,0,0,0-1.16.47,1.86,1.86,0,0,0-.43,1.31v4.15h-2.4v-7.82h2.4v1.43a2.61,2.61,0,0,1,1-1.1,3,3,0,0,1,1.57-.41A2.71,2.71,0,0,1,450.53,209.7Z"/><path class="cls-4" d="M389.2,224.44a3.22,3.22,0,0,1,1.12,2h-2.25a1.25,1.25,0,0,0-.44-.74,1.32,1.32,0,0,0-.87-.28.91.91,0,0,0-.61.18.57.57,0,0,0-.22.49.58.58,0,0,0,.39.55,6.19,6.19,0,0,0,1.22.36,12.54,12.54,0,0,1,1.47.43,2.42,2.42,0,0,1,1,.71,1.94,1.94,0,0,1,.42,1.31,2,2,0,0,1-.36,1.19,2.46,2.46,0,0,1-1.06.82,4.24,4.24,0,0,1-1.63.29,4.18,4.18,0,0,1-2.54-.7,2.94,2.94,0,0,1-1.17-2H386a1.06,1.06,0,0,0,.43.77,1.6,1.6,0,0,0,1,.26.94.94,0,0,0,.62-.18.66.66,0,0,0,.21-.5.59.59,0,0,0-.39-.58,6.53,6.53,0,0,0-1.25-.37,10.15,10.15,0,0,1-1.44-.4,2.46,2.46,0,0,1-1-.67,1.92,1.92,0,0,1-.4-1.29,2.08,2.08,0,0,1,.8-1.7,3.52,3.52,0,0,1,2.26-.65A3.62,3.62,0,0,1,389.2,224.44Z"/><path class="cls-4" d="M399.14,228.14H393.7a1.83,1.83,0,0,0,.45,1.27,1.63,1.63,0,0,0,1.93.12,1.25,1.25,0,0,0,.46-.69h2.54a3.27,3.27,0,0,1-.67,1.48,3.72,3.72,0,0,1-1.32,1,4.14,4.14,0,0,1-1.78.37,4.28,4.28,0,0,1-2.05-.48,3.49,3.49,0,0,1-1.4-1.4,4.34,4.34,0,0,1-.5-2.12,4.29,4.29,0,0,1,.5-2.14,3.42,3.42,0,0,1,1.39-1.38,4.6,4.6,0,0,1,4.11,0,3.4,3.4,0,0,1,1.37,1.34,4,4,0,0,1,.48,2A3,3,0,0,1,399.14,228.14ZM396.37,226a1.53,1.53,0,0,0-1.06-.39,1.59,1.59,0,0,0-1.1.39,1.68,1.68,0,0,0-.49,1.15h3.06A1.44,1.44,0,0,0,396.37,226Z"/><path class="cls-4" d="M404,224.14a3,3,0,0,1,1.54-.42v2.56h-.69a2.39,2.39,0,0,0-1.48.4,1.65,1.65,0,0,0-.53,1.38v3.55h-2.4V223.8h2.4v1.47A3.39,3.39,0,0,1,404,224.14Z"/><path class="cls-4" d="M410.2,229.27l1.7-5.47h2.56l-2.79,7.81h-3l-2.78-7.81h2.56Z"/><path class="cls-4" d="M415.62,220.7a1.68,1.68,0,0,1,2.08,0,1.17,1.17,0,0,1,.39.9,1.15,1.15,0,0,1-.39.89,1.68,1.68,0,0,1-2.08,0,1.15,1.15,0,0,1-.39-.89A1.17,1.17,0,0,1,415.62,220.7Zm2.24,3.1v7.81h-2.41V223.8Z"/><path class="cls-4" d="M425.6,224.54a3.68,3.68,0,0,1,1.29,2.28h-2.54a1.3,1.3,0,0,0-1.35-1.06,1.29,1.29,0,0,0-1,.5,2.24,2.24,0,0,0-.41,1.45,2.28,2.28,0,0,0,.41,1.45,1.28,1.28,0,0,0,1,.49,1.35,1.35,0,0,0,.88-.28,1.33,1.33,0,0,0,.47-.78h2.54a3.73,3.73,0,0,1-1.29,2.29,4,4,0,0,1-2.55.83,4.24,4.24,0,0,1-2-.48,3.43,3.43,0,0,1-1.4-1.4,4.23,4.23,0,0,1-.5-2.12,4.39,4.39,0,0,1,.49-2.14,3.44,3.44,0,0,1,1.4-1.38,4.2,4.2,0,0,1,2.05-.49A3.92,3.92,0,0,1,425.6,224.54Z"/><path class="cls-4" d="M435.52,228.14h-5.44a1.83,1.83,0,0,0,.45,1.27,1.48,1.48,0,0,0,1,.38,1.46,1.46,0,0,0,.88-.26,1.27,1.27,0,0,0,.47-.69h2.54a3.38,3.38,0,0,1-.67,1.48,3.67,3.67,0,0,1-1.33,1,4.11,4.11,0,0,1-1.78.37,4.21,4.21,0,0,1-2-.48,3.43,3.43,0,0,1-1.4-1.4,4.24,4.24,0,0,1-.51-2.12,4.39,4.39,0,0,1,.5-2.14,3.38,3.38,0,0,1,1.4-1.38,4.17,4.17,0,0,1,2.05-.49,4.22,4.22,0,0,1,2.05.48,3.34,3.34,0,0,1,1.37,1.34,4,4,0,0,1,.49,2A3.9,3.9,0,0,1,435.52,228.14ZM432.74,226a1.51,1.51,0,0,0-1.06-.39,1.59,1.59,0,0,0-1.1.39,1.68,1.68,0,0,0-.49,1.15h3.07A1.44,1.44,0,0,0,432.74,226Z"/><g id="Shape_1247" data-name="Shape 1247"><path class="cls-5" d="M435.51,162.2,423,156.78a12.1,12.1,0,0,0-24.06,0l-12.48,5.42a.79.79,0,0,0-.49.74v31.45a1.61,1.61,0,0,0,1.61,1.61h46.78a1.61,1.61,0,0,0,1.61-1.61V162.94A.79.79,0,0,0,435.51,162.2ZM411,147.61a10.49,10.49,0,1,1-10.48,10.49A10.49,10.49,0,0,1,411,147.61Zm-23.39,15.85,11.3-4.89a12.06,12.06,0,0,0,3.08,7.59H387.61Zm0,30.93V170.62l12.61,5.46-11.44,18.31Zm3.07,0,11-17.66,9,3.88a.79.79,0,0,0,.64,0l9-3.88,11,17.66Zm43.71,0h-1.17l-11.44-18.31,12.61-5.46Zm0-25.53L411,179l-23.39-10.13v-1.09h16.14a12.06,12.06,0,0,0,14.5,0h16.14Zm0-2.7H420a12.06,12.06,0,0,0,3.08-7.59l11.3,4.89Z"/></g><g id="Rectangle_1367" data-name="Rectangle 1367"><path class="cls-2" d="M416.6,161.87l-.8-2.42a.82.82,0,0,0-.77-.55v-3.22a3.21,3.21,0,0,0-1.61-2.79v-.44a2.42,2.42,0,0,0-4.84,0v.44a3.21,3.21,0,0,0-1.61,2.79v3.22a.82.82,0,0,0-.77.55l-.8,2.42a.8.8,0,0,0,.51,1,.7.7,0,0,0,.25.05h2.42a2.42,2.42,0,0,0,4.84,0h2.42a.82.82,0,0,0,.81-.81A.8.8,0,0,0,416.6,161.87ZM411,151.64a.82.82,0,0,1,.81.81h-1.62A.82.82,0,0,1,411,151.64Zm-2.42,4a1.62,1.62,0,0,1,1.61-1.62h1.62a1.62,1.62,0,0,1,1.61,1.62v3.22h-4.84Zm2.42,8.06a.8.8,0,0,1-.81-.8h1.62A.8.8,0,0,1,411,163.74Zm-3.72-2.42.27-.8h6.9l.27.8ZM402.13,192h-8.07a.81.81,0,0,0,0,1.61h8.07a.81.81,0,1,0,0-1.61Zm3.22,0h-.8a.81.81,0,1,0,0,1.61h.8a.81.81,0,1,0,0-1.61Z"/></g><path class="cls-4" d="M402.14,415.31a4.3,4.3,0,0,1-1.8,1.76,5.74,5.74,0,0,1-2.76.63h-3.75v-9.9h3.75a5.87,5.87,0,0,1,2.77.61,4.29,4.29,0,0,1,1.79,1.74,5.6,5.6,0,0,1,0,5.16Zm-2.58-.5a3.18,3.18,0,0,0,0-4.17,3.07,3.07,0,0,0-2.19-.74h-1.13v5.65h1.13A3,3,0,0,0,399.56,414.81Z"/><path class="cls-4" d="M408.65,410.19a2.41,2.41,0,0,1,1,1.11v-1.42H412v7.82h-2.39v-1.42a2.41,2.41,0,0,1-1,1.11,2.83,2.83,0,0,1-1.54.4,3.13,3.13,0,0,1-2.94-1.87,4.77,4.77,0,0,1-.45-2.13,4.71,4.71,0,0,1,.45-2.13,3.13,3.13,0,0,1,2.94-1.87A2.83,2.83,0,0,1,408.65,410.19Zm-2,2.2a2.32,2.32,0,0,0,0,2.8,1.6,1.6,0,0,0,1.24.5,1.66,1.66,0,0,0,1.25-.51,2,2,0,0,0,.48-1.39,1.94,1.94,0,0,0-.48-1.39,1.66,1.66,0,0,0-1.25-.51A1.6,1.6,0,0,0,406.64,412.39Z"/><path class="cls-4" d="M418.1,415.64v2.06H417a3.14,3.14,0,0,1-2.14-.68,2.88,2.88,0,0,1-.76-2.25V411.9h-1.06v-2h1.06V408h2.4v1.91h1.57v2h-1.57v2.91a.89.89,0,0,0,.19.65.92.92,0,0,0,.64.18Z"/><path class="cls-4" d="M424,410.19a2.39,2.39,0,0,1,.95,1.11v-1.42h2.39v7.82h-2.39v-1.42a2.39,2.39,0,0,1-.95,1.11,2.86,2.86,0,0,1-1.55.4,3.19,3.19,0,0,1-1.73-.48,3.31,3.31,0,0,1-1.21-1.39,4.91,4.91,0,0,1-.44-2.13,4.85,4.85,0,0,1,.44-2.13,3.31,3.31,0,0,1,1.21-1.39,3.19,3.19,0,0,1,1.73-.48A2.86,2.86,0,0,1,424,410.19Zm-2,2.2a2.32,2.32,0,0,0,0,2.8,1.79,1.79,0,0,0,2.49,0,2,2,0,0,0,.48-1.39,1.94,1.94,0,0,0-.48-1.39,1.79,1.79,0,0,0-2.49,0Z"/><path class="cls-4" d="M377.72,425.19a3.34,3.34,0,0,1,1.21,1.38,5.38,5.38,0,0,1,0,4.26,3.34,3.34,0,0,1-1.21,1.4,3.2,3.2,0,0,1-1.74.48,2.75,2.75,0,0,1-1.54-.41,2.29,2.29,0,0,1-.94-1.1v5.14h-2.41V424.8h2.41v1.41a2.34,2.34,0,0,1,.94-1.1,2.83,2.83,0,0,1,1.54-.41A3.13,3.13,0,0,1,377.72,425.19ZM374,427.31a1.93,1.93,0,0,0-.49,1.4,1.89,1.89,0,0,0,.49,1.38,1.59,1.59,0,0,0,1.24.52,1.62,1.62,0,0,0,1.24-.5,2,2,0,0,0,.47-1.4,1.93,1.93,0,0,0-.47-1.4,1.59,1.59,0,0,0-1.24-.51A1.62,1.62,0,0,0,374,427.31Z"/><path class="cls-4" d="M384.18,425.14a3,3,0,0,1,1.54-.42v2.56H385a2.37,2.37,0,0,0-1.48.4,1.65,1.65,0,0,0-.53,1.38v3.55h-2.4V424.8H383v1.47A3.39,3.39,0,0,1,384.18,425.14Z"/><path class="cls-4" d="M392.48,425.19a3.47,3.47,0,0,1,1.45,1.39,4.53,4.53,0,0,1,0,4.25,3.49,3.49,0,0,1-1.45,1.4,4.4,4.4,0,0,1-2.08.48,4.51,4.51,0,0,1-2.1-.48,3.55,3.55,0,0,1-1.45-1.4,4.53,4.53,0,0,1,0-4.25,3.53,3.53,0,0,1,1.45-1.39,4.4,4.4,0,0,1,2.1-.49A4.29,4.29,0,0,1,392.48,425.19Zm-3.24,2.08a2,2,0,0,0-.47,1.44,1.93,1.93,0,0,0,.47,1.42,1.53,1.53,0,0,0,1.16.49,1.51,1.51,0,0,0,1.15-.49,2,2,0,0,0,.46-1.42,2,2,0,0,0-.46-1.44,1.51,1.51,0,0,0-1.15-.5A1.54,1.54,0,0,0,389.24,427.27Z"/><path class="cls-4" d="M401.79,425.54a3.59,3.59,0,0,1,1.29,2.28h-2.54a1.35,1.35,0,0,0-.46-.78,1.37,1.37,0,0,0-.89-.28,1.29,1.29,0,0,0-1,.5,2.24,2.24,0,0,0-.4,1.45,2.28,2.28,0,0,0,.4,1.45,1.28,1.28,0,0,0,1,.49,1.37,1.37,0,0,0,.89-.28,1.32,1.32,0,0,0,.46-.78h2.54a3.64,3.64,0,0,1-1.29,2.29,3.92,3.92,0,0,1-2.54.83,4.21,4.21,0,0,1-2-.48,3.37,3.37,0,0,1-1.4-1.4,4.24,4.24,0,0,1-.51-2.12,4.37,4.37,0,0,1,.5-2.14,3.38,3.38,0,0,1,1.4-1.38,4.17,4.17,0,0,1,2.05-.49A3.87,3.87,0,0,1,401.79,425.54Z"/><path class="cls-4" d="M411.71,429.14h-5.44a1.83,1.83,0,0,0,.45,1.27,1.63,1.63,0,0,0,1.93.12,1.25,1.25,0,0,0,.46-.69h2.54a3.27,3.27,0,0,1-.67,1.48,3.72,3.72,0,0,1-1.32,1,4.14,4.14,0,0,1-1.78.37,4.28,4.28,0,0,1-2.05-.48,3.49,3.49,0,0,1-1.4-1.4,4.34,4.34,0,0,1-.5-2.12,4.26,4.26,0,0,1,.5-2.14,3.36,3.36,0,0,1,1.39-1.38,4.6,4.6,0,0,1,4.11,0,3.4,3.4,0,0,1,1.37,1.34,4,4,0,0,1,.48,2A3,3,0,0,1,411.71,429.14ZM408.94,427a1.53,1.53,0,0,0-1.06-.39,1.57,1.57,0,0,0-1.1.39,1.68,1.68,0,0,0-.49,1.15h3.06A1.44,1.44,0,0,0,408.94,427Z"/><path class="cls-4" d="M418.27,425.44a3.26,3.26,0,0,1,1.11,2h-2.25a1.2,1.2,0,0,0-.44-.74,1.31,1.31,0,0,0-.86-.28.94.94,0,0,0-.62.18.59.59,0,0,0-.21.49.58.58,0,0,0,.39.55,6,6,0,0,0,1.21.36,13.39,13.39,0,0,1,1.48.43,2.46,2.46,0,0,1,1,.71,1.93,1.93,0,0,1,.43,1.31,2,2,0,0,1-.37,1.19,2.38,2.38,0,0,1-1.05.82,4.27,4.27,0,0,1-1.63.29,4.21,4.21,0,0,1-2.55-.7,3,3,0,0,1-1.16-2h2.32a1,1,0,0,0,.42.77,1.61,1.61,0,0,0,1,.26.91.91,0,0,0,.61-.18.63.63,0,0,0,.22-.5.59.59,0,0,0-.39-.58,6.93,6.93,0,0,0-1.26-.37,9.61,9.61,0,0,1-1.43-.4,2.26,2.26,0,0,1-1-.68,1.87,1.87,0,0,1-.41-1.28,2.1,2.1,0,0,1,.8-1.7,3.54,3.54,0,0,1,2.26-.65A3.65,3.65,0,0,1,418.27,425.44Z"/><path class="cls-4" d="M426.06,425.44a3.22,3.22,0,0,1,1.12,2h-2.25a1.2,1.2,0,0,0-.44-.74,1.31,1.31,0,0,0-.86-.28.92.92,0,0,0-.62.18.59.59,0,0,0-.21.49.57.57,0,0,0,.38.55,6.19,6.19,0,0,0,1.22.36,12.54,12.54,0,0,1,1.47.43,2.42,2.42,0,0,1,1,.71,1.93,1.93,0,0,1,.42,1.31,2,2,0,0,1-.36,1.19,2.46,2.46,0,0,1-1.06.82,4.24,4.24,0,0,1-1.63.29,4.18,4.18,0,0,1-2.54-.7,2.94,2.94,0,0,1-1.17-2h2.32a1.06,1.06,0,0,0,.43.77,1.6,1.6,0,0,0,1,.26.94.94,0,0,0,.62-.18.66.66,0,0,0,.21-.5.6.6,0,0,0-.38-.58,6.93,6.93,0,0,0-1.26-.37A9.61,9.61,0,0,1,422,429a2.26,2.26,0,0,1-1-.68,1.82,1.82,0,0,1-.41-1.28,2.08,2.08,0,0,1,.8-1.7,3.52,3.52,0,0,1,2.26-.65A3.62,3.62,0,0,1,426.06,425.44Z"/><path class="cls-4" d="M428.79,421.7a1.7,1.7,0,0,1,2.09,0,1.17,1.17,0,0,1,.39.9,1.15,1.15,0,0,1-.39.89,1.7,1.7,0,0,1-2.09,0,1.15,1.15,0,0,1-.39-.89A1.17,1.17,0,0,1,428.79,421.7Zm2.24,3.1v7.81h-2.4V424.8Z"/><path class="cls-4" d="M439.8,425.61a3.6,3.6,0,0,1,.8,2.47v4.53h-2.4v-4.25a1.71,1.71,0,0,0-.42-1.23,1.45,1.45,0,0,0-1.1-.44,1.49,1.49,0,0,0-1.16.46,1.86,1.86,0,0,0-.43,1.32v4.14h-2.4V424.8h2.4v1.43a2.56,2.56,0,0,1,1-1.11,3,3,0,0,1,1.57-.4A2.7,2.7,0,0,1,439.8,425.61Z"/><path class="cls-4" d="M446.71,425.11a2.42,2.42,0,0,1,1,1.1V424.8h2.39v7.77a4.52,4.52,0,0,1-.42,2,3.26,3.26,0,0,1-1.29,1.39,4.13,4.13,0,0,1-2.17.52,4.49,4.49,0,0,1-2.83-.83,3.42,3.42,0,0,1-1.27-2.27h2.38a1.17,1.17,0,0,0,.51.75,1.94,1.94,0,0,0,1.05.26,1.72,1.72,0,0,0,1.2-.42,1.82,1.82,0,0,0,.45-1.37V431.2a2.37,2.37,0,0,1-1,1.1,2.78,2.78,0,0,1-1.55.41,3.19,3.19,0,0,1-1.73-.48,3.27,3.27,0,0,1-1.21-1.4,5.38,5.38,0,0,1,0-4.26,3.27,3.27,0,0,1,1.21-1.38,3.12,3.12,0,0,1,1.73-.49A2.87,2.87,0,0,1,446.71,425.11Zm-2,2.2a2,2,0,0,0-.47,1.4,2,2,0,0,0,.47,1.4,1.66,1.66,0,0,0,1.25.5,1.61,1.61,0,0,0,1.24-.52,1.93,1.93,0,0,0,.48-1.38,2,2,0,0,0-.48-1.4,1.77,1.77,0,0,0-2.49,0Z"/><g id="Shape_1249" data-name="Shape 1249"><path class="cls-5" d="M400.52,357.68a4.84,4.84,0,1,0,4.83,4.84A4.84,4.84,0,0,0,400.52,357.68Zm0,8.06a3.23,3.23,0,1,1,3.22-3.22A3.23,3.23,0,0,1,400.52,365.74Zm27.42,15.32-.33-1.58c-.5.1-1,.19-1.55.27l.25,1.6C426.86,381.26,427.4,381.17,427.94,381.06Zm-3.26.51L424.5,380c-.52.06-1.05.11-1.58.15l.12,1.61C423.59,381.68,424.14,381.63,424.68,381.57Zm6.46-1.35-.5-1.53c-.48.15-1,.3-1.5.43l.41,1.57C430.1,380.54,430.63,380.39,431.14,380.22Zm-6.42,14.25-.18-1.6L423,393l.12,1.61C423.63,394.58,424.18,394.53,424.72,394.47ZM428,394l-.32-1.58-1.55.28.25,1.59C426.9,394.17,427.44,394.07,428,394Zm3.21-.84-.5-1.53c-.48.16-1,.3-1.5.44l.41,1.56C430.14,393.45,430.67,393.29,431.18,393.12Zm-19.54-5.56c.53.1,1.07.2,1.62.28l.24-1.6c-.52-.08-1-.16-1.55-.27Zm3.26.49,1.64.14.1-1.61c-.52,0-1.05-.08-1.57-.14Zm-6.48-1.31c.52.17,1.05.32,1.6.46l.4-1.57c-.52-.13-1-.27-1.5-.43Zm11.46-17.8a36.41,36.41,0,0,0-7.59.71c-2.49.57-3.7,1.38-3.71,2.49,0,3.15,10.13,3.27,11.28,3.28H420a35.53,35.53,0,0,0,7.45-.71c2.49-.57,3.7-1.39,3.7-2.5C431.17,369.06,421,368.94,419.88,368.94Zm.13,4.86h-.14c-5.6,0-9.07-1-9.63-1.65.57-.62,4.05-1.61,9.64-1.6s9.07,1,9.63,1.66C429,372.82,425.53,373.8,420,373.8Zm11-6.35a33.43,33.43,0,0,0-11.11-1.74,39.72,39.72,0,0,0-7.06.6c0-.07.05-.16.08-.24l2.12-.5v-6.11l-2.12-.5a12.43,12.43,0,0,0-1.12-2.69l1.15-1.86-4.32-4.32-1.86,1.15a13,13,0,0,0-2.69-1.12l-.5-2.12h-6.11l-.5,2.12a13,13,0,0,0-2.69,1.12l-1.86-1.15-4.32,4.32,1.15,1.86a13,13,0,0,0-1.12,2.69l-2.12.5v6.11l2.12.5a13,13,0,0,0,1.12,2.69l-1.15,1.86,4.32,4.32,1.86-1.15a12.43,12.43,0,0,0,2.69,1.12l.5,2.12h6.27v1.54h0l0,12.9c0,1.87,1.77,3.56,5,4.77a33.38,33.38,0,0,0,11.1,1.73h.13c7.78,0,16-2.23,16-6.4l0-6.45h0l0-12.9C436,370.34,434.23,368.65,431,367.45Zm-27.26,4.67v3.3h-5l-.43-1.83-.48-.12a10.83,10.83,0,0,1-3.14-1.31l-.43-.25-1.6,1-2.52-2.52,1-1.6-.25-.42a11.3,11.3,0,0,1-1.31-3.15l-.11-.48-1.84-.43v-3.56l1.84-.44.11-.48a11,11,0,0,1,1.31-3.14l.25-.43-1-1.6,2.52-2.52,1.6,1,.42-.25a11,11,0,0,1,3.15-1.31l.48-.12.43-1.83h3.57l.43,1.83.48.12a11,11,0,0,1,3.15,1.31l.42.25,1.6-1,2.52,2.52-1,1.6.25.43a11,11,0,0,1,1.31,3.14l.11.48,1.84.44v3.56l-1.83.43-.12.48a11.47,11.47,0,0,1-.5,1.5c-.72.19-1.42.39-2.07.62a9.58,9.58,0,0,0,1.29-4.81,9.68,9.68,0,1,0-9.67,9.67,9.57,9.57,0,0,0,3.27-.58A2.84,2.84,0,0,0,403.74,372.12Zm-3.22-1.54a8.07,8.07,0,1,1,8.06-8.06A8.08,8.08,0,0,1,400.52,370.58Zm33.81,21c0,2.27-5.92,4.79-14.4,4.79h-.13a31.42,31.42,0,0,1-10.55-1.64c-2.48-.92-3.95-2.13-3.95-3.24v-3.56a11.55,11.55,0,0,0,3.4,1.87,33.38,33.38,0,0,0,11.1,1.73h.13c5.69,0,11.62-1.2,14.4-3.47Zm0-6.46c0,2.28-5.92,4.8-14.4,4.8h-.13a31.42,31.42,0,0,1-10.55-1.64c-2.48-.92-4-2.13-3.95-3.24v-3.52c2.78,2.31,8.77,3.54,14.5,3.56H420c5.69,0,11.62-1.2,14.4-3.47Zm0-6.45c0,2.28-5.92,4.8-14.4,4.8h-.13c-8.55,0-14.51-2.6-14.5-4.88V375a11.33,11.33,0,0,0,3.4,1.87,33.37,33.37,0,0,0,11.1,1.74H420c5.69,0,11.62-1.2,14.4-3.48ZM420,377h-.13a31.69,31.69,0,0,1-10.55-1.63c-2.48-.92-4-2.13-3.95-3.25,0-2.27,5.91-4.79,14.4-4.79h.13A31.73,31.73,0,0,1,430.44,369c2.47.92,3.95,2.14,3.95,3.25C434.38,374.49,428.47,377,420,377Z"/></g><g id="Buffalo_Thorn_Tree_3" data-name="Buffalo Thorn Tree 3"><path class="cls-2" d="M434.39,357.68H436v-1.62h-1.61ZM422,362.52h-5.32v1.61h6l6.45-6.45h3.7v-1.62h-4.36Zm4.83-9.68-6.45,6.45h-3.7v1.61H421l6.45-6.45H436v-1.61ZM394.06,398h1.62v-1.61h-1.62Zm6.46-14-6.46,6.45v4.36h1.62v-3.7l6.45-6.45v-6h-1.61Zm-1.62-5.32h-1.61v3.7l-6.45,6.45V398h1.61v-8.54L398.9,383Z"/></g><path class="cls-4" d="M574.19,58.71a4.25,4.25,0,0,1-1.8,1.76,5.74,5.74,0,0,1-2.76.63h-3.75V51.2h3.75a5.87,5.87,0,0,1,2.77.62,4.23,4.23,0,0,1,1.79,1.74,5.13,5.13,0,0,1,.63,2.57A5.19,5.19,0,0,1,574.19,58.71Zm-2.58-.49a3.18,3.18,0,0,0,0-4.17,3,3,0,0,0-2.19-.75h-1.14V59h1.14A3.07,3.07,0,0,0,571.61,58.22Z"/><path class="cls-4" d="M580.7,53.6a2.5,2.5,0,0,1,1,1.1V53.29h2.39V61.1h-2.39V59.69a2.5,2.5,0,0,1-1,1.1,2.83,2.83,0,0,1-1.54.41,3.2,3.2,0,0,1-1.74-.48,3.34,3.34,0,0,1-1.21-1.4,4.83,4.83,0,0,1-.44-2.12,4.89,4.89,0,0,1,.44-2.14,3.34,3.34,0,0,1,1.21-1.38,3.13,3.13,0,0,1,1.74-.49A2.83,2.83,0,0,1,580.7,53.6Zm-2,2.2a1.93,1.93,0,0,0-.47,1.4,2,2,0,0,0,.47,1.4,1.63,1.63,0,0,0,1.24.5,1.59,1.59,0,0,0,1.24-.52,2.22,2.22,0,0,0,0-2.78,1.76,1.76,0,0,0-2.48,0Z"/><path class="cls-4" d="M590.15,59V61.1h-1.09a3.09,3.09,0,0,1-2.14-.68,2.86,2.86,0,0,1-.76-2.24V55.31H585.1v-2h1.06V51.37h2.4v1.92h1.57v2h-1.57v2.91a.84.84,0,0,0,.19.64.91.91,0,0,0,.64.18Z"/><path class="cls-4" d="M596,53.6a2.42,2.42,0,0,1,1,1.1V53.29h2.39V61.1H597V59.69a2.42,2.42,0,0,1-1,1.1,2.87,2.87,0,0,1-1.55.41,3.19,3.19,0,0,1-1.73-.48,3.27,3.27,0,0,1-1.21-1.4,4.7,4.7,0,0,1-.44-2.12,4.76,4.76,0,0,1,.44-2.14,3.27,3.27,0,0,1,1.21-1.38,3.12,3.12,0,0,1,1.73-.49A2.87,2.87,0,0,1,596,53.6Zm-2,2.2a2,2,0,0,0-.47,1.4,2,2,0,0,0,.47,1.4,1.66,1.66,0,0,0,1.25.5,1.61,1.61,0,0,0,1.24-.52,2.25,2.25,0,0,0,0-2.78,1.77,1.77,0,0,0-2.49,0Z"/><path class="cls-4" d="M608.4,56.87a2.39,2.39,0,0,1,.53,1.53,2.45,2.45,0,0,1-.85,2,3.74,3.74,0,0,1-2.44.71H601V51.2h4.51a3.71,3.71,0,0,1,2.35.66,2.28,2.28,0,0,1,.83,1.88,2.35,2.35,0,0,1-.48,1.49A2.26,2.26,0,0,1,607,56,2.5,2.5,0,0,1,608.4,56.87Zm-5-1.62H605c.83,0,1.25-.35,1.25-1.06s-.43-1.07-1.28-1.07h-1.55Zm3.05,2.81a1.05,1.05,0,0,0-.35-.83,1.51,1.51,0,0,0-1-.3h-1.7v2.23h1.72C606,59.16,606.47,58.79,606.47,58.06Z"/><path class="cls-4" d="M614.72,53.6a2.42,2.42,0,0,1,.95,1.1V53.29h2.39V61.1h-2.39V59.69a2.42,2.42,0,0,1-.95,1.1,2.87,2.87,0,0,1-1.55.41,3.19,3.19,0,0,1-1.73-.48,3.27,3.27,0,0,1-1.21-1.4,4.7,4.7,0,0,1-.44-2.12,4.76,4.76,0,0,1,.44-2.14,3.27,3.27,0,0,1,1.21-1.38,3.12,3.12,0,0,1,1.73-.49A2.87,2.87,0,0,1,614.72,53.6Zm-2,2.2a2,2,0,0,0-.47,1.4,2,2,0,0,0,.47,1.4,1.66,1.66,0,0,0,1.25.5,1.61,1.61,0,0,0,1.24-.52,2.25,2.25,0,0,0,0-2.78,1.77,1.77,0,0,0-2.49,0Z"/><path class="cls-4" d="M625,53.93a3.22,3.22,0,0,1,1.12,2h-2.25a1.2,1.2,0,0,0-.44-.74,1.31,1.31,0,0,0-.86-.28.92.92,0,0,0-.62.18.59.59,0,0,0-.21.49.58.58,0,0,0,.38.55,6.41,6.41,0,0,0,1.22.36,12.54,12.54,0,0,1,1.47.43,2.42,2.42,0,0,1,1,.71,1.94,1.94,0,0,1,.42,1.31,2,2,0,0,1-.36,1.19,2.46,2.46,0,0,1-1.06.82,4.87,4.87,0,0,1-4.17-.41,3,3,0,0,1-1.17-2h2.32a1.06,1.06,0,0,0,.43.77,1.6,1.6,0,0,0,1,.26.92.92,0,0,0,.62-.18.66.66,0,0,0,.21-.5.6.6,0,0,0-.38-.58,6.93,6.93,0,0,0-1.26-.37,11,11,0,0,1-1.43-.4,2.33,2.33,0,0,1-1-.67,1.87,1.87,0,0,1-.41-1.29,2.1,2.1,0,0,1,.8-1.7,3.52,3.52,0,0,1,2.26-.65A3.62,3.62,0,0,1,625,53.93Z"/><path class="cls-4" d="M634.89,57.63h-5.43a1.75,1.75,0,0,0,.45,1.27,1.62,1.62,0,0,0,1.92.12,1.25,1.25,0,0,0,.46-.69h2.55a3.4,3.4,0,0,1-.68,1.48,3.55,3.55,0,0,1-1.32,1,4.14,4.14,0,0,1-1.78.37,4.28,4.28,0,0,1-2-.48,3.41,3.41,0,0,1-1.39-1.4,4.24,4.24,0,0,1-.51-2.12,4.39,4.39,0,0,1,.5-2.14,3.38,3.38,0,0,1,1.4-1.38,4.17,4.17,0,0,1,2-.49,4.25,4.25,0,0,1,2.05.48A3.38,3.38,0,0,1,634.48,55a4,4,0,0,1,.48,2A3,3,0,0,1,634.89,57.63Zm-2.77-2.16a1.53,1.53,0,0,0-1.06-.39,1.59,1.59,0,0,0-1.1.39,1.68,1.68,0,0,0-.49,1.15h3.06A1.44,1.44,0,0,0,632.12,55.47Z"/><g id="Shape_1233" data-name="Shape 1233"><path class="cls-5" d="M540.47,39C532.78,39,527,41.71,527,45.31v19.4c0,3.4,5,6,12.25,6.29a1.15,1.15,0,0,0,0-2.3c-6.44-.26-10-2.53-10-4V61.88c2.39,1.66,6.4,2.65,11,2.68a1.15,1.15,0,0,0,1.15-1.14,1.18,1.18,0,0,0-.33-.82,1.15,1.15,0,0,0-.82-.34c-6.83,0-11-2.37-11-4V55.38c2.45,1.69,6.59,2.72,11.19,2.72s8.75-1,11.19-2.72V58A1.16,1.16,0,0,0,554,58V45.31C554,41.71,548.16,39,540.47,39Zm11.19,12.78c0,1.64-4.36,4-11.19,4s-11.19-2.38-11.19-4V48.92c2.45,1.69,6.59,2.71,11.19,2.71s8.75-1,11.19-2.71Zm-11.19-2.44c-6.83,0-11.19-2.38-11.19-4s4.36-4,11.19-4,11.19,2.38,11.19,4S547.3,49.34,540.47,49.34Z"/></g><g id="Shape_1234" data-name="Shape 1234"><path class="cls-2" d="M555,61.54h-.1a6.21,6.21,0,0,0-5-2.65,6.31,6.31,0,0,0-6.21,5.46A3.82,3.82,0,0,0,541,68a3.77,3.77,0,0,0,3.72,3.82H555a5.15,5.15,0,0,0,0-10.3Zm0,7.95H544.7a1.48,1.48,0,0,1,0-2.95,1.16,1.16,0,0,0,1.14-1.17,4.07,4.07,0,0,1,4-4.13,4,4,0,0,1,3.47,2.12,1.13,1.13,0,0,0,1.19.58,2.61,2.61,0,0,1,.48,0,2.8,2.8,0,0,1,0,5.6Z"/></g><path class="cls-4" d="M574.19,196.71a4.25,4.25,0,0,1-1.8,1.76,5.74,5.74,0,0,1-2.76.63h-3.75v-9.9h3.75a5.87,5.87,0,0,1,2.77.62,4.23,4.23,0,0,1,1.79,1.74,5.13,5.13,0,0,1,.63,2.57A5.19,5.19,0,0,1,574.19,196.71Zm-2.58-.49a3.18,3.18,0,0,0,0-4.17,3,3,0,0,0-2.19-.75h-1.14V197h1.14A3.07,3.07,0,0,0,571.61,196.22Z"/><path class="cls-4" d="M580.7,191.6a2.5,2.5,0,0,1,1,1.1v-1.41h2.39v7.81h-2.39v-1.41a2.5,2.5,0,0,1-1,1.1,2.83,2.83,0,0,1-1.54.41,3.2,3.2,0,0,1-1.74-.48,3.34,3.34,0,0,1-1.21-1.4,4.83,4.83,0,0,1-.44-2.12,4.89,4.89,0,0,1,.44-2.14,3.34,3.34,0,0,1,1.21-1.38,3.13,3.13,0,0,1,1.74-.49A2.83,2.83,0,0,1,580.7,191.6Zm-2,2.2a1.93,1.93,0,0,0-.47,1.4,2,2,0,0,0,.47,1.4,1.63,1.63,0,0,0,1.24.5,1.59,1.59,0,0,0,1.24-.52,2.22,2.22,0,0,0,0-2.78,1.76,1.76,0,0,0-2.48,0Z"/><path class="cls-4" d="M590.15,197v2.06h-1.09a3.09,3.09,0,0,1-2.14-.68,2.86,2.86,0,0,1-.76-2.24v-2.87H585.1v-2h1.06v-1.92h2.4v1.92h1.57v2h-1.57v2.91a.84.84,0,0,0,.19.64.91.91,0,0,0,.64.18Z"/><path class="cls-4" d="M596,191.6a2.42,2.42,0,0,1,1,1.1v-1.41h2.39v7.81H597v-1.41a2.42,2.42,0,0,1-1,1.1,2.87,2.87,0,0,1-1.55.41,3.19,3.19,0,0,1-1.73-.48,3.27,3.27,0,0,1-1.21-1.4,4.7,4.7,0,0,1-.44-2.12,4.76,4.76,0,0,1,.44-2.14,3.27,3.27,0,0,1,1.21-1.38,3.12,3.12,0,0,1,1.73-.49A2.87,2.87,0,0,1,596,191.6Zm-2,2.2a2,2,0,0,0-.47,1.4,2,2,0,0,0,.47,1.4,1.66,1.66,0,0,0,1.25.5,1.61,1.61,0,0,0,1.24-.52,2.25,2.25,0,0,0,0-2.78,1.77,1.77,0,0,0-2.49,0Z"/><path class="cls-4" d="M608.4,194.87a2.39,2.39,0,0,1,.53,1.53,2.45,2.45,0,0,1-.85,2,3.74,3.74,0,0,1-2.44.71H601v-9.9h4.51a3.71,3.71,0,0,1,2.35.66,2.28,2.28,0,0,1,.83,1.88,2.35,2.35,0,0,1-.48,1.49A2.26,2.26,0,0,1,607,194,2.5,2.5,0,0,1,608.4,194.87Zm-5-1.62H605c.83,0,1.25-.35,1.25-1.06s-.43-1.07-1.28-1.07h-1.55Zm3.05,2.81a1.05,1.05,0,0,0-.35-.83,1.51,1.51,0,0,0-1-.3h-1.7v2.23h1.72C606,197.16,606.47,196.79,606.47,196.06Z"/><path class="cls-4" d="M614.72,191.6a2.42,2.42,0,0,1,.95,1.1v-1.41h2.39v7.81h-2.39v-1.41a2.42,2.42,0,0,1-.95,1.1,2.87,2.87,0,0,1-1.55.41,3.19,3.19,0,0,1-1.73-.48,3.27,3.27,0,0,1-1.21-1.4,4.7,4.7,0,0,1-.44-2.12,4.76,4.76,0,0,1,.44-2.14,3.27,3.27,0,0,1,1.21-1.38,3.12,3.12,0,0,1,1.73-.49A2.87,2.87,0,0,1,614.72,191.6Zm-2,2.2a2,2,0,0,0-.47,1.4,2,2,0,0,0,.47,1.4,1.66,1.66,0,0,0,1.25.5,1.61,1.61,0,0,0,1.24-.52,2.25,2.25,0,0,0,0-2.78,1.77,1.77,0,0,0-2.49,0Z"/><path class="cls-4" d="M625,191.93a3.22,3.22,0,0,1,1.12,2h-2.25a1.2,1.2,0,0,0-.44-.74,1.31,1.31,0,0,0-.86-.28.92.92,0,0,0-.62.18.59.59,0,0,0-.21.49.58.58,0,0,0,.38.55,6.41,6.41,0,0,0,1.22.36,12.54,12.54,0,0,1,1.47.43,2.42,2.42,0,0,1,1,.71,1.94,1.94,0,0,1,.42,1.31,2,2,0,0,1-.36,1.19,2.46,2.46,0,0,1-1.06.82,4.87,4.87,0,0,1-4.17-.41,3,3,0,0,1-1.17-2h2.32a1.06,1.06,0,0,0,.43.77,1.6,1.6,0,0,0,1,.26.92.92,0,0,0,.62-.18.66.66,0,0,0,.21-.5.6.6,0,0,0-.38-.58,6.93,6.93,0,0,0-1.26-.37,11,11,0,0,1-1.43-.4,2.33,2.33,0,0,1-1-.67,1.87,1.87,0,0,1-.41-1.29,2.1,2.1,0,0,1,.8-1.7,3.52,3.52,0,0,1,2.26-.65A3.62,3.62,0,0,1,625,191.93Z"/><path class="cls-4" d="M634.89,195.63h-5.43a1.75,1.75,0,0,0,.45,1.27,1.62,1.62,0,0,0,1.92.12,1.25,1.25,0,0,0,.46-.69h2.55a3.4,3.4,0,0,1-.68,1.48,3.55,3.55,0,0,1-1.32,1,4.14,4.14,0,0,1-1.78.37,4.28,4.28,0,0,1-2-.48,3.41,3.41,0,0,1-1.39-1.4,4.24,4.24,0,0,1-.51-2.12,4.39,4.39,0,0,1,.5-2.14,3.38,3.38,0,0,1,1.4-1.38,4.17,4.17,0,0,1,2-.49,4.25,4.25,0,0,1,2.05.48,3.38,3.38,0,0,1,1.37,1.33,4,4,0,0,1,.48,2A3,3,0,0,1,634.89,195.63Zm-2.77-2.16a1.53,1.53,0,0,0-1.06-.39,1.59,1.59,0,0,0-1.1.39,1.68,1.68,0,0,0-.49,1.15h3.06A1.44,1.44,0,0,0,632.12,193.47Z"/><g id="Shape_1233-2" data-name="Shape 1233"><path class="cls-5" d="M540.47,177c-7.69,0-13.49,2.71-13.49,6.31v19.4c0,3.4,5,6,12.25,6.29a1.15,1.15,0,0,0,0-2.3c-6.44-.27-10-2.53-10-4v-2.83c2.39,1.66,6.4,2.65,11,2.68a1.15,1.15,0,0,0,1.15-1.14,1.18,1.18,0,0,0-.33-.82,1.15,1.15,0,0,0-.82-.34c-6.83,0-11-2.37-11-4v-2.86c2.45,1.69,6.59,2.72,11.19,2.72s8.75-1,11.19-2.72V196a1.16,1.16,0,0,0,2.31,0v-12.7C554,179.71,548.16,177,540.47,177Zm11.19,12.78c0,1.64-4.36,4-11.19,4s-11.19-2.38-11.19-4v-2.86c2.45,1.69,6.59,2.71,11.19,2.71s8.75-1,11.19-2.71Zm-11.19-2.44c-6.83,0-11.19-2.38-11.19-4s4.36-4,11.19-4,11.19,2.38,11.19,4S547.3,187.34,540.47,187.34Z"/></g><g id="Shape_1234-2" data-name="Shape 1234"><path class="cls-2" d="M555,199.54h-.1a6.21,6.21,0,0,0-5-2.65,6.31,6.31,0,0,0-6.21,5.46A3.82,3.82,0,0,0,541,206a3.78,3.78,0,0,0,3.72,3.82H555a5.15,5.15,0,0,0,0-10.3Zm0,8H544.7a1.48,1.48,0,0,1,0-3,1.16,1.16,0,0,0,1.14-1.17,4.07,4.07,0,0,1,4-4.13,4,4,0,0,1,3.47,2.12,1.13,1.13,0,0,0,1.19.58,2.61,2.61,0,0,1,.48-.05,2.8,2.8,0,0,1,0,5.6Z"/></g><path class="cls-4" d="M587.36,309.72a4.4,4.4,0,0,1-1.8,1.75,5.74,5.74,0,0,1-2.76.63h-3.75v-9.9h3.75a5.87,5.87,0,0,1,2.77.62,4.35,4.35,0,0,1,1.79,1.74,5.23,5.23,0,0,1,.62,2.57A5.36,5.36,0,0,1,587.36,309.72Zm-2.59-.5a3.18,3.18,0,0,0,0-4.17,3,3,0,0,0-2.18-.75h-1.14V310h1.14A3.06,3.06,0,0,0,584.77,309.22Z"/><path class="cls-4" d="M596.72,308.63h-5.44a1.83,1.83,0,0,0,.45,1.27,1.63,1.63,0,0,0,1.93.12,1.25,1.25,0,0,0,.46-.69h2.55a3.4,3.4,0,0,1-.68,1.48,3.72,3.72,0,0,1-1.32,1,4.14,4.14,0,0,1-1.78.37,4.28,4.28,0,0,1-2-.48,3.49,3.49,0,0,1-1.4-1.4,4.34,4.34,0,0,1-.5-2.12,4.29,4.29,0,0,1,.5-2.14,3.42,3.42,0,0,1,1.39-1.38,4.6,4.6,0,0,1,4.11,0,3.4,3.4,0,0,1,1.37,1.34,4,4,0,0,1,.48,2A3,3,0,0,1,596.72,308.63ZM594,306.47a1.53,1.53,0,0,0-1.06-.39,1.59,1.59,0,0,0-1.1.39,1.68,1.68,0,0,0-.49,1.15h3.06A1.44,1.44,0,0,0,594,306.47Z"/><path class="cls-4" d="M601.67,309.76l1.7-5.47h2.55l-2.78,7.81h-3l-2.78-7.81h2.56Z"/><path class="cls-4" d="M607.09,301.19a1.68,1.68,0,0,1,2.08,0,1.17,1.17,0,0,1,.39.9,1.15,1.15,0,0,1-.39.89,1.68,1.68,0,0,1-2.08,0,1.15,1.15,0,0,1-.39-.89A1.17,1.17,0,0,1,607.09,301.19Zm2.23,3.1v7.81h-2.4v-7.81Z"/><path class="cls-4" d="M617.07,305a3.68,3.68,0,0,1,1.29,2.28h-2.54a1.3,1.3,0,0,0-1.35-1.06,1.28,1.28,0,0,0-1,.5,2.24,2.24,0,0,0-.41,1.45,2.28,2.28,0,0,0,.41,1.45,1.27,1.27,0,0,0,1,.49,1.35,1.35,0,0,0,.88-.28,1.33,1.33,0,0,0,.47-.78h2.54a3.73,3.73,0,0,1-1.29,2.29,4,4,0,0,1-2.55.83,4.21,4.21,0,0,1-2-.48,3.43,3.43,0,0,1-1.4-1.4,4.23,4.23,0,0,1-.5-2.12,4.39,4.39,0,0,1,.49-2.14,3.44,3.44,0,0,1,1.4-1.38,4.17,4.17,0,0,1,2-.49A3.92,3.92,0,0,1,617.07,305Z"/><path class="cls-4" d="M627,308.63h-5.44a1.83,1.83,0,0,0,.45,1.27,1.48,1.48,0,0,0,1,.38,1.46,1.46,0,0,0,.88-.26,1.27,1.27,0,0,0,.47-.69h2.54a3.29,3.29,0,0,1-.68,1.48,3.55,3.55,0,0,1-1.32,1,4.11,4.11,0,0,1-1.78.37,4.21,4.21,0,0,1-2-.48,3.37,3.37,0,0,1-1.4-1.4,4.24,4.24,0,0,1-.51-2.12,4.39,4.39,0,0,1,.5-2.14,3.38,3.38,0,0,1,1.4-1.38,4.17,4.17,0,0,1,2-.49,4.22,4.22,0,0,1,2.05.48,3.34,3.34,0,0,1,1.37,1.34,4,4,0,0,1,.49,2A3.9,3.9,0,0,1,627,308.63Zm-2.78-2.16a1.53,1.53,0,0,0-1.06-.39,1.59,1.59,0,0,0-1.1.39,1.68,1.68,0,0,0-.49,1.15h3.07A1.44,1.44,0,0,0,624.21,306.47Z"/><path class="cls-4" d="M630.44,304.44V302.2h4v9.9h-2.53v-7.66Z"/><g id="Shape_1250" data-name="Shape 1250"><path class="cls-5" d="M563.5,287h-35a3.53,3.53,0,0,0-3.5,3.54v24.82a3.53,3.53,0,0,0,3.5,3.55h12.25c0,1.41-.3,3.68-1.3,4.74a1.73,1.73,0,0,1-1.33.58.89.89,0,0,0,0,1.77h15.75a.89.89,0,0,0,0-1.77,1.72,1.72,0,0,1-1.32-.58c-1-1.06-1.26-3.33-1.3-4.74H563.5a3.53,3.53,0,0,0,3.5-3.55V290.54A3.53,3.53,0,0,0,563.5,287Zm-36.75,3.54a1.77,1.77,0,0,1,1.75-1.77h35a1.77,1.77,0,0,1,1.75,1.77V310h-38.5Zm14.47,33.69a10.93,10.93,0,0,0,1.29-5.32h7a10.93,10.93,0,0,0,1.29,5.32Zm24-8.87a1.77,1.77,0,0,1-1.75,1.78h-35a1.77,1.77,0,0,1-1.75-1.78v-3.54h38.5Z"/></g><g id="Rectangle_1368" data-name="Rectangle 1368"><path class="cls-2" d="M546,312.7a1.78,1.78,0,1,0,1.75,1.78A1.76,1.76,0,0,0,546,312.7Z"/></g><path class="cls-4" d="M587.36,395.72a4.4,4.4,0,0,1-1.8,1.75,5.74,5.74,0,0,1-2.76.63h-3.75v-9.9h3.75a5.87,5.87,0,0,1,2.77.62,4.35,4.35,0,0,1,1.79,1.74,5.23,5.23,0,0,1,.62,2.57A5.36,5.36,0,0,1,587.36,395.72Zm-2.59-.5a3.18,3.18,0,0,0,0-4.17,3,3,0,0,0-2.18-.75h-1.14V396h1.14A3.06,3.06,0,0,0,584.77,395.22Z"/><path class="cls-4" d="M596.72,394.63h-5.44a1.83,1.83,0,0,0,.45,1.27,1.63,1.63,0,0,0,1.93.12,1.25,1.25,0,0,0,.46-.69h2.55a3.4,3.4,0,0,1-.68,1.48,3.72,3.72,0,0,1-1.32,1,4.14,4.14,0,0,1-1.78.37,4.28,4.28,0,0,1-2-.48,3.49,3.49,0,0,1-1.4-1.4,4.34,4.34,0,0,1-.5-2.12,4.29,4.29,0,0,1,.5-2.14,3.42,3.42,0,0,1,1.39-1.38,4.6,4.6,0,0,1,4.11,0,3.4,3.4,0,0,1,1.37,1.34,4,4,0,0,1,.48,2A3,3,0,0,1,596.72,394.63ZM594,392.47a1.53,1.53,0,0,0-1.06-.39,1.59,1.59,0,0,0-1.1.39,1.68,1.68,0,0,0-.49,1.15h3.06A1.44,1.44,0,0,0,594,392.47Z"/><path class="cls-4" d="M601.67,395.76l1.7-5.47h2.55l-2.78,7.81h-3l-2.78-7.81h2.56Z"/><path class="cls-4" d="M607.09,387.19a1.68,1.68,0,0,1,2.08,0,1.17,1.17,0,0,1,.39.9,1.15,1.15,0,0,1-.39.89,1.68,1.68,0,0,1-2.08,0,1.15,1.15,0,0,1-.39-.89A1.17,1.17,0,0,1,607.09,387.19Zm2.23,3.1v7.81h-2.4v-7.81Z"/><path class="cls-4" d="M617.07,391a3.68,3.68,0,0,1,1.29,2.28h-2.54a1.3,1.3,0,0,0-1.35-1.06,1.28,1.28,0,0,0-1,.5,2.24,2.24,0,0,0-.41,1.45,2.28,2.28,0,0,0,.41,1.45,1.27,1.27,0,0,0,1,.49,1.35,1.35,0,0,0,.88-.28,1.33,1.33,0,0,0,.47-.78h2.54a3.73,3.73,0,0,1-1.29,2.29,4,4,0,0,1-2.55.83,4.21,4.21,0,0,1-2-.48,3.43,3.43,0,0,1-1.4-1.4,4.23,4.23,0,0,1-.5-2.12,4.39,4.39,0,0,1,.49-2.14,3.44,3.44,0,0,1,1.4-1.38,4.17,4.17,0,0,1,2-.49A3.92,3.92,0,0,1,617.07,391Z"/><path class="cls-4" d="M627,394.63h-5.44a1.83,1.83,0,0,0,.45,1.27,1.48,1.48,0,0,0,1,.38,1.46,1.46,0,0,0,.88-.26,1.27,1.27,0,0,0,.47-.69h2.54a3.29,3.29,0,0,1-.68,1.48,3.55,3.55,0,0,1-1.32,1,4.11,4.11,0,0,1-1.78.37,4.21,4.21,0,0,1-2-.48,3.37,3.37,0,0,1-1.4-1.4,4.24,4.24,0,0,1-.51-2.12,4.39,4.39,0,0,1,.5-2.14,3.38,3.38,0,0,1,1.4-1.38,4.17,4.17,0,0,1,2-.49,4.22,4.22,0,0,1,2.05.48,3.34,3.34,0,0,1,1.37,1.34,4,4,0,0,1,.49,2A3.9,3.9,0,0,1,627,394.63Zm-2.78-2.16a1.53,1.53,0,0,0-1.06-.39,1.59,1.59,0,0,0-1.1.39,1.68,1.68,0,0,0-.49,1.15h3.07A1.44,1.44,0,0,0,624.21,392.47Z"/><path class="cls-4" d="M635.23,391.14c0-.76-.33-1.14-1-1.14a.91.91,0,0,0-.82.39,2.45,2.45,0,0,0-.29,1.22h-2.34a3.43,3.43,0,0,1,3.65-3.63,3.34,3.34,0,0,1,2.44.81,2.84,2.84,0,0,1,.82,2.12,4.47,4.47,0,0,1-1.11,2.82,10.28,10.28,0,0,1-2.66,2.33h3.92V398h-7.08V396.2C633.74,394.08,635.23,392.4,635.23,391.14Z"/><g id="Shape_1250-2" data-name="Shape 1250"><path class="cls-5" d="M563.5,373h-35a3.53,3.53,0,0,0-3.5,3.55v24.81a3.53,3.53,0,0,0,3.5,3.55h12.25c0,1.42-.3,3.68-1.3,4.74a1.7,1.7,0,0,1-1.33.58.89.89,0,0,0,0,1.77h15.75a.89.89,0,0,0,0-1.77,1.69,1.69,0,0,1-1.32-.58c-1-1.06-1.26-3.32-1.3-4.74H563.5a3.53,3.53,0,0,0,3.5-3.55V376.55A3.53,3.53,0,0,0,563.5,373Zm-36.75,3.55a1.77,1.77,0,0,1,1.75-1.78h35a1.77,1.77,0,0,1,1.75,1.78V396h-38.5Zm14.47,33.68a10.93,10.93,0,0,0,1.29-5.32h7a10.93,10.93,0,0,0,1.29,5.32Zm24-8.87a1.77,1.77,0,0,1-1.75,1.78h-35a1.77,1.77,0,0,1-1.75-1.78v-3.54h38.5Z"/></g><g id="Rectangle_1368-2" data-name="Rectangle 1368"><path class="cls-2" d="M546,398.7a1.78,1.78,0,1,0,1.75,1.78A1.76,1.76,0,0,0,546,398.7Z"/></g><path class="cls-4" d="M587.36,481.72a4.4,4.4,0,0,1-1.8,1.75,5.74,5.74,0,0,1-2.76.63h-3.75v-9.9h3.75a5.87,5.87,0,0,1,2.77.62,4.35,4.35,0,0,1,1.79,1.74,5.23,5.23,0,0,1,.62,2.57A5.36,5.36,0,0,1,587.36,481.72Zm-2.59-.5a3.18,3.18,0,0,0,0-4.17,3,3,0,0,0-2.18-.75h-1.14V482h1.14A3.06,3.06,0,0,0,584.77,481.22Z"/><path class="cls-4" d="M596.72,480.63h-5.44a1.83,1.83,0,0,0,.45,1.27,1.63,1.63,0,0,0,1.93.12,1.25,1.25,0,0,0,.46-.69h2.55a3.4,3.4,0,0,1-.68,1.48,3.72,3.72,0,0,1-1.32,1,4.14,4.14,0,0,1-1.78.37,4.28,4.28,0,0,1-2-.48,3.49,3.49,0,0,1-1.4-1.4,4.34,4.34,0,0,1-.5-2.12,4.29,4.29,0,0,1,.5-2.14,3.42,3.42,0,0,1,1.39-1.38,4.6,4.6,0,0,1,4.11,0,3.4,3.4,0,0,1,1.37,1.34,4,4,0,0,1,.48,2A3,3,0,0,1,596.72,480.63ZM594,478.47a1.53,1.53,0,0,0-1.06-.39,1.59,1.59,0,0,0-1.1.39,1.68,1.68,0,0,0-.49,1.15h3.06A1.44,1.44,0,0,0,594,478.47Z"/><path class="cls-4" d="M601.67,481.76l1.7-5.47h2.55l-2.78,7.81h-3l-2.78-7.81h2.56Z"/><path class="cls-4" d="M607.09,473.19a1.68,1.68,0,0,1,2.08,0,1.17,1.17,0,0,1,.39.9,1.15,1.15,0,0,1-.39.89,1.68,1.68,0,0,1-2.08,0,1.15,1.15,0,0,1-.39-.89A1.17,1.17,0,0,1,607.09,473.19Zm2.23,3.1v7.81h-2.4v-7.81Z"/><path class="cls-4" d="M617.07,477a3.68,3.68,0,0,1,1.29,2.28h-2.54a1.3,1.3,0,0,0-1.35-1.06,1.28,1.28,0,0,0-1,.5,2.24,2.24,0,0,0-.41,1.45,2.28,2.28,0,0,0,.41,1.45,1.27,1.27,0,0,0,1,.49,1.35,1.35,0,0,0,.88-.28,1.33,1.33,0,0,0,.47-.78h2.54a3.73,3.73,0,0,1-1.29,2.29,4,4,0,0,1-2.55.83,4.21,4.21,0,0,1-2-.48,3.43,3.43,0,0,1-1.4-1.4,4.23,4.23,0,0,1-.5-2.12,4.39,4.39,0,0,1,.49-2.14,3.44,3.44,0,0,1,1.4-1.38,4.17,4.17,0,0,1,2-.49A3.92,3.92,0,0,1,617.07,477Z"/><path class="cls-4" d="M627,480.63h-5.44a1.83,1.83,0,0,0,.45,1.27,1.48,1.48,0,0,0,1,.38,1.46,1.46,0,0,0,.88-.26,1.27,1.27,0,0,0,.47-.69h2.54a3.29,3.29,0,0,1-.68,1.48,3.55,3.55,0,0,1-1.32,1,4.11,4.11,0,0,1-1.78.37,4.21,4.21,0,0,1-2-.48,3.37,3.37,0,0,1-1.4-1.4,4.24,4.24,0,0,1-.51-2.12,4.39,4.39,0,0,1,.5-2.14,3.38,3.38,0,0,1,1.4-1.38,4.17,4.17,0,0,1,2-.49,4.22,4.22,0,0,1,2.05.48,3.34,3.34,0,0,1,1.37,1.34,4,4,0,0,1,.49,2A3.9,3.9,0,0,1,627,480.63Zm-2.78-2.16a1.53,1.53,0,0,0-1.06-.39,1.59,1.59,0,0,0-1.1.39,1.68,1.68,0,0,0-.49,1.15h3.07A1.44,1.44,0,0,0,624.21,478.47Z"/><path class="cls-4" d="M630.37,481.71v2.39h-2.49v-2.39Z"/><path class="cls-4" d="M633.69,481.71v2.39H631.2v-2.39Z"/><path class="cls-4" d="M637,481.71v2.39h-2.49v-2.39Z"/><g id="Shape_1250-3" data-name="Shape 1250"><path class="cls-5" d="M563.5,459h-35a3.53,3.53,0,0,0-3.5,3.54v24.82a3.53,3.53,0,0,0,3.5,3.55h12.25c0,1.41-.3,3.68-1.3,4.74a1.73,1.73,0,0,1-1.33.58.89.89,0,0,0,0,1.77h15.75a.89.89,0,0,0,0-1.77,1.72,1.72,0,0,1-1.32-.58c-1-1.06-1.26-3.33-1.3-4.74H563.5a3.53,3.53,0,0,0,3.5-3.55V462.54A3.53,3.53,0,0,0,563.5,459Zm-36.75,3.54a1.77,1.77,0,0,1,1.75-1.77h35a1.77,1.77,0,0,1,1.75,1.77V482h-38.5Zm14.47,33.69a10.93,10.93,0,0,0,1.29-5.32h7a10.93,10.93,0,0,0,1.29,5.32Zm24-8.87a1.77,1.77,0,0,1-1.75,1.78h-35a1.77,1.77,0,0,1-1.75-1.78v-3.54h38.5Z"/></g><g id="Rectangle_1368-3" data-name="Rectangle 1368"><path class="cls-2" d="M546,484.7a1.78,1.78,0,1,0,1.75,1.78A1.76,1.76,0,0,0,546,484.7Z"/></g><g id="Rectangle_1366_copy_2-2" data-name="Rectangle 1366 copy 2"><polygon class="cls-2" points="165 241 158.99 238 158.99 241 155 241 155 238 149 241 146 241 146 244 149.01 244 155 246.99 155 244 158.99 244 158.99 246.99 164.98 244 168 244 168 241 165 241"/></g><g id="Rectangle_1366_copy_2-3" data-name="Rectangle 1366 copy 2"><polygon class="cls-2" points="510 191 503.99 188 503.99 191 489 191 489 188 483 191 480 191 480 194 483.01 194 489 196.99 489 194 503.99 194 503.99 196.99 509.98 194 513 194 513 191 510 191"/></g><g id="Rectangle_1366_copy_2-4" data-name="Rectangle 1366 copy 2"><polygon class="cls-2" points="510 53 503.99 50 503.99 53 489 53 489 50 483 53 480 53 480 56 483.01 56 489 58.99 489 56 503.99 56 503.99 58.99 509.98 56 513 56 513 53 510 53"/></g><g id="Rectangle_1366-3" data-name="Rectangle 1366"><polygon class="cls-2" points="513 308 513 305 409 305 409 316.96 405 316.96 409 325.72 409 339 412 339 412 325.7 415.99 316.96 412 316.96 412 308 513 308"/></g><g id="Ellipse_1187_copy_4" data-name="Ellipse 1187 copy 4"><path class="cls-3" d="M141.5,239a3.5,3.5,0,1,1-3.5,3.5,3.5,3.5,0,0,1,3.5-3.5m0-2a5.5,5.5,0,1,0,5.5,5.5,5.5,5.5,0,0,0-5.5-5.5Z"/></g><g id="Ellipse_1187_copy_5" data-name="Ellipse 1187 copy 5"><path class="cls-3" d="M172.5,239a3.5,3.5,0,1,1-3.5,3.5,3.5,3.5,0,0,1,3.5-3.5m0-2a5.5,5.5,0,1,0,5.5,5.5,5.5,5.5,0,0,0-5.5-5.5Z"/></g><g id="Ellipse_1187_copy_6" data-name="Ellipse 1187 copy 6"><path class="cls-3" d="M241.5,307a3.5,3.5,0,1,1-3.5,3.5,3.5,3.5,0,0,1,3.5-3.5m0-2a5.5,5.5,0,1,0,5.5,5.5,5.5,5.5,0,0,0-5.5-5.5Z"/></g><g id="Ellipse_1187_copy_7" data-name="Ellipse 1187 copy 7"><path class="cls-3" d="M241.5,171a3.5,3.5,0,1,1-3.5,3.5,3.5,3.5,0,0,1,3.5-3.5m0-2a5.5,5.5,0,1,0,5.5,5.5,5.5,5.5,0,0,0-5.5-5.5Z"/></g><g id="Ellipse_1187_copy_8-2" data-name="Ellipse 1187 copy 8"><path class="cls-3" d="M311.5,207a3.5,3.5,0,1,1-3.5,3.5,3.5,3.5,0,0,1,3.5-3.5m0-2a5.5,5.5,0,1,0,5.5,5.5,5.5,5.5,0,0,0-5.5-5.5Z"/></g></g></g><!-- Code injected by live-server -->
<script>
	// <![CDATA[  <-- For SVG support
	if ('WebSocket' in window) {
		(function () {
			function refreshCSS() {
				var sheets = [].slice.call(document.getElementsByTagName("link"));
				var head = document.getElementsByTagName("head")[0];
				for (var i = 0; i < sheets.length; ++i) {
					var elem = sheets[i];
					var parent = elem.parentElement || head;
					parent.removeChild(elem);
					var rel = elem.rel;
					if (elem.href && typeof rel != "string" || rel.length == 0 || rel.toLowerCase() == "stylesheet") {
						var url = elem.href.replace(/(&|\?)_cacheOverride=\d+/, '');
						elem.href = url + (url.indexOf('?') >= 0 ? '&' : '?') + '_cacheOverride=' + (new Date().valueOf());
					}
					parent.appendChild(elem);
				}
			}
			var protocol = window.location.protocol === 'http:' ? 'ws://' : 'wss://';
			var address = protocol + window.location.host + window.location.pathname + '/ws';
			var socket = new WebSocket(address);
			socket.onmessage = function (msg) {
				if (msg.data == 'reload') window.location.reload();
				else if (msg.data == 'refreshcss') refreshCSS();
			};
			if (sessionStorage && !sessionStorage.getItem('IsThisFirstTime_Log_From_LiveServer')) {
				console.log('Live reload enabled.');
				sessionStorage.setItem('IsThisFirstTime_Log_From_LiveServer', true);
			}
		})();
	}
	else {
		console.error('Upgrade your browser. This Browser is NOT supported WebSocket for Live-Reloading.');
	}
	// ]]>
</script>
</svg>