<?xml version="1.0" encoding="utf-8"?>
<!-- Generator: Adobe Illustrator 17.0.0, SVG Export Plug-In . SVG Version: 6.00 Build 0)  -->
<!DOCTYPE svg PUBLIC "-//W3C//DTD SVG 1.1//EN" "http://www.w3.org/Graphics/SVG/1.1/DTD/svg11.dtd">
<svg version="1.1" id="Layer_1" xmlns="http://www.w3.org/2000/svg" xmlns:xlink="http://www.w3.org/1999/xlink" x="0px" y="0px"
	 width="1080px" height="1080px" viewBox="0 0 1080 1080" enable-background="new 0 0 1080 1080" xml:space="preserve">
<g>
	<g>
		<path fill="#DD190C" d="M2.109,833.203c0-194.063,0-388.125,0-582.188c1.324-7.211,2.623-14.428,3.975-21.634
			C24.815,129.541,81.085,59.535,174.962,21.325c23.985-9.762,50.63-12.987,76.054-19.216c194.063,0,388.125,0,582.188,0
			c7.196,1.322,14.396,2.624,21.589,3.968c99.891,18.666,169.728,75.121,207.993,168.898c9.786,23.982,13.059,50.621,19.324,76.04
			c0,194.063,0,388.125,0,582.188c-1.323,7.21-2.626,14.425-3.974,21.631c-18.686,99.885-75.144,169.718-168.932,207.965
			c-23.972,9.776-50.595,13.05-76,19.311c-194.063,0-388.125,0-582.188,0c-7.563-1.341-15.141-2.603-22.687-4.036
			c-99.059-18.806-168.478-74.932-206.679-167.859C11.681,885.965,8.44,858.949,2.109,833.203z M542.129,291.997
			c-79.288,3.162-157.941,5.937-236.551,9.608c-31.922,1.491-59.966,13.617-74.769,43.211
			c-9.063,18.118-16.258,39.052-17.148,59.039c-3.203,71.899-4.286,143.934-4.23,215.917c0.022,28.622,3.688,57.47,8.27,85.798
			c5.111,31.597,21.41,56.815,53.108,67.764c14.413,4.979,30.042,7.912,45.285,8.746c52.968,2.896,106.021,6.442,159.019,6.115
			c100.452-0.618,200.901-3.316,301.325-6.08c32.431-0.893,61.863-12.052,77.065-42.857c8.971-18.18,15.714-39.008,17.102-59.084
			c3.726-53.923,5.793-108.103,5.164-162.141c-0.543-46.572-3.104-93.453-9.544-139.531c-6.673-47.743-39.399-74.505-87.685-76.845
			C699.585,297.83,620.576,295.143,542.129,291.997z"/>
		<path fill="#DD190C" d="M473.22,436.159c60.49,33.09,119.783,65.525,181.103,99.069c-60.908,32.766-120.435,64.789-181.103,97.426
			C473.22,566.68,473.22,502.284,473.22,436.159z"/>
	</g>
</g>
</svg>
