<svg id="big_data" data-name="big data" xmlns="http://www.w3.org/2000/svg" width="50" height="50.03" viewBox="0 0 50 50.03">
  <defs>
    <style>
      .cls-1 {
        fill: #a798d2;
      }

      .cls-1, .cls-2 {
        fill-rule: evenodd;
      }

      .cls-2 {
        fill: #00b100;
      }
    </style>
  </defs>
  <path class="cls-1" d="M805,2122.32c-4.558,0-7.5,1.31-7.5,3.34v15c0,2.03,2.941,3.34,7.5,3.34s7.5-1.31,7.5-3.34v-15C812.493,2123.63,809.552,2122.32,805,2122.32Zm5.832,18.34c0,0.57-1.758,1.67-5.832,1.67s-5.832-1.1-5.832-1.67v-2.76a16.01,16.01,0,0,0,11.664,0v2.76Zm0-5c0,0.57-1.758,1.67-5.832,1.67s-5.832-1.1-5.832-1.67v-2.76a16.147,16.147,0,0,0,11.664,0v2.76Zm0-5c0,0.57-1.758,1.67-5.832,1.67s-5.832-1.1-5.832-1.67v-2.76a16.147,16.147,0,0,0,11.664,0v2.76ZM805,2127.32c-4.074,0-5.832-1.1-5.832-1.66s1.758-1.67,5.832-1.67,5.832,1.1,5.832,1.67S809.069,2127.32,805,2127.32Zm16.663-5c-4.557,0-7.5,1.31-7.5,3.34v15c0,2.03,2.941,3.34,7.5,3.34s7.5-1.31,7.5-3.34v-15C829.157,2123.63,826.216,2122.32,821.658,2122.32Zm5.832,18.34c0,0.57-1.758,1.67-5.832,1.67s-5.832-1.1-5.832-1.67v-2.76a16.01,16.01,0,0,0,11.664,0v2.76Zm0-5c0,0.57-1.758,1.67-5.832,1.67s-5.832-1.1-5.832-1.67v-2.76a16.147,16.147,0,0,0,11.664,0v2.76Zm0-5c0,0.57-1.758,1.67-5.832,1.67s-5.832-1.1-5.832-1.67v-2.76a16.147,16.147,0,0,0,11.664,0v2.76Zm-5.832-3.34c-4.074,0-5.832-1.1-5.832-1.66s1.758-1.67,5.832-1.67,5.832,1.1,5.832,1.67S825.732,2127.32,821.658,2127.32Zm-33.326-5c-4.558,0-7.5,1.31-7.5,3.34v15c0,2.03,2.941,3.34,7.5,3.34s7.5-1.31,7.5-3.34v-15C795.83,2123.63,792.889,2122.32,788.332,2122.32Zm5.832,18.34c0,0.57-1.758,1.67-5.832,1.67s-5.833-1.1-5.833-1.67v-2.76a16.013,16.013,0,0,0,11.665,0v2.76Zm0-5c0,0.57-1.758,1.67-5.832,1.67s-5.833-1.1-5.833-1.67v-2.76a16.15,16.15,0,0,0,11.665,0v2.76Zm0-5c0,0.57-1.758,1.67-5.832,1.67s-5.833-1.1-5.833-1.67v-2.76a16.15,16.15,0,0,0,11.665,0v2.76Zm-5.832-3.34c-4.075,0-5.833-1.1-5.833-1.66s1.758-1.67,5.833-1.67,5.832,1.1,5.832,1.67S792.406,2127.32,788.332,2127.32Zm0-7.5v1.67H790v-0.84h7.5v-1.66h-8.331A0.831,0.831,0,0,0,788.332,2119.82Zm31.66,1.67h1.666v-1.67a0.831,0.831,0,0,0-.833-0.83h-8.332v1.66h7.5v0.84Z" transform="translate(-780 -2093.97)"/>
  <path id="Shape_1217_copy" data-name="Shape 1217 copy" class="cls-2" d="M805,2109.81a3.335,3.335,0,1,0,3.333,3.34A3.339,3.339,0,0,0,805,2109.81Zm0,5.01a1.67,1.67,0,1,1,1.666-1.67A1.67,1.67,0,0,1,805,2114.82Zm-7.915-10.84v-1.67a3.746,3.746,0,0,0-3.724,3.32l1.655,0.19A2.083,2.083,0,0,1,797.08,2103.98Zm17.913-.84h1.666a5.833,5.833,0,0,0-5.832-5.83v1.67A4.164,4.164,0,0,1,814.993,2103.14ZM827,2104.83a6.677,6.677,0,0,0-6.174-9.19,6.475,6.475,0,0,0-3.524,1.02,9.159,9.159,0,0,0-15.364,4.26,7.045,7.045,0,0,0-10.856,1.39,4.991,4.991,0,0,0-7.748,4.17,5.425,5.425,0,0,0,.066.83h-0.066a3.335,3.335,0,0,0,0,6.67h2.791a5,5,0,0,0,4.707,3.34h7.724l2.316,2.32a0.854,0.854,0,0,0,1.016.12l0.492-.3,0.141,0.56a0.833,0.833,0,0,0,.809.63h3.332a0.832,0.832,0,0,0,.808-0.63l0.142-.56,0.492,0.3a0.854,0.854,0,0,0,1.016-.12l2.316-2.32h7.724a5,5,0,0,0,5-5.01,5.663,5.663,0,0,0-.075-0.83h2.574A3.333,3.333,0,0,0,827,2104.83Zm-41.167,7.48h-2.5a1.665,1.665,0,1,1,0-3.33h1.183a0.828,0.828,0,0,0,.758-1.17,3.318,3.318,0,0,1,5.082-3.96,6.885,6.885,0,0,0-.358,2.21,2.934,2.934,0,0,0,.333,1.28A5,5,0,0,0,785.832,2112.31Zm25,1.86-1.016.25a0.81,0.81,0,0,0-.567.49,0.828,0.828,0,0,0,.058.75l0.534,0.9-1.433,1.43-0.9-.54a0.86,0.86,0,0,0-.75-0.05,0.835,0.835,0,0,0-.492.57l-0.25,1.02h-2.033l-0.25-1.02a0.831,0.831,0,0,0-.491-0.57,0.86,0.86,0,0,0-.75.05l-0.9.54-1.433-1.43,0.533-.9a0.828,0.828,0,0,0,.059-0.75,0.81,0.81,0,0,0-.567-0.49l-1.016-.25v-2.04l1.016-.25a0.832,0.832,0,0,0,.508-1.24l-0.533-.9,1.433-1.44,0.9,0.54a0.831,0.831,0,0,0,1.241-.51l0.25-1.02h2.033l0.25,1.02a0.832,0.832,0,0,0,1.242.51l0.9-.54,1.433,1.44-0.534.9a0.833,0.833,0,0,0,.509,1.24l1.016,0.25v2.04Zm8.332,1.48h-7.4l0.1-.02a0.844,0.844,0,0,0,.633-0.81v-3.34a0.835,0.835,0,0,0-.633-0.81l-0.558-.14,0.3-.49a0.839,0.839,0,0,0-.125-1.02l-2.358-2.36a0.826,0.826,0,0,0-1.016-.12l-0.492.3-0.142-.56a0.852,0.852,0,0,0-.808-0.64h-3.332a0.853,0.853,0,0,0-.809.64l-0.141.56-0.492-.3a0.854,0.854,0,0,0-1.016.12l-2.358,2.36a0.837,0.837,0,0,0-.125,1.02l0.3,0.49-0.558.14a0.837,0.837,0,0,0-.634.81v3.34a0.846,0.846,0,0,0,.634.81l0.1,0.02h-7.4a3.335,3.335,0,0,1,0-6.67h0.833a0.84,0.84,0,0,0,.683-0.35,0.867,0.867,0,0,0,.1-0.77,5.7,5.7,0,0,0-.391-0.82,2.607,2.607,0,0,1-.392-0.98,5.406,5.406,0,0,1,10.115-2.67,0.829,0.829,0,0,0,1.135.31,0.84,0.84,0,0,0,.423-0.71,7.5,7.5,0,1,1,13.48,4.66,0.835,0.835,0,0,0,.667,1.33h1.675A3.335,3.335,0,0,1,819.159,2115.65Zm7.5-5.84h-3.174a5.006,5.006,0,0,0-4.324-2.5h-0.175a9.011,9.011,0,0,0,1.008-4.17,9.157,9.157,0,0,0-1.617-5.19,5,5,0,0,1,6.549,7.22,0.835,0.835,0,0,0-.058.86,0.852,0.852,0,0,0,.741.45h1.05a1.665,1.665,0,1,1,0,3.33h0Z" transform="translate(-780 -2093.97)"/>
</svg>
