<svg id="clock" xmlns="http://www.w3.org/2000/svg" width="40" height="38" viewBox="0 0 40 38">
  <defs>
    <style>
      .cls-1 {
        fill: #a292cf;
      }

      .cls-1, .cls-2 {
        fill-rule: evenodd;
      }

      .cls-2 {
        fill: #00b100;
      }
    </style>
  </defs>
  <path class="cls-1" d="M332.975,1735.51a0.672,0.672,0,0,1-.437.45l-1.332.43a18.841,18.841,0,0,1-5.442,16.04,19.327,19.327,0,0,1-27.15,0,18.883,18.883,0,0,1,0-26.87,19.343,19.343,0,0,1,26.823-.31,0.65,0.65,0,0,1,.022.93,0.675,0.675,0,0,1-.949.03,18,18,0,0,0-24.948.29,17.563,17.563,0,0,0,0,24.99,17.98,17.98,0,0,0,25.254,0,17.592,17.592,0,0,0,5.091-14.68l-0.886.28a0.507,0.507,0,0,1-.208.04,0.682,0.682,0,0,1-.668-0.72l0.375-4.77a0.672,0.672,0,0,1,1.178-.38l3.141,3.64A0.645,0.645,0,0,1,332.975,1735.51Zm-3.243-2.17-0.172,2.18,1.608-.52Zm-17.543,20.89a15.231,15.231,0,1,1,15.39-15.23A15.327,15.327,0,0,1,312.189,1754.23Zm0-29.14A13.906,13.906,0,1,0,326.238,1739,14,14,0,0,0,312.189,1725.09Zm14.658,4.11a0.665,0.665,0,0,1-.439-1.21,0.7,0.7,0,0,1,.762,0A0.663,0.663,0,0,1,326.847,1729.2Z" transform="translate(-293 -1720)"/>
  <path id="Shape_1205_copy" data-name="Shape 1205 copy" class="cls-2" d="M312.189,1728.62a0.671,0.671,0,0,0-.671.67v9.04h-6.033a0.665,0.665,0,1,0,0,1.33h6.7a0.669,0.669,0,0,0,.671-0.66v-9.71A0.671,0.671,0,0,0,312.189,1728.62Z" transform="translate(-293 -1720)"/>
</svg>
