<svg id="developer" xmlns="http://www.w3.org/2000/svg" width="51" height="38" viewBox="0 0 51 38">
  <defs>
    <style>
      .cls-1 {
        fill: #00b100;
      }

      .cls-1, .cls-2 {
        fill-rule: evenodd;
      }

      .cls-2 {
        fill: #a292cf;
      }
    </style>
  </defs>
  <path class="cls-1" d="M759.818,1756.1l6.606-13.69a1.123,1.123,0,0,0-.058-1.09,1.1,1.1,0,0,0-.951-0.53H749.2a2.325,2.325,0,0,0-2.179,1.54l-3.006,8.39h-9.321a0.955,0.955,0,0,1,0-1.91h7.994l1.755-4.9,0.641-1.78,0.748-2.09a1.753,1.753,0,0,1,1.64-1.16h21.853a0.528,0.528,0,0,1,.464.26,0.545,0.545,0,0,1,.032.53L762.1,1756.1h-2.277Z" transform="translate(-723 -1720)"/>
  <path id="Shape_1207_copy" data-name="Shape 1207 copy" class="cls-2" d="M773.055,1758h-49.11a0.95,0.95,0,0,1,0-1.9h49.11A0.95,0.95,0,0,1,773.055,1758Zm-35.9-20.09a9.007,9.007,0,0,1-5.139-15.27,8.862,8.862,0,0,1,6.307-2.63,9,9,0,0,1,6.3,15.34A8.827,8.827,0,0,1,737.153,1737.91Zm6.131-13.92a6.955,6.955,0,0,0-6.156-1.98,7.106,7.106,0,0,0-3.778,12,7.019,7.019,0,0,0,6.158,1.97A7.1,7.1,0,0,0,743.284,1723.99Zm-1.151,17.73a11.072,11.072,0,0,1,2.7.34l0.251,0.07-0.641,1.78-0.319-.07a9.711,9.711,0,0,0-1.99-.22H734.5a9.343,9.343,0,0,0-9.238,8.24,0.95,0.95,0,0,1-.941.86,0.9,0.9,0,0,1-.7-0.32,0.991,0.991,0,0,1-.236-0.78,11.24,11.24,0,0,1,11.114-9.9h7.632Z" transform="translate(-723 -1720)"/>
</svg>
