<svg id="Pre-set_filters" data-name="Pre-set filters" xmlns="http://www.w3.org/2000/svg" width="41" height="41" viewBox="0 0 41 41">
  <defs>
    <style>
      .cls-1 {
        fill: #a292cf;
      }

      .cls-1, .cls-2 {
        fill-rule: evenodd;
      }

      .cls-2 {
        fill: #00b200;
      }
    </style>
  </defs>
  <path class="cls-1" d="M1240.58,6438.15H1223.8a12.949,12.949,0,0,0,1.04-3.17v-0.02c0.01-.07.02-0.12,0.02-0.14v-0.02c0-.02.01-0.04,0.01-0.07,0-2.65-9.82-2.73-10.94-2.73s-10.93.08-10.93,2.73c0,0.03.01,0.04,0.01,0.07v0.02c0,0.02.01,0.07,0.02,0.14v0.02a13.176,13.176,0,0,0,1.38,3.84,3.406,3.406,0,0,0-1.41,2.75v22.54a3.425,3.425,0,0,0,3.42,3.42h10.93v1.37h-4.78a0.674,0.674,0,0,0-.68.68v2.73a0.683,0.683,0,0,0,.68.69h21.86a0.683,0.683,0,0,0,.68-0.69v-2.73a0.674,0.674,0,0,0-.68-0.68h-4.78v-1.37h10.93a3.425,3.425,0,0,0,3.42-3.42v-22.54A3.425,3.425,0,0,0,1240.58,6438.15Zm-26.65-4.78c5.62,0,8.82.85,9.49,1.36-0.67.52-3.87,1.37-9.49,1.37s-8.81-.85-9.48-1.37C1205.12,6434.22,1208.32,6433.37,1213.93,6433.37Zm-1.38,11.52-0.03-.15c-0.04-.07-0.09-0.15-0.14-0.22a1.063,1.063,0,0,0-.11-0.09c-0.03-.02-0.05-0.04-0.08-0.06a15.906,15.906,0,0,1-3.73-2.55,15.628,15.628,0,0,0,3.85.55,9.388,9.388,0,0,0,3.07-.48c0.39-.12.77-0.26,1.16-0.4a23.416,23.416,0,0,1,4.28-1.19,15.073,15.073,0,0,1-5.14,4.07c-0.03.02-.05,0.04-0.08,0.06a1.063,1.063,0,0,0-.11.09c-0.05.07-.1,0.15-0.14,0.22l-0.03.15c-0.01.03-.01,0.06-0.02,0.09v6.66a6.286,6.286,0,0,1-2.73,0v-6.66C1212.56,6444.95,1212.56,6444.92,1212.55,6444.89Zm3.54-4.69c-0.38.14-.76,0.27-1.14,0.4-2.83.95-6.06,0.03-8.3-.79-0.25-.34-0.47-0.67-0.67-1v-0.01c-0.01-.02-0.03-0.03-0.04-0.05a12.841,12.841,0,0,1-1.12-2.37c2.89,1.05,8.3,1.09,9.11,1.09s6.21-.04,9.1-1.08a14.249,14.249,0,0,1-1.18,2.46A19.354,19.354,0,0,0,1216.09,6440.2Zm17.66,30.06v1.37h-20.5v-1.37h20.5Zm-15.03-1.36v-1.37h9.56v1.37h-9.56Zm23.91-4.79a2.053,2.053,0,0,1-2.05,2.05h-34.16a2.053,2.053,0,0,1-2.05-2.05v-2.05h38.26v2.05h0Zm0-3.41h-38.26v-19.13a2.053,2.053,0,0,1,.74-1.58,16.106,16.106,0,0,0,6.09,5.41v6.78c0,0.01.01,0.01,0.01,0.02a0.4,0.4,0,0,0,.03.15,0.228,0.228,0,0,0,.03.11,0.49,0.49,0,0,0,.25.28,0.746,0.746,0,0,0,.12.07,0.031,0.031,0,0,0,.02.01,7.368,7.368,0,0,0,4.55,0,0.031,0.031,0,0,0,.02-0.01,0.746,0.746,0,0,0,.12-0.07,0.533,0.533,0,0,0,.28-0.39,0.4,0.4,0,0,0,.03-0.15c0-.01.01-0.01,0.01-0.02v-6.78a16.085,16.085,0,0,0,6.39-5.88h17.52a2.053,2.053,0,0,1,2.05,2.05v19.13Zm-28.7-6.15a2.73,2.73,0,1,0,2.74,2.73A2.734,2.734,0,0,0,1213.93,6454.55Zm0,4.1a1.365,1.365,0,1,1,1.37-1.37A1.364,1.364,0,0,1,1213.93,6458.65Z" transform="translate(-1203 -6432)"/>
  <path id="Shape_1213_copy" data-name="Shape 1213 copy" class="cls-2" d="M1235.92,6446.54h2.73a0.685,0.685,0,1,0,0-1.37h-2.73A0.685,0.685,0,0,0,1235.92,6446.54Zm-4.1,2.05a0.689,0.689,0,0,0,.69.68h2.73a0.685,0.685,0,0,0,0-1.37h-2.73A0.691,0.691,0,0,0,1231.82,6448.59Zm-2.73-2.05h4.1a0.685,0.685,0,0,0,0-1.37h-4.1A0.685,0.685,0,0,0,1229.09,6446.54Zm9.56,4.1h-2.73a0.68,0.68,0,1,0,0,1.36h2.73A0.68,0.68,0,1,0,1238.65,6450.64Zm-9.56,1.36h4.1a0.68,0.68,0,0,0,0-1.36h-4.1A0.68,0.68,0,0,0,1229.09,6452Zm0-2.73h0.68a0.685,0.685,0,1,0,0-1.37h-0.68A0.685,0.685,0,0,0,1229.09,6449.27Zm-7.52,2.73h4.1a0.683,0.683,0,0,0,.69-0.68v-2.73a2.7,2.7,0,0,1,0-3.42,2.735,2.735,0,0,0-5.47,0,2.7,2.7,0,0,0,.61,1.7,2.757,2.757,0,0,0-.61,1.72v2.73A0.681,0.681,0,0,0,1221.57,6452Zm2.05-8.2a1.37,1.37,0,1,1-1.36,1.37A1.372,1.372,0,0,1,1223.62,6443.8Zm-1.36,4.79a1.309,1.309,0,0,1,.33-0.89,2.746,2.746,0,0,0,2.07,0,1.359,1.359,0,0,1,.33.89v2.05h-2.73v-2.05Zm5.46,4.78h-4.78a2.05,2.05,0,1,0,0,4.1h4.78A2.05,2.05,0,0,0,1227.72,6453.37Zm0,2.73h-4.78a0.68,0.68,0,1,1,0-1.36h4.78A0.68,0.68,0,1,1,1227.72,6456.1Zm10.25-2.73h-4.78a2.05,2.05,0,1,0,0,4.1h4.78A2.05,2.05,0,0,0,1237.97,6453.37Zm0,2.73h-4.78a0.68,0.68,0,1,1,0-1.36h4.78A0.68,0.68,0,0,1,1237.97,6456.1Z" transform="translate(-1203 -6432)"/>
</svg>
