<?xml version="1.0" encoding="UTF-8"?>
<svg xmlns="http://www.w3.org/2000/svg" xmlns:xlink="http://www.w3.org/1999/xlink" width="1071.86" height="1583.28" viewBox="0 0 1071.86 1583.28"><defs><style>.cls-1{isolation:isolate;}.cls-2{fill:url(#linear-gradient);}.cls-3{fill:url(#linear-gradient-2);}.cls-4{fill:url(#linear-gradient-3);}.cls-5{fill:url(#linear-gradient-4);}.cls-6{fill:#000333;}.cls-7{fill:url(#Безымянный_градиент_45);}.cls-8{mix-blend-mode:multiply;fill:url(#linear-gradient-5);}.cls-9{fill:#6e53b7;}.cls-10{fill:#00b100;}.cls-11{fill:#13ce13;}.cls-12{fill:#fff;}.cls-13{fill:#edeff4;}.cls-14{fill:url(#linear-gradient-6);}.cls-15{fill:url(#linear-gradient-7);}.cls-16{fill:url(#linear-gradient-8);}.cls-17{fill:#ebebeb;}.cls-18{fill:#f5f5f5;}.cls-19{fill:#dedede;}.cls-20{fill:#eaa584;}.cls-21{fill:url(#linear-gradient-9);}.cls-22{fill:url(#Безымянный_градиент_2);}.cls-23{fill:url(#linear-gradient-10);}.cls-24{fill:url(#linear-gradient-11);}.cls-25{fill:url(#linear-gradient-12);}.cls-26{fill:url(#linear-gradient-13);}.cls-27{fill:url(#linear-gradient-14);}.cls-28{fill:url(#linear-gradient-15);}.cls-29{fill:#eff4ff;}</style><linearGradient id="linear-gradient" x1="323.66" y1="1182.71" x2="114.66" y2="652.82" gradientUnits="userSpaceOnUse"><stop offset="0" stop-color="#eea886"/><stop offset="0.79" stop-color="#cf9174"/></linearGradient><linearGradient id="linear-gradient-2" x1="585.72" y1="1467.3" x2="489.39" y2="1096.4" gradientUnits="userSpaceOnUse"><stop offset="0" stop-color="#eea886"/><stop offset="0.79" stop-color="#cf9174"/><stop offset="0.8" stop-color="#cc8e71"/><stop offset="0.93" stop-color="#b4765a"/><stop offset="1" stop-color="#ab6d52"/></linearGradient><linearGradient id="linear-gradient-3" x1="-9936.33" y1="1268.74" x2="-10040.74" y2="1071.11" gradientTransform="matrix(-1, 0, 0, 1, -9439.21, 0)" gradientUnits="userSpaceOnUse"><stop offset="0" stop-color="#cf9174"/><stop offset="1" stop-color="#91624c"/></linearGradient><linearGradient id="linear-gradient-4" x1="-9691.04" y1="1131.44" x2="-9784.26" y2="908.21" gradientTransform="matrix(-1, 0, 0, 1, -9439.21, 0)" gradientUnits="userSpaceOnUse"><stop offset="0" stop-color="#cf9174"/><stop offset="1" stop-color="#966a56"/></linearGradient><linearGradient id="Безымянный_градиент_45" x1="543.76" y1="687.59" x2="543.76" y2="213.76" gradientTransform="translate(1087.52 1100.75) rotate(-180)" gradientUnits="userSpaceOnUse"><stop offset="0" stop-color="#d1d6ff"/><stop offset="0.61" stop-color="#eceeff"/><stop offset="1" stop-color="#fff"/></linearGradient><linearGradient id="linear-gradient-5" x1="-10003.22" y1="1019.17" x2="-9885.16" y2="1019.17" gradientTransform="matrix(-1, 0, 0, 1, -9439.21, 0)" gradientUnits="userSpaceOnUse"><stop offset="0.08" stop-color="#c3dfe8"/><stop offset="1" stop-color="#c3cfe8"/></linearGradient><linearGradient id="linear-gradient-6" x1="417.27" y1="699.52" x2="411.33" y2="864.48" gradientUnits="userSpaceOnUse"><stop offset="0" stop-color="#ffce80"/><stop offset="1" stop-color="#ff8963"/></linearGradient><linearGradient id="linear-gradient-7" x1="492.74" y1="702.24" x2="486.79" y2="867.2" xlink:href="#linear-gradient-6"/><linearGradient id="linear-gradient-8" x1="568.21" y1="704.96" x2="562.26" y2="869.92" xlink:href="#linear-gradient-6"/><linearGradient id="linear-gradient-9" x1="-9867.5" y1="1033.1" x2="-9946.67" y2="911.55" gradientTransform="matrix(-1, 0, 0, 1, -9439.21, 0)" gradientUnits="userSpaceOnUse"><stop offset="0" stop-color="#de9c7d"/><stop offset="1" stop-color="#ffe0d1"/></linearGradient><linearGradient id="Безымянный_градиент_2" x1="728.01" y1="1615.92" x2="450.5" y2="424.52" xlink:href="#linear-gradient"/><linearGradient id="linear-gradient-10" x1="988.85" y1="1451.05" x2="967.51" y2="1191.13" gradientTransform="matrix(1, 0, 0, 1, 0, 0)" xlink:href="#linear-gradient-4"/><linearGradient id="linear-gradient-11" x1="873.16" y1="1342.63" x2="877.53" y2="1196.55" gradientTransform="matrix(1, 0, 0, 1, 0, 0)" xlink:href="#linear-gradient-4"/><linearGradient id="linear-gradient-12" x1="770.26" y1="1343.54" x2="758.58" y2="1164.59" gradientTransform="matrix(1, 0, 0, 1, 0, 0)" xlink:href="#linear-gradient-4"/><linearGradient id="linear-gradient-13" x1="527.79" y1="1500.93" x2="246.6" y2="1134.6" gradientUnits="userSpaceOnUse"><stop offset="0" stop-color="#e3a080"/><stop offset="1" stop-color="#ab6d52"/></linearGradient><linearGradient id="linear-gradient-14" x1="673.13" y1="906.36" x2="686.68" y2="804.73" gradientTransform="matrix(1, 0, 0, 1, 0, 0)" xlink:href="#linear-gradient-9"/><linearGradient id="linear-gradient-15" x1="362.31" y1="1451.75" x2="261.75" y2="1345.47" gradientTransform="matrix(1, 0, 0, 1, 0, 0)" xlink:href="#linear-gradient-9"/></defs><title>start</title><g class="cls-1"><g id="Layer_2" data-name="Layer 2"><g id="Слой_1" data-name="Слой 1"><path class="cls-2" d="M770,1093.18c-2.36-6-38-22.27-89-42.92C539.35,992.88,278.83,901.6,278.83,901.6s-42.09,8.49-47.2,13.37S63.21,1107,51.73,1115.49s-29.33,40.09-22.95,69.26c3.41,15.57,5.71,54.76,8.3,94.37,2.26,34.53,4.69,69.32,8.26,89.14,6.72,37.33-17,149.5-45.34,215H425.85c4.06-13.1,7.84-28.47,11.25-44.5.32-1.56.67-3.16,1-4.76,11.17-54.25,18.06-114.12,18.06-118.37,0-6.06,17.87-72.92,20.43-85.05s76.53-81.45,86.74-91.15S719,1162.89,733,1154.37,778.94,1115.91,770,1093.18Z"/><path class="cls-3" d="M770,1093.19c-2.37-6-38-22.28-89-42.94-84.94.24-179.93,13.68-195.62,21.36-29.5,14.46-96.1,106.24-111.69,157.14s8.5,197.84-9.16,292.64c-4.5,24.17-15.86,44.71-30.27,61.89h67.08a419.93,419.93,0,0,0,35.79-44.52c11.73-55.44,19.06-118.73,19.06-123.1,0-6.08,17.86-72.92,20.41-85.07s76.55-81.43,86.75-91.15S719,1162.88,733,1154.37,778.93,1115.9,770,1093.19Z"/><path class="cls-4" d="M684.52,1093.2c-11.52,5.22-180.31,67.25-191.37,72.92s-89.3,89.93-89.3,89.93,74-87.09,80.37-98,198.39-66.84,204.13-72.92S698.85,1086.72,684.52,1093.2Z"/><path class="cls-5" d="M177.46,1200.83s69-105.2,88.6-172.44,63.79,14.58,49.33,59.14S196,1199.08,177.46,1200.83Z"/><path class="cls-6" d="M262.24,180.83v852.94c0,35.17,29.93,63.68,66.87,63.68H758.42a68.16,68.16,0,0,0,49.34-20.71,61.76,61.76,0,0,0,17.53-43V180.83c0-35.19-29.95-63.7-66.87-63.7H329.11C292.17,117.13,262.24,145.64,262.24,180.83Z"/><rect class="cls-7" x="305.06" y="159.87" width="477.41" height="781.02" transform="translate(1087.52 1100.75) rotate(180)"/><path class="cls-8" d="M557.52,940.89s14.61,25.72,0,69.47-61.81,87.09-61.81,87.09H446Z"/><path class="cls-9" d="M639.17,118.59a75.3,75.3,0,0,0-8-19.37l8.17-12.29L628,75.58,616.63,64.24l-12.3,8.18a74.68,74.68,0,0,0-19.36-8l-2.91-14.47H550l-2.91,14.47a74.68,74.68,0,0,0-19.36,8l-12.3-8.18L504.06,75.58,492.72,86.93l8.17,12.29a75.3,75.3,0,0,0-8,19.37L478.4,121.5v32.08l14.46,2.91a75.08,75.08,0,0,0,8,19.36l-8.17,12.3,11.34,11.34,11.34,11.35,12.3-8.18a75.38,75.38,0,0,0,19.36,8L550,225.16h32.09L585,210.69a75.38,75.38,0,0,0,19.36-8l12.3,8.18L628,199.49l11.34-11.34-8.17-12.3a75.08,75.08,0,0,0,8-19.36l14.46-2.91V121.5ZM566,193.75a56.21,56.21,0,1,1,56.2-56.21A56.21,56.21,0,0,1,566,193.75Z"/><rect class="cls-10" x="414.88" y="145.16" width="151.13" height="549.12"/><path class="cls-11" d="M490.45,0c-66.52,66.52-75.57,145.9-75.57,145.9H566S557,66.52,490.45,0Z"/><path class="cls-12" d="M762.16,399.84a39.23,39.23,0,0,0-12.67,2.07c-5.19-14-18.07-23.86-33.15-23.86-16.77,0-30.82,12.22-34.6,28.68a24.17,24.17,0,0,0-9.35-1.89c-14,0-25.27,11.94-25.27,26.66H797.75C797.75,414,781.81,399.84,762.16,399.84Z"/><path class="cls-13" d="M428.61,222.08a24.69,24.69,0,0,0-7.9,1.29,22.24,22.24,0,0,0-20.66-14.87c-10.45,0-19.21,7.62-21.57,17.88a15,15,0,0,0-5.83-1.18c-8.7,0-15.75,7.44-15.75,16.61h93.9C450.8,230.92,440.87,222.08,428.61,222.08Z"/><path class="cls-12" d="M663.69,601.83a39.14,39.14,0,0,0-13.22,2.28c-5.42-15.46-18.87-26.41-34.61-26.41-17.5,0-32.17,13.53-36.12,31.75a24,24,0,0,0-9.77-2.08c-14.56,0-26.37,13.21-26.37,29.5H700.85C700.85,617.52,684.21,601.83,663.69,601.83Z"/><rect class="cls-14" x="398.42" y="695.95" width="32.92" height="139.75"/><rect class="cls-15" x="473.99" y="695.95" width="32.92" height="139.75"/><rect class="cls-16" x="549.55" y="695.95" width="32.92" height="139.75"/><path class="cls-9" d="M517.68,710.43H463.23a27.23,27.23,0,1,1,54.45,0Z"/><path class="cls-9" d="M593.24,710.43H538.79a27.23,27.23,0,1,1,54.45,0Z"/><path class="cls-17" d="M617.91,801.09a81.35,81.35,0,0,0-26.17,4.27c-10.71-28.85-37.33-49.27-68.48-49.27-34.62,0-63.65,25.24-71.45,59.23a49.79,49.79,0,0,0-19.33-3.89c-28.82,0-52.18,24.64-52.18,55H691.43C691.43,830.37,658.51,801.09,617.91,801.09Z"/><path class="cls-18" d="M563.11,846.88A77.21,77.21,0,0,0,537,851.4c-10.72-30.59-37.34-52.26-68.49-52.26-34.62,0-63.65,26.78-71.45,62.83a47.34,47.34,0,0,0-19.32-4.13c-28.82,0-52.19,26.14-52.19,58.38H636.63C636.63,877.93,603.71,846.88,563.11,846.88Z"/><path class="cls-19" d="M698.41,874.67A100.67,100.67,0,0,0,669,879c-12-29.21-42-49.9-77-49.9-38.91,0-71.54,25.56-80.31,60A61.31,61.31,0,0,0,490,885.14c-32.39,0-58.66,25-58.66,55.75H781C781,904.32,744,874.67,698.41,874.67Z"/><path class="cls-17" d="M513.5,889.63A78,78,0,0,0,490.73,893c-9.32-22.62-32.48-38.63-59.58-38.63-30.13,0-55.39,19.79-62.17,46.44a47.46,47.46,0,0,0-16.82-3c-25.08,0-45.41,19.32-45.41,43.16H577.47C577.47,912.58,548.83,889.63,513.5,889.63Z"/><path class="cls-9" d="M442.11,710.43H387.66a27.23,27.23,0,1,1,54.45,0Z"/><path class="cls-20" d="M555.67,978.16c6.72-18.57,4.25-43.75-8.08-57.12-8.87-9.61-29.15-11.69-39.86-12.09a15.27,15.27,0,0,0-11.37,4.41c-13.69,13.7-55.38,54.72-73.37,64.8-21.69,12.15-60,25.52-65.07,36.45s-141.61,170.14-176.06,183.51c-33.57,13-4.12,149.58,169.84,140.75,7.79-.4,14-6.4,14.22-13.82.83-24.42,3.45-78.47,11.14-116,10.2-49.83,70.17-100.46,86.75-115.86S542.91,1013.4,555.67,978.16Z"/><path class="cls-21" d="M421.73,978.85s32.69.91,47.58,24c0,0,67.22-66.22,69.35-75.53s-21.9-21.68-38.7-16.21C482,917,430.23,974.39,421.73,978.85Z"/><path class="cls-22" d="M269.21,1388.42s36.5,26.12,49.59,40.32,55.62,79.57,70.88,98.11c7,8.47,22.33,31.13,39.06,56.43h623.92c-1.13-23.24,17.53-73.42,19.15-105.75,1.07-21.29-16.63-124.82-12.55-171.43s-20.45-69.51-45-72.74-43.55,26.12-43.55,26.12,1.06-20.4-3.86-61.3-48.26-44.13-63.79-40.89c-.75.17-1.5.53-2.35.79-25.14,7.85-29.54,45-29.54,45s1.56-53-7.14-82.41c-5.45-18.4-42.36-33.71-68.3-26l0,0a52.7,52.7,0,0,0-9.53,3.73c-17.17,8.87-24,27.23-26.53,36.63v0a47.67,47.67,0,0,0-1.24,5.76c-9.23-32.2-32.74-150.36-35.17-165.08s-18.9-140.52-53.23-151c-36.64-11.22-42.09,2.84-44,23.82-1.5,16.23,16.37,270.83,19.39,304.32s-3.86,175.51-3.33,185.85v.31c0,9-15,75.8-31.18,125.74-6.21,19.08-12.6,35.66-18.41,45.65-21.24,36.5-55.62,13.61-68.66,3.28s-60-70.31-74.69-98.65-111.73-89.95-153.16-79.57c-1.64.4-3.24.84-4.75,1.37C255,1348.72,261.36,1382.12,269.21,1388.42Z"/><path class="cls-23" d="M970.71,1272.85s-2.34,94.57,7.6,115.55c12.62,26.64,13.08,19.08,13.08,19.08s-6.62-94.66-7.08-114.46C983.83,1272.58,977.82,1260.86,970.71,1272.85Z"/><path class="cls-24" d="M871.21,1203.09s8.45,6.54,10.63,31.06,2.72,111.74,2.72,111.74l-22.89-3.27s8.79,1.41,9.54-12C872.44,1308.57,871.16,1210.72,871.21,1203.09Z"/><path class="cls-25" d="M758.38,1141s14.72,185,6.54,197.13-10.08,10-10.08,10,18.26-.82,25.62-2.18S776.37,1126.23,758.38,1141Z"/><path class="cls-26" d="M456.7,1490.06c10.48,16.24,59.92,57,97.09,93.22h52.59c3.18-50.37,4.4-117.1,4.43-118.42-6.2,19.05-12.57,35.64-18.39,45.64-21.26,36.51-55.6,13.62-68.68,3.27s-60-70.32-74.68-98.65-111.73-89.94-153.15-79.59q-2.48.62-4.74,1.38s26,1.74,74,39.5C412.75,1413.92,440.35,1464.71,456.7,1490.06Z"/><path class="cls-27" d="M663.75,920.88s31.07-6,43.6-3.81c0,0-13-90.29-35.15-94.84C635.13,814.6,645.22,836.94,663.75,920.88Z"/><path class="cls-28" d="M330.69,1443.92s18.63-20.09,29-28.81-81.16-81-99.2-50.69C244.94,1390.52,330.69,1443.92,330.69,1443.92Z"/><path class="cls-29" d="M467.93,497.82a18.57,18.57,0,0,0-2,2.7,32.31,32.31,0,0,0-2.49,4.78,41.93,41.93,0,0,0-2.07,6.1,26.89,26.89,0,0,0-.85,6.68c0,4,.75,7,2.23,9a7.38,7.38,0,0,0,6.26,3,6.42,6.42,0,0,0,3.87-1.11,9.75,9.75,0,0,0,2.71-3.24,27.16,27.16,0,0,0,2.12-5.36c.63-2.15,1.31-4.65,2-7.47q1.49-5.52,3.19-10a27.06,27.06,0,0,1,4.24-7.64,17.72,17.72,0,0,1,6.1-4.83A20.26,20.26,0,0,1,502,488.7,21.85,21.85,0,0,1,512.33,491a19.1,19.1,0,0,1,6.94,6.15,26.83,26.83,0,0,1,3.88,8.91,44.92,44.92,0,0,1,1.21,10.56,56.6,56.6,0,0,1-2.54,16.76,51.5,51.5,0,0,1-7.22,14.85L502,541.74a19.83,19.83,0,0,0,2.49-3.45,51,51,0,0,0,3.08-5.88,45.91,45.91,0,0,0,2.6-7.54,33.86,33.86,0,0,0,1.06-8.48q0-12.11-7.74-12.1a6.35,6.35,0,0,0-4.14,1.38,11.74,11.74,0,0,0-3,3.93,37.19,37.19,0,0,0-2.34,6.15q-1,3.6-2.33,8.06a70.26,70.26,0,0,1-3.23,9.39,24.86,24.86,0,0,1-4.14,6.63,15.53,15.53,0,0,1-5.52,4,19.17,19.17,0,0,1-7.48,1.32A23.31,23.31,0,0,1,461.14,543a20.46,20.46,0,0,1-7.43-5.89,26.59,26.59,0,0,1-4.51-8.75,36.29,36.29,0,0,1-1.53-10.71A41.58,41.58,0,0,1,450.16,503a53.93,53.93,0,0,1,5.89-11.67Z"/><path class="cls-29" d="M520.65,446.37a62.49,62.49,0,0,1,2.55,7,29.39,29.39,0,0,1,1.27,8.7,20.3,20.3,0,0,1-.74,5.56,12.12,12.12,0,0,1-2.39,4.57,11.62,11.62,0,0,1-4.24,3.13,15.32,15.32,0,0,1-6.31,1.17H478.85v7.31H467.93V476.5h-18V462.28h18V450.61h10.92v11.67H506c2,0,3.38-.51,4.19-1.54a5.82,5.82,0,0,0,1.22-3.76,13,13,0,0,0-.74-4.36c-.49-1.41-.92-2.54-1.27-3.39Z"/><path class="cls-29" d="M524.58,423.77a21,21,0,0,1-1.33,7.54,18,18,0,0,1-3.71,6,17.18,17.18,0,0,1-5.57,4,16.79,16.79,0,0,1-7,1.44A15.4,15.4,0,0,1,499.7,441a16.66,16.66,0,0,1-5.68-4.87,24.26,24.26,0,0,1-3.65-7.48,32.52,32.52,0,0,1-1.33-9.55,40.62,40.62,0,0,1,.64-7.27,29.22,29.22,0,0,1,1.8-6.31H488.3q-5.52,0-8.49,3.13t-3,9.28a24.61,24.61,0,0,0,1.59,8.7,40.39,40.39,0,0,0,4.67,8.7l-9,4.35A41.07,41.07,0,0,1,467,416.56q0-12,5.89-18.62t17-6.63h17.29a5,5,0,0,0,3.18-.79,3.48,3.48,0,0,0,1.06-2.6h12.1a32,32,0,0,1,.74,6.26,9.45,9.45,0,0,1-1.8,6.2,7.83,7.83,0,0,1-4.78,2.71l-3.08.32a24.54,24.54,0,0,1,7.43,9A25.9,25.9,0,0,1,524.58,423.77Zm-10.4-4a18.52,18.52,0,0,0-1.27-6.85,12.49,12.49,0,0,0-3.4-5,5.11,5.11,0,0,0-4-2.33h-6.36a34.84,34.84,0,0,0-1.54,5.51,29.7,29.7,0,0,0-.58,5.73,15.2,15.2,0,0,0,2.49,9,7.64,7.64,0,0,0,12.3.74A9.94,9.94,0,0,0,514.18,419.75Z"/><path class="cls-29" d="M480.23,345a28.24,28.24,0,0,0,2.5,11.57,14.63,14.63,0,0,0,7.16,7.32h33.63v14.21H467.93V365h11.88a25.42,25.42,0,0,1-5.14-3.5,26.2,26.2,0,0,1-4-4.35,20.09,20.09,0,0,1-2.6-4.72,13,13,0,0,1-.9-4.61v-1.75a5.83,5.83,0,0,1,.1-1.12Z"/><path class="cls-29" d="M520.65,301.35a63.47,63.47,0,0,1,2.55,7,29.28,29.28,0,0,1,1.27,8.69,20.32,20.32,0,0,1-.74,5.57,12,12,0,0,1-2.39,4.56,11.4,11.4,0,0,1-4.24,3.13,15.16,15.16,0,0,1-6.31,1.17H478.85v7.32H467.93v-7.32h-18V317.27h18V305.6h10.92v11.67H506c2,0,3.38-.51,4.19-1.54a5.83,5.83,0,0,0,1.22-3.77,13,13,0,0,0-.74-4.35c-.49-1.41-.92-2.54-1.27-3.39Z"/></g></g></g></svg>