<svg xmlns="http://www.w3.org/2000/svg" width="150" height="134.504" viewBox="0 0 150 134.504">
  <g id="Desktop_Development" data-name="Desktop Development" transform="translate(-114.75 -224.497)">
    <path id="Path_12485" data-name="Path 12485" d="M264.75,325.767a24.462,24.462,0,0,1-1.179,2.8,9.093,9.093,0,0,1-8.487,4.745H210.6c.7,4.059,1.344,7.942,2.069,11.81.054.286.662.631,1.037.663,1.261.11,2.542.007,3.8.137a6.546,6.546,0,0,1-.133,13.032c-.388.036-.78.045-1.17.045q-26.437,0-52.874,0c-3.884,0-6.5-2.1-7.09-5.605a6.489,6.489,0,0,1,5.441-7.423c1.348-.173,2.733-.052,4.089-.187.4-.04,1.022-.448,1.084-.775.724-3.825,1.361-7.666,2.054-11.694h-5.939c-2.343,0-4.687.005-7.03,0-1.957-.005-3.027-.779-3.048-2.185s1.048-2.2,3-2.205q22.922-.007,45.844,0h52.289c5.052,0,6.8-2,6.219-7.224H118.885a23.1,23.1,0,0,0,.985,4.826c.786,1.806,2.557,2.406,4.509,2.4q9.667-.02,19.334,0a9.917,9.917,0,0,1,1.607.065,2.145,2.145,0,0,1,.307,4.138,5.959,5.959,0,0,1-1.731.182q-9.447.018-18.894.007c-5.458,0-8.415-2.153-10.072-7.321-.027-.085-.118-.149-.18-.223v-93.75c.176-.443.356-.885.529-1.329a8.9,8.9,0,0,1,7.873-6.069,17.046,17.046,0,0,1,1.755-.052q45.478,0,90.955,0c.439,0,.88-.008,1.317.026a2.1,2.1,0,0,1,2.089,2.054,2.144,2.144,0,0,1-2.033,2.254,15.254,15.254,0,0,1-1.9.058q-45.112,0-90.223,0c-4.372,0-5.968,1.612-5.968,6.027q0,40.132,0,80.263v1.844H260.355v-1.615q0-40.425,0-80.849c0-3.949-1.739-5.668-5.739-5.67q-13.036,0-26.071,0c-2.386,0-3.406-.7-3.366-2.273.038-1.519.979-2.119,3.343-2.119,8.251,0,16.507.172,24.751-.059,5.75-.161,9.724,1.836,11.476,7.511ZM206.134,333.4h-32.78l-2.13,12.413h1.826q8.936,0,17.871.006a6.874,6.874,0,0,1,1.742.15,1.958,1.958,0,0,1,1.531,2.2,1.927,1.927,0,0,1-1.66,1.946,9.256,9.256,0,0,1-1.75.093q-13.329.008-26.659.006a12.452,12.452,0,0,0-1.607.064,2.154,2.154,0,0,0,.049,4.292,10.9,10.9,0,0,0,1.17.034q26,0,52,0a8.139,8.139,0,0,0,1.458-.08,2.136,2.136,0,0,0,.091-4.177,8.239,8.239,0,0,0-1.745-.13c-4.3-.011-8.594.009-12.89-.017-1.531-.009-2.466-.826-2.525-2.075-.061-1.3.905-2.209,2.478-2.3.633-.035,1.269-.012,1.9-.012h3.779C207.543,341.532,206.84,337.473,206.134,333.4Z" transform="translate(0 0)" fill="#1AAC84"/>
    <path id="Path_12486" data-name="Path 12486" d="M354.115,373.475l-8.9,17.49c-.142.279-.214.64-.435.822-.617.51-1.3,1.312-1.949,1.31a2.709,2.709,0,0,1-1.91-1.331c-2.43-4.576-4.743-9.215-7.093-13.833-.221-.435-.453-.865-.814-1.554-.91,1.783-1.814,3.354-2.527,5.008a3.2,3.2,0,0,1-3.527,2.2c-2.139-.132-4.293-.025-6.44-.033-1.692-.007-2.593-.729-2.574-2.039.019-1.286.93-1.979,2.636-1.986s3.4-.05,5.1.019a1.581,1.581,0,0,0,1.747-1.047c1.068-2.261,2.265-4.461,3.382-6.7.475-.95.963-1.885,2.188-1.9s1.733.9,2.216,1.853q3.413,6.759,6.868,13.5c.216.424.441.843.749,1.429.3-.559.513-.942.712-1.333q4.232-8.3,8.453-16.6c.467-.924.987-1.756,2.137-1.764s1.692.822,2.155,1.743c1.643,3.273,3.329,6.526,4.95,9.812a1.522,1.522,0,0,0,1.633,1.007c1.832-.069,3.668-.038,5.5-.015,1.455.018,2.329.806,2.319,2.029s-.873,1.978-2.351,1.988c-2.46.018-4.921-.022-7.381.017a2.451,2.451,0,0,1-2.441-1.516c-1.216-2.438-2.466-4.859-3.706-7.286C354.61,374.38,354.4,374,354.115,373.475Z" transform="translate(-117.931 -85.578)" fill="#1AAC84"/>
    <path id="Path_12487" data-name="Path 12487" d="M439.364,280.3c0,4.112.007,8.224,0,12.336,0,2.254-.6,2.836-2.869,2.838-3.039,0-6.079.011-9.118,0-1.748-.008-2.462-.681-2.465-2.421q-.025-12.872,0-25.745c0-1.669.717-2.367,2.385-2.381,3.173-.027,6.347-.021,9.521,0,1.833.01,2.53.684,2.54,2.507C439.378,271.716,439.363,276.007,439.364,280.3Zm-4.116-11.267h-6.236v22.338h6.236Z" transform="translate(-186.58 -25.934)" fill="#1AAC84"/>
    <path id="Path_12488" data-name="Path 12488" d="M317.91,292.433c0-3.4-.01-6.793,0-10.189.007-1.734.709-2.446,2.435-2.455q4.826-.025,9.653,0a2.094,2.094,0,0,1,2.385,2.4q.029,10.19,0,20.379c0,1.719-.747,2.437-2.466,2.445q-4.826.022-9.653,0c-1.641-.01-2.347-.729-2.354-2.391C317.9,299.226,317.91,295.829,317.91,292.433Zm4.123-8.574v17.055h6.232V283.859Z" transform="translate(-123.01 -33.219)" fill="#1AAC84"/>
    <path id="Path_12489" data-name="Path 12489" d="M386.008,305.723c0,2.417.02,4.835-.007,7.252-.019,1.667-.724,2.364-2.379,2.373q-4.835.026-9.669,0c-1.655-.009-2.39-.7-2.4-2.367q-.042-7.386,0-14.772c.01-1.6.709-2.286,2.326-2.3q4.9-.055,9.8,0c1.673.02,2.3.708,2.319,2.434C386.025,300.8,386.008,303.261,386.008,305.723Zm-4.1-5.732h-6.245v11.251h6.245Z" transform="translate(-155.481 -43.057)" fill="#1AAC84"/>
    <path id="Path_12490" data-name="Path 12490" d="M172.972,332.571H151.1a9.153,9.153,0,0,1-1.207-.024,1.862,1.862,0,0,1-1.759-1.872,1.833,1.833,0,0,1,1.442-2,6.071,6.071,0,0,1,1.592-.126q21.738-.009,43.476,0c2.157,0,3.121.645,3.1,2.065-.022,1.382-.917,1.963-3.033,1.963Z" transform="translate(-21.425 -63.282)" fill="#1AAC84"/>
    <path id="Path_12491" data-name="Path 12491" d="M172.9,391.944q-10.868,0-21.736,0a10.327,10.327,0,0,1-1.34-.041,1.962,1.962,0,0,1-.3-3.82,5.934,5.934,0,0,1,1.589-.16q21.8-.012,43.605,0a6.118,6.118,0,0,1,1.592.143,1.968,1.968,0,0,1-.335,3.848,12.284,12.284,0,0,1-1.34.031Q183.768,391.945,172.9,391.944Z" transform="translate(-21.426 -99.395)" fill="#1AAC84"/>
    <path id="Path_12492" data-name="Path 12492" d="M172.906,268.96q-10.8,0-21.6,0a11.28,11.28,0,0,1-1.473-.048,1.966,1.966,0,0,1-.313-3.826,4.625,4.625,0,0,1,1.321-.147q22.071-.011,44.144,0a4.727,4.727,0,0,1,1.451.171,1.968,1.968,0,0,1-.318,3.791,9.121,9.121,0,0,1-1.472.057Q183.774,268.962,172.906,268.96Z" transform="translate(-21.426 -25.953)" fill="#1AAC84"/>
    <path id="Path_12493" data-name="Path 12493" d="M164.145,298.822q-6.772,0-13.544,0c-1.6,0-2.495-.713-2.519-1.956-.024-1.275.934-2.065,2.579-2.066q13.611-.011,27.221,0c1.558,0,2.5.774,2.532,1.99.028,1.268-.929,2.03-2.592,2.032Q170.983,298.828,164.145,298.822Z" transform="translate(-21.394 -42.755)" fill="#1AAC84"/>
    <path id="Path_12494" data-name="Path 12494" d="M212.764,362.507q-6.773,0-13.547,0c-1.654,0-2.618-.773-2.6-2.041.017-1.226.955-1.981,2.519-1.982q13.614-.009,27.229,0c1.658,0,2.555.773,2.5,2.1-.051,1.219-.9,1.916-2.417,1.92C221.885,362.514,217.324,362.506,212.764,362.507Z" transform="translate(-49.067 -81.49)" fill="#1AAC84"/>
    <path id="Path_12495" data-name="Path 12495" d="M160.855,421.75c-3.4,0-6.795.006-10.192,0-1.66,0-2.608-.767-2.589-2.046s.953-1.977,2.647-1.978q10.125,0,20.25,0c1.683,0,2.584.728,2.567,2.036s-.917,1.985-2.625,1.989Q165.884,421.758,160.855,421.75Z" transform="translate(-21.389 -117.523)" fill="#1AAC84"/>
    <path id="Path_12496" data-name="Path 12496" d="M154,362.5c-1.2,0-2.41.018-3.614-.005-1.433-.028-2.331-.839-2.312-2.043s.919-1.965,2.375-1.975q3.681-.025,7.362,0c1.531.008,2.478.812,2.455,2.039s-.959,1.969-2.518,1.983C156.5,362.506,155.249,362.5,154,362.5Z" transform="translate(-21.389 -81.48)" fill="#1AAC84"/>
    <path id="Path_12497" data-name="Path 12497" d="M258.894,298.8c-1.294,0-2.589.026-3.882-.006a2,2,0,1,1-.121-3.99c2.721-.055,5.445-.06,8.166.008a1.991,1.991,0,0,1-.146,3.98C261.572,298.825,260.233,298.8,258.894,298.8Z" transform="translate(-83.724 -42.734)" fill="#1AAC84"/>
  </g>
</svg>
