<svg width="324" height="295" xmlns="http://www.w3.org/2000/svg" xmlns:xlink="http://www.w3.org/1999/xlink"><defs><path d="M.8696842 139.658301c0 76.797593 62.3509798 139.053203 139.2662188 139.053203 76.915239 0 139.266218-62.25561 139.266218-139.053203S217.051142.6037876 140.135903.6037876C63.220664.6037876.8696842 62.860708.8696842 139.658301z" id="a"/></defs><g fill="none" fill-rule="evenodd"><path d="M162.849691 282.281085c75.026042 0 135.84833-60.729257 135.84833-135.640542C298.698021 71.7278976 237.875733 11 162.849691 11 87.8222876 11 27 71.7278976 27 146.640543c0 74.911285 60.8222876 135.640542 135.849691 135.640542" stroke="#979797" fill="#FFF"/><path d="M162.000646 276.604085C233.24415 276.604085 291 218.936575 291 147.802042 291 76.666219 233.24415 19 162.000646 19 90.7558502 19 33 76.666219 33 147.802042c0 71.134533 57.7558502 128.802043 129.000646 128.802043" stroke="#4385F4" stroke-width="2" stroke-dasharray="3"/><g transform="translate(22 8)"><mask id="b" fill="#fff"><use xlink:href="#a"/></mask><path d="M140.135903 278.711897c76.915239 0 139.266218-62.25561 139.266218-139.053203 0-76.7975931-62.350979-139.0545135-139.266218-139.0545135C63.220664.6041805.8683725 62.861101.8683725 139.658694c0 76.797593 62.3522915 139.053203 139.2675305 139.053203z" stroke="#4385F4" stroke-width="12.399" mask="url(#b)"/></g><path fill="#FF7058" d="M172.2864097 148.9648637h-15.7972955l2.693004-5.7366372 2.3335871-5.3764601h5.7454251l2.3322753 5.3764601z"/><path d="M182.3397231 148.9648637h-35.9036599c-1.9741701 0-3.5902349 1.6122832-3.5902349 3.5834336v11.6513983h42.9057328v-11.6513983c.1783968-1.9711504-1.4363562-3.5834336-3.411838-3.5834336" fill="#FFD15C"/><path d="M169.5937992 143.2284885c-1.4363563.7177345-2.8714008 1.4341593-4.3077571 1.9724602l-.8985425.1794336-.895919-.3588673c-1.437668-.5383008-2.8740243-1.2547256-4.3090689-1.9724601l2.3335871-5.3764602h5.5644048l2.5132956 5.5558938z" fill="#F1543F"/><path d="M200.291553 95.3706584c0 8.6023363-3.0511093 16.4908673-8.2574089 22.7644956-6.6413441 7.8859115-16.5161295 13.0842478-27.646251 13.0842478-11.1288097 0-21.0035951-5.0189027-27.6449393-13.0842478-5.026591-6.0941947-8.2587206-14.1621593-8.2587206-22.7644956v-.1794336h71.6276113v.1794336h.1797085zm-78.9877894-7.3489203v7.3489203c0 17.9250266 11.1301214 33.339292 26.7490202 39.792354 5.0252794 2.1505841 10.590996 3.2258761 16.3351093 3.2258761 5.7454251 0 11.30983-1.075292 16.3364211-3.2258761 15.617587-6.453062 26.7490202-21.8673274 26.7490202-39.792354v-7.3489203h-86.1695708zM192.3929053 78.1624496H136.382881c-1.2566478 0-2.1538786 1.075292-2.1538786 2.1518938 0 1.2547256.8972308 2.3300177 2.1538786 2.3300177h56.0100243c1.2566477 0 2.1551902-1.075292 2.1551902-2.1518938 0-1.2547257-.8985425-2.3300177-2.1551902-2.3300177" fill="#F8B64C"/><path d="M192.3929053 82.64423v19.3578762c0 17.9250265-11.1301215 34.2364602-28.0056681 40.6895221-16.8742348-6.6324956-28.0030445-22.7644956-28.0030445-40.867646V82.6442301h56.0087126z" fill="#FFD15C"/><path fill="#FFC952" d="M136.3830121 85.33377h55.8316276v-2.688885h-55.8316276z"/><path d="M178.3756002 92.8289264h-20.6513129c-7.4677425 1.7726867-7.6266306 7.9529483-7.6266306 7.9529483v20.8804555h7.9444069V102.651128c0-1.6168006 1.5874997-1.9023618 1.5874997-1.9023618h18.7460369v-7.9198398zm-16.4400865 10.2167451s-1.6082242-.1586451-1.6082242 1.2622632v6.3113164h10.6109643v1.8940846s.0317776.9449731-.9643819.9449731h-9.6465824v8.2040214h11.5753462s7.0118026-1.0705096 7.0753578-8.2040214v-10.4126373h-17.0424798z" fill="#FFF"/><g opacity=".5" fill="#4385F4"><path d="M60.340081 100.8541237c.0091822-.0235752.0144292-.0379823.0144292-.0379823-.0039353.0013097-.0078705.0157168-.0144292.0379823M53.7813766 117.8794449c.005247-.0235752.0078704-.0379823.0091821-.0366725-.0039352 0-.0065587.0144071-.0091821.0366725M51.1616797 133.6597928c.0039353-.0694159.005247-.1060885.0013118-.0995398-.0065587.0013097-.0065587.0353628-.0013118.0995398M48.5405618 150.6470548c-.0026235-.0432212-.0039352-.0654867-.0039352-.0602477-.0039353.0013097-.0026235.0222654.0039352.0602477M49.849294 168.948929c-.0026234-.018336-.0026234-.028814-.0013117-.026195-.0026235.00131-.0026235.010478.0013117.026195M52.4704973 185.958223c0-.003929-.0013118-.010478.0013117-.009168-.0026235.00131-.0026235.003929-.0013117.009168M69.5772358 218.765593c-.0367287-.04846-.0564049-.073345-.0537814-.073345-.0065587.005239.0144292.031433.0537814.073345M82.7200619 234.482407c-.0524696-.047151-.0813279-.073345-.0800162-.073345-.0039352.007858.0236114.032743.0800162.073345M97.1771147 247.574513c-.0721457-.043221-.1101862-.068106-.1075627-.068106-.0065587.009168.0314818.032743.1075627.068106"/><path d="M160.032389 252.307416c-10.202644.467938-20.0936468-.820252-29.3442719-3.483689 3.4043878-4.399159-2.2261988-8.771113-7.6161508-12.985274-5.6476809-4.195117-11.3019365-8.391595-11.3045664-8.405198-.1236047.099301 6.6549273 6.825907 6.0027155 12.686013-.2248553 1.504474-.1630529 2.82259.1104552 3.97339-1.5437432-.703267-3.0651325-1.441901-4.556278-2.219984 3.9645536-3.784311-.5272922-9.196883-4.836361-14.333317-4.5602229-5.185404-9.161209-10.274228-9.1638389-10.28647-.1314943.069374 5.0585864 7.905973 3.3623097 13.67902-.486529 1.462306-.670621 2.792664-.6232831 3.989714-1.3399271-.960361-2.6482955-1.947927-3.9198456-2.968141 4.4576574-3.131374 1.204488-9.311146-1.964525-15.107318-3.3899235-5.892752-6.8903022-11.610028-6.8929321-11.62091-.1301794.039448 3.4135925 8.602439.7311084 14.11023-.7376831 1.391571-1.155835 2.697444-1.3254627 3.905377-1.1071822-1.168485-2.1814907-2.360094-3.2202958-3.573467 4.7692988-2.445792 2.9086543-9.062215.8823268-15.314082-2.2485528-6.36069-4.6654183-12.336419-4.6404344-12.426198-.1249196.013603 1.804102 8.94659-1.7830629 14.027253-.9585936 1.269145-1.596341 2.502923-1.9763596 3.675488-.8599728-1.315395-1.688387-2.645753-2.4826127-3.992435 5.0796255-1.761568 4.4274136-8.546667 3.5266776-14.964488-1.0953477-6.559292-2.4471092-12.732262-2.4471092-12.802997-.115715-.008162.2866576 8.99148-4.096048 13.498102-1.1532052 1.119514-1.9855642 2.24583-2.5588794 3.34902-.3997427-.912751-.786336-1.828222-1.15715-2.747774-.2879725-.711429-.5641106-1.425578-.8349889-2.141088 5.112499-.950839 5.5740441-7.375462 5.7134281-13.476337-.0197242-6.226022-.3681841-12.1133331-.3971129-12.1731856-.0973058-.0231248-1.0296005 8.3562266-5.8317729 11.9841056-1.2715501.905949-2.2340884 1.86495-2.9415279 2.832112-.5036232-1.927523-.9520188-3.860487-1.3491317-5.801613 5.0730508-.138749 6.4445365-6.058707 7.4373186-11.728372.854713-5.7512824 1.3254627-11.2441108 1.27155-11.3053236-.0788966-.028566-2.0644608 7.5971884-7.0901735 10.3299997-1.3622811.6978259-2.4247552 1.4854306-3.2347602 2.3192849-.2406346-2.195499-.416837-4.3937186-.531237-6.5905779 4.8626598.5822017 6.9323803-4.7120252 8.5944685-9.8566208 1.5319088-5.2030878 2.6522403-10.2579046 2.5786035-10.3286394-.0657471-.0299263-2.8389623 6.8000617-7.9093831 8.6663719-1.3925248.4760995-2.5036518 1.0800658-3.378089 1.7629286.0539127-1.9574493.1538483-3.9094574.2984921-5.8519435.0341885-.4584158.0749518-.9154714.1144001-1.3711667 4.3827055 1.2160943 7.1151574-3.49185 9.2098619-8.0202368 2.0605159-4.5895996 3.5740155-9.3383524 3.5753304-9.3546758-.0539126-.0272057-3.3964982 6.0369422-8.3498891 7.0952434-1.3254627.2570938-2.4168655.6638188-3.3044521 1.1684843.4115772-2.5600552.8994211-5.1078679 1.4648467-7.6502395 3.8540984 1.5561654 6.8968769-2.4090636 9.300593-6.3702118 2.4168655-4.0645298 4.3419423-8.4541675 4.3458871-8.4718512-.0499678-.0204043-3.8028156 5.3649616-8.4984777 5.7023122-1.1426856.0652936-2.1223182.2706966-2.9520474.5822017.7679269-2.6375915 1.6160652-5.2697418 2.547045-7.9032524 3.2663188 1.6554661 6.4116628-1.6078561 8.9902664-5.0371331 2.6745944-3.606114 4.9757449-7.7073714 4.9836346-7.7277757-.0460231-.0108823-4.1223469 4.8140465-8.4498248 4.5365485-.8889016-.0720951-1.6857572-.0272057-2.3984563.1088227 1.0651039-2.5559743 2.2025298-5.1146693 3.4162223-7.6801657.0657472-.167315.1367541-.3346299.2051311-.5019449 2.7140427 1.6636278 5.8475523-1.0120516 8.5445007-4.0060376 2.8836704-3.2347563 5.5779889-7.1197285 5.5924533-7.1414931-.0525977 0-4.4339884 4.3937186-8.3130707 3.6210771-.9059958-.1931604-1.7265204-.2244469-2.4615736-.1333079 2.5641392-5.4397773 5.5464303-10.962532 9.0494389-16.602271-3.7752019 5.5227546-7.1322518 10.9421276-10.1040233 16.305729-.2958622-.86106-.7626671-1.76973-1.4556421-2.7124071-1.2465661-1.6609072-1.2676052-4.35291-.8297291-6.643629.4142071-2.2879984 1.2860144-4.1774334 1.2597155-4.1815142-.0026299-.0027206-3.2597441 5.122831-4.7692988 10.2592649-1.5358537 5.0670594-1.4937755 9.8797456 2.0250124 10.4741899-1.3925248 2.817149-2.6785392 5.6274966-3.8646179 8.4337633-.4299864-.7005465-1.0006718-1.4174164-1.7501894-2.1370068-1.6042306-1.5139966-2.0407918-4.2100802-1.942171-6.5470488.0749517-2.3315275.6864003-4.3053002.6614164-4.3053002-.001315-.0054411-2.639091 5.4492993-3.4964339 10.8292241-.8599728 5.1391545-.2156507 9.9273556 3.3623097 10.3245586-.9099407 2.5722978-1.7396698 5.1500368-2.4931323 7.738658-.5286071-.5862826-1.1873936-1.167124-1.9960837-1.7275612-3.8514685-2.5219673-3.0874865-10.1953316-2.9454727-10.776173-.1683127.4856215-2.0171228 6.0437436-2.1854355 11.4236684-.209076 5.2942269 1.0756235 10.1164351 4.8166368 10.1572436-.0052598.0176837-.0092046.038088-.0144644.0571319-.507568 2.362814-.9559637 4.7405912-1.3386121 7.1306109-.6285429-.5155478-1.38858-1.0066105-2.3011506-1.4555043-4.4260986-2.0621912-4.6575286-10.063384-4.5878367-10.66599-.1117701.5087463-1.3228328 6.466792-.7784463 12.0983694.485214 5.5322767 2.5010219 10.4197785 6.4616307 9.9001499-.185407 2.2213444-.3169013 4.44813-.3879082 6.6803567-.7455728-.463857-1.6331594-.8787437-2.683799-1.2228957-4.812692-1.4759086-6.1986421-9.3900432-6.2735939-10.3898522-.043393.8596997-.4957335 7.1074859.8231545 12.6982548 1.1939683 5.7131945 4.2143928 10.7435262 8.2604729 9.4825426.1144001 2.047228.2800829 4.0930957.5023083 6.1389635-.8823269-.416247-1.921132-.7495167-3.1413992-.9698828-5.3399842-.8719423-7.9041234-9.2567353-8.0448223-10.0647443.0381334.7168699.4497106 7.4870054 2.6877438 13.3144637 2.1170585 5.9498838 6.109226 10.9258048 10.2355176 8.7439078.3892232 1.866311.8270993 3.73126 1.3149432 5.588049-1.0361752-.356395-2.2472379-.586283-3.6529121-.647496-5.8251982-.155072-9.8055312-8.966994-9.927821-9.507027.0578576.467937 1.5253342 7.742738 4.858715 13.722549 3.2071465 6.091353 8.3038662 10.864591 12.3118129 7.624394.624598 1.640503 1.2912742 3.270123 2.0000286 4.886141-1.1834489-.251652-2.5417852-.33599-4.0907882-.19452-6.199957.682862-11.8489529-8.280052-11.9107552-8.617402-.0026299.219006 2.752176 7.850201 7.3439576 13.779681 4.4300435 6.017898 10.6918028 10.33272 14.3249908 6.111758.8060602 1.365725 1.6449939 2.715127 2.5194311 4.046846-1.225527-.084338-2.591753.019044-4.1078824.372718-6.1802329 1.565687-13.418995-6.896642-13.2967053-6.970098-.1604231-.044889 3.9145858 7.372742 9.6345886 12.725461 5.4570141 5.363601 12.4893301 8.75207 15.4124488 4.049567 1.0545844 1.229697 2.1446723 2.437629 3.2715786 3.622437-1.2518259.092499-2.6088473.391762-4.0710641.95628-5.6358464 2.317925-13.7713997-4.163831-14.5090828-4.936472.5641106.746796 5.4741084 6.93609 11.8344884 11.154332 6.5865503 4.531107 14.2027012 6.616423 16.335539 1.635062 1.3044236 1.047419 2.6404058 2.064912 4.0118916 3.051118-1.2610305.285659-2.593068.790325-3.980333 1.569768-5.2808117 3.134095-14.6169082-1.957449-15.5623523-2.649834.7429428.685583 6.7903665 6.019258 13.9949401 9.128869 7.5096404 3.403431 15.6662328 4.143426 16.9259484-1.022934 1.5200743.798487 3.0677624 1.560246 4.6417493 2.279836-1.225527.492423-2.4812977 1.201131-3.7423282 2.180536-4.790338 3.928502-15.1573499.52507-16.3289642-.036727.9349246.587642 8.0343027 4.800443 15.9357962 6.578335 8.2617879 2.030904 16.7221322 1.260984 17.1245048-3.891774 9.3729149 2.719209 19.3914664 4.031883 29.7426994 3.535379l.215651-1.662267zM266.29783 100.8541237c-.009182-.0235752-.014429-.0379823-.014429-.0379823.003935.0013097.00787.0157168.014429.0379823M271.539547 117.8794449c-.005247-.0235752-.009183-.0379823-.009183-.0366725.003936 0 .006559.0144071.009183.0366725M275.469275 133.6597928c-.003935-.0694159-.005247-.1060885-.001312-.0995398.006559.0013097.006559.0353628.001312.0995398M276.777328 150.6470548c.002623-.0432212.003935-.0654867.002623-.0602477.005247.0013097.003936.0222654-.002623.0602477M276.777328 168.948929c.002623-.018336.002623-.028814.001312-.026195.002623.00131.002623.010478-.001312.026195M272.843417 185.958223c0-.003929.001312-.010478-.001312-.009168.002624.00131.002624.003929.001312.009168M257.101215 218.765593c.036728-.04846.055093-.073345.053781-.073345.006559.005239-.014429.031433-.053781.073345M243.983806 234.482407c.052469-.047151.081328-.073345.078704-.073345.005247.007858-.022299.032743-.078704.073345M229.554656 247.574513c.070834-.043221.110186-.068106.107563-.068106.006558.009168-.031482.032743-.107563.068106"/><path d="M165.279352 252.307416c10.201329.467938 20.093647-.820252 29.344272-3.483689-3.404388-4.399159 2.226199-8.771113 7.616151-12.985274 5.647681-4.195117 11.301936-8.391595 11.304566-8.405198.123605.099301-6.654927 6.825907-6.002715 12.686013.224855 1.504474.163053 2.82259-.110456 3.97339 1.543744-.703267 3.065133-1.441901 4.556278-2.219984-3.964553-3.784311.525978-9.196883 4.836361-14.333317 4.560223-5.185404 9.161209-10.274228 9.163839-10.28647.131495.069374-5.058586 7.905973-3.362309 13.67902.486529 1.462306.670621 2.792664.623283 3.989714 1.338612-.960361 2.648295-1.947927 3.919845-2.968141-4.457657-3.131374-1.204488-9.311146 1.964525-15.107318 3.389924-5.892752 6.890302-11.610028 6.892932-11.62091.13018.039448-3.413592 8.602439-.731108 14.11023.737683 1.391571 1.155835 2.697444 1.325463 3.905377 1.107182-1.168485 2.18149-2.360094 3.220296-3.573467-4.769299-2.445792-2.908655-9.062215-.882327-15.314082 2.248552-6.36069 4.665418-12.336419 4.640434-12.426198.12492.013603-1.804102 8.94659 1.783063 14.027253.958594 1.269145 1.595026 2.502923 1.975045 3.675488.861287-1.315395 1.689702-2.645753 2.483927-3.992435-5.079625-1.761568-4.427413-8.546667-3.527992-14.964488 1.096662-6.559292 2.448424-12.732262 2.448424-12.802997.115715-.008162-.286658 8.99148 4.096048 13.498102 1.153205 1.119514 1.986879 2.24583 2.558879 3.34902.399743-.912751.786336-1.828222 1.15715-2.747774.287973-.711429.564111-1.425578.834989-2.141088-5.112499-.950839-5.574044-7.375462-5.713428-13.476337.019724-6.226022.368184-12.1133331.397113-12.1731856.097306-.0231248 1.0296 8.3562266 5.831773 11.9841056 1.27155.905949 2.234088 1.86495 2.940213 2.832112.504938-1.927523.953334-3.860487 1.350446-5.801613-5.07305-.138749-6.444536-6.058707-7.437318-11.728372-.854713-5.7512824-1.325463-11.2441108-1.27155-11.3053236.078896-.028566 2.063146 7.5971884 7.090173 10.3299997 1.362282.6978259 2.424756 1.4854306 3.234761 2.3192849.239319-2.195499.415522-4.3937186.531237-6.5905779-4.86266.5822017-6.932381-4.7120252-8.594469-9.8566208-1.531909-5.2030878-2.653555-10.2579046-2.578603-10.3286394.065747-.0299263 2.838962 6.8000617 7.909383 8.6663719 1.392525.4760995 2.503651 1.0800658 3.378089 1.7629286-.055228-1.9574493-.153849-3.9094574-.298492-5.8519435-.034189-.4584158-.074952-.9154714-.1144-1.3711667-4.382706 1.2160943-7.115158-3.49185-9.209862-8.0202368-2.060516-4.5895996-3.574016-9.3383524-3.575331-9.3546758.053913-.0272057 3.396498 6.0369422 8.349889 7.0952434 1.325463.2570938 2.416866.6638188 3.304452 1.1684843-.411577-2.5600552-.899421-5.1078679-1.464846-7.6502395-3.854099 1.5561654-6.896877-2.4090636-9.300593-6.3702118-2.416866-4.0645298-4.341943-8.4541675-4.345887-8.4718512.049967-.0204043 3.802815 5.3649616 8.498477 5.7023122 1.142686.0652936 2.122319.2706966 2.952048.5822017-.767927-2.6375915-1.616066-5.2697418-2.547045-7.9032524-3.266319 1.6554661-6.411663-1.6078561-8.990267-5.0371331-2.674594-3.606114-4.975745-7.7073714-4.983634-7.7277757.046023-.0108823 4.122347 4.8140465 8.449824 4.5365485.888902-.0720951 1.685758-.0272057 2.398457.1088227-1.065104-2.5559743-2.20253-5.1146693-3.416223-7.6801657-.067062-.167315-.136754-.3346299-.205131-.5019449-2.714042 1.6636278-5.847552-1.0120516-8.5445-4.0060376-2.883671-3.2347563-5.577989-7.1197285-5.592454-7.1414931.052598 0 4.433989 4.3937186 8.313071 3.6210771.904681-.1931604 1.72652-.2244469 2.461574-.1333079-2.564139-5.4397773-5.546431-10.962532-9.049439-16.602271 3.775202 5.5227546 7.132252 10.9421276 10.104023 16.305729.294547-.86106.762667-1.76973 1.455642-2.7124071 1.245251-1.6609072 1.26629-4.35291.829729-6.643629-.414207-2.2879984-1.286014-4.1774334-1.259715-4.1815142.00263-.0027206 3.259744 5.122831 4.769299 10.2592649 1.534538 5.0670594 1.493775 9.8797456-2.025013 10.4741899 1.392525 2.817149 2.678539 5.6274966 3.864618 8.4337633.428672-.7005465 1.000672-1.4174164 1.750189-2.1370068 1.604231-1.5139966 2.040792-4.2100802 1.942172-6.5470488-.074952-2.3315275-.686401-4.3053002-.661417-4.3053002.001315-.0054411 2.639091 5.4492993 3.496434 10.8292241.859973 5.1391545.215651 9.9273556-3.36231 10.3245586.909941 2.5722978 1.73967 5.1500368 2.493133 7.738658.527292-.5862826 1.187393-1.167124 1.994768-1.7275612 3.852784-2.5219673 3.088802-10.1953316 2.946788-10.776173.168313.4856215 2.017123 6.0437436 2.185435 11.4236684.209076 5.2942269-1.075623 10.1164351-4.816636 10.1572436.005259.0176837.009204.038088.014464.0571319.507568 2.362814.955964 4.7405912 1.338612 7.1306109.628543-.5155478 1.38858-1.0066105 2.301151-1.4555043 4.426098-2.0621912 4.657528-10.063384 4.587836-10.66599.111771.5087463 1.322833 6.466792.778447 12.0983694-.485214 5.5322767-2.501022 10.4197785-6.461631 9.9001499.185407 2.2213444.316901 4.44813.387908 6.6803567.745573-.463857 1.63316-.8787437 2.683799-1.2228957 4.812692-1.4759086 6.197327-9.3900432 6.273594-10.3898522.043393.8596997.495734 7.1074859-.823154 12.6982548-1.193969 5.7131945-4.214393 10.7435262-8.260473 9.4825426-.1144 2.047228-.280083 4.0930957-.502309 6.1389635.882327-.416247 1.921132-.7495167 3.1414-.9698828 5.339984-.8719423 7.904123-9.2567353 8.044822-10.0647443-.038133.7168699-.449711 7.4870054-2.687744 13.3144637-2.117058 5.9498838-6.109226 10.9258048-10.235517 8.7439078-.389224 1.866311-.828415 3.73126-1.316259 5.588049 1.037491-.356395 2.248553-.586283 3.654228-.647496 5.825198-.155072 9.805531-8.966994 9.92782-9.507027-.057857.467937-1.525334 7.742738-4.858715 13.722549-3.207146 6.091353-8.305181 10.864591-12.311812 7.624394-.624598 1.640503-1.291275 3.270123-2.000029 4.886141 1.183449-.251652 2.541785-.33599 4.090788-.19452 6.199957.682862 11.848953-8.280052 11.910755-8.617402.00263.219006-2.752176 7.850201-7.343957 13.779681-4.431359 6.017898-10.691803 10.33272-14.324991 6.111758-.80606 1.365725-1.644994 2.715127-2.519431 4.046846 1.225527-.084338 2.591753.019044 4.107882.372718 6.180233 1.565687 13.418995-6.896642 13.295391-6.970098.161738-.044889-3.913271 7.372742-9.633274 12.725461-5.457014 5.363601-12.48933 8.75207-15.412449 4.049567-1.055899 1.229697-2.144672 2.437629-3.271578 3.622437 1.251826.092499 2.608847.391762 4.071064.95628 5.635846 2.317925 13.771399-4.163831 14.509083-4.936472-.564111.746796-5.475424 6.93609-11.834489 11.154332-6.58655 4.531107-14.202701 6.616423-16.335539 1.635062-1.304424 1.047419-2.640406 2.064912-4.011891 3.051118 1.26103.285659 2.593067.790325 3.980332 1.569768 5.279497 3.134095 14.616909-1.957449 15.562353-2.649834-.742943.685583-6.790367 6.019258-13.99494 9.128869-7.509641 3.403431-15.666233 4.143426-16.925949-1.022934-1.520074.798487-3.067762 1.560246-4.641749 2.279836 1.225527.492423 2.481298 1.201131 3.742328 2.180536 4.790338 3.928502 15.15735.52507 16.328964-.036727-.934924.587642-8.034302 4.800443-15.937111 6.578335-8.260473 2.030904-16.720817 1.260984-17.12319-3.891774-9.372914 2.719209-19.391466 4.031883-29.742699 3.535379l-.215651-1.662267zM59.7639111 100.4723556c.0091303-.0244113.0143476-.0393292.0143476-.0393292-.003913.0013562-.007826.0162741-.0143476.0393292M54.198857 117.0683248c.0052173-.0244112.007826-.0393292.0091303-.037973-.003913 0-.0065216.014918-.0091303.037973M50.5660373 134.082811c.003913-.0718775.0052173-.1098505.0013043-.1030697-.0065216.0013562-.0065216.0366169-.0013043.1030697M48.9789286 151.3159131c-.0026086-.0447539-.003913-.0678089-.003913-.0623842-.003913.0013562-.0026086.023055.003913.0623842M49.6310936 168.755426c-.0026087-.018987-.0026087-.029836-.0013043-.027124-.0026087.001356-.0026087.01085.0013043.027124M52.7747896 186.123603c0-.004068-.0013043-.010849.0013043-.009493-.0026086.001356-.0026086.004069-.0013043.009493M69.1629125 219.78044c-.0365212-.050179-.0560862-.075946-.0534775-.075946-.0065217.005425.0143476.032548.0534775.075946M81.700523 234.49566c-.0521732-.048822-.0808684-.075946-.0795641-.075946-.003913.008137.023478.033905.0795641.075946M97.0672252 246.988781c-.0717382-.044754-.1095637-.070521-.1069551-.070521-.0065216.009493.031304.033904.1069551.070521"/><path d="M159.576976 251.534015c-10.120296.466526-19.9314656-.817776-29.1074266-3.473174 3.3769102-4.385883-2.2082306-8.744642-7.554679-12.946085-5.602097-4.182456-11.2107157-8.366268-11.2133243-8.37983-.122607.099001 6.6012137 6.805306 5.9542661 12.647725-.2230404 1.499934-.1617369 2.814072.1095637 3.961399-1.5312833-.701144-3.0403931-1.43755-4.5195032-2.213284 3.9325547-3.77289-.5230363-9.169126-4.7973255-14.290058-4.5234161-5.169754-9.0872665-10.24322-9.0898752-10.255426-.130433.069165 5.0177572 7.882113 3.3351716 13.637736-.4826021 1.457893-.6652082 2.784236-.6182524 3.977673-1.3291122-.957462-2.6269204-1.942048-3.8882075-2.959182 4.4216785-3.121924 1.1947662-9.283046-1.9486689-15.061724-3.3625625-5.874968-6.8346888-11.574988-6.8372974-11.585837-.1291287.039329 3.3860404 8.576476.7252074 14.067644-.7317291 1.387371-1.146506 2.689303-1.3147646 3.89359-1.0982458-1.164958-2.1638833-2.35297-3.194304-3.562682 4.7308047-2.43841 2.8851778-9.034864.8752054-15.267863-2.2304042-6.341493-4.6277626-12.299188-4.6029803-12.388695-.1239113.013561 1.7895407 8.919589-1.7686714 13.984918-.9508565 1.265315-1.5834565 2.495369-1.9604078 3.664395-.8530318-1.311425-1.6747597-2.637768-2.4625749-3.980385 5.0386265-1.756252 4.3916788-8.520873 3.4982128-14.919325-1.0865068-6.539495-2.427358-12.693836-2.427358-12.764357-.114781-.008137.2843439 8.964343-4.0629877 13.457364-1.1438973 1.116135-1.9695382 2.239052-2.538226 3.338913-.3965163-.909996-.7799893-1.822705-1.1478104-2.739482-.2856482-.709281-.5595575-1.421275-.8282495-2.134626 5.0712348-.947969 5.5290546-7.353202 5.6673136-13.435665-.019565-6.207231-.3652124-12.0767739-.3939077-12.1364457-.0965204-.0230551-1.0212903 8.3310077-5.7847032 11.9479367-1.261287.903215-2.2160565 1.859322-2.917786 2.823565-.4995584-1.921706-.9443349-3.848836-1.3382425-5.784103 5.0321048-.138331 6.3925209-6.040422 7.37729-11.6929758.8478145-5.7339248 1.3147646-11.2101756 1.2612871-11.2712037-.0782598-.0284798-2.047798 7.5742597-7.032947 10.2988233-1.3512858.6957199-2.4051844 1.4809475-3.2086516 2.3122852-.2386924-2.1888729-.4134726-4.3804581-.5269493-6.5706872 4.8234121.5804446 6.8764274-4.6978041 8.5251004-9.8268731 1.5195443-5.1873846 2.6308334-10.2269458 2.557791-10.2974671-.0652165-.0298359-2.8160483 6.7795388-7.8455445 8.6402164-1.3812854.4746626-2.4834442 1.0768061-3.3508236 1.757608.0534775-1.9515416.1526066-3.8976585.2960829-5.8342821.0339126-.4570323.0743468-.9127084.1134767-1.3670284 4.3473316 1.212424 7.0577292-3.4813115 9.1355268-7.9960314 2.043885-4.5757479 3.5451687-9.3101688 3.546473-9.326443-.0534775-.0271235-3.3690841 6.0187224-8.282495 7.0738297-1.3147645.2563178-2.3973584.6618153-3.2777811 1.1649578.4082553-2.5523289.8921617-5.0924522 1.4530236-7.6271507 3.822991 1.5514687 6.8412104-2.401793 9.2255255-6.3509863 2.3973584-4.0522628 4.3068974-8.4286525 4.3108104-8.4462828-.0495645-.0203427-3.7721221 5.34877-8.4298843 5.6851024-1.1334627.0650966-2.1051885.2698796-2.9282207.5804446.7617287-2.6296311 1.6030215-5.2538375 2.5264871-7.8794 3.2399555 1.6504698 6.3599127-1.6030036 8.9177037-5.0219308 2.6530071-3.5952306 4.9355844-7.6841103 4.9434104-7.7044529-.0456515-.0108495-4.0890743 4.7995174-8.3816241 4.5228569-.881727-.0718775-1.672151-.0271236-2.3790978.1084943 1.0565073-2.5482603 2.1847527-5.099233 3.3886492-7.6569866.0652165-.16681.1356503-.33362.2034754-.50043 2.692137 1.6586069 5.8003552-1.0089972 8.4755359-3.9939472 2.8603955-3.2249937 5.5329675-7.0982409 5.5473152-7.1199397-.0521732 0-4.3982005 4.3804581-8.2459738 3.6101485-.8986833-.1925775-1.7125852-.2237696-2.4417056-.1329056 2.5434433-5.4233598 5.5016636-10.9294466 8.9763985-16.5521647-3.7447312 5.5060868-7.0746855 10.9091039-10.0224711 16.2565177-.2934743-.8584613-.7565114-1.7643889-1.4438933-2.7042209-1.2365047-1.6558946-1.257374-4.3397728-.8230321-6.6235783.4108639-2.281093 1.2756346-4.1648257 1.249548-4.1688942-.0026086-.0027124-3.2334339 5.1073701-4.7308046 10.228302-1.5234574 5.0517668-1.4817188 9.8499281 2.0086681 10.4425783-1.3812854 2.8086467-2.6569201 5.6105125-3.8334257 8.4083098-.4265159-.6984322-.9925951-1.4131385-1.7360631-2.1305572-1.5912825-1.5094272-2.0243201-4.197374-1.9264953-6.5272895.0743468-2.3244908.6808602-4.2923066.6560779-4.2923066-.0013043-.0054247-2.6177901 5.4328531-3.4682132 10.796541-.8530318 5.1236443-.2139101 9.8973944 3.3351716 10.2933987-.9025963 2.5645344-1.7256285 5.1344936-2.4730096 7.7153023-.5243406-.5845132-1.1778099-1.1636016-1.9799728-1.7223474-3.8203823-2.5143558-3.0625666-10.1645616-2.921699-10.74365-.1669542.4841559-2.0008421 6.0255033-2.1677963 11.3891913-.2073885 5.2782486 1.0669418 10.0859032 4.7777605 10.1265885-.0052173.0176304-.0091303.0379731-.0143477.0569596-.5034713 2.3556829-.9482478 4.7262838-1.3278078 7.1090903-.6234697-.5139919-1.3773724-1.0035725-2.2825774-1.4511116-4.3903745-2.0559673-4.6199366-10.0330122-4.5508071-10.6337995-.110868.507211-1.312156 6.447275-.7721633 12.061856.4812977 5.51558 2.4808355 10.3883312 6.4094772 9.8702708-.1839105 2.2146403-.3143435 4.4347053-.3847773 6.6601951-.7395551-.4624571-1.6199778-.8760917-2.6621374-1.219205-4.7738475-1.4714542-6.1486112-9.3617036-6.222958-10.3584952-.043043.8571052-.4917324 7.0860353.8165105 12.659931 1.1843316 5.6959518 4.1803774 10.7111017 8.1938006 9.4539238.1134767 2.0410494.2778223 4.0807426.498254 6.1204358-.8752054-.4149907-1.905626-.7472546-3.1160442-.9669556-5.2968838-.8693107-7.8403272-9.2287981-7.9798905-10.0343684.0378256.7147063.4460809 7.4644092 2.6660504 13.27428 2.0999712 5.9319274 6.0599168 10.8928294 10.1529041 8.7175184.3860817 1.860678.8204236 3.719999 1.30433 5.571184-1.027812-.355319-2.2290999-.584514-3.6234286-.645542-5.7781815-.154604-9.7263882-8.939932-9.8476909-9.478335.0573905.466526 1.5130227 7.719371 4.819499 13.681134 3.1812608 6.07297 8.2368436 10.831802 12.2124412 7.601383.6195567 1.635552 1.280852 3.260255 1.9838858 4.871395-1.173897-.250893-2.5212698-.334976-4.0577704-.193933-6.1499156.680802-11.753317-8.255062-11.8146205-8.591394-.0026086.218345 2.7299626 7.826509 7.2846827 13.738093 4.3942875 5.999736 10.6055066 10.301536 14.2093702 6.093312.7995542 1.361604 1.6317167 2.706934 2.4990961 4.034633-1.2156355-.084083-2.5708343.018986-4.0747267.371593-6.1303506 1.560962-13.3106869-6.875828-13.1893842-6.949061-.1591282-.044754 3.8829902 7.35049 9.5568254 12.687054 5.4129692 5.347414 12.3885256 8.725656 15.288051 4.037345 1.0460726 1.225986 2.1273621 2.430273 3.2451729 3.611505-1.2417221.09222-2.5877906.390579-4.0382055.953394-5.590358 2.310929-13.6602473-4.151264-14.3919764-4.921574.5595576.744542 5.4299255 6.915157 11.7389694 11.120668 6.5333886 4.517432 14.0880675 6.596454 16.2036906 1.630127 1.2938953 1.044258 2.6190945 2.05868 3.9795106 3.041909-1.2508524.284798-2.5721386.78794-3.9482067 1.565031-5.2381889 3.124636-14.4989314-1.951542-15.4367446-2.641837.7369464.683515 6.7355597 6.001092 13.8819834 9.101318 7.4490282 3.393159 15.5397867 4.130921 16.7893348-1.019847 1.5078054.796077 3.0430017 1.555537 4.6042846 2.272956-1.2156355.490937-2.4612706 1.197506-3.712123 2.173955-4.7516739 3.916645-15.035011.523485-16.197169-.036617.9273786.585869 7.9694559 4.785956 15.8071744 6.558482 8.1951049 2.024775 16.5871636 1.257178 16.9862886-3.880028 9.2972637 2.711001 19.2349537 4.019714 29.5026387 3.524709l.21391-1.657251z" opacity=".5"/><path d="M266.428857 100.4723556c-.00913-.0244113-.014347-.0393292-.014347-.0393292.003913.0013562.007826.0162741.014347.0393292M271.993911 117.0683248c-.005217-.0244112-.00913-.0393292-.00913-.037973.003913 0 .006522.014918.00913.037973M275.626731 134.082811c-.003913-.0718775-.005217-.1098505-.001304-.1030697.006521.0013562.006521.0366169.001304.1030697M277.21384 151.3159131c.002608-.0447539.003913-.0678089.002608-.0623842.005218.0013562.003913.023055-.002608.0623842M276.561675 168.755426c.002608-.018987.002608-.029836.001304-.027124.002609.001356.002609.01085-.001304.027124M273.417979 186.123603c0-.004068.001304-.010849-.001305-.009493.002609.001356.002609.004069.001305.009493M257.029725 219.78044c.036522-.050179.054782-.075946.053478-.075946.006522.005425-.014348.032548-.053478.075946M244.492115 234.49566c.052173-.048822.080868-.075946.07826-.075946.005217.008137-.022174.033905-.07826.075946M229.125543 246.988781c.070434-.044754.109564-.070521.106955-.070521.006522.009493-.031304.033904-.106955.070521"/><path d="M166.615792 251.534015c10.118992.466526 19.931466-.817776 29.107427-3.473174-3.37691-4.385883 2.208231-8.744642 7.554679-12.946085 5.602097-4.182456 11.210716-8.366268 11.213324-8.37983.122607.099001-6.601213 6.805306-5.954266 12.647725.223041 1.499934.161737 2.814072-.109563 3.961399 1.531283-.701144 3.040393-1.43755 4.519503-2.213284-3.932555-3.77289.521732-9.169126 4.797325-14.290058 4.523416-5.169754 9.087267-10.24322 9.089875-10.255426.130433.069165-5.017757 7.882113-3.335171 13.637736.482602 1.457893.665208 2.784236.618252 3.977673 1.327808-.957462 2.626921-1.942048 3.888208-2.959182-4.421679-3.121924-1.194767-9.283046 1.948669-15.061724 3.362562-5.874968 6.834688-11.574988 6.837297-11.585837.129129.039329-3.38604 8.576476-.725207 14.067644.731729 1.387371 1.146506 2.689303 1.314764 3.89359 1.098246-1.164958 2.163884-2.35297 3.194304-3.562682-4.730804-2.43841-2.885178-9.034864-.875205-15.267863 2.230404-6.341493 4.627762-12.299188 4.60298-12.388695.123911.013561-1.789541 8.919589 1.768671 13.984918.950857 1.265315 1.582153 2.495369 1.959104 3.664395.854336-1.311425 1.676064-2.637768 2.463879-3.980385-5.038626-1.756252-4.391679-8.520873-3.499517-14.919325 1.087811-6.539495 2.428662-12.693836 2.428662-12.764357.114781-.008137-.284344 8.964343 4.062988 13.457364 1.143897 1.116135 1.970843 2.239052 2.538226 3.338913.396516-.909996.779989-1.822705 1.14781-2.739482.285649-.709281.559558-1.421275.82825-2.134626-5.071235-.947969-5.529055-7.353202-5.667314-13.435665.019565-6.207231.365213-12.0767739.393908-12.1364457.096521-.0230551 1.02129 8.3310077 5.784703 11.9479367 1.261287.903215 2.216057 1.859322 2.916482 2.823565.500863-1.921706.945639-3.848836 1.339547-5.784103-5.032105-.138331-6.392521-6.040422-7.37729-11.6929758-.847815-5.7339248-1.314765-11.2101756-1.261287-11.2712037.07826-.0284798 2.046493 7.5742597 7.032947 10.2988233 1.351286.6957199 2.405184 1.4809475 3.208651 2.3122852.237388-2.1888729.412169-4.3804581.52695-6.5706872-4.823412.5804446-6.876428-4.6978041-8.525101-9.8268731-1.519544-5.1873846-2.632138-10.2269458-2.557791-10.2974671.065217-.0298359 2.816049 6.7795388 7.845545 8.6402164 1.381285.4746626 2.483444 1.0768061 3.350823 1.757608-.054782-1.9515416-.152606-3.8976585-.296083-5.8342821-.033912-.4570323-.074346-.9127084-.113476-1.3670284-4.347332 1.212424-7.057729-3.4813115-9.135527-7.9960314-2.043885-4.5757479-3.545169-9.3101688-3.546473-9.326443.053477-.0271235 3.369084 6.0187224 8.282495 7.0738297 1.314764.2563178 2.397358.6618153 3.277781 1.1649578-.408255-2.5523289-.892162-5.0924522-1.453024-7.6271507-3.822991 1.5514687-6.84121-2.401793-9.225525-6.3509863-2.397359-4.0522628-4.306898-8.4286525-4.310811-8.4462828.049565-.0203427 3.772123 5.34877 8.429885 5.6851024 1.133463.0650966 2.105188.2698796 2.92822.5804446-.761728-2.6296311-1.603021-5.2538375-2.526487-7.8794-3.239955 1.6504698-6.359912-1.6030036-8.917703-5.0219308-2.653007-3.5952306-4.935585-7.6841103-4.943411-7.7044529.045652-.0108495 4.089075 4.7995174 8.381624 4.5228569.881727-.0718775 1.672151-.0271236 2.379098.1084943-1.056507-2.5482603-2.184752-5.099233-3.388649-7.6569866-.066521-.16681-.13565-.33362-.203475-.50043-2.692137 1.6586069-5.800356-1.0089972-8.475536-3.9939472-2.860396-3.2249937-5.532968-7.0982409-5.547315-7.1199397.052173 0 4.3982 4.3804581 8.245973 3.6101485.897379-.1925775 1.712586-.2237696 2.441706-.1329056-2.543443-5.4233598-5.501664-10.9294466-8.976399-16.5521647 3.744732 5.5060868 7.074686 10.9091039 10.022472 16.2565177.292169-.8584613.756511-1.7643889 1.443893-2.7042209 1.2352-1.6558946 1.256069-4.3397728.823032-6.6235783-.410864-2.281093-1.275635-4.1648257-1.249548-4.1688942.002609-.0027124 3.233434 5.1073701 4.730805 10.228302 1.522153 5.0517668 1.481718 9.8499281-2.008669 10.4425783 1.381286 2.8086467 2.656921 5.6105125 3.833426 8.4083098.425212-.6984322.992595-1.4131385 1.736063-2.1305572 1.591283-1.5094272 2.02432-4.197374 1.926496-6.5272895-.074347-2.3244908-.680861-4.2923066-.656078-4.2923066.001304-.0054247 2.61779 5.4328531 3.468213 10.796541.853032 5.1236443.21391 9.8973944-3.335172 10.2933987.902597 2.5645344 1.725629 5.1344936 2.47301 7.7153023.523036-.5845132 1.17781-1.1636016 1.978668-1.7223474 3.821687-2.5143558 3.063871-10.1645616 2.923004-10.74365.166954.4841559 2.000842 6.0255033 2.167796 11.3891913.207388 5.2782486-1.066942 10.0859032-4.777761 10.1265885.005218.0176304.009131.0379731.014348.0569596.503471 2.3556829.948248 4.7262838 1.327808 7.1090903.62347-.5139919 1.377372-1.0035725 2.282577-1.4511116 4.390375-2.0559673 4.619937-10.0330122 4.550807-10.6337995.110868.507211 1.312156 6.447275.772164 12.061856-.481298 5.51558-2.480836 10.3883312-6.409478 9.8702708.183911 2.2146403.314344 4.4347053.384778 6.6601951.739555-.4624571 1.619978-.8760917 2.662137-1.219205 4.773848-1.4714542 6.147307-9.3617036 6.222958-10.3584952.043043.8571052.491733 7.0860353-.81651 12.659931-1.184332 5.6959518-4.180378 10.7111017-8.193801 9.4539238-.113477 2.0410494-.277822 4.0807426-.498254 6.1204358.875205-.4149907 1.905626-.7472546 3.116044-.9669556 5.296884-.8693107 7.840327-9.2287981 7.979891-10.0343684-.037826.7147063-.446081 7.4644092-2.666051 13.27428-2.099971 5.9319274-6.059916 10.8928294-10.152904 8.7175184-.386081 1.860678-.821728 3.719999-1.305634 5.571184 1.029116-.355319 2.230404-.584514 3.624733-.645542 5.778181-.154604 9.726388-8.939932 9.847691-9.478335-.057391.466526-1.513023 7.719371-4.819499 13.681134-3.181261 6.07297-8.238148 10.831802-12.212441 7.601383-.619557 1.635552-1.280852 3.260255-1.983886 4.871395 1.173897-.250893 2.52127-.334976 4.05777-.193933 6.149916.680802 11.753317-8.255062 11.814621-8.591394.002608.218345-2.729963 7.826509-7.284683 13.738093-4.395592 5.999736-10.605507 10.301536-14.20937 6.093312-.799554 1.361604-1.631717 2.706934-2.499096 4.034633 1.215635-.084083 2.570834.018986 4.074726.371593 6.130351 1.560962 13.310687-6.875828 13.18808-6.949061.160433-.044754-3.881686 7.35049-9.555521 12.687054-5.412969 5.347414-12.388525 8.725656-15.288051 4.037345-1.047377 1.225986-2.127362 2.430273-3.245173 3.611505 1.241722.09222 2.587791.390579 4.038206.953394 5.590358 2.310929 13.660247-4.151264 14.391976-4.921574-.559557.744542-5.43123 6.915157-11.738969 11.120668-6.533389 4.517432-14.088068 6.596454-16.203691 1.630127-1.293895 1.044258-2.619094 2.05868-3.97951 3.041909 1.250852.284798 2.572138.78794 3.948206 1.565031 5.236885 3.124636 14.498932-1.951542 15.436745-2.641837-.736946.683515-6.73556 6.001092-13.881983 9.101318-7.449029 3.393159-15.539787 4.130921-16.789335-1.019847-1.507806.796077-3.043002 1.555537-4.604285 2.272956 1.215636.490937 2.461271 1.197506 3.712123 2.173955 4.751674 3.916645 15.035011.523485 16.197169-.036617-.927378.585869-7.969456 4.785956-15.808479 6.558482-8.1938 2.024775-16.585859 1.257178-16.984984-3.880028-9.297264 2.711001-19.234953 4.019714-29.502638 3.524709l-.213911-1.657251z" opacity=".5"/></g><path d="M129.645024 231.560336c-.440002-.236001-.751999-.505998-.936-.81-.184001-.304001-.276-.563999-.276-.78 0-.08.028-.145999.084-.198.056001-.052.124-.078.204-.078h1.068c.072001 0 .134.018.186.054.052001.036.094.102.126.198.088001.208001.219999.386.396.534.176001.148001.447999.222.816.222.480003 0 .831999-.105999 1.056-.318s.336-.581997.336-1.11v-.816c-.432002.512003-1.043996.768-1.836.768-.832004 0-1.457998-.251997-1.878-.756-.420002-.504002-.645999-1.191995-.678-2.064l-.012-.324.012-.324c.032001-.856004.259998-1.543997.684-2.064.424002-.520002 1.047996-.78 1.872-.78.424002 0 .795999.079999 1.116.24.320002.160001.583999.375999.792.648v-.468c0-.088.03-.159999.09-.216.060001-.056.13-.084.21-.084h.984c.080001 0 .148.028.204.084.056001.056001.084.128.084.216l.012 5.784c0 .888005-.247997 1.575998-.744 2.064-.496002.488003-1.243995.732-2.244.732-.712003 0-1.287997-.117999-1.728-.354zm2.688-4.038c.224001-.288001.348-.639998.372-1.056.008-.064.012-.191999.012-.384s-.004-.319999-.012-.384c-.024-.416002-.147999-.767998-.372-1.056-.224001-.288001-.559997-.432-1.008-.432-.864004 0-1.319999.527995-1.368 1.584l-.012.288c0 1.248007.459996 1.872 1.38 1.872.448003 0 .783999-.143998 1.008-.432zm4.2 1.152c-.512002-.480002-.787999-1.143995-.828-1.992l-.012-.528.012-.528c.040001-.840004.319998-1.501997.84-1.986.520003-.484002 1.243996-.726 2.172-.726.920005 0 1.639998.241998 2.16.726.520003.484003.8 1.145996.84 1.986.008.096001.012.271999.012.528 0 .256002-.004.432-.012.528-.04.848005-.315997 1.511998-.828 1.992-.512002.480003-1.235995.72-2.172.72-.944004 0-1.671997-.239997-2.184-.72zm3.162-.888c.228002-.264001.35-.651997.366-1.164.008-.08.012-.235999.012-.468 0-.232001-.004-.387999-.012-.468-.016-.512002-.139998-.901998-.372-1.17-.232001-.268001-.555998-.402-.972-.402-.424002 0-.751998.133999-.984.402-.232001.268002-.356.657998-.372 1.17l-.012.468.012.468c.016.512003.139999.899999.372 1.164.232002.264002.559998.396.984.396s.749999-.131998.978-.396zm3.954.888c-.512002-.480002-.787999-1.143995-.828-1.992l-.012-.528.012-.528c.040001-.840004.319998-1.501997.84-1.986.520003-.484002 1.243996-.726 2.172-.726.920005 0 1.639998.241998 2.16.726.520003.484003.8 1.145996.84 1.986.008.096001.012.271999.012.528 0 .256002-.004.432-.012.528-.04.848005-.315997 1.511998-.828 1.992-.512002.480003-1.235995.72-2.172.72-.944004 0-1.671997-.239997-2.184-.72zm3.162-.888c.228002-.264001.35-.651997.366-1.164.008-.08.012-.235999.012-.468 0-.232001-.004-.387999-.012-.468-.016-.512002-.139998-.901998-.372-1.17-.232001-.268001-.555998-.402-.972-.402-.424002 0-.751998.133999-.984.402-.232001.268002-.356.657998-.372 1.17l-.012.468.012.468c.016.512003.139999.899999.372 1.164.232002.264002.559998.396.984.396s.749999-.131998.978-.396zm3.822.834c-.432002-.516002-.667999-1.205995-.708-2.07l-.012-.396.012-.396c.032001-.848004.265998-1.533997.702-2.058.436003-.524002 1.057996-.786 1.866-.786.768004 0 1.379998.263998 1.836.792v-2.664c0-.088.028-.157999.084-.21.056001-.052.124-.078.204-.078h1.044c.088001 0 .158.026.21.078.052001.052001.078.122.078.21v7.944c0 .080001-.025999.148-.078.204-.052.056001-.121999.084-.21.084h-.972c-.08 0-.147999-.027999-.204-.084-.056-.056-.084-.123999-.084-.204v-.444c-.440002.568003-1.075995.852-1.908.852-.808004 0-1.427997-.257997-1.86-.774zm3.33-.96c.220001-.292001.342-.653998.366-1.086.008-.096.012-.247999.012-.456 0-.216001-.004-.371999-.012-.468-.016-.400002-.139998-.739998-.372-1.02-.232001-.280001-.567997-.42-1.008-.42-.856004 0-1.311999.527995-1.368 1.584l-.012.36.012.36c.056001 1.056006.511996 1.584 1.368 1.584.456003 0 .793999-.145998 1.014-.438zm4.338 1.53c-.056-.056-.084-.123999-.084-.204v-4.668h-.972c-.08 0-.147999-.027999-.204-.084-.056-.056-.084-.123999-.084-.204v-.708c0-.08.028-.147999.084-.204.056001-.056.124-.084.204-.084h.972v-.48c0-.728003.195998-1.269998.588-1.626.392002-.356001.983996-.534 1.776-.534h2.484c.088001 0 .158.026.21.078.052001.052001.078.122.078.21v.708c0 .080001-.027999.148-.084.204-.056.056001-.123999.084-.204.084h-2.424c-.312001 0-.531999.076-.66.228-.128.152001-.192.387999-.192.708v.42h3.276c.088001 0 .158.026.21.078.052001.052001.078.122.078.21v5.664c0 .080001-.025999.148-.078.204-.052.056001-.121999.084-.21.084h-.996c-.08 0-.147999-.027999-.204-.084-.056-.056-.084-.123999-.084-.204v-4.668h-1.992v4.668c0 .080001-.025999.148-.078.204-.052.056001-.121999.084-.21.084h-.996c-.08 0-.147999-.027999-.204-.084zm6.72 0c-.056-.056-.084-.123999-.084-.204v-5.652c0-.088.028-.159999.084-.216.056001-.056.124-.084.204-.084h.984c.088001 0 .16.028.216.084.056001.056001.084.128.084.216v.492c.400002-.528002.975997-.792 1.728-.792h.504c.088001 0 .158.026.21.078.052001.052001.078.122.078.21v.876c0 .080001-.025999.148-.078.204-.052.056001-.121999.084-.21.084h-.948c-.376002 0-.671999.107999-.888.324s-.324.511998-.324.888v3.288c0 .080001-.027999.148-.084.204-.056.056001-.123999.084-.204.084h-1.068c-.08 0-.147999-.027999-.204-.084zm5.028 0c-.056-.056-.084-.123999-.084-.204v-5.664c0-.088.028-.157999.084-.21.056001-.052.124-.078.204-.078h.948c.088001 0 .158.026.21.078.052001.052001.078.122.078.21v.408c.432003-.544002 1.011997-.816 1.74-.816.888005 0 1.507999.355997 1.86 1.068.192001-.320001.463999-.577999.816-.774.352002-.196001.731998-.294 1.14-.294.656004 0 1.191998.223998 1.608.672.416002.448003.624 1.099996.624 1.956v3.444c0 .080001-.025999.148-.078.204-.052.056001-.121999.084-.21.084h-.996c-.08 0-.147999-.027999-.204-.084-.056-.056-.084-.123999-.084-.204v-3.348c0-.504002-.105999-.867999-.318-1.092-.212001-.224001-.489998-.336-.834-.336-.312001 0-.577999.113999-.798.342s-.33.589998-.33 1.086v3.348c0 .080001-.025999.148-.078.204-.052.056001-.121999.084-.21.084h-1.008c-.08 0-.147999-.027999-.204-.084-.056-.056-.084-.123999-.084-.204v-3.348c0-.496002-.107999-.857999-.324-1.086-.216001-.228001-.491998-.342-.828-.342-.312001 0-.577999.113999-.798.342s-.33.589998-.33 1.086v3.348c0 .080001-.025999.148-.078.204-.052.056001-.121999.084-.21.084h-1.02c-.08 0-.147999-.027999-.204-.084zm11.604-.072c-.408002-.184001-.709999-.397998-.906-.642-.196001-.244001-.294-.453999-.294-.63 0-.08.026-.143999.078-.192.052001-.048.114-.072.186-.072h.984c.064001 0 .12.032.168.096.040001.032.13.108.27.228.140001.120001.299999.214.48.282.180001.068001.377999.102.594.102.320002 0 .579999-.061999.78-.186.200001-.124.3-.301999.3-.534 0-.160001-.045999-.289999-.138-.39-.092-.1-.255998-.191999-.492-.276-.236001-.084-.589997-.177999-1.062-.282-.680003-.144-1.181998-.363998-1.506-.66-.324001-.296001-.486-.687997-.486-1.176 0-.320001.095999-.621998.288-.906.192001-.284001.477998-.515999.858-.696.380002-.180001.833998-.27 1.362-.27.544003 0 1.011998.085999 1.404.258.392002.172001.689999.377999.894.618.204001.240001.306.451999.306.636 0 .072001-.025999.134-.078.186-.052.052001-.113999.078-.186.078h-.9c-.088 0-.155999-.031999-.204-.096-.056-.04-.145999-.113999-.27-.222-.124-.108-.261999-.193999-.414-.258-.152-.064-.335999-.096-.552-.096-.296001 0-.523999.064-.684.192-.16.128001-.24.295999-.24.504 0 .144001.038.264.114.36.076001.096001.229999.186.462.27.232002.084001.579998.17 1.044.258 1.440008.280002 2.16.907995 2.16 1.884 0 .568003-.245997 1.027999-.738 1.38-.492002.352002-1.177995.528-2.058.528-.608003 0-1.115998-.091999-1.524-.276zm5.556.072c-.056-.056-.084-.123999-.084-.204v-1.212c0-.08.028-.147999.084-.204.056001-.056.124-.084.204-.084h1.212c.080001 0 .148.028.204.084.056001.056001.084.124.084.204v1.212c0 .080001-.025999.148-.078.204-.052.056001-.121999.084-.21.084h-1.212c-.08 0-.147999-.027999-.204-.084zm3.666721-.528c-.524003-.488002-.802-1.163995-.834-2.028l-.012-.48.012-.48c.032-.864004.309997-1.539997.834-2.028.524002-.488002 1.225995-.732 2.106-.732.632003 0 1.165998.111999 1.602.336s.759999.497999.972.822c.212001.324002.326.633999.342.93.008.080001-.018.148-.078.204-.06.056001-.13.084-.21.084h-1.068c-.088001 0-.152-.018-.192-.054-.04-.036-.08-.101999-.12-.198-.120001-.304001-.277999-.523999-.474-.66-.196001-.136-.445999-.204-.75-.204-.408002 0-.725999.127999-.954.384-.228001.256002-.35.647998-.366 1.176l-.012.444.012.396c.048 1.040005.487996 1.56 1.32 1.56.312001 0 .563999-.065999.756-.198.192001-.132.347999-.353998.468-.666.032-.088.07-.152.114-.192.044-.04.109999-.06.198-.06h1.068c.08 0 .15.028.21.084.06.056001.086.124.078.204-.016.280002-.127999.581999-.336.906-.208001.324002-.527998.601999-.96.834s-.971997.348-1.62.348c-.880005 0-1.581998-.243997-2.106-.732zm6.858.012c-.512003-.480002-.788-1.143995-.828-1.992l-.012-.528.012-.528c.04-.840004.319997-1.501997.84-1.986.520002-.484002 1.243995-.726 2.172-.726.920004 0 1.639997.241998 2.16.726.520002.484003.8 1.145996.84 1.986.008.096001.012.271999.012.528 0 .256002-.004.432-.012.528-.04.848005-.315998 1.511998-.828 1.992-.512003.480003-1.235995.72-2.172.72-.944005 0-1.671998-.239997-2.184-.72zm3.162-.888c.228001-.264001.35-.651997.366-1.164.008-.08.012-.235999.012-.468 0-.232001-.004-.387999-.012-.468-.016-.512002-.139999-.901998-.372-1.17-.232001-.268001-.555998-.402-.972-.402-.424002 0-.751999.133999-.984.402-.232001.268002-.356.657998-.372 1.17l-.012.468.012.468c.016.512003.139999.899999.372 1.164.232001.264002.559998.396.984.396s.749999-.131998.978-.396z" fill="#000"/><g><path fill="#F8B64C" d="M221.968596 63.2029241l2.122397 4.2959292 4.748502.6889203-3.43545 3.3424425.810656 4.7215929-4.246105-2.2278584-4.246105 2.2278584.810656-4.7215929-3.434138-3.3424425 4.74719-.6889203zM105.2441199 63.2029241l-2.1223968 4.2959292-4.7471903.6889203 3.4341377 3.3424425-.8106559 4.7215929 4.2461053-2.2278584 4.2461052 2.2278584-.8106558-4.7215929 3.4354494-3.3424425-4.748502-.6889203zM203.711786 41.6664356l3.539077 7.1590088 7.912421 1.1486372-5.725749 5.5729203 1.352405 7.8675753-7.078154-3.7144071-7.0768418 3.7144071 1.3524048-7.8675753-5.725749-5.5729203 7.912421-1.1486372zM123.5009296 41.6664356l-3.5390769 7.1590088-7.9124211 1.1486372 5.725749 5.5729203-1.3524048 7.8675753 7.0781538-3.7144071 7.0768421 3.7144071-1.3524049-7.8675753 5.725749-5.5729203-7.912421-1.1486372zM163.6063579 25.5633807l5.8975871 11.9316814 13.1882429 1.9135221-9.5442267 9.2873275 2.2535708 13.1156814-11.7951741-6.1924248-11.795174 6.1924248 2.2535708-13.1156814-9.5442267-9.2873275 13.1882429-1.9135221z"/><path fill="#FFA829" d="M163.6063579 25.5633807l5.8975871 11.9316814 13.1882429 1.9135221-9.5442267 9.2873275 2.2535708 13.1156814-11.7951741-6.1924248-11.795174 6.1924248 2.2535708-13.1156814-9.5442267-9.2873275 13.1882429-1.9135221z"/><path fill="#F8B64C" d="M203.711786 41.6664356l3.539077 7.1590088 7.912421 1.1486372-5.725749 5.5729203 1.352405 7.8675753-7.078154-3.7144071-7.0768418 3.7144071 1.3524048-7.8675753-5.725749-5.5729203 7.912421-1.1486372z"/><path fill="#FFD15C" d="M221.968596 63.2029241l2.122397 4.2959292 4.748502.6889203-3.43545 3.3424425.810656 4.7215929-4.246105-2.2278584-4.246105 2.2278584.810656-4.7215929-3.434138-3.3424425 4.74719-.6889203z"/><path fill="#F8B64C" d="M123.5009296 41.6664356l-3.5390769 7.1590088-7.9124211 1.1486372 5.725749 5.5729203-1.3524048 7.8675753 7.0781538-3.7144071 7.0768421 3.7144071-1.3524049-7.8675753 5.725749-5.5729203-7.912421-1.1486372z"/><path fill="#FFD15C" d="M105.2441199 63.2029241l-2.1223968 4.2959292-4.7471903.6889203 3.4341377 3.3424425-.8106559 4.7215929 4.2461053-2.2278584 4.2461052 2.2278584-.8106558-4.7215929 3.4354494-3.3424425-4.748502-.6889203z"/></g><g><path fill="#2C72C6" d="M0 173.9534198h36.4086802v55.6126372H0l11.6862996-26.1147965zM323.629827 173.9534198h-36.40868v55.6126372h36.40868l-11.6863-26.1147965z"/><path fill="#3D597A" d="M18.3665976 154.8757967l18.4470063 19.8092861v54.8754292l-18.4470063-18.417466zM305.637988 154.8633434l-18.41671 18.9981331v55.6126371l18.41671-18.2894462z"/><path fill="#4385F4" d="M18 210.8425876h287.292529l-.031259-56.3273306H18z"/></g><path d="M100.458008 178h-2.5068361v-9.911133h-3.5029297v-2.066894h9.5209958v2.066894h-3.51123V178zm10.301269-12.185547c3.544434 0 5.777344 2.382324 5.777344 6.200684 0 3.810058-2.23291 6.192383-5.777344 6.192383-3.552734 0-5.777343-2.382325-5.777343-6.192383 0-3.81836 2.224609-6.200684 5.777343-6.200684zm0 2.091797c-1.958984 0-3.220703 1.59375-3.220703 4.108887 0 2.506836 1.253418 4.092285 3.220703 4.092285 1.958985 0 3.212403-1.585449 3.212403-4.092285 0-2.515137-1.253418-4.108887-3.212403-4.108887zm7.387696-1.884277h4.99707c2.457031 0 4.150391 1.635254 4.150391 4.100586 0 2.457031-1.751465 4.100586-4.274903 4.100586h-2.365722V178h-2.506836v-11.978027zm2.506836 1.983886v4.258301h1.817871c1.436035 0 2.274414-.763672 2.274414-2.133301 0-1.361328-.830078-2.125-2.266114-2.125h-1.826171zm24.454101-1.983886V178H142.875v-8.084961h-.066406l-3.253906 7.96875h-1.577149l-3.253906-7.96875h-.066406V178h-2.232911v-11.978027h2.905274l3.40332 8.491699h.066406l3.403321-8.491699h2.905273zm7.395996-.20752c3.544434 0 5.777344 2.382324 5.777344 6.200684 0 3.810058-2.23291 6.192383-5.777344 6.192383-3.552734 0-5.777344-2.382325-5.777344-6.192383 0-3.81836 2.22461-6.200684 5.777344-6.200684zm0 2.091797c-1.958984 0-3.220703 1.59375-3.220703 4.108887 0 2.506836 1.253418 4.092285 3.220703 4.092285 1.958985 0 3.212403-1.585449 3.212403-4.092285 0-2.515137-1.253418-4.108887-3.212403-4.108887zM165.270508 178h-5.378906v-11.978027h5.287597c2.249512 0 3.660645 1.153808 3.660645 2.988281 0 1.311523-.979492 2.407226-2.249512 2.598144v.066407c1.626953.124511 2.822266 1.311523 2.822266 2.896972 0 2.108399-1.58545 3.428223-4.14209 3.428223zm-2.87207-10.110352v3.112793h1.875976c1.336426 0 2.100098-.589355 2.100098-1.60205 0-.962891-.672364-1.510743-1.842774-1.510743h-2.1333zm0 8.242676h2.23291c1.444336 0 2.224609-.614258 2.224609-1.759765 0-1.120606-.805176-1.718262-2.282715-1.718262h-2.174804v3.478027zM173.347168 178h-2.506836v-11.978027h2.506836V178zm9.736816-2.075195V178h-7.744629v-11.978027h2.506836v9.902832h5.237793zm9.421387 0V178h-7.935547v-11.978027h7.935547v2.066894h-5.428711v2.888672h5.121582v1.925781h-5.121582v3.021485h5.428711zM205.811523 178l-.913085-2.905273h-4.208497L199.776855 178h-2.573242l4.158692-11.978027h2.946777L208.476074 178h-2.664551zm-3.046386-9.687012l-1.535645 4.905762h3.129395l-1.535645-4.905762h-.058105zm6.931152-2.291015h4.99707c2.457032 0 4.150391 1.635254 4.150391 4.100586 0 2.457031-1.751465 4.100586-4.274902 4.100586h-2.365723V178h-2.506836v-11.978027zm2.506836 1.983886v4.258301h1.817871c1.436035 0 2.274414-.763672 2.274414-2.133301 0-1.361328-.830078-2.125-2.266113-2.125h-1.826172zm8.118164-1.983886h4.99707c2.457032 0 4.150391 1.635254 4.150391 4.100586 0 2.457031-1.751465 4.100586-4.274902 4.100586h-2.365723V178h-2.506836v-11.978027zm2.506836 1.983886v4.258301h1.817871c1.436035 0 2.274414-.763672 2.274414-2.133301 0-1.361328-.830078-2.125-2.266113-2.125h-1.826172zM57.2399902 186.021973h4.6152344c3.5942383 0 5.7109375 2.141601 5.7109375 5.943359S65.4494629 198 61.8552246 198h-4.6152344v-11.978027zm2.506836 2.066894v7.835938h1.8095703c2.2412109 0 3.453125-1.361328 3.453125-3.951172 0-2.506836-1.2451172-3.884766-3.453125-3.884766h-1.8095703zm17.3652343 7.835938V198h-7.9355468v-11.978027h7.9355468v2.066894h-5.4287109v2.888672h5.121582v1.925781h-5.121582v3.021485h5.4287109zM85.2053223 198h-3.0214844l-4.0258789-11.978027h2.805664l2.7392579 9.396484h.0581054l2.7392578-9.396484h2.7309571L85.2053223 198zm13.1816406-2.075195V198H90.451416v-11.978027h7.9355469v2.066894H92.958252v2.888672h5.121582v1.925781h-5.121582v3.021485h5.4287109zm9.5541991 0V198h-7.744629v-11.978027h2.506836v9.902832h5.237793zm6.889649-10.110352c3.544433 0 5.777343 2.382324 5.777343 6.200684 0 3.810058-2.23291 6.192383-5.777343 6.192383-3.552735 0-5.777344-2.382325-5.777344-6.192383 0-3.81836 2.224609-6.200684 5.777344-6.200684zm0 2.091797c-1.958985 0-3.220704 1.59375-3.220704 4.108887 0 2.506836 1.253418 4.092285 3.220704 4.092285 1.958984 0 3.212402-1.585449 3.212402-4.092285 0-2.515137-1.253418-4.108887-3.212402-4.108887zm7.387695-1.884277h4.99707c2.457031 0 4.150391 1.635254 4.150391 4.100586 0 2.457031-1.751465 4.100586-4.274903 4.100586h-2.365722V198h-2.506836v-11.978027zm2.506836 1.983886v4.258301h1.817871c1.436035 0 2.274414-.763672 2.274414-2.133301 0-1.361328-.830078-2.125-2.266113-2.125h-1.826172zm20.801758-1.983886V198h-2.232911v-8.084961h-.066406l-3.253906 7.96875h-1.577148l-3.253907-7.96875h-.066406V198h-2.23291v-11.978027h2.905273l3.403321 8.491699h.066406l3.40332-8.491699h2.905274zm9.927734 9.902832V198h-7.935547v-11.978027h7.935547v2.066894h-5.428711v2.888672h5.121582v1.925781h-5.121582v3.021485h5.428711zM159.66333 198h-2.398926v-11.978027h2.091797l5.594727 7.802734h.066406v-7.802734h2.398926V198h-2.075196l-5.603027-7.844238h-.074707V198zm15.157227 0h-2.506836v-9.911133h-3.50293v-2.066894h9.520996v2.066894h-3.51123V198zm13.845703.20752c-3.486328 0-5.669434-2.33252-5.669434-6.200684 0-3.859863 2.199707-6.192383 5.669434-6.192383 2.880371 0 5.071777 1.826172 5.262695 4.507324h-2.44043c-.232421-1.469238-1.361328-2.432129-2.822265-2.432129-1.892578 0-3.112793 1.58545-3.112793 4.108887 0 2.556641 1.203613 4.133789 3.121094 4.133789 1.485839 0 2.55664-.871582 2.822265-2.291015h2.44043c-.282227 2.672851-2.33252 4.366211-5.270996 4.366211zm12.21875-12.393067c3.544433 0 5.777344 2.382324 5.777344 6.200684 0 3.810058-2.232911 6.192383-5.777344 6.192383-3.552735 0-5.777344-2.382325-5.777344-6.192383 0-3.81836 2.224609-6.200684 5.777344-6.200684zm0 2.091797c-1.958985 0-3.220703 1.59375-3.220703 4.108887 0 2.506836 1.253418 4.092285 3.220703 4.092285 1.958984 0 3.212402-1.585449 3.212402-4.092285 0-2.515137-1.253418-4.108887-3.212402-4.108887zm20.071289-1.884277V198h-2.23291v-8.084961h-.066407l-3.253906 7.96875h-1.577148l-3.253907-7.96875h-.066406V198h-2.23291v-11.978027h2.905274l3.40332 8.491699h.066406l3.40332-8.491699h2.905274zm1.992187 0h4.997071c2.457031 0 4.15039 1.635254 4.15039 4.100586 0 2.457031-1.751465 4.100586-4.274902 4.100586h-2.365723V198h-2.506836v-11.978027zm2.506836 1.983886v4.258301h1.817871c1.436036 0 2.274414-.763672 2.274414-2.133301 0-1.361328-.830078-2.125-2.266113-2.125h-1.826172zM241.417725 198l-.913086-2.905273h-4.208496L235.383057 198h-2.573243l4.158692-11.978027h2.946777L244.082275 198h-2.66455zm-3.046387-9.687012l-1.535645 4.905762h3.129395l-1.535645-4.905762h-.058105zM247.701416 198h-2.398926v-11.978027h2.091797l5.594727 7.802734h.066406v-7.802734h2.398926V198h-2.075196l-5.603027-7.844238h-.074707V198zm15.655273 0h-2.506835v-4.474121l-4.166993-7.503906h2.730957l2.681153 5.113281h.058105l2.689453-5.113281h2.689453l-4.175293 7.503906V198z" fill="#FFF"/></g></svg>