<svg xmlns="http://www.w3.org/2000/svg" width="149.797" height="150.001" viewBox="0 0 149.797 150.001">
  <g id="MERN_Stack" data-name="MERN Stack" transform="translate(-127.003 -216.964)">
    <path id="Path_12395" data-name="Path 12395" d="M259.188,440.859c1.836-.766,3.449-1.4,4.987-2.116a1.184,1.184,0,0,0,.491-.977c.052-1.471.023-2.944.023-4.492h16.5c0,1.414.039,2.874-.018,4.331-.027.682.113,1.186,1.1,1.375a2.386,2.386,0,0,1,.912.353c2.432,1.777,4.773,1.413,7.154-.085a17.27,17.27,0,0,1,2.31-1l8.232,10.84c-1.712.755-3.357,1.518-5.051,2.213-.815.335-1.171.708-.979,1.445a3.287,3.287,0,0,1,.046,1.818c-.528,1.6.511,2.365,2.252,2.96,1.241.424,2.379,1.023,3.726,1.616l-8.24,10.869c-1.775-.781-3.411-1.569-5.138-2.218a4.118,4.118,0,0,0-1.945.036c-.472.088-.835.5-1.308.6-2.856.615-3.459,2.131-3.076,4.144a13.1,13.1,0,0,1,.023,2.386h-16.5c0-1.437-.045-2.9.019-4.359.031-.7-.218-1.072-1.109-1.383-1.445-.5-2.784-1.183-4.224-1.813-3.283,4.995-9.739,5.783-15.93,6.642a100.266,100.266,0,0,1-34.211-.895,37.637,37.637,0,0,1-6.89-2.27c-2.523-1.06-3.712-2.753-3.7-5.068q.121-17.9-.009-35.806c-.023-2.607,1.481-4.284,4.244-5.518a41.636,41.636,0,0,1,12.005-2.97,104.667,104.667,0,0,1,32.389.732,45.809,45.809,0,0,1,8.358,2.607c2.482.995,3.668,2.715,3.588,4.976C259.094,433.443,259.188,437.058,259.188,440.859Zm-6.668,6.688c1.337.59,2.491,1.148,3.706,1.618.84.325,1.185.7.894,1.432a9.423,9.423,0,0,0,.008,7.081c.258.668-.027,1.03-.806,1.341-1.255.5-2.458,1.075-3.79,1.666l2.749,3.578,4.889-2.1a20.946,20.946,0,0,0,9.409,4.311c.287.056.561.6.581.919.071,1.116.028,2.236.028,3.361h5.5c0-1.176-.058-2.263.034-3.342a1.245,1.245,0,0,1,.72-.964,20.933,20.933,0,0,0,9.265-4.28l4.938,2.089,2.689-3.6c-1.409-.619-2.7-1.1-3.849-1.735-.413-.226-.792-.86-.677-1.211a10.128,10.128,0,0,0-.042-7.094c-.285-.721.013-1.113.871-1.442,1.257-.483,2.454-1.058,3.723-1.615l-2.74-3.592-4.938,2.1a20.574,20.574,0,0,0-9.3-4.3c-.322-.064-.632-.646-.659-1-.085-1.108-.031-2.221-.031-3.314h-5.5c0,1.146-.052,2.227.018,3.3.045.7-.285.99-1.173,1.161a18.241,18.241,0,0,0-8.05,3.569,1.552,1.552,0,0,1-1.908.14c-1.2-.581-2.46-1.085-3.8-1.667Zm-48.335-13.187v3.553c0,4.639-.027,4.763,6.017,6.014a95.543,95.543,0,0,0,35.357.45c2.529-.422,4.348-1.2,5.408-3.078a22.416,22.416,0,0,1,2.563-3.027.791.791,0,0,0,.148-.5c.012-1.154.007-2.309.007-3.394A101.729,101.729,0,0,1,204.184,434.359Zm.115,12.4a2.743,2.743,0,0,0-.1.423q-.011,2.349-.013,4.7c0,2.812.118,2.945,3.543,3.979.159.048.325.084.488.122a90.021,90.021,0,0,0,39.546.419c3.078-.656,3.064-.695,3.2-3.161a1.653,1.653,0,0,1,.047-.519c.284-.721-.136-1.11-.96-1.439-1.517-.605-2.954-1.328-4.484-1.912a5.391,5.391,0,0,0-2.145-.346c-3.927.256-7.839.767-11.769.852C222.351,450.078,213.156,449.515,204.3,446.761Zm-.115,12.63c0,2.168.055,4.3-.027,6.424a1.66,1.66,0,0,0,1.362,1.763,52.148,52.148,0,0,0,5.738,1.682,98.456,98.456,0,0,0,29.64.916,41.3,41.3,0,0,0,10.7-2.326c-1.565-2.07-3.027-4.09-4.633-6.04a2.491,2.491,0,0,0-1.77-.512C231.4,463.224,217.8,463.031,204.184,459.391Zm-.057-30.667,0,.573a36.676,36.676,0,0,0,3.732,1.464c8.5,2.36,17.342,2.651,26.259,2.286a62.719,62.719,0,0,0,16.424-2.463,36.722,36.722,0,0,0,3.4-1.466,14.665,14.665,0,0,0-5.986-2.432,92.379,92.379,0,0,0-24.673-1.712,64.133,64.133,0,0,0-15.281,2.228C206.66,427.6,205.418,428.211,204.128,428.724Z" transform="translate(-46.661 -108.128)" fill="#5F27CD"/>
    <path id="Path_12396" data-name="Path 12396" d="M156.26,250.306v4.2h4.026v4.135h-24.9v-4.068h4v-4.156H127V216.964h41.679v33.342Zm-25.1-12.592h33.3V221.138h-33.3Zm0,8.365h33.3v-4.025h-33.3Zm12.577,4.335v4.023h8.212v-4.023Z" transform="translate(0 0)" fill="#5F27CD"/>
    <path id="Path_12397" data-name="Path 12397" d="M408.584,258.709H366.913V217.042h41.671Zm-4.152-24.947h-33.3v20.757h33.3Zm0-12.55h-33.3v8.21h33.3Z" transform="translate(-131.784 -0.051)" fill="#5F27CD"/>
    <path id="Path_12398" data-name="Path 12398" d="M295.865,258.715H270.928V217.049h24.937Zm-4.148-37.494H275.146v24.933h16.571Zm-16.569,29.233v4.066h7.041a5.989,5.989,0,0,1-.8-2.059,5.815,5.815,0,0,1,.837-2.007Zm16.566-.046H284.6a6.56,6.56,0,0,1,.819,2.181,5.469,5.469,0,0,1-.868,1.935h7.159Z" transform="translate(-81.508 -0.055)" fill="#5F27CD"/>
    <path id="Path_12399" data-name="Path 12399" d="M239.781,361.357v8.323h-5.315v-8.208H181.009v-12.54h5.2v8.2h48.172v-8.207h5.314v8.22h48.172v-8.186h5.3v12.4Z" transform="translate(-35.178 -75.182)" fill="#5F27CD"/>
    <path id="Path_12413" data-name="Path 12413" d="M353.452,501.115a8.363,8.363,0,1,1-8.365-8.4A8.383,8.383,0,0,1,353.452,501.115Zm-8.308-4.207a4.176,4.176,0,1,0,4.123,4.2A4.2,4.2,0,0,0,345.144,496.908Z" transform="translate(-120.12 -155.099)" fill="#5F27CD"/>
    <path id="Path_12414" data-name="Path 12414" d="M386.912,234.783a2.081,2.081,0,1,1-2.185,1.975A2.107,2.107,0,0,1,386.912,234.783Z" transform="translate(-149.711 -11.605)" fill="#5F27CD"/>
    <path id="Path_12415" data-name="Path 12415" d="M422.8,238.927a2.083,2.083,0,1,1,2.1-2.06A2.106,2.106,0,0,1,422.8,238.927Z" transform="translate(-166.847 -11.592)" fill="#5F27CD"/>
    <path id="Path_12416" data-name="Path 12416" d="M404.734,238.968a2.108,2.108,0,0,1-1.993-2.16,2.082,2.082,0,0,1,4.161.165A2.123,2.123,0,0,1,404.734,238.968Z" transform="translate(-160.177 -11.63)" fill="#5F27CD"/>
  </g>
</svg>
