<svg xmlns="http://www.w3.org/2000/svg" width="150" height="149.996" viewBox="0 0 150 149.996">
  <g id="Mobile_app_development" data-name="Mobile app development" transform="translate(-172 -163.998)">
    <g id="Group_8584" data-name="Group 8584" transform="translate(172 163.998)">
      <path id="Path_12289" data-name="Path 12289" d="M264.6,331.593c-1.122-1.752-2.046-3.25-3.029-4.709a3.114,3.114,0,0,1-.121-3.368c.945-2.016,1.8-4.079,2.569-6.169a3.109,3.109,0,0,1,2.467-2.293c1.729-.333,3.438-.765,5.2-1.163V309.6c-1.571-.345-3.166-.747-4.781-1.036a3.507,3.507,0,0,1-2.989-2.75,29.77,29.77,0,0,0-2.255-5.453,3.489,3.489,0,0,1,.184-4.181,23.489,23.489,0,0,0,2.072-3.3,1.7,1.7,0,0,0-.163-1.526c-2.15-2.476-2.176-2.453-4.92-.7-.525.337-1.077.641-1.57,1.02-1.379,1.059-2.672.939-4.183.117a27.556,27.556,0,0,0-5.307-2.2,3.539,3.539,0,0,1-2.846-3.081c-.257-1.577-.659-3.131-1-4.712h-2.079V296.51a37.421,37.421,0,0,1,5.122,1.23,14.373,14.373,0,0,1,9.628,12.215,14.229,14.229,0,0,1-5.816,13.688,4.061,4.061,0,0,1-2.823.751,2.509,2.509,0,0,1-1.6-1.8,3.36,3.36,0,0,1,1.043-2.514,11.066,11.066,0,0,0,4.2-6.722,9.917,9.917,0,0,0-9.857-11.51v1.834q0,24.763,0,49.527c0,8.347-5.193,13.536-13.544,13.537q-26.481,0-52.964,0c-8.243,0-13.485-5.223-13.487-13.437q-.006-22.264,0-44.527c0-.616,0-1.23,0-2.034-1.393,0-2.677.006-3.961,0a2.5,2.5,0,0,1-2.687-2.112c-.333-1.471-.644-2.946-.968-4.419-.045-.2-.106-.4-.156-.6-.342-1.386-5.279-3.391-6.5-2.628-1.411.885-2.811,1.785-4.215,2.681a2.556,2.556,0,0,1-3.523-.4q-2.758-2.766-5.525-5.522a2.541,2.541,0,0,1-.372-3.523c.171-.261.335-.527.5-.793.9-1.459,2.373-2.86,2.525-4.394.144-1.458-1.053-3.073-1.753-4.575a1.883,1.883,0,0,0-1.086-.9c-1.654-.45-3.335-.8-5.012-1.164a2.609,2.609,0,0,1-2.27-2.883c.016-2.5-.011-5,.009-7.5.014-1.764.611-2.5,2.384-2.933,1.464-.358,2.944-.651,4.412-.995,1.807-.422,3.811-5.287,2.822-6.833q-1.262-1.973-2.535-3.938a2.556,2.556,0,0,1,.38-3.526c1.835-1.848,3.678-3.687,5.506-5.541a2.6,2.6,0,0,1,3.652-.348c1.392.913,2.774,1.851,4.225,2.661a2.588,2.588,0,0,0,1.66.112c.594-.128,1.112-.645,1.7-.74,2.48-.4,3.35-2.012,3.551-4.3a15.487,15.487,0,0,1,.667-3.044,2.445,2.445,0,0,1,2.887-1.778,2.4,2.4,0,0,1,1.893,2.813c-.485,2.659-1.01,5.319-1.731,7.921a3.408,3.408,0,0,1-1.782,1.731,62.766,62.766,0,0,1-6.745,2.8,4.4,4.4,0,0,1-2.9-.122c-1.368-.59-2.536-1.627-3.861-2.339a1.789,1.789,0,0,0-1.538.1,26.937,26.937,0,0,0-2.548,2.136c1.1,1.72,1.977,3.181,2.944,4.58a3.26,3.26,0,0,1,.186,3.64,58.552,58.552,0,0,0-2.5,6.027,3.212,3.212,0,0,1-2.583,2.377c-1.684.324-3.348.748-5.083,1.143v4.251c1.8.417,3.561.855,5.335,1.227A2.927,2.927,0,0,1,139.4,277.2q1.234,3.272,2.695,6.456a2.958,2.958,0,0,1-.107,3.093c-.821,1.266-1.691,2.507-2.4,3.834a1.686,1.686,0,0,0,.13,1.527c2.15,2.506,2.176,2.484,4.916.732a9.3,9.3,0,0,0,1.045-.682c1.713-1.452,3.351-1.367,5.264-.2a20.828,20.828,0,0,0,4.9,1.968,3.356,3.356,0,0,1,2.675,2.866c.279,1.631.688,3.239,1.047,4.888h2.066v-14.8c-1.232-.225-2.523-.352-3.748-.7-5.753-1.653-9.458-5.436-10.746-11.241-1.321-5.959.621-10.974,5.269-14.925a5.3,5.3,0,0,1,1.426-.941,2.343,2.343,0,0,1,2.938.748,2.293,2.293,0,0,1-.112,3.137,10.918,10.918,0,0,1-1.308,1.107,10,10,0,0,0,5.365,17.627c.295.031.6,0,1.029,0,0-.708,0-1.324,0-1.94q0-24.763,0-49.526c0-8.254,5.212-13.485,13.434-13.487q26.56-.005,53.12,0c8.225,0,13.439,5.231,13.441,13.481q.006,22.264,0,44.527v1.989c1.326,0,2.51-.012,3.693,0,1.854.022,2.625.628,3.054,2.453.369,1.569.675,3.153,1.037,4.724.292,1.264,5.3,3.339,6.392,2.654q2.118-1.324,4.209-2.691a2.611,2.611,0,0,1,3.654.365q2.7,2.713,5.417,5.409a2.611,2.611,0,0,1,.43,3.647c-.851,1.309-1.686,2.628-2.528,3.943a6.973,6.973,0,0,0-.409.664c-.422.861,1.873,5.816,2.806,6.037,1.62.384,3.249.722,4.864,1.121,1.76.435,2.36,1.178,2.374,2.944.021,2.5,0,5,.009,7.5a2.609,2.609,0,0,1-2.282,2.873c-1.627.348-3.26.688-4.854,1.154a2.582,2.582,0,0,0-1.272,1.075c-.356.556-.376,1.339-.76,1.864-1.412,1.929-.8,3.48.461,5.259,3.083,4.368,3.014,4.259-.771,7.987-1.15,1.133-2.261,2.306-3.419,3.431-1.281,1.246-2.226,1.328-3.769.394-.267-.162-.523-.341-.786-.51-4.234-2.723-4.241-2.737-8.845-.669a1.856,1.856,0,0,0-.879,1.1c-.423,1.608-.708,3.251-1.094,4.869-.408,1.716-1.554,2.6-2.946,2.353-1.491-.267-2.271-1.542-1.92-3.346.466-2.4.9-4.815,1.6-7.149a3.832,3.832,0,0,1,1.888-1.993c2.134-1.053,4.4-1.831,6.569-2.823a2.962,2.962,0,0,1,3.093.115c1.267.82,2.508,1.691,3.836,2.4a1.771,1.771,0,0,0,1.526-.161A27.349,27.349,0,0,0,264.6,331.593Zm-97.854-39.911q0,30.775,0,61.548c0,5.533,2.959,8.512,8.456,8.513q26.478,0,52.956,0c5.64,0,8.583-2.929,8.583-8.544q0-61.469,0-122.939c0-5.545-2.946-8.509-8.458-8.509q-26.477,0-52.955,0c-5.652,0-8.582,2.915-8.582,8.542Q166.743,260.986,166.745,291.682Z" transform="translate(-126.743 -216.748)" fill="#1AAC84"/>
      <path id="Path_12290" data-name="Path 12290" d="M426.8,267.03a2.134,2.134,0,1,1,4.264-.011,2.366,2.366,0,0,1-2.2,2.253A2.026,2.026,0,0,1,426.8,267.03Z" transform="translate(-317.845 -227.946)" fill="#1AAC84"/>
      <path id="Path_12291" data-name="Path 12291" d="M428.919,288.791a2.151,2.151,0,0,1,2.144,2.089,2.366,2.366,0,0,1-2.186,2.394,2.013,2.013,0,0,1-2.079-2.1A2.174,2.174,0,0,1,428.919,288.791Z" transform="translate(-317.846 -258.622)" fill="#1AAC84"/>
      <path id="Path_12292" data-name="Path 12292" d="M428.992,312.792a2.152,2.152,0,0,1,2.07,2.163,2.354,2.354,0,0,1-2.26,2.321,2.029,2.029,0,0,1-2-2.306A2.152,2.152,0,0,1,428.992,312.792Z" transform="translate(-317.845 -272.572)" fill="#1AAC84"/>
      <path id="Path_12293" data-name="Path 12293" d="M174.763,469.891a2.136,2.136,0,1,1,4.266-.075,2.279,2.279,0,0,1-2.295,2.248A1.96,1.96,0,0,1,174.763,469.891Z" transform="translate(-137.999 -362.566)" fill="#1AAC84"/>
      <path id="Path_12294" data-name="Path 12294" d="M174.762,493.865a2.134,2.134,0,1,1,4.264-.009,2.274,2.274,0,0,1-2.326,2.213A1.963,1.963,0,0,1,174.762,493.865Z" transform="translate(-137.998 -376.523)" fill="#1AAC84"/>
      <path id="Path_12295" data-name="Path 12295" d="M174.763,517.9a2.136,2.136,0,1,1,4.266-.075,2.28,2.28,0,0,1-2.295,2.248A1.96,1.96,0,0,1,174.763,517.9Z" transform="translate(-137.999 -407.416)" fill="#1AAC84"/>
      <path id="Path_12297" data-name="Path 12297" d="M251.872,377.463c2.145,2.143,4.186,4.179,6.223,6.219a9.011,9.011,0,0,1,1,1.072,1.975,1.975,0,0,1-.2,2.78,1.935,1.935,0,0,1-2.777.154A27.368,27.368,0,0,1,254,385.65c-2.112-2.107-4.227-4.21-6.325-6.331-1.308-1.323-1.311-2.357,0-3.678q3.95-3.983,7.933-7.933c1.131-1.122,2.358-1.212,3.292-.3s.87,2.169-.242,3.293C256.442,372.941,254.2,375.15,251.872,377.463Z" transform="translate(-195.92 -302.477)" fill="#1AAC84"/>
      <path id="Path_12298" data-name="Path 12298" d="M338.445,377.357c-2.177-2.149-4.236-4.181-6.292-6.215a10.029,10.029,0,0,1-.833-.865,2.085,2.085,0,0,1,.094-2.9,2,2,0,0,1,2.89-.079q4.408,4.28,8.7,8.682a1.985,1.985,0,0,1-.065,2.995q-4.207,4.294-8.5,8.5a2.065,2.065,0,0,1-3,.038,2.092,2.092,0,0,1,.049-3.1c1.953-2.013,3.959-3.976,5.94-5.963C337.725,378.142,338.015,377.815,338.445,377.357Z" transform="translate(-244.404 -302.435)" fill="#1AAC84"/>
      <path id="Path_12299" data-name="Path 12299" d="M303.454,369.19c-.3,1.179-.656,2.6-1.011,4.018-1.068,4.266-2.127,8.533-3.2,12.8-.413,1.635-1.432,2.409-2.685,2.1-1.3-.326-1.844-1.461-1.444-3.076q2.036-8.212,4.094-16.419a2.14,2.14,0,0,1,2.414-1.807A2.249,2.249,0,0,1,303.454,369.19Z" transform="translate(-224.18 -302.47)" fill="#1AAC84"/>
      <path id="Path_12300" data-name="Path 12300" d="M291.284,245.022c-2,0-4.01.016-6.015-.005-1.54-.016-2.507-.9-2.467-2.2a2.173,2.173,0,0,1,2.459-2.069q6.081-.025,12.163,0c1.545.006,2.509.894,2.468,2.195a2.182,2.182,0,0,1-2.46,2.072C295.383,245.037,293.333,245.022,291.284,245.022Z" transform="translate(-216.347 -232.186)" fill="#1AAC84"/>
    </g>
  </g>
</svg>
