<svg id="MVP_Development" data-name="MVP Development" xmlns="http://www.w3.org/2000/svg" width="130.688" height="150" viewBox="0 0 130.688 150">
  <path id="Path_12459" data-name="Path 12459" d="M165.043,356.376c-1.759,0-3.256.024-4.751,0-3.653-.072-5.806-2.222-5.81-5.838q-.018-16.652,0-33.3c0-3.521,2.2-5.714,5.719-5.756,1.544-.019,3.09,0,4.84,0v-2.183q0-41.67,0-83.34c0-3.4.6-3.984,4.04-3.984q36.522,0,73.043-.03a4.913,4.913,0,0,1,3.792,1.6q13.587,13.488,27.306,26.841a4.445,4.445,0,0,1,1.4,3.543q-.066,28.155-.026,56.31c0,.361.067.722.117,1.239,1.612,0,3.154-.014,4.7,0,3.516.039,5.735,2.233,5.74,5.737q.022,16.732,0,33.465a5.351,5.351,0,0,1-5.472,5.686c-1.6.067-3.206.012-5,.012-.032.68-.079,1.243-.08,1.805-.007,3.539.011,7.079-.01,10.618-.013,2.231-.9,3.131-3.119,3.131q-51.644.01-103.288,0c-2.226,0-3.119-.893-3.13-3.118C165.03,364.746,165.043,360.681,165.043,356.376Zm104.316-45V255.457h-1.8q-11.584,0-23.166,0c-3.074,0-3.736-.674-3.737-3.8q0-11.342,0-22.684v-1.735H170.273v84.143Zm10.552,39.755v-34.4H159.725v34.4Zm-109.652,15.55h99.084V356.521H170.259Zm76.108-135.847-.445.337v18.983h18.8Z" transform="translate(-154.474 -221.932)" fill="#fff"/>
  <path id="Path_12464" data-name="Path 12464" d="M355.77,345.166c-2.071-2.17-4.026-4.218-5.979-6.269a8.751,8.751,0,0,1-.862-.955,1.98,1.98,0,0,1,.138-2.7,1.876,1.876,0,0,1,2.773-.108q4.243,4.318,8.362,8.758a1.846,1.846,0,0,1-.094,2.688q-4.012,4.274-8.1,8.478a1.964,1.964,0,0,1-2.881.1,2.036,2.036,0,0,1,0-2.989C351.287,349.849,353.489,347.563,355.77,345.166Z" transform="translate(-263.044 -284.198)" fill="#fff"/>
  <path id="Path_12465" data-name="Path 12465" d="M234.414,345.233c1.981,2.077,3.877,4.064,5.771,6.052.3.311.6.615.878.942a2.078,2.078,0,0,1,.043,2.9,1.99,1.99,0,0,1-2.978-.054q-4.049-4.149-8.013-8.38a1.966,1.966,0,0,1,.018-2.991q3.921-4.182,7.918-8.292a1.987,1.987,0,0,1,2.977-.206,2.09,2.09,0,0,1-.062,3.09c-1.812,1.951-3.667,3.861-5.5,5.791C235.141,344.426,234.831,344.777,234.414,345.233Z" transform="translate(-196.429 -284.232)" fill="#fff"/>
  <path id="Path_12466" data-name="Path 12466" d="M292.863,354.087a2.076,2.076,0,0,1-2.2-2.883c1.247-3.7,2.544-7.385,3.82-11.076,1.038-3,2.066-6.006,3.118-9,.513-1.462,1.54-2.091,2.693-1.706,1.246.415,1.716,1.555,1.2,3.058-2.282,6.613-4.588,13.217-6.864,19.833C294.269,353.344,293.7,354.04,292.863,354.087Z" transform="translate(-230.76 -280.869)" fill="#fff"/>
  <path id="Path_12467" data-name="Path 12467" d="M237.444,464.375c1.5-2.506,2.948-4.881,4.36-7.276.593-1,1.31-1.733,2.585-1.405s1.548,1.308,1.544,2.485c-.016,4.725,0,9.451-.01,14.176,0,1.674-.724,2.56-2.028,2.567s-2.074-.9-2.089-2.539a58.243,58.243,0,0,0-.289-6.737c-.7,1.147-1.379,2.3-2.09,3.438-1.19,1.906-2.83,1.911-4.015.013-.7-1.128-1.382-2.273-2.074-3.408-.019-.032-.073-.043-.344-.19v1.247c0,1.976.017,3.953-.009,5.928a2.059,2.059,0,1,1-4.1.035c-.032-4.94-.02-9.88-.008-14.82a2.093,2.093,0,0,1,3.963-1.1q1.927,3.2,3.846,6.4C236.9,463.555,237.138,463.9,237.444,464.375Z" transform="translate(-195.714 -351.551)" fill="#fff"/>
  <path id="Path_12468" data-name="Path 12468" d="M348.969,465.961c0,1.811.026,3.478-.01,5.143a1.991,1.991,0,0,1-1.553,2.106,1.858,1.858,0,0,1-2.223-.877,2.862,2.862,0,0,1-.322-1.345q-.051-7.414-.043-14.829a2.115,2.115,0,0,1,2.374-2.266c1.676.013,3.353.022,5.029.052a6.016,6.016,0,1,1-.071,12.015C351.164,465.969,350.178,465.961,348.969,465.961Zm.072-4.15c1.255,0,2.451.072,3.634-.022a1.724,1.724,0,0,0,1.681-1.8,1.684,1.684,0,0,0-1.606-1.85c-1.22-.1-2.456-.024-3.709-.024Z" transform="translate(-260.716 -350.577)" fill="#fff"/>
  <path id="Path_12469" data-name="Path 12469" d="M294.3,467.824c1.567-3.483,2.987-6.644,4.413-9.8a10.441,10.441,0,0,1,.735-1.5,1.9,1.9,0,0,1,2.476-.774,1.869,1.869,0,0,1,1.218,2.17,4.615,4.615,0,0,1-.4,1.213c-2.089,4.658-4.2,9.308-6.276,13.971-.426.953-.914,1.765-2.1,1.792-1.253.03-1.783-.8-2.228-1.8-2.129-4.781-4.291-9.548-6.419-14.331a2.091,2.091,0,0,1,.842-2.98c1.126-.537,2.255-.032,2.906,1.3q.225.463.436.933C291.318,461.184,292.739,464.349,294.3,467.824Z" transform="translate(-226.974 -351.523)" fill="#fff"/>
</svg>
