<?xml version="1.0" encoding="UTF-8"?>
<svg xmlns="http://www.w3.org/2000/svg" width="28" height="28" viewBox="0 0 28 28" fill="none">
  <rect width="28" height="28" rx="3.2768" fill="white"></rect>
  <path d="M17.8242 13.0872C17.6676 13.1916 17.4327 13.27 17.1456 13.27C16.7018 13.27 16.2842 13.2177 15.8666 13.0872C15.7622 13.0611 15.6839 13.035 15.6317 13.035C15.5534 13.035 15.5273 13.0872 15.5273 13.1916V13.4527C15.5273 13.531 15.5534 13.5832 15.5795 13.6354C15.6056 13.6615 15.6578 13.7137 15.7361 13.7398C16.1537 13.9225 16.6235 14.0008 17.1456 14.0008C17.6937 14.0008 18.1113 13.8703 18.4506 13.6093C18.7899 13.3483 18.9465 13.0089 18.9465 12.5652C18.9465 12.252 18.8682 12.0171 18.7116 11.8083C18.555 11.6256 18.294 11.4429 17.9286 11.3124L17.1978 11.0253C16.9107 10.9209 16.7018 10.8165 16.6235 10.7121C16.5191 10.6077 16.4669 10.5033 16.4669 10.3206C16.4669 9.92913 16.7541 9.72033 17.3544 9.72033C17.6937 9.72033 18.033 9.77253 18.3462 9.87693C18.4506 9.90303 18.5289 9.92913 18.555 9.92913C18.6333 9.92913 18.6855 9.87693 18.6855 9.77253V9.51153C18.6855 9.43323 18.6594 9.38103 18.6333 9.32883C18.6072 9.27663 18.555 9.25053 18.4767 9.22443C18.0852 9.09393 17.6937 9.01562 17.3022 9.01562C16.8063 9.01562 16.3886 9.14613 16.0754 9.38103C15.7622 9.61593 15.6056 9.95523 15.6056 10.3467C15.6056 10.947 15.9449 11.3907 16.6235 11.6517L17.4066 11.9388C17.6676 12.0432 17.8242 12.1215 17.9286 12.2259C18.033 12.3303 18.0591 12.4347 18.0591 12.5913C18.0591 12.8001 17.9808 12.9828 17.8242 13.0872Z" fill="#454444"></path>
  <path d="M13.7275 9.32919V12.8005C13.2838 13.0876 12.8401 13.2442 12.3964 13.2442C12.1093 13.2442 11.9005 13.1659 11.77 13.0093C11.6395 12.8527 11.5873 12.6178 11.5873 12.2785V9.32919C11.5873 9.19868 11.5351 9.14648 11.4046 9.14648H10.8565C10.726 9.14648 10.6738 9.19868 10.6738 9.32919V12.5656C10.6738 13.0093 10.7782 13.3747 11.0131 13.6096C11.248 13.8445 11.5873 13.975 12.031 13.975C12.6313 13.975 13.2316 13.7662 13.8058 13.3486L13.858 13.6618C13.858 13.7401 13.8841 13.7662 13.9363 13.7923C13.9624 13.8184 14.0146 13.8184 14.0929 13.8184H14.4845C14.615 13.8184 14.6672 13.7662 14.6672 13.6357V9.32919C14.6672 9.19868 14.615 9.14648 14.4845 9.14648H13.9363C13.7797 9.14648 13.7275 9.22479 13.7275 9.32919Z" fill="#454444"></path>
  <path d="M8.76777 13.8442H9.31587C9.44637 13.8442 9.49857 13.792 9.49857 13.6615V10.3989C9.49857 9.95523 9.39417 9.61593 9.15927 9.38103C8.92437 9.14613 8.61117 9.01562 8.16746 9.01562C7.56716 9.01562 6.94076 9.22443 6.34045 9.66813C6.13165 9.22443 5.74015 9.01562 5.16595 9.01562C4.59174 9.01562 4.01754 9.22443 3.44334 9.61593L3.39114 9.32883C3.39114 9.25053 3.36504 9.22443 3.31284 9.19833C3.28674 9.17223 3.23454 9.17223 3.18233 9.17223H2.76473C2.63423 9.17223 2.58203 9.22443 2.58203 9.35493V13.6876C2.58203 13.8181 2.63423 13.8703 2.76473 13.8703H3.31284C3.44334 13.8703 3.49554 13.8181 3.49554 13.6876V10.164C3.93924 9.90303 4.38294 9.74643 4.85274 9.74643C5.11375 9.74643 5.29645 9.82473 5.40085 9.98133C5.50525 10.1379 5.58355 10.3467 5.58355 10.6599V13.6615C5.58355 13.792 5.63575 13.8442 5.76625 13.8442H6.31435C6.44485 13.8442 6.49705 13.792 6.49705 13.6615V10.4511V10.2945C6.49705 10.2423 6.49705 10.1901 6.49705 10.164C6.96686 9.87693 7.41056 9.74643 7.85426 9.74643C8.11526 9.74643 8.29797 9.82473 8.40237 9.98133C8.50677 10.1379 8.58507 10.3467 8.58507 10.6599V13.6615C8.58507 13.792 8.63727 13.8442 8.76777 13.8442Z" fill="#454444"></path>
  <path d="M22.993 17.3148C20.1481 18.5154 17.0422 19.1157 14.2233 19.1157C10.0473 19.1157 6.0018 17.9673 2.73928 16.062C2.68708 16.0359 2.63488 16.0098 2.58268 16.0098C2.39998 16.0098 2.29558 16.2186 2.47828 16.4013C5.5059 19.1418 9.52532 20.7861 13.9623 20.7861C17.1466 20.7861 20.8267 19.7943 23.3584 17.9151C23.8021 17.6019 23.4367 17.1321 22.993 17.3148Z" fill="#454444"></path>
  <path d="M22.9144 10.1894C23.1493 9.92842 23.5147 9.79792 24.0367 9.79792C24.2977 9.79792 24.5587 9.82402 24.7936 9.90232C24.8719 9.92842 24.898 9.92842 24.9502 9.92842C25.0285 9.92842 25.0807 9.87622 25.0807 9.74572V9.48472C25.0807 9.40642 25.0546 9.32812 25.0285 9.30202C25.0024 9.27592 24.9502 9.22372 24.898 9.19762C24.5587 9.11932 24.2194 9.04102 23.9062 9.04102C23.1754 9.04102 22.6273 9.24982 22.2097 9.69352C21.8182 10.1111 21.6094 10.7375 21.6094 11.5205C21.6094 12.3035 21.7921 12.9038 22.1836 13.3214C22.5751 13.739 23.1232 13.9478 23.854 13.9478C24.2455 13.9478 24.6109 13.8956 24.898 13.7651C24.9763 13.739 25.0285 13.7129 25.0546 13.6607C25.0807 13.6346 25.0807 13.5563 25.0807 13.478V13.217C25.0807 13.0865 25.0285 13.0343 24.9502 13.0343C24.9241 13.0343 24.8719 13.0343 24.8197 13.0604C24.5326 13.1387 24.2455 13.1909 23.9845 13.1909C23.4886 13.1909 23.1232 13.0604 22.8883 12.7994C22.6534 12.5384 22.549 12.1208 22.549 11.5727V11.4422C22.5751 10.868 22.6795 10.4504 22.9144 10.1894Z" fill="#454444"></path>
  <path d="M24.0886 19.7685C25.4458 18.6201 25.8112 16.245 25.5241 15.8796C25.3936 15.723 24.7672 15.5664 23.9842 15.5664C23.149 15.5664 22.1572 15.7491 21.4003 16.2711C21.1654 16.4277 21.2176 16.6365 21.4525 16.6104C22.2616 16.506 24.0886 16.2972 24.4279 16.7148C24.7411 17.1324 24.0625 18.855 23.7493 19.6119C23.671 19.8468 23.8537 19.9251 24.0886 19.7685Z" fill="#454444"></path>
  <path d="M20.4613 9.14648H19.9132C19.7827 9.14648 19.7305 9.19868 19.7305 9.32919V13.6618C19.7305 13.7923 19.7827 13.8445 19.9132 13.8445H20.4613C20.5918 13.8445 20.644 13.7923 20.644 13.6618V9.32919C20.644 9.22479 20.5918 9.14648 20.4613 9.14648Z" fill="#454444"></path>
  <path d="M20.6175 7.37144C20.5131 7.26704 20.3565 7.21484 20.1738 7.21484C19.9911 7.21484 19.8606 7.26704 19.7562 7.37144C19.6518 7.47585 19.5996 7.60635 19.5996 7.76295C19.5996 7.91955 19.6518 8.07615 19.7562 8.15445C19.8606 8.25885 19.9911 8.31105 20.1738 8.31105C20.3565 8.31105 20.487 8.25885 20.5914 8.15445C20.6958 8.05005 20.748 7.91955 20.748 7.76295C20.748 7.60635 20.7219 7.44975 20.6175 7.37144Z" fill="#454444"></path>
</svg>
