<?xml version="1.0" encoding="UTF-8"?>
<svg xmlns="http://www.w3.org/2000/svg" width="28" height="28" viewBox="0 0 28 28" fill="none">
  <rect width="28" height="28" rx="3.2768" fill="white"></rect>
  <path d="M16.465 17.0708C16.4265 16.7242 16.311 16.474 16.08 16.243C15.6468 15.7906 14.8864 15.4922 13.9913 15.4922C13.0961 15.4922 12.3357 15.781 11.9025 16.243C11.6812 16.4836 11.556 16.7242 11.5175 17.0708C11.4405 17.7445 11.4886 18.3221 11.5656 19.2557C11.6427 20.1413 11.787 21.3252 11.9699 22.5188C12.1047 23.3754 12.2106 23.8374 12.3068 24.1647C12.4704 24.7037 13.0576 25.1658 13.9913 25.1658C14.9249 25.1658 15.5217 24.6941 15.6757 24.1647C15.772 23.8374 15.8778 23.3754 16.0126 22.5188C16.1955 21.3156 16.3399 20.1413 16.4169 19.2557C16.5035 18.3221 16.542 17.7445 16.465 17.0708Z" fill="#454444"></path>
  <path d="M16.3588 12.1608C16.3588 13.4699 15.3 14.5287 13.9909 14.5287C12.6818 14.5287 11.623 13.4699 11.623 12.1608C11.623 10.8518 12.6818 9.79297 13.9909 9.79297C15.3 9.79297 16.3588 10.8614 16.3588 12.1608Z" fill="#454444"></path>
  <path d="M13.9628 2.834C8.43776 2.85325 3.9138 7.33871 3.8368 12.8637C3.77904 17.3395 6.6378 21.1705 10.6324 22.5758C10.7286 22.6143 10.8249 22.5277 10.8152 22.4314C10.7671 22.0849 10.7094 21.7384 10.6709 21.3919C10.6516 21.2667 10.5746 21.1705 10.4687 21.1127C7.31158 19.7363 5.10736 16.5695 5.14586 12.9022C5.19398 8.08949 9.12117 4.17194 13.9243 4.13343C18.8429 4.09493 22.8567 8.07987 22.8567 12.9888C22.8567 16.6176 20.6621 19.7363 17.5338 21.1127C17.4183 21.1608 17.3413 21.2667 17.3317 21.3919C17.2835 21.7384 17.2354 22.0849 17.1873 22.4314C17.168 22.5373 17.2739 22.6143 17.3702 22.5758C21.3262 21.1897 24.1657 17.4165 24.1657 12.9888C24.1465 7.38683 19.5744 2.82437 13.9628 2.834Z" fill="#454444"></path>
  <path d="M13.7315 6.20275C10.1316 6.33751 7.24396 9.31177 7.19583 12.9117C7.16695 15.2795 8.35088 17.3779 10.1701 18.6196C10.2567 18.6773 10.3819 18.6099 10.3819 18.5041C10.353 18.0902 10.353 17.7244 10.3722 17.3394C10.3819 17.2143 10.3337 17.0988 10.2375 17.0121C9.13054 15.9726 8.45676 14.4903 8.49526 12.8539C8.57227 9.9663 10.892 7.61769 13.7796 7.50219C16.9175 7.37706 19.4971 9.89892 19.4971 12.9983C19.4971 14.5769 18.8234 16.0015 17.7549 17.0121C17.6683 17.0988 17.6202 17.2143 17.6202 17.3394C17.6394 17.7148 17.6298 18.0805 17.6106 18.4944C17.6009 18.6003 17.7261 18.6773 17.8223 18.6099C19.6127 17.3875 20.7966 15.318 20.7966 12.9887C20.8062 9.15776 17.6009 6.04874 13.7315 6.20275Z" fill="#454444"></path>
</svg>
