<?xml version="1.0" encoding="UTF-8"?>
<svg width="246px" height="310px" viewBox="0 0 246 310" version="1.1" xmlns="http://www.w3.org/2000/svg" xmlns:xlink="http://www.w3.org/1999/xlink">
    <!-- Generator: Sketch 51.3 (57544) - http://www.bohemiancoding.com/sketch -->
    <title>Combined Shape</title>
    <desc>Created with Sketch.</desc>
    <defs></defs>
    <g id="Page-1" stroke="none" stroke-width="1" fill="none" fill-rule="evenodd">
        <g id="Group-Copy" transform="translate(-112.000000, -51.000000)" fill="#FFFFFF">
            <g id="Bot-Icon-Copy-2" transform="translate(112.000000, 51.000000)">
                <path d="M117,64 L117,44.1724507 C108.77017,40.6696683 103,32.5086818 103,23 C103,10.2974508 113.297451,2.52214802e-15 126,5.63337528e-15 C138.702549,8.74460253e-15 149,10.2974508 149,23 C149,32.5086818 143.22983,40.6696683 135,44.1724507 L135,64 L203,64 C226.748244,64 246,83.2517558 246,107 L246,267 C246,290.748244 226.748244,310 203,310 L43,310 C19.2517558,310 2.90832113e-15,290.748244 0,267 L0,107 C-2.90832113e-15,83.2517558 19.2517558,64 43,64 L117,64 Z M31.2623884,239.933961 C54.7678636,259.383925 86.7376675,268.986416 126.84652,268.986416 C167.343957,268.986416 196.804837,259.183125 214.687908,238.962309 L201.204456,227.037691 C187.265535,242.798763 162.659974,250.986416 126.84652,250.986416 C90.644483,250.986416 62.7166066,242.597963 42.7376116,226.066039 L31.2623884,239.933961 Z M65.5,116 C46.9984609,116 32,130.998461 32,149.5 C32,168.001539 46.9984609,183 65.5,183 L180.5,183 C199.001539,183 214,168.001539 214,149.5 C214,130.998461 199.001539,116 180.5,116 L65.5,116 Z M65.5,134 L180.5,134 C189.060414,134 196,140.939586 196,149.5 C196,158.060414 189.060414,165 180.5,165 L65.5,165 C56.9395864,165 50,158.060414 50,149.5 C50,140.939586 56.9395864,134 65.5,134 Z" id="Combined-Shape"></path>
            </g>
        </g>
    </g>
</svg>