<svg width="54" height="54" viewBox="0 0 54 54" fill="none" xmlns="http://www.w3.org/2000/svg">
<path d="M19.9561 7.46795C6.76593 7.28243 6.76593 31.6308 19.9561 31.4364C33.1463 31.622 33.1463 7.27359 19.9561 7.46795Z" fill="#0063C1"/>
<path d="M32.8022 53.4084C37.6171 53.5409 40.1173 48.5582 39.2691 44.3882C38.6861 37.4265 29.1888 35.2355 19.8593 35.262C10.5299 35.2355 1.0238 37.4353 0.449548 44.3882C-0.372077 48.5317 2.1193 53.4437 6.8812 53.3377L32.8022 53.4084Z" fill="#0063C1"/>
<path d="M49.897 29.5813H32.2188C29.4447 29.5813 26.5734 31.8253 25.7959 34.5994L21.944 48.355C21.1666 51.1291 22.7833 53.3731 25.5574 53.3731H43.2356C46.0097 53.3731 48.881 51.1291 49.6584 48.355L53.5103 34.5994C54.2878 31.8253 52.6711 29.5813 49.897 29.5813Z" fill="#9CC3E5"/>
</svg>
