<?xml version="1.0" encoding="UTF-8"?>
<svg xmlns="http://www.w3.org/2000/svg" width="236" height="58" viewBox="0 0 236 58" fill="none">
  <path d="M1.18715 12.4543V2.37073H5.44945C6.52694 2.37073 7.36128 2.62818 7.95247 3.14309C8.54366 3.64846 8.83926 4.35884 8.83926 5.27424C8.83926 5.87496 8.70576 6.38987 8.43877 6.81896C8.17178 7.24805 7.79514 7.57702 7.30884 7.80587C6.82253 8.02518 6.25041 8.13484 5.59248 8.13484L5.82132 7.90599H6.2075C6.59845 7.90599 6.94649 8.00611 7.25162 8.20635C7.56629 8.40659 7.82374 8.72603 8.02399 9.16465L9.46859 12.4543H7.83805L6.40775 9.15035C6.26472 8.7594 6.04064 8.50672 5.73551 8.39229C5.43991 8.27787 5.0728 8.22066 4.63417 8.22066H2.67466V12.4543H1.18715ZM2.67466 7.09072H5.20629C5.92144 7.09072 6.46019 6.93815 6.82253 6.63302C7.19441 6.32789 7.38035 5.88927 7.38035 5.31715C7.38035 4.73549 7.19441 4.29686 6.82253 4.00127C6.46019 3.70567 5.92144 3.55788 5.20629 3.55788H2.67466V7.09072ZM11.1601 12.4543V2.37073H17.7681V3.55788H12.6047V6.73314H17.4392V7.9346H12.6047V11.2529H17.7681V12.4543H11.1601ZM22.759 12.4543L18.3251 2.37073H19.927L23.703 11.21H23.1881L26.9784 2.37073H28.5088L24.0606 12.4543H22.759ZM29.6675 12.4543V2.37073H31.155V12.4543H29.6675ZM33.5226 12.4543V2.37073H40.1305V3.55788H34.9672V6.73314H39.8016V7.9346H34.9672V11.2529H40.1305V12.4543H33.5226ZM44.678 12.4543L41.1452 2.37073H42.6899L45.622 11.0813H45.0928L48.1965 2.37073H49.3265L52.2443 11.0813H51.758L54.7902 2.37073H56.2491L52.6877 12.4543H51.4147L48.5827 4.1586H48.8831L45.9367 12.4543H44.678ZM57.8684 12.4543V2.37073H64.4764V3.55788H59.313V6.73314H64.1474V7.9346H59.313V11.2529H64.4764V12.4543H57.8684ZM66.3189 12.4543V2.37073H69.8088C70.9435 2.37073 71.9018 2.5662 72.6837 2.95715C73.4752 3.3481 74.0711 3.92022 74.4716 4.67351C74.8816 5.41727 75.0866 6.32789 75.0866 7.40538C75.0866 8.47334 74.8816 9.38397 74.4716 10.1373C74.0711 10.8906 73.4752 11.4674 72.6837 11.8679C71.9018 12.2589 70.9435 12.4543 69.8088 12.4543H66.3189ZM67.8064 11.21H69.723C71.0198 11.21 71.9829 10.8953 72.6122 10.266C73.2511 9.63665 73.5705 8.68312 73.5705 7.40538C73.5705 6.12765 73.2511 5.17888 72.6122 4.55909C71.9829 3.92975 71.0198 3.61509 69.723 3.61509H67.8064V11.21ZM80.572 7.40538C80.572 6.34696 80.7579 5.43157 81.1298 4.65921C81.5017 3.88684 82.0404 3.29089 82.746 2.87133C83.4612 2.45178 84.3098 2.242 85.292 2.242C86.2646 2.242 87.1037 2.45178 87.8093 2.87133C88.5149 3.29089 89.0584 3.88684 89.4398 4.65921C89.8308 5.43157 90.0263 6.34219 90.0263 7.39108C90.0263 8.4495 89.8308 9.36966 89.4398 10.1516C89.0584 10.9239 88.5101 11.5247 87.795 11.9537C87.0894 12.3733 86.255 12.5831 85.292 12.5831C84.3098 12.5831 83.4659 12.3733 82.7603 11.9537C82.0547 11.5247 81.5112 10.9239 81.1298 10.1516C80.7579 9.36966 80.572 8.45427 80.572 7.40538ZM82.131 7.40538C82.131 8.62591 82.398 9.57944 82.932 10.266C83.4659 10.9525 84.2526 11.2958 85.292 11.2958C86.3027 11.2958 87.0846 10.9573 87.6377 10.2803C88.1907 9.59374 88.4672 8.63544 88.4672 7.40538C88.4672 6.17533 88.1907 5.22179 87.6377 4.54478C87.0941 3.86777 86.3122 3.52927 85.292 3.52927C84.2526 3.52927 83.4659 3.86777 82.932 4.54478C82.398 5.22179 82.131 6.17533 82.131 7.40538ZM92.0615 12.4543V2.37073H93.2058L99.399 10.4948H99.0414V2.37073H100.429V12.4543H99.2988L93.1199 4.33024H93.4489V12.4543H92.0615Z" fill="#808080"></path>
  <g clip-path="url(#clip0_3867_10176)">
    <path d="M30.5195 24.3152H35.8591V57.212H30.5195V24.3152ZM54.5476 46.7179C54.5476 51.7525 50.2532 52.1538 48.9757 52.1538C45.784 52.1538 45.2033 49.2089 45.2033 47.4325V34.8422H39.8638V47.4061C39.8638 50.5248 40.8569 53.0986 42.5976 54.8145C44.1354 56.3317 46.4394 57.1607 48.9357 57.1607C50.7058 57.1607 53.2127 56.6173 54.5476 55.4159V57.212H59.8871V34.8422H54.5476V46.7179ZM70.5663 26.9469H65.2267V34.8422H61.222V40.1057H65.2267V57.212H70.5663V40.1057H74.5709V34.8422H70.5663V26.9469ZM91.3866 50.5235C90.2239 51.5538 88.6887 52.1249 87.0041 52.1249C83.2904 52.1249 80.5633 49.4365 80.5633 45.7455C80.5633 42.0545 83.2037 39.4793 87.0041 39.4793C88.6594 39.4793 90.2239 40.0228 91.4159 41.0531L92.2262 41.74L95.8264 38.1924L94.9253 37.391C92.8069 35.5054 89.9943 34.4474 87.0028 34.4474C80.3283 34.4474 75.4813 39.1951 75.4813 45.7179C75.4813 52.213 80.4445 57.1305 87.0028 57.1305C90.0503 57.1305 92.8923 56.0725 94.9841 54.1566L95.8544 53.3552L92.1982 49.8102L91.3866 50.5235ZM114.885 36.7923C113.347 35.2764 111.545 34.4474 109.048 34.4474C107.278 34.4474 105.273 34.9909 103.939 36.1909V24.3152H98.599V57.212H103.939V44.8889C103.939 39.8543 107.567 39.4543 108.844 39.4543C112.036 39.4543 111.948 42.4006 111.948 44.1744V57.212H117.287V44.202C117.287 41.0834 116.627 38.5095 114.885 36.7923Z" fill="#2F3241"></path>
    <path d="M86.8273 41.998C87.8512 41.998 88.8331 42.399 89.5571 43.1127C90.2811 43.8263 90.6878 44.7943 90.6878 45.8036C90.6878 46.8128 90.2811 47.7808 89.5571 48.4945C88.8331 49.2081 87.8512 49.6091 86.8273 49.6091C85.8034 49.6091 84.8215 49.2081 84.0975 48.4945C83.3735 47.7808 82.9668 46.8128 82.9668 45.8036C82.9668 44.7943 83.3735 43.8263 84.0975 43.1127C84.8215 42.399 85.8034 41.998 86.8273 41.998Z" fill="#FF3D2E"></path>
    <path d="M23.0416 48.9499C21.0112 51.0093 18.2533 52.1251 15.3512 52.1251C9.40297 52.1251 5.07793 47.5196 5.07793 41.1981C5.07793 34.8477 9.40297 30.2422 15.3512 30.2422C18.2253 30.2422 20.9524 31.3567 23.0135 33.3884L23.8251 34.1898L27.3946 30.6711L26.6111 29.8698C23.6516 26.8656 19.6469 25.2366 15.3512 25.2366C6.58769 25.2366 0 32.1015 0 41.2258C0 50.3224 6.61705 57.1597 15.3512 57.1597C19.6763 57.1597 23.681 55.5017 26.6404 52.4975L27.424 51.6962L23.8839 48.1209L23.0416 48.9499Z" fill="#2F3241"></path>
  </g>
  <path d="M141.444 2.29526C141.852 1.399 143.125 1.399 143.532 2.29526L145.269 6.11088C145.436 6.47794 145.783 6.73037 146.184 6.77578L150.349 7.24784C151.327 7.35872 151.721 8.56953 150.995 9.23433L147.902 12.0646C147.605 12.3368 147.472 12.7453 147.553 13.1404L148.391 17.2477C148.588 18.2125 147.558 18.9609 146.701 18.4755L143.054 16.409C142.703 16.2102 142.273 16.2102 141.922 16.409L138.275 18.4755C137.418 18.9609 136.388 18.2125 136.585 17.2477L137.424 13.1404C137.504 12.7453 137.371 12.3368 137.074 12.0646L133.982 9.23433C133.255 8.56953 133.649 7.35872 134.627 7.24784L138.792 6.77578C139.193 6.73037 139.541 6.47794 139.708 6.11088L141.444 2.29526Z" fill="#FF3D2E"></path>
  <path d="M162.096 2.29551C162.504 1.39925 163.777 1.39925 164.185 2.29551L165.921 6.11113C166.088 6.47818 166.435 6.73061 166.836 6.77602L171.001 7.24808C171.98 7.35897 172.373 8.56977 171.647 9.23457L168.554 12.0648C168.257 12.3371 168.124 12.7455 168.205 13.1406L169.043 17.248C169.24 18.2128 168.21 18.9611 167.353 18.4757L163.706 16.4093C163.355 16.2105 162.926 16.2105 162.575 16.4093L158.927 18.4757C158.071 18.9611 157.041 18.2128 157.238 17.248L158.076 13.1406C158.157 12.7455 158.024 12.3371 157.726 12.0648L154.634 9.23457C153.908 8.56977 154.301 7.35897 155.279 7.24808L159.445 6.77602C159.845 6.73061 160.193 6.47818 160.36 6.11113L162.096 2.29551Z" fill="#FF3D2E"></path>
  <path d="M182.748 2.29526C183.156 1.399 184.429 1.399 184.837 2.29526L186.573 6.11088C186.74 6.47794 187.088 6.73037 187.488 6.77578L191.654 7.24784C192.632 7.35872 193.026 8.56953 192.299 9.23433L189.207 12.0646C188.909 12.3368 188.777 12.7453 188.857 13.1404L189.695 17.2477C189.892 18.2125 188.862 18.9609 188.006 18.4755L184.358 16.409C184.007 16.2102 183.578 16.2102 183.227 16.409L179.58 18.4755C178.723 18.9609 177.693 18.2125 177.89 17.2477L178.728 13.1404C178.809 12.7453 178.676 12.3368 178.379 12.0646L175.286 9.23433C174.56 8.56953 174.953 7.35872 175.932 7.24784L180.097 6.77578C180.498 6.73037 180.845 6.47794 181.012 6.11088L182.748 2.29526Z" fill="#FF3D2E"></path>
  <path d="M203.401 2.29526C203.809 1.399 205.082 1.399 205.489 2.29526L207.226 6.11088C207.393 6.47794 207.74 6.73037 208.141 6.77578L212.306 7.24784C213.285 7.35872 213.678 8.56953 212.952 9.23433L209.859 12.0646C209.562 12.3368 209.429 12.7453 209.51 13.1404L210.348 17.2477C210.545 18.2125 209.515 18.9609 208.658 18.4755L205.011 16.409C204.66 16.2102 204.23 16.2102 203.879 16.409L200.232 18.4755C199.375 18.9609 198.345 18.2125 198.542 17.2477L199.381 13.1404C199.461 12.7453 199.328 12.3368 199.031 12.0646L195.939 9.23433C195.212 8.56953 195.606 7.35872 196.584 7.24784L200.749 6.77578C201.15 6.73037 201.498 6.47794 201.665 6.11088L203.401 2.29526Z" fill="#FF3D2E"></path>
  <path d="M224.055 2.29526C224.463 1.399 225.736 1.399 226.144 2.29526L227.88 6.11088C228.047 6.47794 228.394 6.73037 228.795 6.77578L232.96 7.24784C233.939 7.35872 234.332 8.56953 233.606 9.23433L230.513 12.0646C230.216 12.3368 230.083 12.7453 230.164 13.1404L231.002 17.2477C231.199 18.2125 230.169 18.9609 229.312 18.4755L225.665 16.409C225.314 16.2102 224.885 16.2102 224.534 16.409L220.886 18.4755C220.03 18.9609 219 18.2125 219.197 17.2477L220.035 13.1404C220.115 12.7453 219.983 12.3368 219.685 12.0646L216.593 9.23433C215.867 8.56953 216.26 7.35872 217.238 7.24784L221.404 6.77578C221.804 6.73037 222.152 6.47794 222.319 6.11088L224.055 2.29526Z" fill="#FF3D2E"></path>
  <path d="M133.047 57.1033V55.919L137.269 51.4908C137.818 50.9301 138.224 50.3923 138.488 49.8774C138.762 49.3625 138.9 48.8304 138.9 48.2812C138.9 47.6061 138.688 47.0969 138.265 46.7536C137.853 46.3989 137.246 46.2215 136.445 46.2215C135.827 46.2215 135.244 46.336 134.695 46.5648C134.157 46.7822 133.642 47.1198 133.15 47.5775L132.583 46.3589C133.053 45.9012 133.642 45.535 134.351 45.2604C135.072 44.9858 135.827 44.8485 136.617 44.8485C137.853 44.8485 138.808 45.1345 139.483 45.7066C140.158 46.2673 140.496 47.074 140.496 48.1267C140.496 48.8933 140.307 49.6257 139.929 50.3236C139.563 51.0102 139.02 51.7196 138.299 52.4519L134.609 56.1936V55.7473H140.994V57.1033H133.047ZM148.384 57.1033V54.5459H142.703V53.3959L148.642 45.0029H149.946V53.2758H151.766V54.5459H149.946V57.1033H148.384ZM148.384 53.2758V46.8909H148.779L143.99 53.6534V53.2758H148.384ZM158.172 57.1033V45.0029H163.184C164.477 45.0029 165.473 45.3062 166.171 45.9126C166.88 46.519 167.235 47.3658 167.235 48.4528C167.235 49.1737 167.075 49.7859 166.754 50.2893C166.434 50.7928 165.982 51.1761 165.398 51.4393C164.826 51.7025 164.157 51.834 163.39 51.834L163.682 51.5938H164.094C164.563 51.5938 164.981 51.7139 165.347 51.9542C165.713 52.183 166.016 52.5606 166.256 53.087L167.973 57.1033H166.205L164.54 53.1213C164.346 52.6293 164.06 52.3089 163.682 52.1602C163.316 52.0114 162.852 51.937 162.292 51.937H159.769V57.1033H158.172ZM159.769 50.7012H162.944C163.825 50.7012 164.494 50.5124 164.952 50.1348C165.421 49.7572 165.656 49.208 165.656 48.4871C165.656 47.7777 165.421 47.2399 164.952 46.8738C164.494 46.4962 163.825 46.3074 162.944 46.3074H159.769V50.7012ZM170.107 57.1033V45.0029H177.933V46.3074H171.651V50.3065H177.538V51.6109H171.651V55.7988H177.933V57.1033H170.107ZM183.957 57.1033L178.654 45.0029H180.387L185.004 55.7817H184.421L189.055 45.0029H190.72L185.382 57.1033H183.957ZM192.198 57.1033V45.0029H193.794V57.1033H192.198ZM196.724 57.1033V45.0029H204.55V46.3074H198.268V50.3065H204.155V51.6109H198.268V55.7988H204.55V57.1033H196.724ZM210.059 57.1033L205.82 45.0029H207.502L211.089 55.6787H210.471L214.282 45.0029H215.535L219.105 55.6787H218.555L222.263 45.0029H223.842L219.568 57.1033H218.178L214.694 46.8909H215.054L211.432 57.1033H210.059ZM229.669 57.2577C228.697 57.2577 227.822 57.1319 227.043 56.8801C226.265 56.6284 225.59 56.2737 225.018 55.816L225.567 54.5459C225.968 54.8434 226.374 55.0951 226.786 55.3011C227.198 55.4956 227.638 55.6444 228.108 55.7473C228.588 55.8389 229.109 55.8847 229.669 55.8847C230.665 55.8847 231.397 55.7073 231.866 55.3526C232.347 54.9864 232.587 54.5058 232.587 53.9108C232.587 53.3959 232.421 53.0012 232.09 52.7266C231.758 52.4519 231.18 52.2345 230.356 52.0743L228.519 51.6967C227.41 51.4679 226.58 51.096 226.031 50.5811C225.493 50.0547 225.224 49.3453 225.224 48.4528C225.224 47.7319 225.413 47.1026 225.79 46.5648C226.18 46.0156 226.712 45.5922 227.387 45.2947C228.073 44.9972 228.874 44.8485 229.79 44.8485C230.636 44.8485 231.42 44.9743 232.141 45.2261C232.862 45.4778 233.468 45.8497 233.96 46.3417L233.411 47.5603C232.896 47.0912 232.341 46.7536 231.746 46.5477C231.163 46.3302 230.499 46.2215 229.755 46.2215C228.851 46.2215 228.136 46.4161 227.61 46.8051C227.083 47.1941 226.82 47.7205 226.82 48.3842C226.82 48.9105 226.986 49.3282 227.318 49.6371C227.65 49.9346 228.199 50.1635 228.966 50.3236L230.802 50.6841C231.969 50.9129 232.822 51.2734 233.36 51.7654C233.909 52.2574 234.183 52.9382 234.183 53.8079C234.183 54.4944 234 55.1009 233.634 55.6272C233.268 56.1421 232.747 56.5426 232.072 56.8287C231.397 57.1147 230.596 57.2577 229.669 57.2577Z" fill="#808080"></path>
  <defs>
    <clipPath id="clip0_3867_10176">
      <rect width="117.285" height="32.8969" fill="white" transform="translate(0 24.3152)"></rect>
    </clipPath>
  </defs>
</svg>
