<svg width="54" height="54" viewBox="0 0 54 54" fill="none" xmlns="http://www.w3.org/2000/svg">
<path d="M47.0115 4.97852H22.6174C19.5681 4.97852 16.9989 7.02321 16.1899 9.81466C17.3012 9.83244 18.4213 9.93023 19.5326 10.1436C20.5194 10.3303 21.2928 11.077 21.515 12.0549L22.0573 14.4463C23.3286 14.9797 24.5376 15.682 25.64 16.5177L28.0047 15.7976C28.2447 15.7265 28.4937 15.6909 28.7426 15.6909C29.4627 15.6909 30.1561 16.0021 30.6362 16.5533C32.2363 18.3935 33.4454 20.5093 34.2455 22.8207C34.5655 23.763 34.3077 24.8032 33.5787 25.4788L31.7741 27.1501C31.863 27.8346 31.9074 28.5192 31.9074 29.1948C31.9074 29.8704 31.863 30.5639 31.7741 31.2484L33.5876 32.9375C34.3166 33.6131 34.5744 34.6533 34.2544 35.5867C33.4543 37.907 32.2452 40.0139 30.645 41.8541C30.165 42.4142 29.4627 42.7165 28.7515 42.7165C28.5025 42.7165 28.2625 42.6809 28.0136 42.6098L25.6311 41.8808C24.5376 42.7165 23.3375 43.4099 22.0662 43.9433L21.5239 46.3347C21.3017 47.3126 20.5194 48.0593 19.5415 48.246C18.4302 48.4505 17.3101 48.5572 16.1988 48.575C16.9989 51.3664 19.5681 53.4111 22.6263 53.4111H47.0204C50.7186 53.4111 53.7056 50.4152 53.7056 46.7258V11.6638C53.6967 7.97444 50.7008 4.97852 47.0115 4.97852Z" fill="#9CC3E5"/>
<path d="M24.8574 38.8937L28.4579 39.996C29.7914 38.4492 30.8404 36.6445 31.5249 34.6709L28.7779 32.1106C28.9913 31.1772 29.098 30.2082 29.098 29.2125C29.098 28.2168 28.9824 27.2478 28.7779 26.3144L31.5249 23.7718C30.8493 21.7983 29.8003 19.9847 28.4579 18.4467L24.8663 19.5491C23.4439 18.2245 21.7193 17.2199 19.8168 16.6243L18.9901 12.9705C18.0033 12.7838 16.972 12.686 15.923 12.686C14.874 12.686 13.825 12.7927 12.8382 12.9705L12.0114 16.6243C10.109 17.211 8.38431 18.2245 6.96192 19.5491L3.37036 18.4467C2.03686 19.9936 0.987847 21.7983 0.303319 23.7718L3.05033 26.3055C2.83697 27.2389 2.72139 28.2168 2.72139 29.2125C2.72139 30.2082 2.83697 31.1861 3.05033 32.1284L0.294434 34.6798C0.970072 36.6534 2.01909 38.467 3.36147 40.0049L6.96192 38.9026C8.38431 40.2183 10.1001 41.2229 11.9936 41.8096L12.8204 45.4634C13.8072 45.6501 14.8562 45.7479 15.9052 45.7479C16.9542 45.7479 17.9855 45.6412 18.9723 45.4634L19.799 41.8096C21.6926 41.2229 23.4084 40.2183 24.8308 38.9026L24.8574 38.8937ZM15.923 35.0443C12.696 35.0443 10.0823 32.4307 10.0823 29.2036C10.0823 25.9766 12.696 23.3629 15.923 23.3629C19.1501 23.3629 21.7637 25.9766 21.7637 29.2036C21.7637 32.4307 19.1501 35.0443 15.923 35.0443Z" fill="#0063C1"/>
<path d="M46.8517 12.2681H41.6777C40.282 12.2681 39.144 13.3971 39.144 14.8017C39.144 16.2063 40.2731 17.3354 41.6777 17.3354H46.8517C48.2474 17.3354 49.3853 16.2063 49.3853 14.8017C49.3853 13.3971 48.2563 12.2681 46.8517 12.2681Z" fill="#0063C1"/>
<path d="M46.8517 21.4694H41.6777C40.282 21.4694 39.144 22.5984 39.144 24.003C39.144 25.4076 40.2731 26.5366 41.6777 26.5366H46.8517C48.2474 26.5366 49.3853 25.4076 49.3853 24.003C49.3853 22.5984 48.2563 21.4694 46.8517 21.4694Z" fill="#0063C1"/>
</svg>
