<svg width="54" height="54" viewBox="0 0 54 54" fill="none" xmlns="http://www.w3.org/2000/svg">
<path d="M27.0054 53.411C39.392 53.411 49.4332 43.3697 49.4332 30.9832C49.4332 18.5967 39.392 8.55542 27.0054 8.55542C14.6189 8.55542 4.57764 18.5967 4.57764 30.9832C4.57764 43.3697 14.6189 53.411 27.0054 53.411Z" fill="#0063C1"/>
<path d="M17.2906 31.5423C14.2353 31.0508 12.6065 28.275 10.5054 26.0101C9.00187 24.3909 7.46942 23.456 6.00443 23.0897C5.07918 25.5474 4.56836 28.2075 4.56836 30.9833C4.56836 38.6648 8.43322 45.4501 14.3317 49.4884C15.3341 47.7439 16.1437 45.8934 19.0255 45.0549C25.9167 43.0309 26.2926 32.9784 17.281 31.5423H17.2906Z" fill="#3E83CC"/>
<path d="M40.8749 13.3644C40.0364 14.3475 39.5353 15.6293 39.5353 17.0172C39.5353 17.7883 39.9786 20.0243 38.7931 22.4049C35.4969 29.0166 42.764 36.1681 49.3661 32.5731C49.4046 32.043 49.4239 31.5225 49.4239 30.9828C49.4239 23.8313 46.0795 17.4702 40.8653 13.3644H40.8749Z" fill="#3E83CC"/>
<path d="M45.5587 14.2611C45.5587 18.7235 40.0264 26.6171 36.5278 31.1566C35.1207 32.9879 32.3642 32.9879 30.9474 31.1566C27.4488 26.6171 21.9165 18.7235 21.9165 14.2611C21.9165 7.73613 27.2078 2.44482 33.7328 2.44482C40.2578 2.44482 45.5491 7.73613 45.5491 14.2611H45.5587Z" fill="#9CC3E5"/>
<path d="M33.7422 19.581C36.8881 19.581 39.4383 17.0308 39.4383 13.8849C39.4383 10.7391 36.8881 8.18884 33.7422 8.18884C30.5964 8.18884 28.0461 10.7391 28.0461 13.8849C28.0461 17.0308 30.5964 19.581 33.7422 19.581Z" fill="#F8F8F8"/>
<path d="M18.1385 19.186C19.0155 15.6778 13.6953 14.3959 12.1147 18.9162C10.534 23.4461 16.1627 27.6579 18.0325 25.2869C19.2854 23.7063 17.4927 21.7787 18.1385 19.1764V19.186Z" fill="#3E83CC"/>
</svg>
