<?xml version="1.0" encoding="UTF-8"?>
<svg xmlns="http://www.w3.org/2000/svg" width="237" height="58" viewBox="0 0 237 58" fill="none">
  <path d="M135.511 12.718L135.348 14.6568H134.556C133.293 14.6568 132.635 15.6706 132.635 16.6425V21.0233H130.393V12.718H132.514L132.561 13.754C133.007 13.0436 133.787 12.718 134.746 12.718H135.506H135.511Z" fill="#231F20"></path>
  <path d="M119.972 21.0217H117.73V16.6311C117.73 15.711 117.651 14.5541 116.359 14.5541C115.066 14.5541 114.617 15.4545 114.617 16.5003V21.0217H112.375V12.7165H114.454L114.501 13.7771C114.948 13.0667 115.777 12.5117 117.002 12.5117C119.262 12.5117 119.975 14.1274 119.975 15.8047V21.0193L119.972 21.0217Z" fill="#231F20"></path>
  <path d="M111.391 19.0819L111.235 20.9714C110.697 21.1144 110.219 21.1662 109.642 21.1662C107.528 21.1662 106.916 20.1968 106.916 18.2482V10.3721H109.158V12.7154H111.391L111.235 14.6542H109.158V18.0804C109.158 18.8624 109.373 19.2842 110.175 19.2842C110.522 19.2842 110.912 19.2422 111.391 19.0819Z" fill="#231F20"></path>
  <path d="M106.18 12.718L106.005 14.6568H105.395C104.132 14.6568 103.506 15.6682 103.506 16.6425V21.0233H101.264V12.718H103.387L103.432 13.754C103.881 13.0436 104.66 12.718 105.622 12.718H106.18Z" fill="#231F20"></path>
  <path d="M91.1389 20.1026C89.6169 20.9166 88.0974 21.3877 86.0896 21.3285C82.3673 21.2151 79.6836 18.9063 79.6836 15.0015C79.6836 11.0968 82.3945 8.63256 86.092 8.57336C87.9667 8.54623 89.6441 9.01983 90.9539 10.1767L89.3752 11.7751C88.5636 11.0844 87.3698 10.6799 85.944 10.744C83.618 10.8526 82.2144 12.5447 82.1848 14.8683C82.1552 17.3868 83.6994 19.1233 86.1142 19.1875C87.2514 19.2146 88.0654 19.0641 88.7684 18.7484V16.1732H86.2598L86.43 14.0617H91.1413V20.1051L91.1389 20.1026Z" fill="#231F20"></path>
  <path d="M129.393 17.6574H123.241C123.417 18.7181 124.25 19.357 125.291 19.3866C126.3 19.4137 126.865 19.1078 127.605 18.3604L129.068 19.4754C128.029 20.758 126.781 21.2243 125.358 21.2243C122.857 21.2243 120.984 19.4754 120.984 16.8681C120.984 14.2608 122.849 12.512 125.267 12.512C127.931 12.512 129.396 14.1276 129.396 16.9914V17.6574H129.393ZM127.146 15.9209C127.077 14.8726 126.29 14.209 125.207 14.251C124.117 14.2929 123.392 15.0008 123.241 15.9209H127.146Z" fill="#231F20"></path>
  <path d="M99.8473 15.5839V21.0229H97.869L97.8197 20.204C97.2129 20.9563 96.2287 21.2252 95.2148 21.2252C93.688 21.2252 92.245 20.4729 92.2154 18.7191C92.1685 15.9613 95.3184 15.7665 97.2943 15.7665H97.6889V15.6579C97.6889 14.7453 97.0871 14.2544 95.9499 14.2544C95.1359 14.2544 94.3293 14.58 93.7348 15.1399L92.4398 13.8252C93.614 12.873 94.8374 12.5154 96.1399 12.5154C98.7126 12.5154 99.8473 13.7043 99.8473 15.5864V15.5839ZM97.6889 17.3994H97.3781C96.315 17.4019 94.4502 17.4537 94.4576 18.5637C94.4674 20.1275 97.6889 19.6317 97.6889 17.7447V17.3994Z" fill="#231F20"></path>
  <path d="M79.2422 33.5914H81.5461V35.4883H81.6003C82.3601 33.9442 84.1484 33.2683 86.0724 33.2683C90.3817 33.2683 92.5228 36.6822 92.5228 40.6363C92.5228 44.5903 90.4088 47.9253 86.1267 47.9253C84.6911 47.9253 82.6314 47.3826 81.6003 45.7299H81.5461V52.9647H79.2422V33.5914ZM85.7444 35.2984C82.6561 35.2984 81.4647 37.9525 81.4647 40.582C81.4647 43.3471 82.7103 45.8927 85.8825 45.8927C89.0546 45.8927 90.0832 43.209 90.0832 40.4735C90.0832 37.7379 88.729 35.2984 85.7468 35.2984H85.7444Z" fill="#5A3A95"></path>
  <path d="M107.173 43.1548C106.549 46.2455 104.329 47.9253 101.184 47.9253C96.712 47.9253 94.6005 44.8346 94.4648 40.5549C94.4648 36.3541 97.2275 33.2659 101.048 33.2659C106.006 33.2659 107.523 37.8983 107.39 41.285H96.9044C96.823 43.7221 98.2068 45.8903 101.268 45.8903C103.165 45.8903 104.492 44.9702 104.899 43.1523H107.176L107.173 43.1548ZM104.951 39.255C104.842 37.0596 103.189 35.2984 100.913 35.2984C98.5003 35.2984 97.0647 37.1139 96.9019 39.255H104.951Z" fill="#5A3A95"></path>
  <path d="M122.806 43.1545C122.182 46.2453 119.962 47.9251 116.817 47.9251C112.345 47.9251 110.233 44.8343 110.098 40.5546C110.098 36.3539 112.863 33.2656 116.681 33.2656C121.639 33.2656 123.156 37.898 123.021 41.2848H112.535C112.453 43.7218 113.835 45.8901 116.898 45.8901C118.795 45.8901 120.122 44.97 120.529 43.1521H122.804L122.806 43.1545ZM120.586 39.2547C120.477 37.0594 118.825 35.2982 116.548 35.2982C114.136 35.2982 112.702 37.1136 112.54 39.2547H120.588H120.586Z" fill="#5A3A95"></path>
  <path d="M126.408 33.5917H128.576V36.5443H128.631C129.741 34.2947 131.285 33.1847 133.779 33.2661V35.7032C130.066 35.7032 128.712 37.8171 128.712 41.3667V47.6H126.408V33.5917Z" fill="#5A3A95"></path>
  <path d="M138.248 31.0432V28.2534H139.277V31.0432H138.248ZM138.248 47.5995V33.6727H139.277V47.5995H138.248Z" fill="#5A3A95"></path>
  <path d="M143.905 33.6723H144.936V36.652H144.99C145.693 34.5652 147.807 33.3467 149.975 33.3467C154.879 33.3467 154.933 37.2761 154.933 38.983V47.5991H153.902V38.7931C153.902 37.3575 153.739 34.2421 149.946 34.2421C146.83 34.2421 144.933 36.6545 144.933 40.0684V47.6016H143.902V33.6747L143.905 33.6723Z" fill="#5A3A95"></path>
  <path d="M159.397 42.9667C159.56 45.5419 161.484 47.0318 164.003 47.0318C165.818 47.0318 168.42 46.4891 168.42 44.0791C168.42 41.6692 166.038 41.3683 163.652 40.8823C161.24 40.3939 158.857 39.7723 158.857 36.9258C158.857 34.0793 161.541 33.3491 163.896 33.3491C166.849 33.3491 169.047 34.6219 169.047 37.7916H168.016C167.989 35.2707 166.227 34.2421 163.896 34.2421C162.002 34.2421 159.888 34.9475 159.888 36.9258C159.888 39.1483 162.271 39.501 164.521 39.9869C167.283 40.5025 169.451 41.1512 169.451 44.0791C169.451 47.0071 166.445 47.9272 164.005 47.9272C160.835 47.9272 158.45 46.2202 158.371 42.9691H159.4L159.397 42.9667Z" fill="#5A3A95"></path>
  <path d="M173.541 31.043V28.2532H174.572V31.043H173.541ZM173.541 47.5993V33.6725H174.572V47.5993H173.541Z" fill="#5A3A95"></path>
  <path d="M190.041 33.672V46.8687C190.041 47.9516 190.041 53.0995 184.027 52.9121C181.045 52.9121 178.743 51.8021 178.581 48.5756H179.612C179.829 51.0423 181.778 52.0167 184.054 52.0167C188.931 52.0167 189.012 48.033 189.012 47.1129V43.9161H188.958C187.981 45.9758 186.274 47.0858 183.919 47.0858C179.826 47.0858 177.902 44.0789 177.902 40.2038C177.902 36.3286 179.989 33.3489 183.919 33.3489C186.087 33.3489 188.198 34.486 188.958 36.5728H189.012V33.6745H190.041V33.672ZM178.933 40.2013C178.933 43.4795 180.64 46.1904 183.919 46.1904C187.197 46.1904 188.985 43.3463 188.985 40.2013C188.985 37.0563 187.332 34.2393 183.919 34.2393C180.505 34.2393 178.933 37.2462 178.933 40.2013Z" fill="#5A3A95"></path>
  <path d="M194.779 28.2537V36.6527H194.833C195.538 34.5659 197.652 33.3473 199.818 33.3473C204.722 33.3473 204.776 37.2768 204.776 38.9837V47.5998H203.747V38.7938C203.747 37.3582 203.585 34.2427 199.791 34.2427C196.675 34.2427 194.779 36.6552 194.779 40.069V47.6022H193.75V28.2561H194.779V28.2537Z" fill="#5A3A95"></path>
  <path d="M214.015 34.566H210.981V44.2946C210.981 46.5442 212.037 46.7612 213.988 46.707V47.6024C211.876 47.738 209.841 47.4396 209.95 44.297V34.5685H207.377V33.6731H209.95V29.3367H210.981V33.6731H214.015V34.5685V34.566Z" fill="#5A3A95"></path>
  <path d="M217.477 42.9664C217.64 45.5416 219.564 47.0315 222.083 47.0315C223.898 47.0315 226.5 46.4888 226.5 44.0789C226.5 41.669 224.118 41.368 221.732 40.8821C219.32 40.3937 216.937 39.7721 216.937 36.9256C216.937 34.079 219.621 33.3489 221.979 33.3489C224.932 33.3489 227.127 34.6217 227.127 37.7914H226.096C226.069 35.2704 224.308 34.2418 221.979 34.2418C220.082 34.2418 217.968 34.9473 217.968 36.9256C217.968 39.148 220.351 39.5008 222.601 39.9867C225.363 40.5022 227.531 41.151 227.531 44.0789C227.531 47.0068 224.525 47.9269 222.085 47.9269C218.915 47.9269 216.53 46.22 216.451 42.9689H217.48L217.477 42.9664Z" fill="#5A3A95"></path>
  <path d="M229.715 43.6802H232.831V43.9984H231.459V47.6096H231.084V43.9984H229.713V43.6802H229.715Z" fill="#231F20"></path>
  <path d="M233.184 43.6802H233.734L235.093 47.1261L236.448 43.6802H236.998V47.6096H236.623V44.213H236.61L235.268 47.6096H234.916L233.566 44.213H233.557V47.6096H233.182V43.6802H233.184Z" fill="#231F20"></path>
  <path d="M44.0421 34.7401L49.7722 31.8122L55.4332 34.8758L54.4194 28.5217L59.0814 24.0841L52.7248 23.0826L49.9448 17.2786L47.0292 23.016L40.6504 23.8646L45.2039 28.4107L44.0421 34.7401Z" fill="#F0C61C"></path>
  <path d="M24.2159 34.7401L29.946 31.8122L35.607 34.8758L34.5957 28.5217L39.2553 24.0841L32.8986 23.0826L30.1211 17.2786L27.2031 23.016L20.8242 23.8646L25.3777 28.4107L24.2159 34.7401Z" fill="#F0C61C"></path>
  <path d="M4.38973 34.7401L10.1223 31.8122L15.7809 34.8758L14.7695 28.5217L19.4291 24.0841L13.0725 23.0826L10.295 17.2786L7.37688 23.016L0.998047 23.8646L5.55154 28.4107L4.38973 34.7401Z" fill="#F0C61C"></path>
  <path d="M65.674 55.9195L49.8428 48.4183C45.9356 50.182 41.5499 51.1144 37.1222 51.1144C27.438 51.1144 18.6443 46.8347 13.5974 39.6665C13.2398 39.1609 13.3631 38.4603 13.8688 38.1027C14.3744 37.745 15.075 37.8659 15.4326 38.374C20.0577 44.9452 28.1657 48.8697 37.1222 48.8697C41.4043 48.8697 45.6396 47.9348 49.3668 46.1662L49.8478 45.9368L61.4017 51.4104L56.9864 40.6433L57.4402 40.1229C60.6962 36.376 62.4155 31.9237 62.4155 27.2468C62.4155 15.3254 51.0688 5.62646 37.1197 5.62646C28.511 5.62646 20.5707 9.32153 15.8766 15.5104C15.5017 16.0013 14.7987 16.1 14.3054 15.725C13.812 15.3501 13.7158 14.6471 14.0908 14.1537C19.2067 7.41233 27.8154 3.38672 37.1197 3.38672C52.3046 3.38672 64.6577 14.0921 64.6577 27.2518C64.6577 32.2567 62.9039 37.0173 59.5813 41.0651L65.6715 55.9195H65.674Z" fill="#5A3A95"></path>
</svg>
