<svg width="108" height="39" viewBox="0 0 108 39" fill="none" xmlns="http://www.w3.org/2000/svg">
<path d="M95.4512 38.5582H12.5489C10.8668 38.5582 9.54517 37.2366 9.54517 35.5545V16.0905C9.54517 14.4084 10.8668 13.0868 12.5489 13.0868H95.4512C97.1333 13.0868 98.4549 14.4084 98.4549 16.0905V35.6747C98.3348 37.2366 97.0131 38.5582 95.4512 38.5582ZM12.5489 14.2883C11.5877 14.2883 10.7466 15.1293 10.7466 16.0905V35.6747C10.8668 36.6359 11.5877 37.3568 12.5489 37.3568H95.4512C96.4124 37.3568 97.2534 36.5157 97.2534 35.5545V16.0905C97.2534 15.1293 96.4124 14.2883 95.4512 14.2883H12.5489Z" fill="#B7B7B7"/>
<path d="M23.242 18.8542C26.3659 18.8542 27.9278 20.5363 27.9278 20.5363L26.486 22.8191C26.486 22.8191 25.2845 21.7378 23.4823 21.7378C20.9592 21.7378 19.8778 23.4199 19.8778 25.2221C19.8778 27.5049 21.4398 28.9467 23.3621 28.9467C24.8039 28.9467 25.8853 28.1057 25.8853 28.1057V27.1445H24.2032V24.6214H28.6487V31.3497H26.1256V30.9892C26.1256 30.7489 26.1256 30.5086 26.1256 30.5086C26.1256 30.5086 24.9241 31.59 22.8815 31.59C19.7577 31.59 16.8741 29.187 16.8741 25.2221C16.754 21.6177 19.5174 18.8542 23.242 18.8542Z" fill="#B7B7B7"/>
<path d="M30.8113 19.0944H35.1366C38.9814 19.0944 41.5045 21.3772 41.5045 25.2219C41.5045 29.0667 38.9814 31.3495 35.1366 31.3495H30.8113V19.0944ZM35.1366 28.7062C37.1791 28.7062 38.5008 27.5047 38.5008 25.1018C38.5008 22.819 37.1791 21.6175 35.1366 21.6175H33.9351V28.7062H35.1366Z" fill="#B7B7B7"/>
<path d="M43.6675 19.0944H48.7137C51.1167 19.0944 52.6786 20.8966 52.6786 23.2996C52.6786 25.8227 51.1167 27.5047 48.7137 27.5047H46.6712V31.3495H43.6675V19.0944ZM48.113 24.9816C49.1943 24.9816 49.6749 24.2607 49.6749 23.2996C49.6749 22.3384 49.1943 21.6175 48.113 21.6175H46.551V24.9816H48.113Z" fill="#B7B7B7"/>
<path d="M54.6008 19.0944H58.9262C60.1277 19.0944 60.7284 19.2145 61.3291 19.3347C62.7709 19.8152 63.612 21.1369 63.612 22.9391C63.612 24.2607 63.0112 25.7025 61.8097 26.3033C61.8097 26.3033 61.9299 26.5436 62.2903 27.0241L64.6933 31.3495H61.3291L59.1665 27.2644H57.7247V31.3495H54.6008V19.0944ZM58.806 24.6212C59.7672 24.6212 60.3679 24.1406 60.3679 23.0593C60.3679 22.0981 60.0075 21.6175 58.5657 21.6175H57.6045V24.6212H58.806Z" fill="#B7B7B7"/>
<path d="M65.8948 28.4662H68.6582V31.3497H65.8948V28.4662Z" fill="#B7B7B7"/>
<path d="M71.5417 19.3346H78.1499V20.0555H72.2626V24.9816H77.0686V25.7025H72.2626V30.7487H78.3902V31.3494H71.5417V19.3346Z" fill="#B7B7B7"/>
<path d="M81.1538 19.3346H81.8747V27.1442C81.8747 29.4271 83.3165 30.7487 85.5993 30.7487C87.8821 30.7487 89.3239 29.3069 89.3239 27.0241V19.3346H90.0448V27.2644C90.0448 29.9076 88.2426 31.5897 85.5993 31.5897C82.956 31.5897 81.1538 29.9076 81.1538 27.2644V19.3346Z" fill="#B7B7B7"/>
</svg>
