<svg xmlns="http://www.w3.org/2000/svg" width="160" height="49" viewBox="0 0 160 49" fill="none"><path fill-rule="evenodd" clip-rule="evenodd" d="M24.3494 1.16696e-06C34.2015 -0.00303774 43.0853 5.92941 46.8576 15.0307C50.63 24.132 48.548 34.6096 41.5825 41.5772C34.6171 48.5448 24.1401 50.63 15.0377 46.8605C5.93519 43.0909 4.68678e-07 34.2091 0 24.3569C-6.39786e-07 10.9079 10.9004 0.00414954 24.3494 1.16696e-06V1.16696e-06ZM23.6734 35.6037V40.427H31.8625C32.3981 40.4162 32.9304 40.3405 33.4478 40.2016C33.9946 40.0561 34.5059 39.8005 34.9503 39.4503C35.3098 39.1334 35.5946 38.7409 35.7843 38.3009C36.0474 37.6607 36.1704 36.9716 36.1449 36.2799V25.4162H42.2078V20.0519H23.9965V25.4162H30.0895V33.4325C30.0842 33.7094 30.0591 33.9856 30.0143 34.2589C29.9665 34.5756 29.8129 34.8669 29.5786 35.0853C29.3808 35.3067 29.1177 35.4593 28.8273 35.5211C28.5542 35.5663 28.2777 35.5889 28.0009 35.5887L23.6734 35.6037ZM20.668 40.4273V35.604H20.1872C18.9756 35.619 17.773 35.3944 16.6486 34.9428C15.4761 34.3981 14.5454 33.4406 14.0341 32.2532C13.6378 31.4404 13.3595 30.5752 13.2077 29.6838C13.0875 29.0377 12.9748 28.2788 12.8846 27.4299C12.7879 26.4161 12.7427 25.398 12.7494 24.3796C12.7433 23.3763 12.7885 22.3732 12.8846 21.3745C12.9748 20.518 13.0875 19.7817 13.2077 19.1732C13.3039 18.6618 13.4421 18.1593 13.6209 17.6706C13.7398 17.3278 13.8933 16.998 14.0792 16.6864C14.6873 15.5562 15.6363 14.6465 16.7913 14.0869C18.1701 13.4527 19.677 13.1467 21.1939 13.1929H35.4685V8.2644H19.481C16.7568 8.15309 14.0594 8.83984 11.7201 10.2403C10.5854 10.9477 9.62077 11.8969 8.89524 13.0201C8.20551 14.1176 7.6791 15.3096 7.33256 16.5587C6.98086 17.849 6.75195 19.1696 6.64888 20.503C6.53618 21.8703 6.48359 23.2076 6.48359 24.5224C6.48359 25.6568 6.48359 26.8364 6.6038 28.061C6.67626 29.2758 6.8522 30.4822 7.12971 31.6672C7.40632 32.8404 7.83042 33.9739 8.39188 35.0405C8.97103 36.133 9.75991 37.1006 10.7134 37.8879C11.6067 38.5967 12.5957 39.1759 13.6509 39.6083C15.0827 40.182 16.6169 40.4556 18.1587 40.4122L20.668 40.4273Z" fill="url(#paint0_linear)"></path><path fill-rule="evenodd" clip-rule="evenodd" d="M156.014 16.1969C155.951 16.2982 155.9 16.4066 155.863 16.5199L151.821 26.9554C151.701 27.2484 151.588 27.5188 151.476 27.7442C151.373 27.964 151.233 28.1647 151.063 28.3377C150.894 28.5064 150.688 28.6326 150.462 28.7059C150.18 28.7942 149.885 28.8348 149.59 28.8261C149.275 28.8354 148.96 28.7818 148.666 28.6683C148.435 28.5771 148.227 28.436 148.057 28.2551C147.89 28.0837 147.753 27.8857 147.652 27.6691C147.542 27.4245 147.446 27.1737 147.366 26.9178L143.369 16.5049C143.329 16.3915 143.276 16.2831 143.212 16.1818L143.203 16.1651C143.141 16.0482 143.109 15.9865 142.994 15.9865C142.873 15.9865 142.783 16.0691 142.783 16.2044V16.4598L142.851 28.6082H139.906V14.8746C139.88 14.4566 140 14.0426 140.244 13.7026C140.443 13.4414 140.7 13.2304 140.995 13.0865C141.257 12.9607 141.54 12.8819 141.829 12.8536H142.423C142.804 12.8447 143.185 12.8979 143.55 13.0114C143.828 13.0985 144.084 13.2445 144.301 13.4396C144.503 13.6285 144.673 13.8493 144.804 14.0932C144.942 14.335 145.062 14.5861 145.165 14.8445L149.199 25.2574C149.262 25.399 149.332 25.5369 149.41 25.6707C149.477 25.7833 149.545 25.8359 149.62 25.8359C149.695 25.8359 149.77 25.7833 149.838 25.6707C149.916 25.5369 149.986 25.399 150.048 25.2574L154.083 14.8445C154.213 14.4664 154.397 14.1095 154.631 13.7852C154.81 13.5464 155.032 13.3426 155.285 13.1842C155.516 13.0465 155.771 12.9523 156.036 12.9062C156.302 12.8604 156.571 12.8377 156.84 12.8386C157.479 12.815 158.11 12.9853 158.651 13.3269C159.142 13.6901 159.412 14.2805 159.364 14.8896V28.6232H156.419L156.509 16.4748C156.509 16.2645 156.472 16.1367 156.404 16.0842C156.359 16.0403 156.301 16.0115 156.239 16.0015C156.164 16.0015 156.089 16.0691 156.014 16.1969ZM91.4548 12.838H92.9574C93.5118 12.8554 94.0642 12.9132 94.6103 13.0108C95.1698 13.1175 95.7164 13.2837 96.2406 13.5066C96.7747 13.7316 97.2615 14.0553 97.6755 14.4608C98.0785 14.8526 98.4047 15.3164 98.6372 15.8281C98.8745 16.3484 99.0558 16.8924 99.1781 17.4509C99.307 18.0165 99.3875 18.5921 99.4185 19.1714V20.7942C99.4185 21.2975 99.4185 21.861 99.366 22.4395C99.3295 23.0129 99.2517 23.5828 99.1331 24.1449C99.0133 24.7033 98.8345 25.2472 98.5996 25.7677C98.3671 26.2795 98.041 26.7432 97.638 27.1351C97.222 27.5381 96.7356 27.8615 96.203 28.0892C95.6798 28.3132 95.1329 28.4771 94.5727 28.5776C94.0249 28.6816 93.4697 28.7419 92.9124 28.7579H91.4098H89.9072C89.3548 28.7416 88.8046 28.6813 88.2618 28.5776C87.7014 28.4781 87.1544 28.3142 86.6315 28.0892C86.0989 27.8615 85.6126 27.5381 85.1966 27.1351C84.7542 26.7084 84.4017 26.1975 84.1598 25.6325C83.9154 25.0916 83.7339 24.5244 83.6189 23.9421C83.5102 23.387 83.4449 22.8244 83.4235 22.2592V20.7566C83.4235 20.2983 83.4235 19.6748 83.4686 19.0963C83.4983 18.5277 83.5737 17.9624 83.694 17.4058C83.8106 16.8515 83.9896 16.3122 84.2274 15.7981C84.4712 15.2792 84.8131 14.8123 85.2341 14.4232C85.6459 14.0389 86.1246 13.7333 86.6466 13.5217C87.1656 13.2988 87.7072 13.1325 88.2618 13.0258C88.8028 12.9283 89.3502 12.8706 89.8997 12.853H91.4023L91.4548 12.838ZM69.1939 20.9676H69.2164L69.1939 20.8774V20.9676ZM69.1939 26.5196V20.9676H62.0115V23.7173H66.2714V25.2199C66.2815 25.3549 66.2815 25.4906 66.2714 25.6256C66.2436 25.7767 66.1702 25.9157 66.061 26.0238C65.9591 26.1331 65.8248 26.2068 65.6778 26.2341C65.5454 26.2456 65.4121 26.2456 65.2797 26.2341H61.4631C60.8765 26.2389 60.2947 26.1292 59.7501 25.9111C59.1797 25.6474 58.7274 25.1817 58.4805 24.6038C58.4043 24.4473 58.3366 24.2868 58.2776 24.123C58.1897 23.8785 58.1219 23.6272 58.0748 23.3717C58.0147 23.0562 57.9621 22.688 57.917 22.2673C57.8681 21.768 57.8455 21.2664 57.8494 20.7647C57.8444 20.263 57.867 19.7614 57.917 19.2622C57.9621 18.8414 58.0147 18.5109 58.0748 18.1878C58.1213 17.9322 58.1892 17.6809 58.2776 17.4365C58.3376 17.2708 58.4104 17.11 58.4955 16.9557C58.7945 16.4079 59.2566 15.9667 59.8178 15.6935C60.4886 15.3859 61.2212 15.2368 61.9589 15.2578H68.8934V12.9212H61.1025C59.7843 12.8681 58.4791 13.1996 57.346 13.8754C56.7967 14.2207 56.33 14.6823 55.9787 15.2277C55.6409 15.7563 55.3874 16.3342 55.2274 16.9407C55.0528 17.5693 54.9396 18.2134 54.8893 18.864C54.8367 19.5251 54.8141 20.1712 54.8141 20.8098C54.8141 21.4484 54.8141 21.9368 54.8667 22.5303C54.9023 23.1199 54.9877 23.7055 55.1222 24.2808C55.2557 24.8511 55.4628 25.4017 55.7382 25.9186C56.0199 26.4486 56.4028 26.9183 56.8652 27.301C57.2978 27.6471 57.7787 27.928 58.2926 28.1349C58.9939 28.4166 59.7461 28.5496 60.5014 28.5256H67.1128C67.3663 28.5178 67.6182 28.4826 67.8641 28.4204C68.1369 28.3537 68.3927 28.2309 68.6154 28.0598C68.7918 27.9084 68.9307 27.718 69.0211 27.5038C69.1461 27.1912 69.205 26.8561 69.1939 26.5196ZM83.8972 26.2945V28.616L73.4317 28.631C73.1792 28.6265 72.9277 28.5989 72.6804 28.5484C72.4356 28.4976 72.2065 28.3895 72.0117 28.2328C71.8701 28.0935 71.7465 27.937 71.6436 27.767C71.5105 27.5124 71.4458 27.2277 71.4558 26.9406V13.0267H74.4008V25.4455V25.7686C74.415 25.906 74.4858 26.0312 74.5962 26.1142C74.6653 26.1582 74.7382 26.196 74.814 26.2269C74.9812 26.2811 75.1569 26.3041 75.3324 26.2945H83.8972ZM86.5337 22.4852C86.4784 21.9311 86.4533 21.3743 86.4586 20.8174H86.4811C86.4536 19.8789 86.5394 18.9405 86.7366 18.0226C86.8636 17.4569 87.1039 16.9228 87.4428 16.4524C87.8721 15.8988 88.4896 15.5219 89.1783 15.393C89.9204 15.2456 90.6755 15.1726 91.4321 15.1752C92.1888 15.1741 92.9436 15.247 93.686 15.393C94.3823 15.518 95.0082 15.8952 95.4441 16.4524C95.5829 16.6249 95.7038 16.8112 95.8047 17.0083C95.9365 17.2799 96.0398 17.5644 96.1127 17.8573C96.213 18.2623 96.2833 18.6741 96.3231 19.0894C96.3813 19.6635 96.4089 20.2403 96.4057 20.8174C96.4085 21.3694 96.381 21.9212 96.3231 22.4702C96.2827 22.883 96.2124 23.2923 96.1127 23.6948C96.0404 23.9942 95.9397 24.286 95.8122 24.5663C95.7168 24.7822 95.593 24.9843 95.4441 25.1674C95.2233 25.4516 94.9505 25.6912 94.6402 25.8736C94.3373 26.0491 94.011 26.1807 93.671 26.2642C93.3141 26.3545 92.9492 26.4099 92.5816 26.4295H91.4096H90.2226C89.8549 26.4104 89.49 26.355 89.1332 26.2642C88.7969 26.1766 88.4736 26.0453 88.1715 25.8736C87.8756 25.6919 87.6199 25.4515 87.4202 25.1674C87.272 24.9893 87.1482 24.7922 87.0521 24.5814C86.9218 24.3014 86.8186 24.0095 86.7441 23.7099C86.6499 23.3062 86.5796 22.8972 86.5337 22.4852ZM101.688 28.6232H104.633V16.4748C104.621 16.3222 104.621 16.169 104.633 16.0165C104.671 15.849 104.77 15.7017 104.911 15.6033C105.004 15.4986 105.127 15.4251 105.264 15.3929C105.406 15.3798 105.55 15.3798 105.692 15.3929H110.463C110.739 15.3971 111.015 15.4172 111.289 15.453C111.602 15.4905 111.892 15.6368 112.108 15.8662C112.304 16.079 112.443 16.3372 112.514 16.6175C112.636 17.0805 112.689 17.5589 112.672 18.0375V18.5333C112.672 18.7286 112.672 18.924 112.627 19.1193C112.604 19.3198 112.567 19.5182 112.514 19.7128C112.476 19.8769 112.413 20.0341 112.326 20.1786C112.158 20.4615 111.89 20.6708 111.575 20.7646C111.3 20.8335 111.017 20.8688 110.733 20.8698H107.796C107.441 20.8455 107.089 20.9555 106.812 21.1779C106.595 21.3663 106.473 21.6419 106.481 21.9292V22.2823C106.488 22.5365 106.572 22.7827 106.721 22.9885C106.866 23.2077 107.029 23.4138 107.21 23.6045L112.341 28.6607H116.045L110.11 23.1538V23.0411H112.123C112.514 23.0489 112.903 23.0008 113.28 22.8983C113.575 22.8141 113.856 22.6875 114.114 22.5227C114.33 22.3797 114.522 22.2049 114.685 22.0043C114.83 21.8303 114.956 21.6414 115.061 21.4408C115.364 20.8923 115.558 20.2901 115.632 19.6678C115.697 19.0865 115.73 18.5021 115.729 17.9172C115.727 17.3347 115.692 16.7528 115.624 16.1742C115.541 15.5639 115.309 14.9833 114.948 14.4838C114.756 14.1666 114.5 13.8928 114.197 13.68C113.936 13.493 113.647 13.3485 113.34 13.2517C113.049 13.1641 112.749 13.1087 112.446 13.0864H111.597H104.197C103.879 13.0859 103.561 13.1212 103.25 13.1916C102.898 13.2754 102.576 13.4548 102.319 13.71C102.028 13.9695 101.833 14.3185 101.763 14.7017C101.704 15.0442 101.674 15.391 101.673 15.7385V28.6908L101.688 28.6232ZM121.003 13.0188V28.6232H118.058V13.0188H121.003ZM130.462 26.4591H129.711C129.433 26.4355 129.156 26.3902 128.885 26.3239C128.606 26.2547 128.336 26.1539 128.081 26.0234C127.82 25.8861 127.583 25.7058 127.382 25.4899C127.027 25.1247 126.795 24.6568 126.721 24.1526C126.657 23.6946 126.624 23.2327 126.623 22.7703V13.0485H123.678V23.1684C123.683 23.856 123.761 24.5411 123.911 25.212C124.099 25.9545 124.489 26.6306 125.038 27.1653C125.412 27.5543 125.856 27.8702 126.345 28.0969C126.812 28.3157 127.301 28.4845 127.803 28.6003C128.272 28.7094 128.749 28.7772 129.23 28.8031H130.462H131.687C132.168 28.7772 132.645 28.7094 133.114 28.6003C133.617 28.4845 134.105 28.3157 134.572 28.0969C135.063 27.872 135.506 27.5559 135.879 27.1653C136.428 26.6306 136.818 25.9545 137.006 25.212C137.16 24.5417 137.238 23.8562 137.239 23.1684V13.0485H134.294V22.7703V23.4164C134.289 23.6692 134.258 23.9208 134.204 24.1677C134.151 24.4244 134.076 24.6758 133.978 24.919C133.88 25.1569 133.74 25.3755 133.565 25.5651C133.351 25.7885 133.096 25.9695 132.814 26.0985C132.552 26.2318 132.274 26.3327 131.988 26.399C131.714 26.466 131.435 26.5112 131.154 26.5342H130.402L130.462 26.4591Z" fill="url(#paint1_linear)"></path><path d="M57.8488 39.9248V33.8468H55.0615V32.7725H61.9959V33.8468H59.1936V39.9248H57.8488Z" fill="#333333"></path><path d="M65.6916 39.9242C65.3992 39.9656 65.1027 39.884 64.8727 39.6988C64.6728 39.4665 64.5777 39.1621 64.6097 38.8573V33.7936C64.5995 33.5215 64.6875 33.2549 64.8577 33.0423C65.0902 32.8313 65.402 32.7301 65.7141 32.7643H70.297V33.8387H66.4354C66.3049 33.8262 66.1743 33.8609 66.0672 33.9364C65.9799 34.032 65.9387 34.161 65.9545 34.2895V35.7244H70.1994V36.7988H65.9545V38.4742C65.9516 38.5771 65.9894 38.677 66.0597 38.7521C66.1424 38.8348 66.3077 38.8423 66.518 38.8423H70.3421V39.9167L65.6916 39.9242Z" fill="#333333"></path><path d="M76.1421 39.9246C75.3039 39.9867 74.4806 39.6793 73.8882 39.0831C73.3261 38.3244 73.0591 37.3871 73.1369 36.4461C73.04 35.4699 73.2843 34.4903 73.8281 33.6738C74.4404 33.0456 75.2966 32.7162 76.1721 32.7723H79.0421V33.8466H76.7882C75.9918 33.8466 75.2856 33.8992 74.91 34.5077C74.5881 35.0947 74.4494 35.7646 74.5118 36.4311C74.4546 37.0301 74.5721 37.6328 74.8498 38.1665C75.218 38.73 75.8716 38.8502 76.7206 38.8502H79.1397V39.9246H76.1421Z" fill="#333333"></path><path d="M88.5689 39.9248H87.2241V36.7769H83.5052V39.9248H82.1529V32.7725H83.5052V35.7025H87.2241V32.7725H88.5689V39.9248Z" fill="#333333"></path><path d="M98.7185 38.993C98.741 39.2764 98.6349 39.5549 98.4295 39.7515C98.2242 39.9481 97.9414 40.042 97.6592 40.0073C97.1889 40.0426 96.7396 39.8063 96.5022 39.3987L93.4971 34.6431C93.3994 34.4853 93.3543 34.4703 93.3318 34.4703C93.24 34.4924 93.1788 34.5792 93.189 34.6731V39.9322H91.8818V33.6664C91.8818 33.0578 92.3025 32.6972 92.9787 32.6972C93.4331 32.6544 93.8726 32.8727 94.1131 33.2607L97.1183 38.0539C97.1709 38.1215 97.1934 38.2267 97.2836 38.2267C97.3737 38.2267 97.3963 38.099 97.3963 38.0539V32.7949H98.7035L98.7185 38.993Z" fill="#333333"></path><path fill-rule="evenodd" clip-rule="evenodd" d="M109.169 36.3481C109.169 35.4089 109.102 34.1994 108.35 33.4481C107.569 32.6966 106.397 32.6967 105.528 32.6968C105.52 32.6968 105.511 32.6968 105.503 32.6968C104.631 32.6968 103.422 32.7118 102.648 33.4481C101.874 34.1843 101.822 35.3789 101.822 36.3481C101.822 37.1519 101.859 38.4968 102.648 39.2481C103.437 39.9993 104.677 39.9993 105.503 39.9993C106.329 39.9993 107.614 39.9618 108.35 39.2481C109.087 38.5343 109.169 37.2872 109.169 36.3481ZM105.488 38.9324C104.817 39.04 104.136 38.8192 103.655 38.3389H103.678C103.3 37.7477 103.136 37.0453 103.212 36.348C103.132 35.6486 103.288 34.9425 103.655 34.342C104.143 33.8755 104.821 33.6618 105.488 33.7635C106.16 33.6684 106.839 33.8809 107.336 34.342C107.715 34.9378 107.872 35.648 107.78 36.348C107.861 37.0426 107.705 37.7444 107.336 38.3389C106.848 38.8165 106.163 39.0363 105.488 38.9324Z" fill="#333333"></path><path d="M113.189 39.9248C112.954 39.9351 112.722 39.8693 112.528 39.7369C112.357 39.5877 112.264 39.3696 112.272 39.1434V32.7725H113.617V38.4597C113.6 38.572 113.636 38.6856 113.715 38.7678C113.812 38.8335 113.929 38.8628 114.045 38.8504H117.952V39.9248H113.189Z" fill="#333333"></path><path fill-rule="evenodd" clip-rule="evenodd" d="M127.185 36.3481C127.185 35.4089 127.117 34.1994 126.366 33.4481C125.585 32.6966 124.413 32.6967 123.544 32.6968C123.535 32.6968 123.527 32.6968 123.519 32.6968C122.647 32.6968 121.438 32.7118 120.664 33.4481C119.89 34.1843 119.837 35.3789 119.837 36.3481C119.837 37.1519 119.875 38.4968 120.664 39.2481C121.453 39.9993 122.692 39.9993 123.519 39.9993C124.345 39.9993 125.63 39.9618 126.366 39.2481C127.102 38.5343 127.185 37.2872 127.185 36.3481ZM123.504 38.9328C122.831 39.0391 122.147 38.8187 121.663 38.3393C121.301 37.7423 121.148 37.0419 121.227 36.3483C121.15 35.65 121.303 34.9455 121.663 34.3424C122.155 33.8766 122.834 33.6632 123.504 33.7639C124.176 33.6687 124.854 33.8812 125.352 34.3424C125.731 34.9382 125.888 35.6484 125.795 36.3483C125.877 37.043 125.72 37.7448 125.352 38.3393C124.864 38.8168 124.179 39.0367 123.504 38.9328Z" fill="#333333"></path><path d="M136.689 39.0011C136.706 39.2633 136.611 39.5205 136.426 39.7073C136.222 39.8532 135.977 39.9296 135.727 39.9252H132.684C132.081 39.9445 131.491 39.7443 131.024 39.3617C130.153 38.6105 130.085 37.3934 130.085 36.3566C130.085 35.1846 130.19 33.8698 131.242 33.1861C131.763 32.8744 132.363 32.7205 132.97 32.7429H136.523V33.8172H133.353C132.725 33.7471 132.111 34.038 131.768 34.5685C131.528 35.1113 131.425 35.7046 131.467 36.2965C131.431 36.8964 131.528 37.4969 131.753 38.0545C132.01 38.5671 132.558 38.8665 133.128 38.8058H134.871C135.002 38.8228 135.133 38.7817 135.231 38.6931C135.319 38.5919 135.36 38.4581 135.344 38.325V36.3716H136.689V39.0011Z" fill="#333333"></path><path d="M139.792 39.9248V32.7725H141.145V39.9248H139.792Z" fill="#333333"></path><path d="M145.532 39.9242C145.239 39.9656 144.943 39.884 144.713 39.6988C144.513 39.4665 144.418 39.1621 144.45 38.8573V33.7936C144.44 33.5215 144.528 33.2549 144.698 33.0423C144.93 32.8313 145.242 32.7301 145.554 32.7643H150.137V33.8387H146.276C146.145 33.8262 146.015 33.8609 145.908 33.9364C145.82 34.032 145.779 34.161 145.795 34.2895V35.7244H150.04V36.7988H145.795V38.4742C145.792 38.5771 145.83 38.677 145.9 38.7521C145.983 38.8348 146.148 38.8423 146.358 38.8423H150.182V39.9167L145.532 39.9242Z" fill="#333333"></path><path d="M152.97 38.8502H156.929C157.575 38.8502 157.605 38.3168 157.605 38.0989C157.605 37.881 157.53 37.4828 156.906 37.2875L154.089 36.401C153.762 36.3052 153.468 36.1205 153.24 35.8676C152.969 35.4739 152.839 34.9998 152.872 34.5227C152.827 34.0329 152.997 33.5478 153.338 33.193C153.662 32.9127 154.082 32.7699 154.51 32.7948H158.627V33.8691H154.968C154.766 33.8455 154.562 33.9052 154.405 34.0344C154.274 34.1859 154.209 34.3833 154.224 34.5829C154.224 34.8984 154.314 35.2064 154.885 35.3867L157.5 36.2132C157.873 36.3079 158.222 36.4821 158.522 36.724C158.855 37.1046 159.025 37.6013 158.995 38.1064C159.027 38.5775 158.9 39.0457 158.634 39.4362C158.324 39.8139 157.842 40.0067 157.357 39.9471H152.97V38.8502Z" fill="#333333"></path><defs><linearGradient id="paint0_linear" x1="41.6" y1="-3.2" x2="24.3573" y2="48.7145" gradientUnits="userSpaceOnUse"><stop stop-color="#3491E7"></stop><stop offset="1" stop-color="#1E68B9"></stop></linearGradient><linearGradient id="paint1_linear" x1="144.1" y1="11.786" x2="143.141" y2="30.6584" gradientUnits="userSpaceOnUse"><stop stop-color="#3491E7"></stop><stop offset="1" stop-color="#1E68B9"></stop></linearGradient></defs></svg>