<?xml version="1.0" encoding="UTF-8"?>
<svg xmlns="http://www.w3.org/2000/svg" width="236" height="58" viewBox="0 0 236 58" fill="none">
  <path d="M3.58553 47.0552H1.82245L1.81651 45.9511H3.37776C3.61917 45.9511 3.82496 45.9036 3.99513 45.8086C4.16531 45.7136 4.29393 45.5751 4.38099 45.3931C4.47202 45.211 4.51753 44.9914 4.51753 44.7341C4.51753 44.4492 4.47598 44.2177 4.39287 44.0396C4.31372 43.8576 4.19103 43.725 4.02482 43.6419C3.8586 43.5588 3.64489 43.5172 3.38369 43.5172H2.24986V50.9495H0.807338V42.3062H3.38369C3.78736 42.3062 4.1475 42.3517 4.4641 42.4427C4.78466 42.5338 5.05575 42.6762 5.27738 42.8701C5.499 43.0601 5.66719 43.3035 5.78196 43.6003C5.90069 43.8932 5.96005 44.2414 5.96005 44.6451C5.96005 44.9973 5.88486 45.3218 5.73447 45.6187C5.58409 45.9115 5.36049 46.1529 5.06367 46.3429C4.77081 46.5289 4.40672 46.6397 3.97139 46.6753L3.58553 47.0552ZM3.5321 50.9495H1.34754L2.01241 49.7444H3.5321C3.78934 49.7444 4.00107 49.689 4.16729 49.5782C4.3335 49.4674 4.45817 49.313 4.54127 49.1151C4.62438 48.9173 4.66594 48.6858 4.66594 48.4206C4.66594 48.1436 4.63032 47.9022 4.55908 47.6964C4.48785 47.4906 4.37308 47.3323 4.21478 47.2215C4.05648 47.1107 3.84673 47.0552 3.58553 47.0552H2.13113L2.14301 45.9511H4.00107L4.3335 46.3726C4.74905 46.3805 5.08742 46.4834 5.34861 46.6813C5.60981 46.8752 5.80175 47.1265 5.92443 47.4352C6.04712 47.7439 6.10846 48.0743 6.10846 48.4265C6.10846 48.9766 6.00556 49.4397 5.79977 49.8156C5.59794 50.1876 5.30508 50.4706 4.9212 50.6645C4.53732 50.8545 4.07429 50.9495 3.5321 50.9495ZM10.2271 43.4935L8.13749 50.9495H6.62967L9.37224 42.3062H10.3102L10.2271 43.4935ZM11.8952 50.9495L9.79966 43.4935L9.69874 42.3062H10.6545L13.4089 50.9495H11.8952ZM11.9308 47.7379V48.9489H7.90597V47.7379H11.9308ZM17.8065 48.7174C17.8065 48.5393 17.7868 48.381 17.7472 48.2425C17.7116 48.1 17.6423 47.9714 17.5394 47.8566C17.4365 47.7419 17.2901 47.6291 17.1001 47.5183C16.9141 47.4075 16.6727 47.2947 16.3759 47.1799C16.0355 47.0493 15.717 46.9068 15.4202 46.7525C15.1273 46.5942 14.8681 46.4161 14.6425 46.2182C14.4209 46.0164 14.2467 45.7809 14.1201 45.5118C13.9935 45.2427 13.9301 44.93 13.9301 44.5739C13.9301 44.2216 13.9915 43.9011 14.1142 43.6122C14.2408 43.3193 14.4189 43.068 14.6484 42.8583C14.8819 42.6446 15.159 42.4803 15.4795 42.3656C15.8001 42.2468 16.1543 42.1875 16.5421 42.1875C17.1001 42.1875 17.577 42.3062 17.9728 42.5437C18.3725 42.7811 18.6772 43.0997 18.887 43.4994C19.1007 43.8991 19.2075 44.3424 19.2075 44.8291H17.7709C17.7709 44.5481 17.7274 44.2988 17.6403 44.0812C17.5533 43.8635 17.4187 43.6933 17.2367 43.5706C17.0546 43.4479 16.8191 43.3866 16.5302 43.3866C16.2651 43.3866 16.0454 43.4381 15.8713 43.541C15.7011 43.6438 15.5745 43.7843 15.4914 43.9624C15.4122 44.1405 15.3727 44.3443 15.3727 44.5739C15.3727 44.7322 15.4063 44.8766 15.4736 45.0072C15.5409 45.1339 15.6378 45.2506 15.7645 45.3575C15.8911 45.4643 16.0454 45.5652 16.2275 45.6602C16.4095 45.7552 16.6193 45.8462 16.8567 45.9333C17.2604 46.0797 17.6126 46.242 17.9134 46.4201C18.2142 46.5981 18.4615 46.798 18.6554 47.0196C18.8533 47.2373 18.9997 47.4846 19.0947 47.7617C19.1937 48.0387 19.2431 48.3533 19.2431 48.7055C19.2431 49.0617 19.1818 49.3862 19.0591 49.6791C18.9404 49.968 18.7662 50.2153 18.5367 50.4211C18.3072 50.6269 18.0301 50.7872 17.7056 50.902C17.3811 51.0128 17.017 51.0682 16.6133 51.0682C16.2413 51.0682 15.8832 51.0128 15.5389 50.902C15.1985 50.7912 14.8938 50.623 14.6247 50.3974C14.3556 50.1678 14.1419 49.8809 13.9836 49.5366C13.8292 49.1923 13.752 48.7886 13.752 48.3256H15.1946C15.1946 48.6026 15.2282 48.8401 15.2955 49.038C15.3628 49.2319 15.4597 49.3922 15.5864 49.5188C15.717 49.6415 15.8693 49.7325 16.0435 49.7919C16.2216 49.8473 16.4194 49.875 16.6371 49.875C16.9062 49.875 17.1258 49.8275 17.296 49.7325C17.4702 49.6336 17.5988 49.497 17.6819 49.3229C17.765 49.1488 17.8065 48.9469 17.8065 48.7174ZM25.0477 49.7444V50.9495H21.2959V49.7444H25.0477ZM21.6758 42.3062V50.9495H20.2333V42.3062H21.6758ZM24.5431 45.9036V47.0909H21.2959V45.9036H24.5431ZM25.012 42.3062V43.5172H21.2959V42.3062H25.012ZM28.0562 50.9495H26.5543L26.5662 49.7444H28.0562C28.5192 49.7444 28.8892 49.6593 29.1663 49.4891C29.4433 49.315 29.6431 49.0498 29.7658 48.6937C29.8885 48.3375 29.9499 47.8824 29.9499 47.3283V45.9214C29.9499 45.494 29.9142 45.1299 29.843 44.8291C29.7757 44.5244 29.6689 44.2771 29.5224 44.0871C29.38 43.8932 29.192 43.7507 28.9585 43.6597C28.725 43.5647 28.444 43.5172 28.1155 43.5172H26.5246V42.3062H28.1155C28.6102 42.3062 29.0574 42.3854 29.4571 42.5437C29.8569 42.702 30.1992 42.9354 30.4841 43.2441C30.773 43.5489 30.9946 43.9268 31.149 44.378C31.3033 44.8291 31.3805 45.3476 31.3805 45.9333V47.3283C31.3805 47.914 31.3033 48.4325 31.149 48.8836C30.9946 49.3308 30.773 49.7088 30.4841 50.0175C30.1952 50.3222 29.847 50.5537 29.4393 50.712C29.0317 50.8703 28.5707 50.9495 28.0562 50.9495ZM27.3794 42.3062V50.9495H25.9369V42.3062H27.3794ZM40.9059 45.9214V47.3936C40.9059 48.0031 40.8347 48.5373 40.6922 48.9964C40.5537 49.4555 40.3518 49.8394 40.0867 50.1481C39.8255 50.4528 39.5089 50.6823 39.1369 50.8367C38.7688 50.991 38.3572 51.0682 37.9021 51.0682C37.451 51.0682 37.0394 50.991 36.6674 50.8367C36.2993 50.6823 35.9807 50.4528 35.7116 50.1481C35.4465 49.8394 35.2407 49.4555 35.0943 48.9964C34.9518 48.5373 34.8806 48.0031 34.8806 47.3936V45.9214C34.8806 45.304 34.9518 44.7638 35.0943 44.3008C35.2367 43.8338 35.4405 43.444 35.7057 43.1313C35.9748 42.8187 36.2934 42.5832 36.6614 42.4249C37.0335 42.2666 37.4431 42.1875 37.8903 42.1875C38.3454 42.1875 38.757 42.2666 39.125 42.4249C39.497 42.5832 39.8156 42.8187 40.0808 43.1313C40.3459 43.444 40.5497 43.8338 40.6922 44.3008C40.8347 44.7638 40.9059 45.304 40.9059 45.9214ZM39.4753 47.3936V45.9095C39.4753 45.4703 39.4396 45.0943 39.3684 44.7816C39.3011 44.465 39.2002 44.2078 39.0656 44.0099C38.9311 43.8081 38.7649 43.6597 38.567 43.5647C38.3731 43.4658 38.1475 43.4163 37.8903 43.4163C37.6409 43.4163 37.4173 43.4658 37.2195 43.5647C37.0255 43.6597 36.8593 43.8081 36.7208 44.0099C36.5863 44.2078 36.4834 44.465 36.4121 44.7816C36.3448 45.0943 36.3112 45.4703 36.3112 45.9095V47.3936C36.3112 47.825 36.3468 48.197 36.4181 48.5096C36.4893 48.8183 36.5922 49.0716 36.7267 49.2695C36.8653 49.4634 37.0335 49.6079 37.2313 49.7028C37.4292 49.7978 37.6528 49.8453 37.9021 49.8453C38.1554 49.8453 38.381 49.7978 38.5789 49.7028C38.7767 49.6079 38.941 49.4634 39.0716 49.2695C39.2061 49.0716 39.3071 48.8183 39.3743 48.5096C39.4416 48.197 39.4753 47.825 39.4753 47.3936ZM47.9214 42.3062V50.9495H46.5086L43.4573 44.9657V50.9495H42.0623V42.3062H43.4573L46.5323 48.3316V42.3062H47.9214ZM56.5386 49.7859V50.9495H51.5639V49.9462L53.9207 46.889C54.1779 46.5447 54.3758 46.2479 54.5143 45.9986C54.6568 45.7453 54.7557 45.5177 54.8111 45.3159C54.8665 45.1141 54.8942 44.9162 54.8942 44.7223C54.8942 44.4532 54.8566 44.2157 54.7814 44.0099C54.7102 43.8041 54.6033 43.6438 54.4609 43.5291C54.3184 43.4104 54.1443 43.351 53.9385 43.351C53.6812 43.351 53.4695 43.4202 53.3033 43.5588C53.1371 43.6933 53.0144 43.8813 52.9352 44.1227C52.8561 44.3602 52.8165 44.6332 52.8165 44.9419H51.4333C51.4333 44.4354 51.5303 43.9743 51.7242 43.5588C51.9221 43.1393 52.209 42.8068 52.585 42.5615C52.961 42.3121 53.4181 42.1875 53.9563 42.1875C54.4549 42.1875 54.8764 42.2844 55.2207 42.4784C55.569 42.6723 55.8322 42.9473 56.0102 43.3035C56.1923 43.6597 56.2833 44.0831 56.2833 44.5739C56.2833 44.843 56.2457 45.1121 56.1705 45.3812C56.0993 45.6464 55.9984 45.9095 55.8678 46.1707C55.7372 46.4319 55.5808 46.6951 55.3988 46.9603C55.2168 47.2254 55.0129 47.4945 54.7874 47.7676L53.2973 49.7859H56.5386ZM62.2719 42.3062V43.1076L59.4284 50.9495H57.968L60.8175 43.4697H57.1666V42.3062H62.2719ZM65.8016 42.3062H68.4136C68.9834 42.3062 69.4663 42.4051 69.862 42.603C70.2578 42.8009 70.5585 43.0938 70.7643 43.4816C70.9741 43.8655 71.079 44.3424 71.079 44.9122C71.079 45.3436 71.0137 45.7235 70.8831 46.052C70.7564 46.3805 70.5724 46.6575 70.331 46.8831C70.0896 47.1047 69.7987 47.2769 69.4584 47.3996L69.0369 47.6311H66.8286L66.8226 46.4201H68.3779C68.6589 46.4201 68.8924 46.3587 69.0784 46.236C69.2644 46.1134 69.4029 45.9432 69.494 45.7255C69.5889 45.5078 69.6364 45.2605 69.6364 44.9835C69.6364 44.6867 69.5949 44.4294 69.5118 44.2118C69.4287 43.9901 69.2981 43.82 69.12 43.7012C68.9419 43.5785 68.7064 43.5172 68.4136 43.5172H67.2441V50.9495H65.8016V42.3062ZM69.8264 50.9495L68.182 47.0671L69.6839 47.0612L71.3698 50.8723V50.9495H69.8264ZM76.9072 49.7444V50.9495H73.1555V49.7444H76.9072ZM73.5354 42.3062V50.9495H72.0929V42.3062H73.5354ZM76.4026 45.9036V47.0909H73.1555V45.9036H76.4026ZM76.8716 42.3062V43.5172H73.1555V42.3062H76.8716ZM80.3372 49.3467L82.1775 42.3062H83.7387L81.1564 50.9495H80.0879L80.3372 49.3467ZM78.7285 42.3062L80.5569 49.3467L80.824 50.9495H79.7555L77.1732 42.3062H78.7285ZM85.928 42.3062V50.9495H84.4855V42.3062H85.928ZM92.1066 49.7444V50.9495H88.3548V49.7444H92.1066ZM88.7347 42.3062V50.9495H87.2922V42.3062H88.7347ZM91.602 45.9036V47.0909H88.3548V45.9036H91.602ZM92.0709 42.3062V43.5172H88.3548V42.3062H92.0709ZM94.8361 49.0558L96.2192 42.3062H97.074L97.0384 43.998L95.5425 50.9495H94.6461L94.8361 49.0558ZM93.9575 42.3062L95.0557 49.0083L95.1032 50.9495H94.1593L92.5268 42.3062H93.9575ZM98.5759 48.9845L99.6623 42.3062H101.087L99.4604 50.9495H98.5166L98.5759 48.9845ZM97.4184 42.3062L98.7896 49.0736L98.9677 50.9495H98.0713L96.611 43.9921L96.5754 42.3062H97.4184ZM105.586 48.7174C105.586 48.5393 105.566 48.381 105.526 48.2425C105.491 48.1 105.421 47.9714 105.318 47.8566C105.216 47.7419 105.069 47.6291 104.879 47.5183C104.693 47.4075 104.452 47.2947 104.155 47.1799C103.815 47.0493 103.496 46.9068 103.199 46.7525C102.906 46.5942 102.647 46.4161 102.421 46.2182C102.2 46.0164 102.026 45.7809 101.899 45.5118C101.772 45.2427 101.709 44.93 101.709 44.5739C101.709 44.2216 101.77 43.9011 101.893 43.6122C102.02 43.3193 102.198 43.068 102.427 42.8583C102.661 42.6446 102.938 42.4803 103.258 42.3656C103.579 42.2468 103.933 42.1875 104.321 42.1875C104.879 42.1875 105.356 42.3062 105.752 42.5437C106.151 42.7811 106.456 43.0997 106.666 43.4994C106.88 43.8991 106.986 44.3424 106.986 44.8291H105.55C105.55 44.5481 105.506 44.2988 105.419 44.0812C105.332 43.8635 105.198 43.6933 105.016 43.5706C104.834 43.4479 104.598 43.3866 104.309 43.3866C104.044 43.3866 103.824 43.4381 103.65 43.541C103.48 43.6438 103.353 43.7843 103.27 43.9624C103.191 44.1405 103.152 44.3443 103.152 44.5739C103.152 44.7322 103.185 44.8766 103.253 45.0072C103.32 45.1339 103.417 45.2506 103.543 45.3575C103.67 45.4643 103.824 45.5652 104.006 45.6602C104.189 45.7552 104.398 45.8462 104.636 45.9333C105.039 46.0797 105.392 46.242 105.692 46.4201C105.993 46.5981 106.241 46.798 106.434 47.0196C106.632 47.2373 106.779 47.4846 106.874 47.7617C106.973 48.0387 107.022 48.3533 107.022 48.7055C107.022 49.0617 106.961 49.3862 106.838 49.6791C106.719 49.968 106.545 50.2153 106.316 50.4211C106.086 50.6269 105.809 50.7872 105.485 50.902C105.16 51.0128 104.796 51.0682 104.392 51.0682C104.02 51.0682 103.662 51.0128 103.318 50.902C102.978 50.7912 102.673 50.623 102.404 50.3974C102.135 50.1678 101.921 49.8809 101.763 49.5366C101.608 49.1923 101.531 48.7886 101.531 48.3256H102.974C102.974 48.6026 103.007 48.8401 103.074 49.038C103.142 49.2319 103.239 49.3922 103.365 49.5188C103.496 49.6415 103.648 49.7325 103.822 49.7919C104.001 49.8473 104.198 49.875 104.416 49.875C104.685 49.875 104.905 49.8275 105.075 49.7325C105.249 49.6336 105.378 49.497 105.461 49.3229C105.544 49.1488 105.586 48.9469 105.586 48.7174Z" fill="#808080"></path>
  <path d="M124.122 43.0882C124.122 43.0882 123.198 42.9963 123.198 43.8191V47.4737H129.296V48.5705C129.296 48.5705 129.314 49.1185 128.742 49.1185H123.198V53.8699H129.85C129.85 53.8699 133.878 53.2483 133.915 49.1185V43.0882H124.122ZM133.73 37.24H121.72C117.377 38.2631 117.285 41.8267 117.285 41.8267V53.8699H121.905V42.9053C121.905 41.9732 122.828 41.8093 122.828 41.8093H133.731V37.24H133.73ZM149.585 50.4236C149.269 50.635 149.034 50.7902 148.869 50.8892C148.276 51.2559 147.712 51.5386 147.188 51.7643C146.43 52.0747 145.755 52.2299 145.149 52.2299C143.069 52.2299 141.346 51.5948 139.954 50.3103C138.562 49.0259 137.875 47.4175 137.875 45.4702C137.875 43.5934 138.495 41.97 139.748 40.5866C141.002 39.2039 142.518 38.526 144.309 38.526C145.053 38.526 145.852 38.6527 146.678 38.922C147.753 39.2601 148.621 39.7685 149.31 40.4314L148.111 41.7578C147.602 41.2644 146.94 40.897 146.168 40.6713C145.59 40.5018 144.957 40.4179 144.253 40.4179C143 40.4179 141.939 40.9247 141.099 41.9273C140.258 42.9433 139.831 44.143 139.831 45.5542C139.831 46.9519 140.313 48.0946 141.278 49.0124C142.242 49.9294 143.468 50.3951 144.956 50.3951C145.576 50.3951 146.21 50.1971 146.857 49.817C147.395 49.4076 147.671 49.2096 147.684 49.1953V46.3025H143.661L144.239 44.4962H149.585V50.4236ZM161.737 46.8949C161.737 48.2918 161.241 49.5058 160.249 50.5218C159.257 51.5378 158.031 52.0604 156.571 52.0604C155.221 52.0604 154.036 51.552 153.016 50.5503C151.996 49.5485 151.5 48.3345 151.5 46.9091C151.5 45.498 151.983 44.284 152.947 43.2394C153.911 42.1949 155.096 41.6873 156.488 41.6873C158.031 41.6873 159.285 42.1815 160.263 43.1832C161.241 44.1573 161.737 45.399 161.737 46.8949ZM159.849 46.9234C159.849 45.9778 159.533 45.1733 158.899 44.5239C158.265 43.8603 157.48 43.5356 156.543 43.5356C155.662 43.5356 154.917 43.8746 154.297 44.5524C153.677 45.2295 153.374 46.0056 153.374 46.8806C153.374 47.7984 153.691 48.5745 154.311 49.2239C154.931 49.8732 155.703 50.2114 156.639 50.2114C157.508 50.2114 158.251 49.8867 158.886 49.2373C159.533 48.588 159.85 47.8119 159.85 46.9234H159.849ZM173.723 46.8949C173.723 48.2918 173.228 49.5058 172.235 50.5218C171.243 51.5378 170.017 52.0604 168.557 52.0604C167.207 52.0604 166.022 51.552 165.002 50.5503C163.983 49.5485 163.486 48.3345 163.486 46.9091C163.486 45.498 163.97 44.284 164.933 43.2394C165.898 42.1949 167.083 41.6873 168.474 41.6873C170.017 41.6873 171.271 42.1815 172.249 43.1832C173.228 44.1573 173.723 45.399 173.723 46.8949ZM171.836 46.9234C171.836 45.9778 171.519 45.1733 170.885 44.5239C170.252 43.8603 169.466 43.5356 168.529 43.5356C167.648 43.5356 166.904 43.8746 166.284 44.5524C165.663 45.2295 165.36 46.0056 165.36 46.8806C165.36 47.7984 165.677 48.5745 166.298 49.2239C166.917 49.8732 167.689 50.2114 168.626 50.2114C169.494 50.2114 170.237 49.8867 170.872 49.2373C171.519 48.588 171.836 47.8119 171.836 46.9234H171.836ZM184.815 51.7777L183.079 52.0462V50.3666L182.707 50.7894C182.379 51.0966 182.008 51.3536 181.604 51.552C181.013 51.8249 180.369 51.9646 179.717 51.9615C178.367 51.9615 177.209 51.4673 176.273 50.4648C175.336 49.4622 174.868 48.2775 174.868 46.8949C174.868 45.4694 175.336 44.242 176.259 43.2252C177.183 42.2084 178.312 41.7008 179.662 41.7008C180.434 41.7008 181.109 41.8275 181.673 42.0817C182.073 42.2654 182.418 42.5054 182.707 42.8023C182.803 42.929 182.9 43.07 182.997 43.1967V38.7937L184.842 38.5252L184.815 51.7777ZM183.189 47.0216C183.189 46.0341 182.858 45.201 182.183 44.5239C181.509 43.8318 180.75 43.4936 179.883 43.4936C178.918 43.4936 178.147 43.8183 177.555 44.4677C177.003 45.0877 176.714 45.8503 176.714 46.7397C176.714 47.7414 177.003 48.5737 177.582 49.2231C178.16 49.8724 178.891 50.1971 179.786 50.1971C180.668 50.1971 181.44 49.9009 182.129 49.2943C182.831 48.6727 183.19 47.9109 183.19 47.0216H183.189ZM194.555 40.6293H189.389V44.143H193.398V45.9493H189.389V51.7643L187.377 52.0604V38.808H194.155L194.555 40.6293ZM198.703 39.5983L197.462 41.1647L196.278 39.5983L197.531 38.0461L198.703 39.5983ZM198.33 51.7777L196.484 52.0319V42.2234L198.33 41.9415V51.7785V51.7777ZM206.666 41.8425L205.798 43.846C205.684 43.8287 205.569 43.8194 205.454 43.8183C205.275 43.8183 205.096 43.8326 204.916 43.8603C204.736 43.888 204.544 43.9593 204.338 44.0583C203.952 44.2277 203.621 44.5944 203.332 45.1448C203.012 45.7694 202.846 46.4616 202.849 47.1633V51.7643L201.004 52.0604V42.2234L202.712 41.913V43.9593C202.932 43.6061 203.166 43.2537 203.387 42.887C203.703 42.5196 204.076 42.2519 204.489 42.0959C204.709 42.012 205.109 41.9407 205.715 41.8845C206.294 41.8425 206.625 41.814 206.666 41.8425ZM220.415 51.7777L218.569 52.0462V45.3142C218.569 44.6926 218.431 44.2412 218.156 43.9593C217.88 43.6766 217.467 43.5356 216.929 43.5356C216.282 43.5356 215.786 43.8041 215.455 44.3402C215.234 44.7068 215.111 45.102 215.111 45.4972V51.7635L213.265 52.1024V45.3562C213.265 44.7639 213.127 44.3117 212.865 44.002C212.589 43.6908 212.231 43.5356 211.763 43.5356H211.584C210.936 43.5356 210.467 43.8041 210.178 44.3544C209.958 44.7639 209.848 45.2857 209.848 45.9208V51.7635L207.933 52.1024V42.2234L209.655 41.9273V43.1832C209.848 42.8863 210.04 42.6463 210.22 42.4776C210.716 42.012 211.295 41.7855 211.942 41.7855C212.672 41.7855 213.209 41.8988 213.581 42.1387C213.898 42.3367 214.201 42.731 214.504 43.2957C215.138 42.2939 216.033 41.7855 217.219 41.7855C218.348 41.7855 219.189 42.1387 219.739 42.8585C220.195 43.4509 220.415 44.3259 220.415 45.4694V51.7777ZM228.849 48.8002C228.849 49.703 228.532 50.4513 227.898 51.0302C227.265 51.6225 226.465 51.9052 225.501 51.9052C224.77 51.9052 224.123 51.7358 223.53 51.3968C222.938 51.0587 222.498 50.677 222.208 50.2256L223.503 49.0686C223.599 49.2096 223.682 49.322 223.765 49.4068C224.248 49.9009 224.826 50.1551 225.501 50.1551C225.969 50.1551 226.342 50.0284 226.603 49.7885C226.879 49.5485 227.003 49.2096 227.003 48.7717C227.003 48.2783 226.686 47.9394 226.053 47.7557C224.798 47.3748 224.123 47.1633 224.027 47.1206C223.448 46.8244 223.035 46.514 222.772 46.1608C222.483 45.7514 222.332 45.2152 222.332 44.5239C222.332 43.6766 222.649 42.9718 223.269 42.4072C223.889 41.8425 224.633 41.5741 225.486 41.5741C226.135 41.5741 226.741 41.715 227.292 42.012C227.843 42.3082 228.242 42.6186 228.477 42.986L227.374 44.185C227.209 44.0193 227.029 43.8682 226.837 43.7336C226.396 43.4232 225.969 43.268 225.57 43.268C225.184 43.268 224.867 43.3527 224.619 43.5214C224.329 43.7336 224.178 44.044 224.178 44.4534C224.178 44.8486 224.316 45.1448 224.606 45.3285C224.854 45.4837 225.377 45.6532 226.204 45.8361C227.03 46.0341 227.664 46.373 228.119 46.8529C228.629 47.3605 228.849 47.9956 228.849 48.8002Z" fill="#3A7AF3"></path>
  <path d="M10.0233 21.952V23.9131H2.99609V21.952H10.0233ZM3.75873 10.694V23.9131H1.26199V10.694H3.75873ZM9.10629 16.1505V18.0662H2.99609V16.1505H9.10629ZM9.99604 10.694V12.6641H2.99609V10.694H9.99604ZM13.2808 10.694L15.9229 15.406L18.5739 10.694H21.4429L17.5208 17.2491L21.5428 23.9131H18.6466L15.9229 19.1103L13.2082 23.9131H10.3029L14.3249 17.2491L10.4028 10.694H13.2808ZM30.1116 19.5642H32.6083C32.5418 20.4479 32.2966 21.2317 31.8729 21.9157C31.4492 22.5936 30.8591 23.1262 30.1025 23.5136C29.3459 23.901 28.4289 24.0947 27.3516 24.0947C26.5223 24.0947 25.7748 23.9494 25.109 23.6589C24.4493 23.3623 23.8834 22.9416 23.4113 22.3969C22.9452 21.8461 22.5881 21.1863 22.3399 20.4176C22.0918 19.6429 21.9677 18.7743 21.9677 17.812V16.8042C21.9677 15.8418 22.0948 14.9732 22.349 14.1985C22.6032 13.4237 22.9664 12.764 23.4385 12.2193C23.9167 11.6685 24.4886 11.2448 25.1544 10.9482C25.8263 10.6516 26.5768 10.5033 27.406 10.5033C28.4834 10.5033 29.3944 10.7031 30.1388 11.1025C30.8833 11.496 31.4614 12.0377 31.8729 12.7277C32.2845 13.4177 32.5327 14.2106 32.6174 15.1064H30.1207C30.0723 14.5496 29.9512 14.0774 29.7575 13.6901C29.5699 13.3027 29.2854 13.0091 28.9041 12.8094C28.5288 12.6036 28.0295 12.5007 27.406 12.5007C26.9218 12.5007 26.4951 12.5915 26.1259 12.7731C25.7627 12.9547 25.4601 13.227 25.218 13.5902C24.9759 13.9473 24.7943 14.3952 24.6732 14.9339C24.5522 15.4665 24.4917 16.0839 24.4917 16.786V17.812C24.4917 18.4838 24.5461 19.0861 24.6551 19.6187C24.764 20.1513 24.9335 20.6023 25.1635 20.9715C25.3935 21.3407 25.6901 21.6221 26.0533 21.8158C26.4164 22.0095 26.8492 22.1064 27.3516 22.1064C27.9629 22.1064 28.4592 22.0095 28.8405 21.8158C29.2279 21.6221 29.5215 21.3377 29.7212 20.9624C29.927 20.5871 30.0571 20.1211 30.1116 19.5642ZM42.8386 21.952V23.9131H35.8114V21.952H42.8386ZM36.5741 10.694V23.9131H34.0773V10.694H36.5741ZM41.9216 16.1505V18.0662H35.8114V16.1505H41.9216ZM42.8114 10.694V12.6641H35.8114V10.694H42.8114ZM52.4969 21.952V23.9131H45.8511V21.952H52.4969ZM46.6046 10.694V23.9131H44.1079V10.694H46.6046ZM62.0917 21.952V23.9131H55.4458V21.952H62.0917ZM56.1994 10.694V23.9131H53.7026V10.694H56.1994ZM72.0587 21.952V23.9131H65.0315V21.952H72.0587ZM65.7941 10.694V23.9131H63.2974V10.694H65.7941ZM71.1417 16.1505V18.0662H65.0315V16.1505H71.1417ZM72.0314 10.694V12.6641H65.0315V10.694H72.0314ZM83.9504 10.694V23.9131H81.4446L75.8247 14.7432V23.9131H73.3279V10.694H75.8247L81.4627 19.8729V10.694H83.9504ZM91.4297 10.694V23.9131H88.9421V10.694H91.4297ZM95.5335 10.694V12.6641H84.8837V10.694H95.5335Z" fill="#101012"></path>
  <path d="M113.622 7.7761C113.724 7.55265 114.041 7.55265 114.143 7.7761L116.865 13.7589C116.907 13.8504 116.993 13.9134 117.093 13.9247L123.625 14.6649C123.868 14.6925 123.967 14.9944 123.785 15.1601L118.937 19.5979C118.863 19.6658 118.829 19.7676 118.85 19.8661L120.164 26.3064C120.213 26.5469 119.956 26.7335 119.743 26.6125L114.024 23.3723C113.936 23.3228 113.829 23.3228 113.742 23.3723L108.023 26.6125C107.809 26.7335 107.552 26.5469 107.601 26.3064L108.916 19.8661C108.936 19.7676 108.903 19.6658 108.828 19.5979L103.98 15.1601C103.799 14.9944 103.897 14.6925 104.141 14.6649L110.672 13.9247C110.772 13.9134 110.858 13.8504 110.9 13.7589L113.622 7.7761Z" fill="#F0C401"></path>
  <path d="M140.86 7.7761C140.962 7.55265 141.28 7.55265 141.381 7.7761L144.103 13.7589C144.145 13.8504 144.232 13.9134 144.332 13.9247L150.863 14.6649C151.107 14.6925 151.205 14.9944 151.024 15.1601L146.175 19.5979C146.101 19.6658 146.068 19.7676 146.088 19.8661L147.402 26.3064C147.451 26.5469 147.194 26.7335 146.981 26.6125L141.262 23.3723C141.174 23.3228 141.067 23.3228 140.98 23.3723L135.261 26.6125C135.047 26.7335 134.791 26.5469 134.84 26.3064L136.154 19.8661C136.174 19.7676 136.141 19.6658 136.067 19.5979L131.218 15.1601C131.037 14.9944 131.135 14.6925 131.379 14.6649L137.91 13.9247C138.01 13.9134 138.097 13.8504 138.138 13.7589L140.86 7.7761Z" fill="#F0C401"></path>
  <path d="M168.099 7.7761C168.2 7.55265 168.518 7.55265 168.62 7.7761L171.342 13.7589C171.383 13.8504 171.47 13.9134 171.57 13.9247L178.101 14.6649C178.345 14.6925 178.443 14.9944 178.262 15.1601L173.413 19.5979C173.339 19.6658 173.306 19.7676 173.326 19.8661L174.64 26.3064C174.689 26.5469 174.433 26.7335 174.219 26.6125L168.5 23.3723C168.413 23.3228 168.306 23.3228 168.218 23.3723L162.499 26.6125C162.286 26.7335 162.029 26.5469 162.078 26.3064L163.392 19.8661C163.412 19.7676 163.379 19.6658 163.305 19.5979L158.456 15.1601C158.275 14.9944 158.373 14.6925 158.617 14.6649L165.148 13.9247C165.248 13.9134 165.335 13.8504 165.377 13.7589L168.099 7.7761Z" fill="#F0C401"></path>
  <path d="M195.335 7.7761C195.437 7.55265 195.754 7.55265 195.856 7.7761L198.578 13.7589C198.62 13.8504 198.706 13.9134 198.806 13.9247L205.337 14.6649C205.581 14.6925 205.679 14.9944 205.498 15.1601L200.65 19.5979C200.575 19.6658 200.542 19.7676 200.562 19.8661L201.877 26.3064C201.926 26.5469 201.669 26.7335 201.455 26.6125L195.736 23.3723C195.649 23.3228 195.542 23.3228 195.454 23.3723L189.736 26.6125C189.522 26.7335 189.265 26.5469 189.314 26.3064L190.629 19.8661C190.649 19.7676 190.616 19.6658 190.541 19.5979L185.693 15.1601C185.511 14.9944 185.61 14.6925 185.854 14.6649L192.385 13.9247C192.485 13.9134 192.571 13.8504 192.613 13.7589L195.335 7.7761Z" fill="#F0C401"></path>
  <path d="M232.426 14.7844C232.569 14.6414 232.569 14.3553 232.283 14.3553L225.846 13.4972C225.703 13.4972 225.703 13.3541 225.56 13.3541L222.843 7.34689C222.843 7.20386 222.7 7.20386 222.557 7.20386H222.414C222.414 7.20386 222.271 7.20386 222.271 7.34689L219.553 13.3541C219.553 13.4972 219.41 13.4972 219.267 13.4972L212.831 14.2123C212.545 14.2123 212.545 14.4984 212.688 14.6414L217.551 19.0753C217.694 19.0753 217.694 19.2184 217.694 19.3614L216.406 25.7977C216.406 25.9408 216.406 25.9408 216.406 26.0838L216.55 26.2268H216.693L222.414 22.9371H222.557H222.7L228.421 26.2268H228.564C228.707 26.2268 228.85 26.0838 228.85 25.9408L227.563 19.5044C227.563 19.3614 227.563 19.3614 227.706 19.2184L232.426 14.7844ZM226.562 19.6475L227.563 24.3674L223.415 21.9359C223.272 21.7929 222.986 21.7929 222.7 21.7929V9.3493L224.559 13.7832C224.702 14.2123 225.131 14.4984 225.703 14.6414L230.566 15.2135L226.991 18.5032C226.562 18.6462 226.419 19.2184 226.562 19.6475Z" fill="#F0C401"></path>
</svg>
