<svg width="107" height="43" viewBox="0 0 107 43" fill="none" xmlns="http://www.w3.org/2000/svg">
<g clip-path="url(#clip0_1652_18058)">
<path d="M83.2148 34.6859H69.2882C69.2882 34.5049 69.2882 34.3553 69.2671 34.2126C69.2284 33.9098 69.348 33.7984 69.661 33.7671C70.129 33.7179 70.5924 33.6318 71.0466 33.5095C71.5495 33.3772 71.6304 33.2276 71.444 32.7577C71.0267 31.7089 70.5918 30.6647 70.1393 29.6252C70.0991 29.5608 70.0447 29.5064 69.9801 29.466C69.9155 29.4256 69.8424 29.4003 69.7665 29.392C68.1253 29.3781 66.4841 29.3781 64.8429 29.392C64.7163 29.392 64.5158 29.479 64.4912 29.573C64.1395 30.5615 63.7879 31.5569 63.4713 32.5558C63.4364 32.6411 63.4208 32.7329 63.4256 32.8248C63.4304 32.9167 63.4554 33.0064 63.499 33.0877C63.5426 33.169 63.6036 33.2398 63.6778 33.2953C63.752 33.3507 63.8376 33.3894 63.9285 33.4086C64.4455 33.5721 64.9836 33.6592 65.5181 33.7775C65.5885 33.7949 65.6623 33.8053 65.7502 33.8227V34.6616H59.2441C59.2441 34.5189 59.2441 34.3901 59.2125 34.2613C59.1703 33.9376 59.2687 33.7845 59.6415 33.7531C60.9005 33.6522 61.6672 32.9178 62.1314 31.7971C63.8898 27.5612 65.6764 23.3323 67.4383 19.093C67.579 18.745 67.7443 18.5953 68.1417 18.6266C68.5818 18.6614 69.0239 18.6614 69.464 18.6266C69.8157 18.6022 69.9634 18.7415 70.09 19.0547C71.5952 22.7673 73.1086 26.488 74.6302 30.2169C74.894 30.8573 75.1648 31.4942 75.4356 32.1312C75.5111 32.3277 75.6078 32.5156 75.724 32.6916C76.3992 33.6174 77.5316 34.1604 78.6394 33.1475C79.0465 32.7696 79.3699 32.3121 79.589 31.804C81.2419 27.9267 82.8561 24.0354 84.4809 20.1511C84.6567 19.7334 84.815 19.3088 85.019 18.9085C85.0611 18.8397 85.1178 18.7807 85.1852 18.7356C85.2526 18.6906 85.3291 18.6605 85.4093 18.6475C85.9122 18.6162 86.4151 18.6684 86.9145 18.6266C87.2979 18.5953 87.4421 18.7624 87.5687 19.0791C89.231 23.1769 90.9015 27.2723 92.5802 31.3655C92.6646 31.5743 92.7701 31.7762 92.8439 31.9885C92.9933 32.4829 93.2935 32.9195 93.7033 33.2385C94.1132 33.5575 94.6127 33.7434 95.1334 33.7705C95.5237 33.8193 95.5695 33.9828 95.4112 34.6616H86.7668C86.7668 34.491 86.7668 34.3448 86.7387 34.1986C86.7 33.8958 86.8231 33.7879 87.1361 33.7566C87.604 33.7046 88.0672 33.6173 88.5217 33.4956C89.0282 33.3633 89.102 33.2136 88.9156 32.7472C88.4983 31.6984 88.0634 30.6543 87.6109 29.6147C87.5707 29.5504 87.5163 29.496 87.4517 29.4555C87.3871 29.4151 87.314 29.3898 87.2381 29.3815C85.5828 29.3676 83.9252 29.3676 82.2653 29.3815C82.1966 29.3882 82.1305 29.411 82.0724 29.4479C82.0143 29.4848 81.9659 29.5348 81.9312 29.5939C81.5795 30.5092 81.2278 31.4246 80.9605 32.3574C80.7706 32.9874 80.9605 33.2693 81.5901 33.4886C81.9447 33.6237 82.3184 33.7036 82.6979 33.7253C83.1726 33.7253 83.3168 33.9306 83.243 34.3587C83.2289 34.4527 83.2254 34.5432 83.2148 34.6859ZM87.0552 28.2887C86.285 26.3952 85.5395 24.561 84.7974 22.7198L84.6884 22.7406L82.4763 28.2782L87.0552 28.2887ZM69.5871 28.2887C68.8099 26.3743 68.0608 24.5366 67.2766 22.6014L65.0223 28.2747L69.5871 28.2887Z" fill="#999998"/>
<path d="M31.0885 34.6617H22.5215V33.8194C22.9294 33.7742 23.3374 33.7428 23.7383 33.6802C24.3432 33.5862 24.7406 33.2765 24.7511 32.7509C24.7793 30.8609 24.7511 28.971 24.7511 27.0497H17.9848C17.9664 27.1802 17.9546 27.3114 17.9496 27.443C17.9496 28.9919 17.9496 30.5372 17.9496 32.0861C17.9496 33.1303 18.2309 33.44 19.2579 33.6523L19.6095 33.7185C20.3129 33.8507 20.3129 33.8507 20.1933 34.6548H11.6228V33.8264C11.9921 33.7811 12.3649 33.7394 12.7376 33.6872C13.6415 33.5549 13.9334 33.2382 13.9369 32.2949C13.9369 30.1161 13.9369 27.9373 13.9369 25.7584C13.9369 24.3453 13.9369 22.9322 13.9369 21.5226C13.9369 20.5654 13.7083 20.2766 12.7728 20.0155C12.393 19.9076 12.0061 19.8345 11.6052 19.7405V18.9087H20.2215V19.7371C19.7502 19.831 19.2719 19.9076 18.8147 20.019C18.2591 20.1547 17.9918 20.4088 17.9848 20.9518C17.9566 22.5737 17.9848 24.1922 17.9848 25.8489H24.8074C24.8074 25.1911 24.8074 24.5646 24.8074 23.9346C24.8074 23.0645 24.8074 22.1943 24.8074 21.3207C24.8275 21.0473 24.7487 20.7756 24.5851 20.5544C24.4214 20.3331 24.1836 20.1767 23.9141 20.113C23.4675 19.9703 23.0103 19.8658 22.532 19.7371V18.9087H31.1166V19.7371C30.6735 19.8171 30.2268 19.8832 29.7872 19.9807C29.0839 20.1373 28.8236 20.4262 28.8166 21.1397C28.7955 22.88 28.8166 24.6203 28.8166 26.3606C28.8166 28.2378 28.8166 30.1161 28.8166 31.9956C28.8166 33.1511 29.0909 33.4679 30.255 33.6732L30.5258 33.7185C31.2256 33.8473 31.2256 33.8473 31.0885 34.6617Z" fill="#999998"/>
<path d="M53.065 33.8229V34.6513H44.4276C44.4097 34.5968 44.3968 34.5409 44.3889 34.4842C44.3573 33.8194 44.3573 33.8194 45.029 33.7359C46.5764 33.5444 46.7206 33.3878 46.7206 31.8285V21.808C46.7206 21.5991 46.7206 21.3903 46.7206 21.178C46.7387 20.9344 46.6682 20.6925 46.5218 20.4959C46.3753 20.2993 46.1627 20.161 45.9223 20.106C45.444 19.9633 44.9552 19.8589 44.4347 19.7301V18.8982C44.5648 18.8982 44.6984 18.8739 44.8285 18.8739C47.8073 18.8739 50.8072 18.8425 53.7648 18.9087C54.7894 18.928 55.8067 19.0837 56.7893 19.3716C58.7587 19.9668 59.6028 21.4599 59.3425 23.4891C59.0823 25.4417 57.8901 26.5938 56.1141 27.262C54.6546 27.8154 53.1212 27.8885 51.5809 27.8746C50.7228 27.8746 50.7228 27.8746 50.7228 28.7343C50.7228 29.8481 50.7228 30.9584 50.7228 32.0722C50.7228 33.085 50.9936 33.4017 52.0029 33.614C52.3616 33.6976 52.6887 33.7533 53.065 33.8229ZM50.7333 23.3812C50.7333 24.4254 50.7333 25.4695 50.7333 26.4859C50.7333 26.7573 50.8177 26.8757 51.085 26.8339C51.5387 26.7852 51.9994 26.7921 52.4425 26.7051C53.5749 26.4754 54.4436 25.8942 54.7601 24.7351C55.0515 23.6856 55.0171 22.5735 54.6616 21.5435C54.5501 21.1653 54.3327 20.826 54.0346 20.5649C53.7365 20.3037 53.3699 20.1314 52.977 20.0677C52.3686 19.9563 51.7426 19.9563 51.1237 19.8937C50.772 19.8589 50.7157 20.0051 50.7192 20.3079C50.7333 21.3242 50.7228 22.344 50.7263 23.3673L50.7333 23.3812Z" fill="#999998"/>
<path d="M37.7423 18.2961C38.1077 18.1547 38.4308 17.9237 38.6812 17.6247C38.9316 17.3258 39.101 16.9687 39.1737 16.5872C39.2308 16.3825 39.2455 16.1685 39.2166 15.9581C39.1878 15.7477 39.1162 15.5453 39.0061 15.3631C38.8959 15.1809 38.7496 15.0227 38.5759 14.8981C38.4022 14.7734 38.2048 14.685 37.9955 14.638C36.6697 14.3213 35.3192 14.0986 33.9828 13.8236C33.1529 13.6531 32.3229 13.4755 31.4964 13.2702C31.2464 13.208 31.0026 13.1229 30.7685 13.0161C29.9701 12.6681 29.3617 12.1146 29.309 11.2132C29.2562 10.3117 29.7591 9.70957 30.4625 9.2397C31.8868 8.29299 34.2783 8.54359 35.4845 9.75482C36.0367 10.3222 35.9734 10.7329 35.2348 11.0183C34.7584 11.2023 34.2439 11.2693 33.7355 11.2135C33.2272 11.1577 32.7401 10.9809 32.3159 10.6981C32.1897 10.601 32.0391 10.54 31.8804 10.5216C31.7217 10.5032 31.561 10.5281 31.4156 10.5936C31.3238 10.6224 31.2422 10.6766 31.1807 10.7499C31.1191 10.8231 31.0801 10.9123 31.0682 11.0069C31.0564 11.1015 31.0722 11.1974 31.1138 11.2833C31.1554 11.3693 31.2211 11.4415 31.303 11.4916C31.5859 11.6946 31.906 11.8412 32.2455 11.9232C33.6523 12.2225 35.0379 12.4871 36.4411 12.7481C37.4962 12.95 38.5512 13.1832 39.4656 13.7923C39.8033 14.0181 40.0902 14.3105 40.3085 14.6511C40.5267 14.9917 40.6716 15.3733 40.734 15.7719C40.7964 16.1705 40.775 16.5775 40.6711 16.9676C40.5672 17.3576 40.3831 17.7222 40.1303 18.0386C39.6379 18.6755 39.448 18.7347 38.6813 18.5328L37.7423 18.2961ZM33.5221 9.6504L33.4975 9.80703C33.6997 9.95391 33.9165 10.0799 34.1446 10.1829C34.2572 10.2212 34.4224 10.0924 34.5666 10.0367C34.4893 9.90797 34.433 9.68869 34.338 9.66781C34.0683 9.63776 33.7964 9.63194 33.5257 9.6504H33.5221Z" fill="#999998"/>
<path d="M33.8177 8.53318L33.3499 8.48793C33.153 8.47053 32.9596 8.44617 32.7239 8.41832L32.9525 7.97281C32.8927 7.95193 32.847 7.93104 32.8435 7.938C32.5021 8.31785 32.0232 8.54921 31.5106 8.58191C30.5681 8.75942 30.1953 9.0309 29.3759 9.8732C30.023 8.40092 31.384 7.55862 32.5411 6.52142L32.4461 6.41004C32.2738 6.53534 32.0944 6.65368 31.9256 6.78246C30.8706 7.5621 29.8155 8.35915 28.7605 9.11792C28.4616 9.2957 28.1398 9.43269 27.8039 9.52514C27.6321 9.59727 27.4389 9.60138 27.2642 9.53661C27.0895 9.47184 26.9465 9.34314 26.8649 9.17708C26.8231 9.10377 26.7965 9.0229 26.7868 8.93926C26.7771 8.85562 26.7844 8.7709 26.8083 8.6901C26.8323 8.60931 26.8723 8.53408 26.9261 8.46887C26.9799 8.40366 27.0464 8.34978 27.1216 8.31042C27.7987 7.80103 28.5031 7.32815 29.2317 6.89384C30.1848 6.33695 31.1836 5.84967 32.1612 5.33803C32.2738 5.27886 32.3793 5.20576 32.4848 5.13963L32.4356 5.02477C32.2843 5.08742 32.1261 5.13615 31.9784 5.20924C30.4696 5.95409 28.9715 6.71633 27.4487 7.44028C27.0643 7.64202 26.6419 7.76314 26.2081 7.79607C25.7742 7.82901 25.3381 7.77306 24.9271 7.63172C24.6765 7.54302 24.4504 7.39727 24.2672 7.20622C24.0839 7.01517 23.9486 6.78418 23.8721 6.53186C24.5086 6.40308 25.1205 6.31258 25.7149 6.15248C27.0056 5.80442 28.2998 5.48073 29.5834 5.05958C30.2698 4.77917 30.9381 4.45719 31.5845 4.09546C31.8224 3.96679 32.0785 3.8741 32.3441 3.8205C32.494 3.78515 32.65 3.78398 32.8004 3.81708C32.9508 3.85018 33.0916 3.91669 33.2122 4.01157C33.3328 4.10646 33.4301 4.22724 33.4966 4.36478C33.5631 4.50232 33.5971 4.65302 33.5961 4.8055C33.633 5.13398 33.633 5.4655 33.5961 5.79398C33.4414 6.70589 33.371 7.60039 33.8177 8.53318Z" fill="#999998"/>
<path d="M49.8364 6.51426C49.6055 6.98906 49.2085 7.36494 48.719 7.57229C48.2295 7.77963 47.6807 7.80438 47.1742 7.64197C46.3444 7.40502 45.5426 7.08063 44.7828 6.67437C43.8578 6.19405 42.9892 5.60584 42.0924 5.06635C41.9834 5.00022 41.8603 4.95149 41.7407 4.89232L41.6668 4.9863C41.7899 5.08027 41.906 5.19165 42.0361 5.27518C43.4886 6.20449 44.948 7.12336 46.3935 8.05963C46.6629 8.23536 46.8977 8.45829 47.0863 8.71746C47.2129 8.88801 47.3325 9.20126 47.2551 9.34048C47.1857 9.44075 47.0943 9.52416 46.9877 9.58444C46.8811 9.64473 46.7621 9.68032 46.6396 9.68854C46.2708 9.6959 45.9066 9.60579 45.5846 9.42749C44.8531 8.9785 44.1568 8.47382 43.4745 7.95522C42.9364 7.54451 42.4194 7.07811 41.9165 6.63956C41.8026 6.54474 41.6656 6.48114 41.5191 6.45509C42.539 7.53755 43.8578 8.31023 44.6245 9.77903C44.4557 9.62937 44.3748 9.56672 44.3045 9.49362C43.8183 9.00672 43.194 8.67773 42.5144 8.55039C42.0748 8.44597 41.6493 8.30327 41.2097 8.17797L41.2589 8.42161L40.5766 8.50166C40.5766 7.36004 40.4993 6.2393 40.5766 5.129C40.6927 3.77506 41.9834 3.29822 43.0876 4.08483C44.9031 5.3638 47.0149 6.16941 49.228 6.42725L49.8364 6.51426Z" fill="#999998"/>
<path d="M37.897 12.7203C38.3928 12.6437 38.9133 12.5845 39.4233 12.4766C40.2849 12.2922 41.1395 12.0868 41.9906 11.8745C42.2101 11.814 42.4206 11.7251 42.6166 11.61C42.8768 11.4603 43.1054 11.2619 42.9682 10.9139C42.9084 10.7645 42.7962 10.6415 42.6522 10.5673C42.5081 10.4932 42.3419 10.4729 42.184 10.5101C42.0241 10.552 41.8729 10.6215 41.7374 10.7155C41.3249 10.9789 40.8578 11.147 40.3708 11.2073C39.8837 11.2675 39.3891 11.2184 38.9239 11.0635C38.0798 10.7746 37.9919 10.3256 38.625 9.72002C39.8277 8.57143 42.1418 8.32779 43.5485 9.22578C43.924 9.47722 44.2426 9.80316 44.484 10.1829C44.7402 10.5645 44.834 11.0307 44.7452 11.4803C44.6563 11.9299 44.3918 12.3266 44.0092 12.5845C43.6227 12.8738 43.1867 13.0919 42.7221 13.2284C41.9097 13.4721 41.0727 13.6322 40.2603 13.8132C40.1294 13.8464 39.9912 13.8367 39.8664 13.7853C39.2052 13.4547 38.5617 13.0822 37.897 12.7203ZM40.5979 9.81747V9.67825C40.3732 9.62002 40.1397 9.60234 39.9086 9.62604C39.7574 9.66781 39.6589 9.88708 39.5569 10.0298C39.7398 10.0716 39.9367 10.1795 40.0985 10.1412C40.2815 10.0607 40.4502 9.95137 40.5979 9.81747Z" fill="#999998"/>
<path d="M36.2614 14.4988C35.95 14.6946 35.6548 14.9145 35.3787 15.1567C35.1673 15.3793 35.017 15.6518 34.9421 15.9482C34.8673 16.2446 34.8704 16.555 34.9511 16.8499C35.0319 17.1448 35.1876 17.4143 35.4034 17.6327C35.6192 17.8511 35.888 18.0112 36.1841 18.0977C36.9754 18.3623 37.7948 18.5398 38.5825 18.7938C40.4148 19.4064 41.0654 21.2302 39.9893 22.8174C39.5321 23.5135 39.2472 23.8372 38.3504 23.4334C38.1616 23.3631 37.969 23.3026 37.7737 23.2524C37.9143 23.1724 38.0093 23.1132 38.1254 23.0645C38.4865 22.9139 38.7865 22.6482 38.9777 22.3095C39.1688 21.9709 39.2402 21.5788 39.1804 21.1954C39.103 20.4993 38.6951 20.0886 37.844 19.8624C37.0449 19.6879 36.256 19.4706 35.4807 19.2115C33.9896 18.6303 33.3003 17.607 33.3706 16.1869C33.4031 15.8457 33.4872 15.5113 33.6203 15.1949C33.972 14.2587 34.2182 14.1508 35.2029 14.3004C35.544 14.3492 35.8816 14.4188 36.2614 14.4988Z" fill="#999998"/>
<path d="M37.8195 27.8259C38.0657 27.6728 38.2485 27.5753 38.4138 27.4466C38.6356 27.2935 38.8104 27.0828 38.919 26.8378C39.0276 26.5928 39.0659 26.3228 39.0295 26.0577C38.9932 25.7925 38.8836 25.5424 38.713 25.3349C38.5423 25.1274 38.3171 24.9705 38.0622 24.8814C37.3799 24.6343 36.6554 24.5333 35.9521 24.3071C35.2145 24.0572 34.5938 23.5505 34.2056 22.8814C33.8174 22.2123 33.6882 21.4263 33.842 20.6699C33.9166 20.3932 34.0353 20.13 34.1936 19.8903C34.6192 19.1942 34.7458 19.1942 35.4914 19.4761C35.7305 19.5701 35.9732 19.6501 36.2721 19.758C36.1525 19.8485 36.0681 19.9181 35.9802 19.9808C35.6675 20.1636 35.4185 20.4364 35.2664 20.7629C35.1144 21.0894 35.0665 21.454 35.1291 21.8081C35.1853 22.1459 35.3428 22.4593 35.581 22.7075C35.8193 22.9557 36.1275 23.1274 36.4655 23.2003C37.0774 23.3778 37.7034 23.5031 38.3119 23.691C39.5814 24.0878 40.327 24.9997 40.3164 26.1274C40.3164 27.0533 39.7643 27.6519 39.0223 28.1114C38.9092 28.1552 38.7836 28.1552 38.6706 28.1114C38.4174 28.0383 38.1606 27.9408 37.8195 27.8259Z" fill="#999998"/>
<path d="M34.8757 24.1155L36.2543 24.7002C36.0925 24.822 35.9026 24.9334 35.7725 25.0692C35.5392 25.2546 35.3645 25.5023 35.2692 25.783C35.1738 26.0637 35.1617 26.3655 35.2344 26.6528C35.296 26.9272 35.4363 27.1783 35.6384 27.3758C35.8405 27.5733 36.0958 27.709 36.3739 27.7666C37.0772 27.958 37.8158 28.1146 38.5297 28.3304C39.3526 28.5776 39.7395 29.2041 39.8555 30.0011C39.9392 30.388 39.9088 30.7905 39.7679 31.1607C39.627 31.531 39.3815 31.8534 39.0607 32.0894C38.9668 32.1876 38.8408 32.2498 38.7051 32.2651C38.5693 32.2803 38.4325 32.2477 38.3187 32.173C38.0632 32.0474 37.7973 31.9438 37.5239 31.8632C37.7887 31.7656 38.0461 31.6493 38.294 31.5152C38.5015 31.3922 38.6706 31.2149 38.7827 31.0028C38.8947 30.7908 38.9453 30.5522 38.929 30.3134C38.9126 30.0746 38.8298 29.845 38.6899 29.6498C38.5499 29.4547 38.3581 29.3016 38.1358 29.2075C37.5413 28.9819 36.925 28.8175 36.2965 28.7168C34.8898 28.4383 34.095 27.6726 33.9472 26.3361C33.8837 25.9174 33.9366 25.4895 34.1002 25.0983C34.2637 24.7071 34.5318 24.3673 34.8757 24.1155Z" fill="#999998"/>
<path d="M54.6091 8.33484C53.8073 9.44514 52.7382 9.70619 51.5249 9.55304C49.9458 9.35813 48.5461 8.6655 47.157 7.88237C47.3047 7.88237 47.4524 7.88237 47.6001 7.90325C47.9329 7.93763 48.2692 7.90577 48.5893 7.80953C48.9094 7.71329 49.2068 7.55463 49.464 7.34288C49.5227 7.2898 49.5915 7.24889 49.6664 7.22259C49.7413 7.19628 49.8208 7.18511 49.9001 7.18974C51.4475 7.56216 52.9879 7.94154 54.6091 8.33484Z" fill="#999998"/>
<path d="M19.5142 8.26156C20.9525 7.9135 22.3276 7.56545 23.7344 7.2522C23.8258 7.23131 23.977 7.22435 24.0263 7.27656C24.7015 7.99356 25.5596 8.05621 26.4634 7.95179C26.4634 7.99704 26.4634 8.04229 26.4634 8.04577C25.2079 8.58177 23.977 9.16999 22.6969 9.62594C22.1122 9.78054 21.4988 9.79605 20.9068 9.67119C20.5525 9.61538 20.2258 9.44817 19.975 9.1943C19.7241 8.94042 19.5626 8.61338 19.5142 8.26156Z" fill="#999998"/>
<path d="M36.3846 29.0058C36.1982 29.1067 36.0645 29.1728 35.9379 29.2494C35.7005 29.3575 35.5008 29.5327 35.3639 29.7531C35.2271 29.9734 35.1593 30.2289 35.1691 30.4874C35.1789 30.7458 35.2658 30.9956 35.4189 31.2052C35.572 31.4148 35.7845 31.5747 36.0294 31.6649C36.3811 31.825 36.7785 31.9051 37.1477 32.0373C37.6306 32.1736 38.1011 32.3494 38.5545 32.5629C38.9346 32.7791 39.2165 33.1313 39.3421 33.547C39.4677 33.9627 39.4275 34.4102 39.2297 34.7974C38.8393 35.5144 38.5263 35.8694 37.5311 35.33C37.6788 35.2534 37.8159 35.1907 37.946 35.1211C38.1492 35.0138 38.3151 34.8486 38.4223 34.647C38.5296 34.4453 38.5731 34.2164 38.5474 33.9899C38.5434 33.7761 38.467 33.5697 38.3306 33.4038C38.1942 33.2379 38.0056 33.122 37.7948 33.0745C37.197 32.9005 36.5815 32.7822 35.9907 32.5942C34.7914 32.2183 34.1232 31.3377 34.176 30.2414C34.1871 29.955 34.2672 29.6754 34.4098 29.4259C34.5523 29.1764 34.7531 28.9644 34.9954 28.8074C35.1172 28.7261 35.2647 28.6915 35.4104 28.7099C35.7199 28.7691 36.0188 28.8944 36.3846 29.0058Z" fill="#999998"/>
<path d="M36.5358 4.81946H37.5592C37.5592 4.97956 37.5839 5.12227 37.5839 5.26497C37.5839 7.5343 37.5839 9.7897 37.5839 12.0695C37.5839 12.4802 37.4256 12.6055 37.0669 12.6055C36.7082 12.6055 36.4831 12.5393 36.4866 12.0799C36.5147 9.79666 36.4866 7.51341 36.4866 5.23016C36.5007 5.10138 36.5147 4.96564 36.5358 4.81946Z" fill="#999998"/>
<path d="M26.8084 8.14685C26.6044 8.568 26.411 8.93694 26.7134 9.36157C27.0159 9.78619 27.4907 9.82796 28.0182 9.76531C27.9166 9.84547 27.8097 9.91873 27.6981 9.98459C26.8119 10.4371 25.9397 10.9348 25.0183 11.3211C24.5266 11.5049 24.0034 11.5924 23.4779 11.5787C22.9328 11.5787 22.7253 11.2028 22.9504 10.7051C23.067 10.4122 23.2659 10.1585 23.5237 9.97415C24.6069 9.34416 25.7147 8.75595 26.8084 8.14685Z" fill="#999998"/>
<path d="M37.1304 1.54771C37.4363 1.55122 37.7343 1.6446 37.9865 1.816C38.2387 1.9874 38.4337 2.22909 38.5469 2.51039C38.66 2.7917 38.6862 3.09993 38.6221 3.39598C38.5579 3.69203 38.4063 3.96254 38.1866 4.17318C37.9668 4.38382 37.6888 4.52509 37.3877 4.57906C37.0867 4.63304 36.7762 4.59729 36.4958 4.47634C36.2153 4.35539 35.9775 4.15471 35.8125 3.89975C35.6474 3.6448 35.5627 3.34707 35.5689 3.04435C35.5772 2.64153 35.746 2.25827 36.0384 1.97797C36.3309 1.69768 36.7233 1.54304 37.1304 1.54771Z" fill="#999998"/>
<path d="M46.3831 9.90086C46.8368 9.93218 47.3432 9.87997 47.4382 9.41706C47.512 9.069 47.2834 8.66526 47.1955 8.31372C48.2506 8.82536 49.4709 9.2848 50.4662 10.141C50.7299 10.3673 50.9867 10.6457 50.8178 11.039C50.7372 11.1967 50.6051 11.3227 50.4429 11.3966C50.2807 11.4706 50.098 11.488 49.9246 11.4462C49.4701 11.4241 49.0223 11.3289 48.5987 11.1643C47.825 10.8162 47.0865 10.4055 46.3374 10.0192L46.3831 9.90086Z" fill="#999998"/>
<path d="M36.001 33.0223C35.9623 33.0676 35.9271 33.1128 35.8849 33.1546C35.0585 33.969 35.2871 34.9331 36.4054 35.3056C37.0244 35.5144 37.6609 35.6536 38.2694 35.8973C38.5413 35.9827 38.7773 36.1545 38.9407 36.386C39.1041 36.6176 39.1858 36.896 39.1732 37.1781C39.2011 37.4958 39.1257 37.814 38.9581 38.0864C38.7905 38.3587 38.5393 38.571 38.2412 38.6921C38.198 38.6975 38.1543 38.6975 38.1111 38.6921C38.2061 38.4972 38.2975 38.3197 38.3784 38.1353C38.7687 37.2199 38.41 36.5864 37.4394 36.3636C36.8026 36.2396 36.1837 36.0385 35.5966 35.765C35.3772 35.6685 35.1805 35.5281 35.0187 35.3526C34.857 35.1771 34.7337 34.9703 34.6567 34.7454C34.5798 34.5204 34.5507 34.282 34.5714 34.0454C34.5922 33.8087 34.6622 33.5789 34.7771 33.3704C35.1816 32.5002 35.3363 32.5977 36.001 33.0223Z" fill="#999998"/>
<path d="M29.4356 9.14917C29.0453 9.92882 29.1226 10.705 29.0839 11.4672C29.0839 11.5856 29.0488 11.7805 28.9784 11.8153C28.3005 12.0985 27.6079 12.3459 26.9035 12.5566C26.7821 12.571 26.6591 12.5546 26.5459 12.5089C26.4327 12.4632 26.3331 12.3898 26.2564 12.2956C26.2176 12.1783 26.2088 12.0532 26.2309 11.9317C26.253 11.8102 26.3053 11.696 26.383 11.5995C26.8655 11.0621 27.3874 10.5607 27.9445 10.0994C28.4224 9.75419 28.9203 9.43692 29.4356 9.14917Z" fill="#999998"/>
<path d="M44.5964 9.20142C45.7324 9.88013 46.7734 10.5205 47.5611 11.4847C47.6429 11.5733 47.7115 11.6729 47.7651 11.7805C47.8425 11.9824 48.0007 12.2817 47.9198 12.3826C47.8335 12.4588 47.7329 12.5174 47.6236 12.5551C47.5144 12.5927 47.3988 12.6086 47.2833 12.6019C46.5235 12.5761 45.7888 12.3264 45.1732 11.8849C45.0639 11.7809 45.0006 11.6382 44.9974 11.4881C45.0272 11.0781 45.0342 10.6668 45.0185 10.256C44.9178 9.89007 44.7762 9.53635 44.5964 9.20142Z" fill="#999998"/>
<path d="M36.5008 38.8208C36.5008 38.1769 36.5008 37.533 36.5008 36.8856C36.5008 36.5898 36.5536 36.4401 36.9123 36.5132C37.6473 36.6629 37.5735 36.5132 37.577 37.2824C37.577 38.438 37.577 39.5935 37.577 40.763C37.577 41.1389 37.4891 41.4278 37.0459 41.4591C36.6943 41.4591 36.5043 41.2537 36.5008 40.7908C36.4973 40.1121 36.5008 39.4682 36.5008 38.8208Z" fill="#999998"/>
<path d="M42.1628 3.45833C40.8545 3.6428 40.3375 4.21013 40.3199 5.50142C40.3199 6.0235 40.3762 6.54558 40.3868 7.07463C40.3868 7.42269 40.3657 7.77074 40.3551 8.1188C40.3446 8.46685 40.1441 8.56431 39.8592 8.71397C39.3014 9.00212 38.7787 9.35245 38.3013 9.75814C38.0797 9.94957 38.0094 10.315 37.7773 10.6352C37.7966 10.349 37.7966 10.0618 37.7773 9.77555C37.7245 9.36832 37.9215 9.25346 38.2767 9.14556C39.4091 8.79751 39.9718 7.69417 39.8381 6.32283C39.7842 5.66832 39.8043 5.0099 39.8979 4.35979C39.9657 4.02238 40.125 3.70957 40.3586 3.45485C40.8299 2.87359 41.5579 2.88751 42.1628 3.45833Z" fill="#999998"/>
<path d="M36.3 10.4371C35.871 9.54608 35.1254 9.06925 34.2884 8.69683C34.1639 8.61717 34.067 8.50181 34.0106 8.36617C33.6343 7.60393 33.6835 6.79296 33.7714 5.98199C33.8002 5.74398 33.8166 5.50467 33.8207 5.26499C33.8207 4.07116 33.4057 3.62565 32.2275 3.54908C32.3156 3.42165 32.432 3.31598 32.5679 3.24025C32.7038 3.16452 32.8555 3.12075 33.0112 3.11234C33.1669 3.10392 33.3225 3.13109 33.4659 3.19174C33.6094 3.25238 33.7367 3.34488 33.8382 3.46206C34.1139 3.84494 34.2924 4.28784 34.3587 4.75335C34.3918 5.27706 34.3742 5.80271 34.306 6.32308C34.2673 7.09229 34.3517 7.84757 34.8863 8.43927C35.1859 8.74748 35.5446 8.99358 35.9413 9.16322C36.2086 9.28504 36.3211 9.39642 36.293 9.67835C36.2649 9.96027 36.3 10.1865 36.3 10.4371Z" fill="#999998"/>
<path d="M37.591 16.3957C37.591 16.8308 37.591 17.2659 37.591 17.701C37.591 17.9864 37.4995 18.143 37.2076 18.0943C36.9157 18.0455 36.5289 18.1639 36.5043 17.7079C36.4832 16.8099 36.5043 15.9119 36.5043 15.014C36.5043 14.6415 36.7856 14.645 37.0072 14.6659C37.2287 14.6868 37.5734 14.6137 37.5769 15.014C37.591 15.4664 37.591 15.9328 37.591 16.3957Z" fill="#999998"/>
<path d="M37.5908 21.5643C37.5908 21.9367 37.5697 22.3126 37.5908 22.685C37.6154 22.9948 37.4395 23.1236 37.1969 23.0957C36.9542 23.0679 36.5392 23.1445 36.5216 22.7477C36.49 21.895 36.5216 21.0422 36.5216 20.1895C36.5271 20.1411 36.5428 20.0945 36.5676 20.0525C36.5925 20.0106 36.6259 19.9742 36.6658 19.9458C36.7623 19.9125 36.865 19.9004 36.9666 19.9104C37.0683 19.9203 37.1666 19.952 37.2547 20.0034C37.3427 20.0547 37.4184 20.1244 37.4764 20.2077C37.5344 20.2909 37.5735 20.3857 37.5908 20.4853C37.5908 20.8438 37.5908 21.2023 37.5908 21.5643Z" fill="#999998"/>
<path d="M36.5009 26.197C36.5009 25.849 36.5009 25.5392 36.5009 25.2086C36.5009 24.951 36.5994 24.7665 36.8526 24.8222C37.1058 24.8779 37.556 24.7491 37.556 25.1703C37.5911 25.9012 37.556 26.6356 37.556 27.3665C37.556 27.6937 37.2817 27.6763 37.1023 27.6519C36.9229 27.6275 36.5009 27.7215 36.4868 27.3039C36.4728 26.8862 36.5009 26.5695 36.5009 26.197Z" fill="#999998"/>
<path d="M37.591 30.3492V31.0662C37.5935 31.1734 37.5678 31.2794 37.5163 31.3737C37.4648 31.468 37.3893 31.5473 37.2973 31.6039C37.2053 31.6605 37.1 31.6924 36.9918 31.6964C36.8835 31.7003 36.7761 31.6763 36.6801 31.6266C36.633 31.5863 36.5948 31.5367 36.5682 31.4809C36.5415 31.4252 36.5269 31.3645 36.5254 31.3029C36.5254 30.7216 36.5254 30.1369 36.5254 29.5626C36.5254 29.1171 36.8771 29.1449 37.1197 29.1241C37.3624 29.1032 37.6402 29.1728 37.6051 29.5487C37.5523 29.8132 37.591 30.0777 37.591 30.3492Z" fill="#999998"/>
<path d="M36.5006 33.071C37.5557 33.1267 37.5557 33.1267 37.5557 34.0734V34.5642C37.5679 34.6617 37.5544 34.7607 37.5164 34.8515C37.4784 34.9423 37.4172 35.0217 37.3389 35.0821C37.2605 35.1424 37.1677 35.1816 37.0694 35.1957C36.9712 35.2099 36.8709 35.1986 36.7784 35.1629C36.7096 35.1348 36.6483 35.0913 36.5995 35.0357C36.5506 34.9801 36.5156 34.914 36.4971 34.8426C36.4865 34.2649 36.5006 33.6836 36.5006 33.071Z" fill="#999998"/>
<path d="M37.7703 12.4834C37.7703 12.0031 37.7703 11.6029 37.7703 11.2026C37.7703 10.8545 37.9989 10.7466 38.2661 10.9485C38.755 11.3105 39.2262 11.7142 39.701 12.0623L39.6694 12.1806L37.7703 12.4834Z" fill="#999998"/>
<path d="M34.5347 12.0624C34.9883 11.6517 35.442 11.2375 35.9027 10.8338C35.9731 10.7746 36.0961 10.7085 36.1665 10.7328C36.2368 10.7572 36.2931 10.8895 36.2931 10.9765C36.2931 11.4533 36.2931 11.9336 36.2931 12.4662L34.6191 12.219L34.5347 12.0624Z" fill="#999998"/>
<path d="M36.1842 36.3603C35.3789 37.1886 35.2945 37.662 35.7903 38.5809C35.1116 38.5809 34.6122 37.3487 34.9709 36.7083C35.3296 36.0679 35.5125 35.9844 36.1842 36.3603Z" fill="#999998"/>
<path d="M43.7207 13.1379C43.9212 12.9743 44.1287 12.8282 44.308 12.6541C44.4874 12.4801 44.6351 12.2713 44.8004 12.0798C45.2083 12.3931 45.3912 12.8282 45.2294 13.124C45.0676 13.4199 44.4417 13.4547 43.7207 13.1379Z" fill="#999998"/>
<path d="M29.3685 12.3094L30.4763 13.2179C30.3203 13.3404 30.1269 13.4071 29.9277 13.4071C29.7285 13.4071 29.5351 13.3404 29.3791 13.2179C29.1012 12.9325 29.1786 12.6262 29.3685 12.3094Z" fill="#999998"/>
<path d="M40.8368 11.5299C40.6785 11.7039 40.5519 11.9441 40.355 12.0415C40.0631 12.1877 39.6516 11.9232 39.3386 11.4359H40.7454L40.8368 11.5299Z" fill="#999998"/>
<path d="M33.5853 11.4393H34.9498C34.6579 11.9336 34.2465 12.2433 33.951 12.0937C33.7541 11.9893 33.638 11.7456 33.4868 11.5542L33.5853 11.4393Z" fill="#999998"/>
<path d="M41.7058 10.9416C41.9714 10.8769 42.242 10.8339 42.5147 10.8129C42.5921 10.8129 42.6729 11.0147 42.7538 11.1261C42.6272 11.2062 42.4901 11.3628 42.374 11.3524C42.1433 11.3057 41.919 11.2321 41.7058 11.1331V10.9416Z" fill="#999998"/>
<path d="M32.3157 11.1087C32.1526 11.2105 31.973 11.2835 31.7847 11.3245C31.6335 11.3245 31.4787 11.1957 31.324 11.1226C31.433 11.0043 31.542 10.7919 31.6546 10.7745C31.8889 10.7976 32.1186 10.8539 32.3368 10.9416L32.3157 11.1087Z" fill="#999998"/>
<path d="M42.1311 11.5367C41.6844 11.7908 41.3046 11.8848 40.9951 11.3766C41.4312 10.9903 41.7407 11.3975 42.1311 11.5367Z" fill="#999998"/>
<path d="M33.0191 11.3418C32.7377 11.8082 32.3861 11.8116 31.9148 11.5262C32.2946 11.387 32.5584 10.9972 33.0191 11.3418Z" fill="#999998"/>
</g>
<defs>
<clipPath id="clip0_1652_18058">
<rect width="83.8694" height="42.4524" fill="white" transform="translate(11.5664 0.228394)"/>
</clipPath>
</defs>
</svg>
