<?xml version="1.0" encoding="UTF-8"?>
<svg xmlns="http://www.w3.org/2000/svg" width="28" height="28" viewBox="0 0 28 28" fill="none">
  <rect width="28" height="28" rx="3.2768" fill="white"></rect>
  <path fill-rule="evenodd" clip-rule="evenodd" d="M4.53085 11.7326C5.37631 11.7326 6.06169 12.4179 6.06169 13.2634V14.7371C6.06169 15.5826 5.37631 16.2679 4.53085 16.2679C3.68538 16.2679 3 15.5826 3 14.7371V13.2634C3 12.4179 3.68538 11.7326 4.53085 11.7326Z" fill="#454444"></path>
  <path fill-rule="evenodd" clip-rule="evenodd" d="M23.4692 11.7326C24.3146 11.7326 25 12.4179 25 13.2634V14.7371C25 15.5826 24.3146 16.2679 23.4692 16.2679C22.6237 16.2679 21.9383 15.5826 21.9383 14.7371V13.2634C21.9383 12.4179 22.6237 11.7326 23.4692 11.7326Z" fill="#454444"></path>
  <path fill-rule="evenodd" clip-rule="evenodd" d="M9.26542 7.31158C10.1109 7.31158 10.7963 7.99696 10.7963 8.84242V13.6627C10.7963 14.5081 10.1109 15.1935 9.26542 15.1935C8.41996 15.1935 7.73458 14.5081 7.73458 13.6627V8.84242C7.73458 7.99696 8.41996 7.31158 9.26542 7.31158ZM9.26542 16.1538C10.1109 16.1538 10.7963 16.8392 10.7963 17.6846V19.1583C10.7963 20.0038 10.1109 20.6892 9.26542 20.6892C8.41996 20.6892 7.73458 20.0038 7.73458 19.1583V17.6846C7.73458 16.8392 8.41996 16.1538 9.26542 16.1538Z" fill="#454444"></path>
  <path fill-rule="evenodd" clip-rule="evenodd" d="M18.7346 7.31105C19.58 7.31105 20.2654 7.99643 20.2654 8.84189V10.3156C20.2654 11.1611 19.58 11.8464 18.7346 11.8464C17.8891 11.8464 17.2037 11.1611 17.2037 10.3156V8.84189C17.2037 7.99643 17.8891 7.31105 18.7346 7.31105ZM18.7346 12.8069C19.58 12.8069 20.2654 13.4923 20.2654 14.3378V19.158C20.2654 20.0035 19.58 20.6888 18.7346 20.6888C17.8891 20.6888 17.2037 20.0035 17.2037 19.158V14.3378C17.2037 13.4923 17.8891 12.8069 18.7346 12.8069Z" fill="#454444"></path>
  <path fill-rule="evenodd" clip-rule="evenodd" d="M14 3C14.8455 3 15.5308 3.68538 15.5308 4.53084V6.00455C15.5308 6.85001 14.8455 7.53539 14 7.53539C13.1545 7.53539 12.4692 6.85001 12.4692 6.00455V4.53084C12.4692 3.68538 13.1545 3 14 3ZM14 8.53954C14.8455 8.53954 15.5308 9.22492 15.5308 10.0704V17.9301C15.5308 18.7755 14.8455 19.4609 14 19.4609C13.1545 19.4609 12.4692 18.7755 12.4692 17.9301V10.0704C12.4692 9.22492 13.1545 8.53954 14 8.53954ZM14 20.4646C14.8455 20.4646 15.5308 21.15 15.5308 21.9955V23.4692C15.5308 24.3146 14.8455 25 14 25C13.1545 25 12.4692 24.3146 12.4692 23.4692V21.9955C12.4692 21.15 13.1545 20.4646 14 20.4646Z" fill="#454444"></path>
</svg>
