<svg width="196" height="60" viewBox="0 0 196 60" fill="none" xmlns="http://www.w3.org/2000/svg">
<g clip-path="url(#clip0_101_6)">
<path fill-rule="evenodd" clip-rule="evenodd" d="M29.828 1.42893e-06C41.8968 -0.00371968 52.7795 7.2605 57.4006 18.4049C62.0218 29.5494 59.4713 42.3791 50.9386 50.9109C42.4059 59.4426 29.5716 61.9959 18.4212 57.3802C7.27061 52.7644 5.74131e-07 41.8887 0 29.8248C-7.83738e-07 13.3566 13.353 0.00508107 29.828 1.42893e-06ZM28.9999 43.5964V49.5024H39.0316C39.6877 49.4892 40.3397 49.3965 40.9736 49.2264C41.6434 49.0483 42.2697 48.7353 42.8141 48.3065C43.2545 47.9184 43.6034 47.4378 43.8358 46.8991C44.1581 46.1151 44.3087 45.2713 44.2775 44.4244V31.1219H51.7046V24.5533H29.3957V31.1219H36.8596V40.9378C36.8531 41.2768 36.8224 41.615 36.7675 41.9497C36.709 42.3375 36.5208 42.6942 36.2338 42.9616C35.9915 43.2327 35.6692 43.4196 35.3134 43.4952C34.9789 43.5506 34.6402 43.5782 34.3011 43.578L28.9999 43.5964ZM25.3183 49.5028V43.5967H24.7293C23.2451 43.6151 21.7719 43.3401 20.3945 42.7871C18.9582 42.1201 17.8181 40.9477 17.1918 39.4937C16.7063 38.4985 16.3654 37.439 16.1794 36.3475C16.0322 35.5564 15.8941 34.6271 15.7836 33.5876C15.6652 32.3462 15.6098 31.0996 15.618 29.8526C15.6105 28.624 15.6659 27.3958 15.7836 26.1729C15.8941 25.1241 16.0322 24.2225 16.1794 23.4774C16.2973 22.8512 16.4666 22.2359 16.6856 21.6375C16.8313 21.2177 17.0193 20.8139 17.247 20.4323C17.9919 19.0484 19.1545 17.9345 20.5693 17.2493C22.2584 16.4727 24.1043 16.098 25.9625 16.1546H43.4489V10.1197H23.8642C20.5271 9.98338 17.2228 10.8243 14.3571 12.5391C12.9671 13.4053 11.7854 14.5676 10.8967 15.943C10.0517 17.2869 9.4069 18.7464 8.98239 20.276C8.55155 21.8559 8.27114 23.473 8.14488 25.1057C8.00682 26.78 7.9424 28.4175 7.9424 30.0274C7.9424 31.4165 7.9424 32.8609 8.08965 34.3604C8.17842 35.8479 8.39395 37.3251 8.7339 38.7762C9.07274 40.2127 9.59226 41.6007 10.2801 42.9067C10.9895 44.2445 11.9559 45.4293 13.1239 46.3933C14.2182 47.2613 15.4297 47.9705 16.7224 48.5C18.4763 49.2024 20.3557 49.5375 22.2444 49.4843L25.3183 49.5028Z" fill="#EFD800"/>
<path d="M57.4006 18.4049C52.7795 7.2605 41.8968 -0.00371825 29.828 1.42784e-06C13.353 0.0050825 0 13.3566 0 29.8248C0 29.8832 0.000170592 29.9416 0.000511389 30H7.9424C7.94313 28.3989 8.0076 26.7705 8.14488 25.1057C8.27114 23.473 8.55155 21.8559 8.98239 20.276C9.4069 18.7465 10.0518 17.2869 10.8967 15.943C11.7854 14.5676 12.9671 13.4053 14.3571 12.5391C17.2228 10.8243 20.5271 9.98338 23.8642 10.1197H43.4489V16.1546H25.9625C24.1043 16.098 22.2584 16.4727 20.5693 17.2493C19.1545 17.9345 17.9919 19.0484 17.247 20.4323C17.0193 20.8139 16.8313 21.2177 16.6856 21.6375C16.4666 22.2359 16.2973 22.8512 16.1794 23.4774C16.0322 24.2225 15.8941 25.1241 15.7836 26.1729C15.6659 27.3958 15.6105 28.624 15.618 29.8526C15.6177 29.9017 15.6175 29.9509 15.6173 30H29.3957V24.5534H51.7046V30H59.6748C59.6986 26.0961 58.9556 22.1551 57.4006 18.4049Z" fill="url(#paint0_linear_101_6)"/>
<path fill-rule="evenodd" clip-rule="evenodd" d="M191.117 19.8331C191.04 19.9571 190.978 20.0899 190.932 20.2286L185.981 33.0068C185.834 33.3656 185.695 33.6967 185.558 33.9727C185.432 34.2418 185.26 34.4876 185.052 34.6994C184.845 34.906 184.593 35.0605 184.316 35.1503C183.971 35.2584 183.609 35.3081 183.248 35.2974C182.862 35.3088 182.476 35.2432 182.116 35.1042C181.833 34.9925 181.578 34.8198 181.37 34.5983C181.165 34.3884 180.997 34.1459 180.874 33.8807C180.739 33.5812 180.621 33.2741 180.523 32.9607L175.627 20.2103C175.578 20.0714 175.513 19.9387 175.435 19.8146L175.424 19.7942C175.348 19.651 175.309 19.5755 175.168 19.5755C175.019 19.5755 174.909 19.6766 174.909 19.8423V20.155L174.992 35.0306H171.385V18.214C171.353 17.7021 171.5 17.1952 171.799 16.7789C172.043 16.459 172.357 16.2007 172.719 16.0245C173.04 15.8704 173.386 15.7739 173.741 15.7393H174.468C174.935 15.7284 175.402 15.7935 175.849 15.9325C176.189 16.0392 176.503 16.2179 176.769 16.4568C177.016 16.6881 177.224 16.9585 177.385 17.2572C177.554 17.5532 177.701 17.8607 177.827 18.1771L182.769 30.9276C182.846 31.101 182.932 31.2698 183.027 31.4337C183.109 31.5716 183.193 31.636 183.284 31.636C183.376 31.636 183.468 31.5716 183.552 31.4337C183.647 31.2698 183.733 31.101 183.809 30.9276L188.752 18.1771C188.911 17.7141 189.136 17.2771 189.423 16.88C189.642 16.5876 189.914 16.338 190.224 16.1441C190.507 15.9755 190.819 15.8601 191.144 15.8037C191.47 15.7476 191.799 15.7198 192.129 15.7209C192.912 15.692 193.685 15.9005 194.347 16.3188C194.949 16.7636 195.28 17.4865 195.221 18.2323V35.049H191.613L191.724 20.1734C191.724 19.9159 191.678 19.7594 191.595 19.6951C191.54 19.6414 191.469 19.6061 191.393 19.5938C191.301 19.5938 191.209 19.6766 191.117 19.8331ZM112.032 15.7202H113.873C114.552 15.7415 115.229 15.8123 115.898 15.9318C116.583 16.0624 117.253 16.2659 117.895 16.5389C118.549 16.8144 119.145 17.2107 119.652 17.7073C120.146 18.187 120.546 18.7549 120.831 19.3815C121.121 20.0186 121.343 20.6847 121.493 21.3686C121.651 22.0612 121.75 22.766 121.788 23.4754V25.4625C121.788 26.0787 121.788 26.7687 121.723 27.4771C121.679 28.1792 121.583 28.8771 121.438 29.5654C121.291 30.2491 121.072 30.9151 120.785 31.5525C120.5 32.1792 120.1 32.7469 119.607 33.2268C119.097 33.7203 118.501 34.1163 117.849 34.3951C117.208 34.6694 116.538 34.8701 115.852 34.9932C115.181 35.1205 114.5 35.1943 113.818 35.2139H111.977H110.136C109.46 35.194 108.786 35.1201 108.121 34.9932C107.434 34.8713 106.764 34.6706 106.124 34.3951C105.471 34.1163 104.875 33.7203 104.366 33.2268C103.824 32.7043 103.392 32.0787 103.096 31.3869C102.796 30.7246 102.574 30.03 102.433 29.317C102.3 28.6373 102.22 27.9484 102.194 27.2563V25.4164C102.194 24.8552 102.194 24.0918 102.249 23.3834C102.285 22.6872 102.378 21.9949 102.525 21.3134C102.668 20.6347 102.887 19.9743 103.179 19.3448C103.477 18.7094 103.896 18.1377 104.412 17.6612C104.916 17.1907 105.503 16.8165 106.142 16.5574C106.778 16.2844 107.441 16.0808 108.121 15.9501C108.783 15.8307 109.454 15.7601 110.127 15.7385H111.968L112.032 15.7202ZM84.7625 25.6748H84.7901L84.7625 25.5643V25.6748ZM84.7625 32.4732V25.6748H75.9641V29.0418H81.1825V30.8817C81.1948 31.047 81.1948 31.2132 81.1825 31.3785C81.1484 31.5635 81.0585 31.7337 80.9247 31.866C80.7999 31.9999 80.6354 32.0901 80.4553 32.1236C80.2931 32.1376 80.1298 32.1376 79.9676 32.1236H75.2923C74.5737 32.1294 73.861 31.9951 73.1939 31.728C72.4951 31.4052 71.9411 30.8349 71.6386 30.1273C71.5453 29.9356 71.4623 29.7391 71.3901 29.5385C71.2824 29.2391 71.1993 28.9314 71.1416 28.6186C71.068 28.2323 71.0036 27.7814 70.9483 27.2663C70.8884 26.6549 70.8607 26.0407 70.8655 25.4263C70.8594 24.812 70.8871 24.1978 70.9483 23.5865C71.0036 23.0713 71.068 22.6666 71.1416 22.2709C71.1986 21.958 71.2818 21.6503 71.3901 21.351C71.4636 21.1481 71.5527 20.9512 71.657 20.7623C72.0233 20.0915 72.5893 19.5512 73.2768 19.2167C74.0985 18.84 74.996 18.6575 75.8997 18.6832H84.3944V15.822H74.8506C73.2358 15.757 71.6369 16.1629 70.2489 16.9905C69.576 17.4133 69.0043 17.9785 68.5739 18.6463C68.1601 19.2936 67.8496 20.0012 67.6536 20.7439C67.4397 21.5136 67.301 22.3023 67.2394 23.0989C67.175 23.9085 67.1473 24.6996 67.1473 25.4816C67.1473 26.2635 67.1473 26.8616 67.2117 27.5883C67.2553 28.3103 67.3599 29.0273 67.5247 29.7318C67.6882 30.4301 67.9419 31.1043 68.2793 31.7372C68.6244 32.3862 69.0934 32.9614 69.6599 33.43C70.1898 33.8538 70.7789 34.1977 71.4084 34.4511C72.2675 34.796 73.189 34.9589 74.1142 34.9295H82.2132C82.5237 34.9199 82.8323 34.8768 83.1335 34.8007C83.4677 34.719 83.7811 34.5686 84.0539 34.3591C84.27 34.1737 84.4401 33.9406 84.5509 33.6783C84.704 33.2955 84.7761 32.8852 84.7625 32.4732ZM102.774 32.1975V35.0402L89.9538 35.0585C89.6445 35.053 89.3364 35.0192 89.0335 34.9574C88.7336 34.8952 88.453 34.7628 88.2143 34.5709C88.0409 34.4004 87.8895 34.2087 87.7634 34.0006C87.6004 33.6888 87.5211 33.3402 87.5334 32.9887V15.9512H91.141V31.1579V31.5536C91.1584 31.7218 91.2451 31.8751 91.3804 31.9767C91.465 32.0306 91.5543 32.0769 91.6472 32.1147C91.852 32.1811 92.0672 32.2093 92.2822 32.1975H102.774ZM106.004 27.5331C105.936 26.8546 105.905 26.1728 105.912 25.4909H105.939C105.906 24.3417 106.011 23.1926 106.252 22.0687C106.408 21.376 106.702 20.722 107.117 20.146C107.643 19.4681 108.4 19.0066 109.243 18.8487C110.152 18.6683 111.077 18.5789 112.004 18.582C112.931 18.5807 113.856 18.67 114.765 18.8487C115.618 19.0018 116.385 19.4637 116.919 20.146C117.089 20.3572 117.237 20.5853 117.361 20.8267C117.522 21.1592 117.649 21.5076 117.738 21.8663C117.861 22.3622 117.947 22.8664 117.996 23.3749C118.067 24.0779 118.101 24.7842 118.097 25.4909C118.1 26.1668 118.067 26.8425 117.996 27.5147C117.946 28.0202 117.86 28.5214 117.738 29.0142C117.65 29.3808 117.526 29.7381 117.37 30.0814C117.253 30.3457 117.101 30.5932 116.919 30.8174C116.649 31.1654 116.314 31.4588 115.934 31.6821C115.563 31.897 115.163 32.0582 114.747 32.1604C114.31 32.271 113.863 32.3388 113.412 32.3628H111.977H110.523C110.072 32.3394 109.625 32.2716 109.188 32.1604C108.776 32.0532 108.38 31.8924 108.01 31.6821C107.648 31.4596 107.334 31.1653 107.09 30.8174C106.908 30.5993 106.757 30.358 106.639 30.0998C106.479 29.757 106.353 29.3996 106.262 29.0327C106.146 28.5384 106.06 28.0376 106.004 27.5331ZM124.568 35.049H128.175V20.1734C128.161 19.9865 128.161 19.7989 128.175 19.6122C128.222 19.4071 128.343 19.2267 128.516 19.1063C128.63 18.978 128.781 18.888 128.948 18.8486C129.122 18.8326 129.299 18.8326 129.473 18.8486H135.317C135.655 18.8538 135.993 18.8784 136.329 18.9222C136.712 18.9681 137.068 19.1473 137.332 19.4282C137.572 19.6887 137.743 20.0049 137.83 20.3481C137.979 20.9151 138.044 21.5009 138.023 22.0869V22.694C138.023 22.9332 138.023 23.1724 137.968 23.4116C137.94 23.6571 137.895 23.9 137.83 24.1383C137.783 24.3392 137.706 24.5317 137.599 24.7087C137.394 25.0551 137.065 25.3114 136.679 25.4262C136.343 25.5106 135.996 25.5538 135.648 25.555H132.05C131.615 25.5253 131.184 25.66 130.845 25.9323C130.579 26.163 130.429 26.5005 130.439 26.8523V27.2846C130.448 27.5959 130.551 27.8974 130.733 28.1494C130.911 28.4178 131.111 28.6701 131.332 28.9036L137.618 35.0949H142.155L134.885 28.3518V28.2138H137.351C137.83 28.2233 138.306 28.1644 138.768 28.0389C139.129 27.9358 139.474 27.7808 139.79 27.579C140.054 27.4039 140.289 27.1898 140.489 26.9442C140.667 26.7311 140.821 26.4998 140.95 26.2542C141.321 25.5826 141.559 24.8452 141.649 24.0832C141.729 23.3714 141.769 22.6558 141.768 21.9396C141.766 21.2263 141.723 20.5138 141.639 19.8053C141.538 19.058 141.254 18.3471 140.811 17.7354C140.576 17.347 140.263 17.0118 139.891 16.7512C139.572 16.5222 139.218 16.3453 138.842 16.2267C138.485 16.1195 138.118 16.0516 137.746 16.0243H136.706H127.641C127.252 16.0237 126.862 16.0669 126.481 16.1532C126.05 16.2558 125.656 16.4754 125.341 16.7879C124.984 17.1057 124.745 17.533 124.66 18.0023C124.587 18.4216 124.551 18.8463 124.549 19.2718V35.1318L124.568 35.049ZM148.229 15.9416V35.049H144.621V15.9416H148.229ZM159.816 32.3991H158.896C158.555 32.3702 158.216 32.3147 157.884 32.2335C157.542 32.1488 157.212 32.0254 156.899 31.8656C156.579 31.6974 156.289 31.4767 156.043 31.2123C155.608 30.7651 155.324 30.1922 155.233 29.5748C155.155 29.014 155.114 28.4484 155.113 27.8822V15.9779H151.506V28.3696C151.512 29.2116 151.607 30.0505 151.791 30.872C152.021 31.7812 152.499 32.6091 153.172 33.2638C153.63 33.7401 154.174 34.1269 154.773 34.4045C155.345 34.6725 155.944 34.8792 156.559 35.0209C157.133 35.1545 157.718 35.2376 158.307 35.2693H159.816H161.317C161.906 35.2376 162.49 35.1545 163.065 35.0209C163.681 34.8792 164.279 34.6725 164.851 34.4045C165.452 34.1292 165.995 33.7421 166.452 33.2638C167.124 32.6091 167.602 31.7812 167.832 30.872C168.021 30.0512 168.117 29.2118 168.118 28.3696V15.9779H164.51V27.8822V28.6733C164.504 28.9829 164.466 29.2909 164.4 29.5933C164.335 29.9076 164.243 30.2154 164.123 30.5132C164.003 30.8045 163.832 31.0722 163.617 31.3044C163.355 31.5779 163.043 31.7996 162.697 31.9575C162.376 32.1207 162.036 32.2443 161.685 32.3255C161.35 32.4075 161.008 32.4629 160.664 32.491H159.742L159.816 32.3991Z" fill="url(#paint1_linear_101_6)"/>
<path d="M70.8648 48.8873V41.4449H67.4503V40.1294H75.945V41.4449H72.5121V48.8873H70.8648Z" fill="#333333"/>
<path d="M80.4722 48.8865C80.114 48.9372 79.7508 48.8373 79.469 48.6105C79.2242 48.3261 79.1077 47.9534 79.1469 47.5801V41.3797C79.1344 41.0465 79.2422 40.7201 79.4507 40.4597C79.7355 40.2014 80.1174 40.0774 80.4998 40.1193H86.1138V41.4349H81.3833C81.2235 41.4196 81.0635 41.4621 80.9323 41.5546C80.8254 41.6716 80.7749 41.8296 80.7942 41.9869V43.7439H85.9942V45.0595H80.7942V47.111C80.7907 47.237 80.837 47.3594 80.9231 47.4513C81.0244 47.5526 81.2269 47.5618 81.4845 47.5618H86.1691V48.8774L80.4722 48.8865Z" fill="#333333"/>
<path d="M93.2741 48.887C92.2473 48.9631 91.2387 48.5867 90.513 47.8566C89.8245 46.9276 89.4974 45.7799 89.5927 44.6276C89.474 43.4323 89.7733 42.2328 90.4394 41.233C91.1895 40.4638 92.2383 40.0604 93.3108 40.1291H96.8266V41.4446H94.0655C93.0899 41.4446 92.2249 41.509 91.7647 42.2541C91.3704 42.9729 91.2005 43.7932 91.2769 44.6093C91.2069 45.3428 91.3508 46.0808 91.691 46.7343C92.142 47.4243 92.9427 47.5714 93.9827 47.5714H96.9461V48.887H93.2741Z" fill="#333333"/>
<path d="M108.497 48.8873H106.85V45.0327H102.294V48.8873H100.637V40.1294H102.294V43.7171H106.85V40.1294H108.497V48.8873Z" fill="#333333"/>
<path d="M120.93 47.7464C120.958 48.0934 120.828 48.4344 120.576 48.6752C120.325 48.9159 119.978 49.0309 119.632 48.9884C119.056 49.0316 118.506 48.7423 118.215 48.2432L114.534 42.42C114.414 42.2268 114.359 42.2084 114.331 42.2084C114.219 42.2355 114.144 42.3418 114.157 42.4567V48.8965H112.555V41.224C112.555 40.4788 113.071 40.0373 113.899 40.0373C114.456 39.9849 114.994 40.2522 115.289 40.7273L118.97 46.5965C119.034 46.6793 119.062 46.8081 119.172 46.8081C119.283 46.8081 119.31 46.6517 119.31 46.5965V40.1569H120.912L120.93 47.7464Z" fill="#333333"/>
<path fill-rule="evenodd" clip-rule="evenodd" d="M133.732 44.5081C133.732 43.358 133.65 41.877 132.729 40.9571C131.772 40.0369 130.336 40.037 129.272 40.0371C129.262 40.0371 129.251 40.0371 129.241 40.0371C128.173 40.0371 126.692 40.0555 125.744 40.9571C124.796 41.8585 124.732 43.3213 124.732 44.5081C124.732 45.4923 124.777 47.1392 125.744 48.0591C126.71 48.9789 128.229 48.9789 129.241 48.9789C130.253 48.9789 131.827 48.933 132.729 48.0591C133.632 47.1851 133.732 45.658 133.732 44.5081ZM129.223 47.6725C128.401 47.8043 127.567 47.5339 126.977 46.9458H127.006C126.542 46.2219 126.342 45.3618 126.435 44.508C126.337 43.6516 126.528 42.7869 126.977 42.0516C127.575 41.4804 128.406 41.2187 129.223 41.3433C130.046 41.2268 130.878 41.487 131.487 42.0516C131.951 42.7812 132.143 43.6508 132.03 44.508C132.13 45.3585 131.939 46.2178 131.487 46.9458C130.889 47.5306 130.05 47.7998 129.223 47.6725Z" fill="#333333"/>
<path d="M138.657 48.8873C138.369 48.8999 138.084 48.8194 137.847 48.6572C137.637 48.4745 137.523 48.2075 137.533 47.9305V40.1294H139.181V47.0933C139.16 47.2308 139.204 47.3699 139.301 47.4706C139.42 47.551 139.563 47.5869 139.705 47.5717H144.491V48.8873H138.657Z" fill="#333333"/>
<path fill-rule="evenodd" clip-rule="evenodd" d="M155.802 44.5081C155.802 43.358 155.718 41.877 154.798 40.9571C153.842 40.0369 152.406 40.037 151.341 40.0371C151.33 40.0371 151.321 40.0371 151.311 40.0371C150.243 40.0371 148.762 40.0555 147.813 40.9571C146.865 41.8585 146.8 43.3213 146.8 44.5081C146.8 45.4923 146.847 47.1392 147.813 48.0591C148.78 48.9789 150.298 48.9789 151.311 48.9789C152.323 48.9789 153.897 48.933 154.798 48.0591C155.7 47.1851 155.802 45.658 155.802 44.5081ZM151.292 47.673C150.468 47.8032 149.63 47.5333 149.037 46.9463C148.594 46.2153 148.406 45.3576 148.503 44.5083C148.409 43.6533 148.596 42.7906 149.037 42.0521C149.64 41.4818 150.472 41.2205 151.292 41.3438C152.116 41.2272 152.946 41.4874 153.556 42.0521C154.02 42.7817 154.213 43.6513 154.099 44.5083C154.199 45.359 154.007 46.2183 153.556 46.9463C152.958 47.531 152.119 47.8003 151.292 47.673Z" fill="#333333"/>
<path d="M167.444 47.7565C167.465 48.0776 167.348 48.3925 167.122 48.6213C166.872 48.7999 166.572 48.8935 166.266 48.8881H162.538C161.799 48.9117 161.076 48.6666 160.504 48.1981C159.437 47.2782 159.354 45.7879 159.354 44.5184C159.354 43.0833 159.483 41.4733 160.771 40.6361C161.41 40.2545 162.145 40.066 162.888 40.0934H167.241V41.4089H163.357C162.588 41.3231 161.836 41.6793 161.416 42.3289C161.122 42.9935 160.996 43.72 161.047 44.4448C161.003 45.1794 161.122 45.9147 161.397 46.5974C161.712 47.2251 162.384 47.5917 163.082 47.5174H165.217C165.377 47.5382 165.538 47.4879 165.658 47.3794C165.766 47.2555 165.816 47.0916 165.796 46.9287V44.5367H167.444V47.7565Z" fill="#333333"/>
<path d="M171.245 48.8873V40.1294H172.903V48.8873H171.245Z" fill="#333333"/>
<path d="M178.277 48.8865C177.918 48.9372 177.555 48.8373 177.273 48.6105C177.028 48.3261 176.912 47.9534 176.951 47.5801V41.3797C176.939 41.0465 177.047 40.7201 177.255 40.4597C177.539 40.2014 177.922 40.0774 178.304 40.1193H183.918V41.4349H179.188C179.028 41.4196 178.868 41.4621 178.737 41.5546C178.63 41.6716 178.579 41.8296 178.599 41.9869V43.7439H183.799V45.0595H178.599V47.111C178.595 47.237 178.642 47.3594 178.728 47.4513C178.829 47.5526 179.031 47.5618 179.289 47.5618H183.973V48.8774L178.277 48.8865Z" fill="#333333"/>
<path d="M187.388 47.5715H192.238C193.029 47.5715 193.066 46.9184 193.066 46.6515C193.066 46.3847 192.974 45.8971 192.21 45.658L188.759 44.5725C188.359 44.4552 187.998 44.229 187.719 43.9193C187.387 43.4373 187.228 42.8567 187.268 42.2725C187.213 41.6728 187.421 41.0788 187.839 40.6443C188.236 40.3011 188.75 40.1262 189.275 40.1567H194.318V41.4722H189.836C189.588 41.4433 189.338 41.5164 189.146 41.6746C188.986 41.8601 188.906 42.1018 188.924 42.3462C188.924 42.7326 189.035 43.1097 189.734 43.3305L192.938 44.3425C193.394 44.4585 193.822 44.6718 194.189 44.968C194.597 45.434 194.806 46.0422 194.769 46.6607C194.808 47.2376 194.653 47.8109 194.327 48.2891C193.947 48.7515 193.356 48.9876 192.762 48.9147H187.388V47.5715Z" fill="#333333"/>
</g>
<defs>
<linearGradient id="paint0_linear_101_6" x1="50.96" y1="-3.91837" x2="29.8535" y2="59.6557" gradientUnits="userSpaceOnUse">
<stop stop-color="#3491E7"/>
<stop offset="1" stop-color="#1E68B9"/>
</linearGradient>
<linearGradient id="paint1_linear_101_6" x1="176.523" y1="14.432" x2="175.349" y2="37.5411" gradientUnits="userSpaceOnUse">
<stop stop-color="#3491E7"/>
<stop offset="1" stop-color="#1E68B9"/>
</linearGradient>
<clipPath id="clip0_101_6">
<rect width="195.228" height="59.6505" fill="white"/>
</clipPath>
</defs>
</svg>
