<svg width="50" height="50" viewBox="0 0 50 50" fill="none" xmlns="http://www.w3.org/2000/svg">
<path d="M49.1985 24.5157L39.718 8.0919C38.6379 6.22322 36.6492 5.07458 34.4891 5.07458H15.5195C13.3593 5.07458 11.3707 6.22322 10.2906 8.0919L0.810046 24.5157C-0.270015 26.3844 -0.270015 28.6817 0.810046 30.5503L10.2906 46.9827C11.3707 48.8514 13.3593 50 15.5195 50H34.4805C36.6407 50 38.6293 48.8514 39.7094 46.9827L49.19 30.5503C50.27 28.6817 50.27 26.3844 49.19 24.5157H49.1985Z" fill="#3E83CC"/>
<path d="M25.0086 21.1898C25.0086 21.1898 23.217 17.1524 19.4111 16.5781C14.5508 15.8323 10.7106 18.7468 9.78485 23.3156C8.59335 29.2217 18.3311 37.8107 22.8227 41.4109C24.1 42.4396 25.9172 42.4396 27.1944 41.4109C31.6861 37.8107 41.4238 29.2217 40.2323 23.3156C39.3065 18.7468 35.4663 15.8323 30.606 16.5781C26.8087 17.161 25.0086 21.1898 25.0086 21.1898Z" fill="white"/>
<path d="M28.5059 27.7988H26.5344V25.8272C26.5344 24.9786 25.8486 24.2928 25 24.2928C24.1514 24.2928 23.4656 24.9786 23.4656 25.8272V27.7988H21.4941C20.6455 27.7988 19.9597 28.4845 19.9597 29.3331C19.9597 30.1818 20.6455 30.8675 21.4941 30.8675H23.4656V32.8391C23.4656 33.6877 24.1514 34.3734 25 34.3734C25.8486 34.3734 26.5344 33.6877 26.5344 32.8391V30.8675H28.5059C29.3545 30.8675 30.0403 30.1818 30.0403 29.3331C30.0403 28.4845 29.3545 27.7988 28.5059 27.7988Z" fill="#0063C1"/>
</svg>
