<svg width="70" height="70" viewBox="0 0 70 70" fill="none" xmlns="http://www.w3.org/2000/svg">
<path d="M53.0385 0H16.9615C7.59395 0 0 7.59394 0 16.9615V53.0385C0 62.4061 7.59395 70 16.9615 70H53.0385C62.4061 70 70 62.4061 70 53.0385V16.9615C70 7.59394 62.4061 0 53.0385 0Z" fill="#9CC3E5"/>
<path d="M53.6195 26.8131C53.6195 16.021 44.7181 7.31279 33.8707 7.6164C23.8514 7.89241 15.502 16.2694 15.226 26.2887C14.881 39.5512 24.8865 38.8887 24.5829 52.3996C24.5691 53.1034 24.6243 53.8073 24.7623 54.5387C25.4937 58.3339 28.5161 60.2522 32.3113 61.0388C38.6596 62.3499 44.2488 58.7341 44.2488 52.6066C44.2488 52.5514 44.2488 52.4962 44.2488 52.441C44.028 39.6478 53.6195 39.1924 53.6195 26.7855V26.8131Z" fill="#F8F8F8"/>
<path d="M27.2463 30.6912C30.6965 35.7423 38.1489 35.7423 41.5991 30.6912" stroke="#0063C1" stroke-width="3" stroke-linecap="round" stroke-linejoin="round"/>
<path d="M34.4229 34.4865V56.195" stroke="#0063C1" stroke-width="3" stroke-linecap="round" stroke-linejoin="round"/>
<path d="M39.7363 62.3915H29.1235C22.8718 62.3915 24.4727 54.8563 24.5969 51.2129H44.2767C44.3871 54.6217 45.9604 62.3915 39.7363 62.3915Z" fill="#0063C1"/>
</svg>
