<?xml version="1.0" encoding="UTF-8"?>
<svg xmlns="http://www.w3.org/2000/svg" width="28" height="28" viewBox="0 0 28 28" fill="none">
  <rect width="28" height="28" rx="3.2768" fill="white"></rect>
  <path d="M20.5068 12.7517C16.9611 10.646 11.1124 10.4524 7.72754 11.4797C7.18384 11.6446 6.6091 11.3378 6.44448 10.7942C6.27977 10.2503 6.58625 9.67588 7.13015 9.51067C11.0159 8.33124 17.475 8.55901 21.557 10.9821C22.046 11.2724 22.2062 11.9038 21.9165 12.3918C21.6264 12.8808 20.9945 13.042 20.5067 12.7517M20.3907 15.8705C20.1419 16.2742 19.6141 16.4008 19.211 16.1529C16.255 14.3359 11.7473 13.8095 8.24997 14.8711C7.7965 15.008 7.31742 14.7525 7.1797 14.2997C7.11404 14.082 7.13738 13.8472 7.24458 13.6467C7.35178 13.4463 7.53411 13.2965 7.75158 13.2302C11.7467 12.0178 16.7133 12.6049 20.1085 14.6915C20.5117 14.9397 20.6385 15.4678 20.3907 15.8705ZM19.0447 18.8658C18.9978 18.9427 18.9363 19.0097 18.8635 19.0628C18.7907 19.1159 18.7082 19.1542 18.6206 19.1754C18.5331 19.1966 18.4422 19.2003 18.3532 19.1863C18.2642 19.1723 18.1788 19.1409 18.102 19.0939C15.5189 17.5152 12.2676 17.1587 8.43863 18.0333C8.35089 18.0534 8.26006 18.056 8.17133 18.0409C8.0826 18.0259 7.9977 17.9935 7.92148 17.9456C7.84527 17.8977 7.77923 17.8353 7.72714 17.7619C7.67505 17.6886 7.63793 17.6056 7.6179 17.5179C7.59772 17.4301 7.59506 17.3392 7.61006 17.2504C7.62507 17.1616 7.65744 17.0767 7.70533 17.0004C7.75322 16.9241 7.81568 16.8581 7.88914 16.806C7.9626 16.7539 8.04561 16.7168 8.13343 16.6969C12.3236 15.7391 15.9178 16.1513 18.8172 17.923C18.8941 17.9699 18.9609 18.0316 19.0139 18.1043C19.067 18.1771 19.1052 18.2597 19.1263 18.3472C19.1474 18.4348 19.1511 18.5256 19.1371 18.6146C19.1231 18.7036 19.0917 18.7889 19.0448 18.8658M13.9998 3C7.92497 3 3 7.92477 3 13.9998C3 20.0754 7.92497 25 13.9999 25C20.0751 25 25 20.0754 25 13.9998C25 7.92487 20.0752 3 13.9999 3" fill="#454444"></path>
</svg>
