<svg width="35" height="35" viewBox="0 0 35 35" fill="none" xmlns="http://www.w3.org/2000/svg">
<rect width="35" height="35" rx="4.096" fill="white"/>
<path d="M13.0467 27.5C22.1044 27.5 27.0577 19.807 27.0577 13.1338C27.0577 12.9141 27.0522 12.6972 27.044 12.4803C28.0055 11.7676 28.8407 10.8775 29.5 9.8662C28.6181 10.269 27.6676 10.5394 26.6731 10.6606C27.6896 10.0352 28.4698 9.04648 28.8379 7.86901C27.8874 8.44648 26.8324 8.86901 25.7115 9.09437C24.8132 8.11408 23.533 7.5 22.1181 7.5C19.3984 7.5 17.1923 9.76197 17.1923 12.5479C17.1923 12.9451 17.2363 13.3282 17.3214 13.7C13.228 13.4887 9.5989 11.4803 7.17033 8.42394C6.74725 9.17042 6.50275 10.038 6.50275 10.962C6.50275 12.7141 7.37088 14.2606 8.69505 15.1648C7.88736 15.1394 7.12912 14.9113 6.46429 14.5338C6.46429 14.5535 6.46429 14.5761 6.46429 14.5986C6.46429 17.0437 8.16209 19.0859 10.4148 19.5479C10 19.6634 9.56593 19.7254 9.11813 19.7254C8.8022 19.7254 8.49176 19.6944 8.19231 19.6352C8.81868 21.6408 10.6374 23.1 12.7912 23.1423C11.1044 24.4972 8.98352 25.3028 6.67582 25.3028C6.27747 25.3028 5.88736 25.2803 5.5 25.2324C7.67857 26.6634 10.2665 27.5 13.0467 27.5Z" fill="#454444"/>
</svg>
